<svg height="320pt" viewBox="0 0 320 320" width="320pt" xmlns="http://www.w3.org/2000/svg"><path d="m230 320c-49.699219 0-90-40.300781-90-90s40.300781-90 90-90 90 40.300781 90 90-40.300781 90-90 90zm0-140c-27.621094 0-50 22.378906-50 50s22.378906 50 50 50 50-22.378906 50-50-22.378906-50-50-50zm10 80h-20v-20h-20v-20h20v-20h20v20h20v20h-20zm17.078125-159.699219-27.078125-.300781c-71.679688 0-130 58.320312-130 130 0 3.378906.261719 6.679688.5 10h-20.5c-44.179688 0-80-35.820312-80-80v-20c0-44.179688 35.820312-80 80-80 7.601562 0 14.820312 1.398438 21.78125 3.378906 7.660156-36.199218 39.738281-63.378906 78.21875-63.378906 44.179688 0 80 35.820312 80 80 0 7.058594-1.21875 13.78125-2.921875 20.300781zm0 0"/></svg>