<svg height="320pt" viewBox="0 0 320 320" width="320pt" xmlns="http://www.w3.org/2000/svg"><path d="m260 320h-200c-33.121094 0-60-26.859375-60-60v-200c0-33.140625 26.878906-60 60-60h90.78125c-6.902344 11.921875-10.78125 25.578125-10.78125 40h-80c-11.058594 0-20 8.960938-20 20v200c0 11.058594 8.941406 20 20 20h200c11.058594 0 20-8.941406 20-20v-45l40-30v75c0 33.140625-26.859375 60-60 60zm-28-144c-3.519531 2.640625-7.761719 4-12 4-3.039062 0-6.121094-.699219-8.941406-2.101562-6.777344-3.398438-11.058594-10.320313-11.058594-17.898438v-20c-63.421875 0-116.921875 42.179688-134.121094 100-3.800781-12.699219-5.878906-26.101562-5.878906-40 0-77.320312 62.679688-140 140-140v-20c0-7.578125 4.28125-14.5 11.058594-17.898438 2.820312-1.402343 5.902344-2.101562 8.941406-2.101562 4.238281 0 8.480469 1.359375 12 4l80 60c5.039062 3.78125 8 9.699219 8 16s-2.960938 12.21875-8 16zm0 0"/></svg>