<svg height="320pt" viewBox="0 0 320 320" width="320pt" xmlns="http://www.w3.org/2000/svg"><path d="m160 80c22.078125 0 42.078125 8.960938 56.558594 23.441406 14.5 14.480469 23.441406 34.480469 23.441406 56.558594 0 26.238281-12.820312 49.339844-32.339844 63.898438 7.640625 10.082031 12.339844 22.5 12.339844 36.101562 0 33.121094-26.878906 60-60 60-33.140625 0-60-26.878906-60-60h40c0 11.058594 8.960938 20 20 20s20-8.941406 20-20-8.960938-20-20-20c-22.078125 0-42.078125-8.941406-56.578125-23.441406-14.460937-14.480469-23.421875-34.480469-23.421875-56.558594 0-26.238281 12.820312-49.320312 32.339844-63.921875-7.640625-10.058594-12.339844-22.457031-12.339844-36.078125 0-33.140625 26.859375-60 60-60 33.121094 0 60 26.859375 60 60h-40c0-11.039062-8.960938-20-20-20s-20 8.960938-20 20 8.960938 20 20 20zm-40 80c0 22.078125 17.921875 40 40 40s40-17.921875 40-40-17.921875-40-40-40-40 17.921875-40 40zm0 0"/></svg>