<svg height="320pt" viewBox="0 0 320 320" width="320pt" xmlns="http://www.w3.org/2000/svg"><path d="m60 320c-33.140625 0-60-26.859375-60-60v-75l40 30v45c0 11.058594 8.941406 20 20 20h200c11.058594 0 20-8.941406 20-20v-200c0-11.039062-8.941406-20-20-20h-80c0-14.421875-3.898438-28.078125-10.78125-40h90.78125c33.121094 0 60 26.878906 60 60v200c0 33.140625-26.878906 60-60 60zm28-144-80-60c-5.039062-3.78125-8-9.71875-8-16s2.960938-12.21875 8-16l80-60c3.519531-2.640625 7.761719-4 12-4 3.039062 0 6.121094.699219 8.941406 2.101562 6.777344 3.398438 11.058594 10.320313 11.058594 17.898438v20c77.320312 0 140 62.679688 140 140 0 13.898438-2.101562 27.320312-5.878906 40-17.199219-57.820312-70.722656-100-134.121094-100v20c0 7.578125-4.28125 14.5-11.058594 17.898438-2.820312 1.402343-5.902344 2.101562-8.941406 2.101562-4.238281 0-8.480469-1.359375-12-4zm0 0"/></svg>