<svg height="320pt" viewBox="0 0 320 320" width="320pt" xmlns="http://www.w3.org/2000/svg"><path d="m260 280h-180c-44.179688 0-80-35.820312-80-80v-20c0-44.179688 35.820312-80 80-80 7.601562 0 14.820312 1.398438 21.78125 3.378906 7.660156-36.199218 39.738281-63.378906 78.21875-63.378906 44.179688 0 80 35.820312 80 80 0 7.058594-1.21875 13.78125-2.921875 20.300781.980469-.0625 1.921875-.300781 2.921875-.300781 33.140625 0 60 26.878906 60 60v20c0 33.140625-26.859375 60-60 60zm-90-140c-27.621094 0-50 22.378906-50 50s22.378906 50 50 50 50-22.378906 50-50-22.378906-50-50-50zm10 80h-20v-20h-20v-20h20v-20h20v20h20v20h-20zm0 0"/></svg>