<svg height="320pt" viewBox="0 0 320 320" width="320pt" xmlns="http://www.w3.org/2000/svg"><path d="m260 320h-200c-33.140625 0-60-26.878906-60-60v-200c0-33.140625 26.859375-60 60-60h200c33.140625 0 60 26.859375 60 60v200c0 33.121094-26.859375 60-60 60zm20-260c0-11.039062-8.941406-20-20-20h-200c-11.058594 0-20 8.960938-20 20v200c0 11.058594 8.941406 20 20 20h200c11.058594 0 20-8.941406 20-20zm-60 160v30c0 5.519531-4.480469 10-10 10s-10-4.480469-10-10v-30c-11.058594 0-20-8.941406-20-20v-20c0-11.039062 8.941406-20 20-20v-90c0-5.519531 4.480469-10 10-10s10 4.480469 10 10v90c11.058594 0 20 8.960938 20 20v20c0 11.058594-8.941406 20-20 20zm-100-60v90c0 5.519531-4.480469 10-10 10s-10-4.480469-10-10v-90c-11.058594 0-20-8.960938-20-20v-20c0-11.039062 8.941406-20 20-20v-30c0-5.519531 4.480469-10 10-10s10 4.480469 10 10v30c11.058594 0 20 8.960938 20 20v20c0 11.039062-8.941406 20-20 20zm0 0"/></svg>