<svg height="320pt" viewBox="0 0 320 320" width="320pt" xmlns="http://www.w3.org/2000/svg"><path d="m160 320c-66.261719 0-120-53.71875-120-120 0-11.058594 8.960938-20 20-20s20 8.941406 20 20c0 44.179688 35.820312 80 80 80s80-35.820312 80-80c0-11.058594 8.941406-20 20-20s20 8.941406 20 20c0 66.28125-53.738281 120-120 120zm30-280c-5.5 0-10 4.480469-10 10s4.5 10 10 10h30v20h-30c-5.5 0-10 4.480469-10 10s4.5 10 10 10h30v20h-30c-5.5 0-10 4.480469-10 10s4.5 10 10 10h30v20h-30c-5.5 0-10 4.480469-10 10s4.5 10 10 10h30v20c0 33.121094-26.878906 60-60 60-33.140625 0-60-26.878906-60-60v-20h30c5.519531 0 10-4.480469 10-10s-4.480469-10-10-10h-30v-20h30c5.519531 0 10-4.480469 10-10s-4.480469-10-10-10h-30v-20h30c5.519531 0 10-4.480469 10-10s-4.480469-10-10-10h-30v-20h30c5.519531 0 10-4.480469 10-10s-4.480469-10-10-10h-26.320312c8.261718-23.261719 30.242187-40 56.320312-40 26.101562 0 48.058594 16.738281 56.320312 40zm0 0"/></svg>