<svg height="320pt" viewBox="0 0 320 320" width="320pt" xmlns="http://www.w3.org/2000/svg"><path d="m300 220c11.058594 0 20 8.941406 20 20s-8.941406 20-20 20h-3.679688c-.699218 1.960938-1.441406 3.859375-2.320312 5.71875l2.558594 2.5625c7.820312 7.820312 7.820312 20.457031 0 28.277344-7.820313 7.820312-20.457032 7.820312-28.277344 0l-2.5625-2.558594c-1.859375.878906-3.757812 1.621094-5.71875 2.320312v3.679688c0 11.058594-8.941406 20-20 20s-20-8.941406-20-20v-3.679688c-1.960938-.699218-3.859375-1.441406-5.71875-2.320312l-2.5625 2.558594c-7.820312 7.820312-20.457031 7.820312-28.277344 0-7.820312-7.820313-7.820312-20.457032 0-28.277344l2.558594-2.5625c-.878906-1.859375-1.621094-3.757812-2.320312-5.71875h-3.679688c-11.058594 0-20-8.941406-20-20s8.941406-20 20-20h3.679688c.699218-1.960938 1.441406-3.859375 2.320312-5.71875l-2.558594-2.5625c-7.820312-7.820312-7.820312-20.457031 0-28.277344 7.820313-7.820312 20.457032-7.820312 28.277344 0l2.5625 2.558594c1.859375-.878906 3.757812-1.621094 5.71875-2.320312v-3.679688c0-11.039062 8.941406-20 20-20s20 8.960938 20 20v3.679688c1.960938.699218 3.859375 1.441406 5.71875 2.320312l2.5625-2.558594c7.820312-7.820312 20.457031-7.820312 28.277344 0 7.820312 7.820313 7.820312 20.457032 0 28.277344l-2.558594 2.5625c.878906 1.859375 1.621094 3.757812 2.320312 5.71875zm-60-20c-22.078125 0-40 17.921875-40 40s17.921875 40 40 40 40-17.921875 40-40-17.921875-40-40-40zm-60-80h-2.839844c-1.859375 7.28125-4.761718 14.101562-8.480468 20.398438l2.039062 2.023437c7.820312 7.816406 7.820312 20.476563 0 28.277344-7.820312 7.820312-20.457031 7.820312-28.277344 0l-2.042968-2.019531c-6.296876 3.71875-13.117188 6.621093-20.398438 8.480468v2.839844c0 11.058594-8.960938 20-20 20s-20-8.941406-20-20v-2.839844c-7.28125-1.859375-14.101562-4.761718-20.398438-8.480468l-2.023437 2.019531c-7.816406 7.820312-20.476563 7.820312-28.296875 0-7.820312-7.800781-7.820312-20.460938 0-28.277344l2.039062-2.023437c-3.742187-6.296876-6.601562-13.117188-8.480468-20.398438h-2.839844c-11.039062 0-20-8.960938-20-20s8.960938-20 20-20h2.839844c1.878906-7.28125 4.761718-14.101562 8.480468-20.398438l-2.039062-2.023437c-7.820312-7.816406-7.820312-20.476563 0-28.296875s20.480469-7.820312 28.296875 0l2.023437 2.039062c6.296876-3.742187 13.117188-6.601562 20.398438-8.480468v-2.839844c0-11.039062 8.960938-20 20-20s20 8.960938 20 20v2.839844c7.28125 1.878906 14.101562 4.761718 20.398438 8.480468l2.023437-2.039062c7.816406-7.820312 20.457031-7.820312 28.277344 0 7.820312 7.820312 7.820312 20.480469 0 28.296875l-2.019531 2.023437c3.71875 6.296876 6.621093 13.117188 8.480468 20.398438h2.839844c11.058594 0 20 8.960938 20 20s-8.941406 20-20 20zm-80-60c-22.078125 0-40 17.921875-40 40s17.921875 40 40 40 40-17.921875 40-40-17.921875-40-40-40zm0 0"/></svg>