<svg height="320pt" viewBox="0 0 320 320" width="320pt" xmlns="http://www.w3.org/2000/svg"><path d="m240 200h-160c-11.058594 0-20 8.941406-20 20v80c0 11.058594 8.941406 20 20 20h160c11.058594 0 20-8.941406 20-20v-80c0-11.058594-8.941406-20-20-20zm40-196.320312v116.320312c0 11.039062-8.941406 20-20 20h-200c-11.058594 0-20-8.960938-20-20v-116.320312c-23.238281 8.261718-40 30.242187-40 56.320312v200c0 26.101562 16.761719 48.058594 40 56.320312v-116.320312c0-11.058594 8.941406-20 20-20h200c11.058594 0 20 8.941406 20 20v116.320312c23.238281-8.261718 40-30.242187 40-56.320312v-200c0-26.078125-16.761719-48.058594-40-56.320312zm-160 116.320312h120c11.058594 0 20-8.960938 20-20v-80c0-11.039062-8.941406-20-20-20h-120c-11.058594 0-20 8.960938-20 20v80c0 11.039062 8.941406 20 20 20zm80-80c0-11.039062 8.941406-20 20-20s20 8.960938 20 20v40c0 11.039062-8.941406 20-20 20s-20-8.960938-20-20zm0 0"/></svg>