<svg height="320pt" viewBox="0 0 320 320" width="320pt" xmlns="http://www.w3.org/2000/svg"><path d="m320 230c0 49.699219-40.300781 90-90 90h-170c-33.140625 0-60-26.859375-60-60v-200c0-33.140625 26.859375-60 60-60h80c26.078125 0 48.058594 16.738281 56.320312 40h63.679688c33.140625 0 60 26.859375 60 60zm-90.019531 50c27.640625 0 50.019531-22.378906 50.019531-50s-22.378906-50-50-50-50 22.378906-50 50 22.378906 50 49.980469 50zm30.019531-200h-100v-20c0-11.039062-8.960938-20-20-20h-80c-11.039062 0-20 8.960938-20 20v200c0 11.058594 8.960938 20 20 20h95.199219c-9.578125-14.300781-15.199219-31.480469-15.199219-50 0-49.699219 40.300781-90 90-90 18.519531 0 35.699219 5.621094 50 15.199219v-55.199219c0-11.039062-8.941406-20-20-20zm-40 120h20v20h20v20h-20v20h-20v-20h-20v-20h20zm0 0"/></svg>