<svg height="320pt" viewBox="0 0 320 320" width="320pt" xmlns="http://www.w3.org/2000/svg"><path d="m310.179688 105.21875c-16.160157-44.21875-51.160157-79.238281-95.417969-95.398438 10.398437-6.082031 22.316406-9.820312 35.238281-9.820312 38.679688 0 70 31.339844 70 70 0 12.921875-3.761719 24.839844-9.820312 35.21875zm-10.179688 54.78125c0 38.078125-15.320312 72.539062-40 97.78125v42.21875c0 11.058594-8.941406 20-20 20s-20-8.941406-20-20v-13.980469c-18.238281 8.699219-38.441406 13.980469-60 13.980469-21.578125 0-41.761719-5.28125-60-13.980469v13.980469c0 11.058594-8.960938 20-20 20s-20-8.941406-20-20v-42.21875c-24.679688-25.242188-40-59.703125-40-97.78125 0-77.320312 62.679688-140 140-140s140 62.679688 140 140zm-140-100c-55.21875 0-100 44.761719-100 100s44.78125 100 100 100c55.238281 0 100-44.761719 100-100s-44.761719-100-100-100zm40 120h-40c-11.039062 0-20-8.941406-20-20v-40c0-11.058594 8.960938-20 20-20 11.058594 0 20 8.941406 20 20v20h20c11.058594 0 20 8.941406 20 20s-8.941406 20-20 20zm-190.179688-74.78125c-6.082031-10.378906-9.820312-22.296875-9.820312-35.21875 0-38.660156 31.339844-70 70-70 12.921875 0 24.839844 3.738281 35.21875 9.820312-44.238281 16.160157-79.238281 51.179688-95.398438 95.398438zm0 0"/></svg>