<svg height="320pt" viewBox="0 0 320 320" width="320pt" xmlns="http://www.w3.org/2000/svg"><path d="m260 80c33.140625 0 60 26.878906 60 60v80c0 33.140625-26.859375 60-60 60h-200c-33.140625 0-60-26.859375-60-60v-80c0-33.121094 26.859375-60 60-60h80v-19.980469c0-8.078125 4.878906-15.398437 12.339844-18.480469 7.480468-3.097656 16.082031-1.398437 21.800781 4.339844l40 39.980469c3.898437 3.902344 5.859375 9.019531 5.859375 14.140625s-1.960938 10.238281-5.859375 14.140625l-40 40c-5.699219 5.71875-14.320313 7.417969-21.800781 4.339844-7.460938-3.082031-12.339844-10.402344-12.339844-18.480469v-20h-80c-11.039062 0-20 8.941406-20 20v80c0 11.058594 8.960938 20 20 20h200c11.058594 0 20-8.941406 20-20v-80c0-11.058594-8.941406-20-20-20h-3.640625c2.261719-6.359375 3.640625-13.039062 3.640625-20s-1.378906-13.640625-3.640625-20zm0 0"/></svg>