<svg height="320pt" viewBox="0 0 320 320" width="320pt" xmlns="http://www.w3.org/2000/svg"><path d="m280 320h-200c-11.039062 0-20-8.941406-20-20v-20c11.039062 0 20-8.941406 20-20v-20c0-11.039062-8.960938-20-20-20v-120c11.039062 0 20-8.960938 20-20v-20c0-11.039062-8.960938-20-20-20v-20c0-11.039062 8.960938-20 20-20h200c11.058594 0 20 8.960938 20 20v280c0 11.058594-8.941406 20-20 20zm-20-160c0-44.179688-35.820312-80-80-80s-80 35.820312-80 80 35.820312 80 80 80h10c5.519531 0 10-4.480469 10-10s-4.480469-10-10-10h-10c-33.121094 0-60-26.859375-60-60s26.878906-60 60-60c33.140625 0 60 26.859375 60 60v30c0 5.519531-4.480469 10-10 10s-10-4.480469-10-10v-30c0-22.078125-17.921875-40-40-40s-40 17.921875-40 40 17.921875 40 40 40c7.5 0 14.441406-2.179688 20.421875-5.78125 2.078125 14.542969 14.457031 25.78125 29.578125 25.78125 16.558594 0 30-13.441406 30-30zm-80 20c-11.058594 0-20-8.941406-20-20s8.941406-20 20-20 20 8.941406 20 20-8.941406 20-20 20zm-130-100h-20c-5.519531 0-10-4.480469-10-10s4.480469-10 10-10h20c5.519531 0 10 4.480469 10 10s-4.480469 10-10 10zm-30-60c0-11.039062 8.960938-20 20-20v40h-20zm20 200h-20v-120h20zm-10 20h20c5.519531 0 10 4.480469 10 10s-4.480469 10-10 10h-20c-5.519531 0-10-4.480469-10-10s4.480469-10 10-10zm10 80c-11.039062 0-20-8.941406-20-20v-20h20zm0 0"/></svg>