<svg height="320pt" viewBox="0 0 320 320" width="320pt" xmlns="http://www.w3.org/2000/svg"><path d="m180 220c-16.980469 0-32.660156-5.378906-45.601562-14.398438l-54.398438 54.398438h-20v-20l180-180-136.761719 101.941406c-2-7-3.238281-14.300781-3.238281-21.941406 0-44.179688 155.820312-140 200-140 20 0 20 0 20 20 0 44.179688-95.820312 200-140 200zm100-33.058594c14.679688-19.140625 28.28125-40.121094 40-61.042968v134.101562c0 33.140625-26.859375 60-60 60h-200c-33.140625 0-60-26.859375-60-60v-200c0-33.140625 26.859375-60 60-60h134.101562c-20.921874 11.71875-41.902343 25.320312-61.042968 40h-73.058594c-11.058594 0-20 8.941406-20 20v200c0 11.058594 8.941406 20 20 20h200c11.058594 0 20-8.941406 20-20zm0 0"/></svg>