<svg height="320pt" viewBox="0 0 320 320" width="320pt" xmlns="http://www.w3.org/2000/svg"><path d="m298.480469 172.339844c3.097656 7.480468 1.378906 16.082031-4.339844 21.800781l-40 40c-3.902344 3.898437-9.019531 5.859375-14.140625 5.859375s-10.238281-1.960938-14.140625-5.859375l-40-40c-5.71875-5.71875-7.417969-14.320313-4.339844-21.800781 3.082031-7.460938 10.402344-12.339844 18.480469-12.339844h20c0-44.179688-35.820312-80-80-80s-80 35.820312-80 80 35.820312 80 80 80c10.421875 0 20.28125-2.121094 29.421875-5.738281l30.15625 29.796875c-17.558594 10.082031-37.878906 15.941406-59.578125 15.941406-66.261719 0-120-53.738281-120-120s53.738281-120 120-120 120 53.738281 120 120h20c8.078125 0 15.398438 4.878906 18.480469 12.339844zm0 0"/></svg>