<svg height="320pt" viewBox="0 0 320 320" width="320pt" xmlns="http://www.w3.org/2000/svg"><path d="m100 160h20v-20h-20zm-20-80v20h20v-20zm0 100h20v-20h-20zm60-60h-20v20h20zm120-120h-200c-33.140625 0-60 26.859375-60 60v200c0 33.121094 26.859375 60 60 60h200c33.121094 0 60-26.878906 60-60v-200c0-33.140625-26.878906-60-60-60zm20 260c0 11.058594-8.941406 20-20 20h-200c-11.039062 0-20-8.941406-20-20v-200c0-11.039062 8.960938-20 20-20h200c11.058594 0 20 8.960938 20 20zm-180-160v20h20v-20zm40 80h60v-20h-60zm0 0"/></svg>