<svg height="320pt" viewBox="0 0 320 320" width="320pt" xmlns="http://www.w3.org/2000/svg"><path d="m160 320c88.359375 0 160-71.640625 160-160s-71.640625-160-160-160-160 71.640625-160 160 71.640625 160 160 160zm0-280c66.261719 0 120 53.738281 120 120 0 66.28125-53.738281 120-120 120s-120-53.71875-120-120c0-66.261719 53.738281-120 120-120zm-80 120c0-44.179688 35.820312-80 80-80v-20c-55.238281 0-100 44.78125-100 100zm20 0c0 33.121094 26.859375 60 60 60s60-26.878906 60-60c0-33.140625-26.859375-60-60-60s-60 26.859375-60 60zm60-20c11.058594 0 20 8.960938 20 20s-8.941406 20-20 20-20-8.960938-20-20 8.941406-20 20-20zm0 100v20c55.238281 0 100-44.761719 100-100h-20c0 44.179688-35.820312 80-80 80zm0 0"/></svg>