<svg height="320pt" viewBox="0 0 320 320" width="320pt" xmlns="http://www.w3.org/2000/svg"><path d="m160 0c-88.359375 0-160 71.640625-160 160s71.640625 160 160 160 160-71.640625 160-160-71.640625-160-160-160zm0 280c-66.261719 0-120-53.738281-120-120s53.738281-120 120-120 120 53.738281 120 120-53.738281 120-120 120zm29.398438-160.441406-29.398438-59.539063-29.378906 59.539063-65.722656 9.5625 47.5625 46.339844-11.242188 65.417968 58.78125-30.878906 58.761719 30.898438-11.222657-65.417969 47.539063-46.339844zm0 0"/></svg>