<svg height="320pt" viewBox="0 0 320 320" width="320pt" xmlns="http://www.w3.org/2000/svg"><path d="m318.480469 152.339844c-3.082031-7.460938-10.402344-12.339844-18.480469-12.339844h-20v-40c0-33.140625-26.859375-60-60-60h-40v-20.019531c0-8.082031-4.878906-15.402344-12.339844-18.480469-7.480468-3.078125-16.082031-1.359375-21.800781 4.339844l-40 40c-3.898437 3.898437-5.859375 9.019531-5.859375 14.140625 0 5.121093 1.960938 10.238281 5.859375 14.140625l40 40c5.71875 5.71875 14.320313 7.417968 21.800781 4.339844 7.460938-3.082032 12.339844-10.402344 12.339844-18.480469v-19.980469h40c11.058594 0 20 8.960938 20 20v40h-20c-8.078125 0-15.398438 4.878906-18.480469 12.339844-3.078125 7.480468-1.359375 16.082031 4.339844 21.800781l40 40c3.902344 3.898437 9.019531 5.859375 14.140625 5.859375s10.238281-1.960938 14.140625-5.859375l40-40c5.71875-5.71875 7.417969-14.320313 4.339844-21.800781zm-158.480469 47.660156c11.058594 0 20 8.941406 20 20v80c0 11.058594-8.941406 20-20 20h-80c-11.039062 0-20-8.941406-20-20v-20h80v-80zm-40 40v-80c0-11.039062-8.960938-20-20-20h-80c-11.039062 0-20 8.960938-20 20v80c0 11.058594 8.960938 20 20 20h80c11.039062 0 20-8.941406 20-20zm-40-20h-40v-40h40zm0 0"/></svg>