<svg height="320pt" viewBox="0 0 320 320" width="320pt" xmlns="http://www.w3.org/2000/svg"><path d="m210 320c-49.699219 0-90-40.300781-90-90s40.300781-90 90-90 90 40.300781 90 90-40.300781 90-90 90zm0-140c-27.621094 0-50 22.378906-50 50s22.378906 50 50 50 50-22.378906 50-50-22.378906-50-50-50zm-30 60v-20h60v20zm80-133.761719v26.28125c-3-1.539062-5.898438-3.199219-9.058594-4.480469 5.777344-6.4375 9.058594-13.71875 9.058594-21.800781zm-33.820312 15.382813c-5.320313-.78125-10.640626-1.621094-16.179688-1.621094-23.261719 0-44.738281 7.300781-62.519531 19.621094-2.519531.078125-4.921875.378906-7.480469.378906-66.261719 0-120-26.859375-120-60v-20c0-33.140625 53.738281-60 120-60s120 26.859375 120 60v20c0 16.199219-12.960938 30.839844-33.820312 41.621094zm-99.941407 37.839844c-9.238281 10.980468-16.277343 23.679687-20.699219 37.71875-49.339843-7.441407-85.539062-30.078126-85.539062-57.179688v-33.761719c0 30.800781 46.519531 50.542969 106.238281 53.222657zm-24.957031 57.777343c-.5 4.242188-1.28125 8.382813-1.28125 12.761719 0 9.339844 1.519531 18.238281 3.71875 26.898438-48.417969-7.71875-83.71875-30.117188-83.71875-56.898438v-33.761719c0 26.339844 34.121094 44.542969 81.28125 51zm10.480469 61.320313c8.136719 16.421875 20.019531 30.582031 34.859375 41.121094-2.222656.039062-4.359375.320312-6.621094.320312-66.261719 0-120-26.859375-120-60v-33.761719c0 28.261719 39.179688 47.28125 91.761719 52.320313zm0 0"/></svg>