<svg height="320pt" viewBox="0 0 320 320" width="320pt" xmlns="http://www.w3.org/2000/svg"><path d="m310.660156 268.238281-70.300781-70.296875c12.242187-19.820312 19.640625-42.941406 19.640625-67.941406 0-71.800781-58.199219-130-130-130s-130 58.199219-130 130 58.199219 130 130 130c25 0 48.121094-7.398438 67.921875-19.621094l70.316406 70.300782c11.722657 11.71875 30.703125 11.71875 42.421875 0s11.71875-30.71875 0-42.441407zm-180.660156-48.238281c-49.699219 0-90-40.300781-90-90s40.300781-90 90-90 90 40.300781 90 90-40.300781 90-90 90zm0 0"/></svg>