<svg height="320pt" viewBox="0 0 320 320" width="320pt" xmlns="http://www.w3.org/2000/svg"><path d="m309.441406 257.640625c-6.5 3.480469-14.402344 3.097656-20.519531-1l-120-80c-5.582031-3.71875-8.921875-9.960937-8.921875-16.640625 0-6.699219 3.339844-12.921875 8.898438-16.640625l120-80c6.140624-4.078125 14.023437-4.480469 20.523437-1s10.578125 10.261719 10.578125 17.640625v160c0 7.378906-4.058594 14.140625-10.558594 17.640625zm-160 0c-6.5 3.480469-14.402344 3.097656-20.519531-1l-120-80c-5.582031-3.71875-8.921875-9.960937-8.921875-16.640625 0-6.699219 3.339844-12.921875 8.898438-16.640625l120-80c6.140624-4.078125 14.023437-4.480469 20.523437-1s10.578125 10.261719 10.578125 17.640625v160c0 7.378906-4.058594 14.140625-10.558594 17.640625zm0 0"/></svg>