<svg height="320pt" viewBox="0 0 320 320" width="320pt" xmlns="http://www.w3.org/2000/svg"><path d="m160 0c-88.359375 0-160 71.640625-160 160s71.640625 160 160 160 160-71.640625 160-160-71.640625-160-160-160zm0 40c66.261719 0 120 53.738281 120 120s-53.738281 120-120 120-120-53.738281-120-120 53.738281-120 120-120zm74.160156 105.859375c3.898438 3.902344 5.859375 9.019531 5.859375 14.140625s-1.960937 10.238281-5.859375 14.140625l-40 40c-5.71875 5.71875-14.339844 7.417969-21.820312 4.339844-7.460938-3.082031-12.339844-10.402344-12.339844-18.480469v-20h-60c-11.058594 0-20-8.941406-20-20s8.941406-20 20-20h60v-20c0-8.078125 4.878906-15.398438 12.339844-18.480469 7.5-3.078125 16.101562-1.359375 21.820312 4.339844zm0 0"/></svg>