<svg height="320pt" viewBox="0 0 320 320" width="320pt" xmlns="http://www.w3.org/2000/svg"><path d="m320 200c0 22.078125-17.921875 40-40 40 22.078125 0 40 17.921875 40 40s-17.921875 40-40 40-40-17.921875-40-40c0 22.078125-17.921875 40-40 40s-40-17.921875-40-40c0 22.078125-17.921875 40-40 40s-40-17.921875-40-40c0 22.078125-17.921875 40-40 40s-40-17.921875-40-40 17.921875-40 40-40c-22.078125 0-40-17.921875-40-40s17.921875-40 40-40c-22.078125 0-40-17.921875-40-40s17.921875-40 40-40c-22.078125 0-40-17.921875-40-40s17.921875-40 40-40 40 17.921875 40 40c0-22.078125 17.921875-40 40-40s40 17.921875 40 40c0-22.078125 17.921875-40 40-40s40 17.921875 40 40c0-22.078125 17.921875-40 40-40s40 17.921875 40 40-17.921875 40-40 40c22.078125 0 40 17.921875 40 40s-17.921875 40-40 40c22.078125 0 40 17.921875 40 40zm-60-140h-200v200h200zm-100 20c44.179688 0 80 35.820312 80 80v30c0 16.558594-13.441406 30-30 30-15.121094 0-27.5-11.238281-29.578125-25.78125-5.980469 3.601562-12.921875 5.78125-20.421875 5.78125-22.078125 0-40-17.921875-40-40s17.921875-40 40-40 40 17.921875 40 40v30c0 5.519531 4.480469 10 10 10s10-4.480469 10-10v-30c0-33.140625-26.859375-60-60-60-33.121094 0-60 26.859375-60 60s26.878906 60 60 60h10c5.519531 0 10 4.480469 10 10s-4.480469 10-10 10h-10c-44.179688 0-80-35.820312-80-80s35.820312-80 80-80zm0 60c-11.058594 0-20 8.941406-20 20s8.941406 20 20 20 20-8.941406 20-20-8.941406-20-20-20zm0 0"/></svg>