<svg height="320pt" viewBox="0 0 320 320" width="320pt" xmlns="http://www.w3.org/2000/svg"><path d="m260 0c33.140625 0 60 26.859375 60 60v200c0 33.140625-26.859375 60-60 60h-200c-33.140625 0-60-26.859375-60-60v-35.179688l17.578125 17.578126c6.421875 6.421874 14.101563 11 22.421875 13.941406v3.660156c0 11.058594 8.960938 20 20 20h200c11.058594 0 20-8.941406 20-20v-200c0-11.039062-8.941406-20-20-20h-200c-11.039062 0-20 8.960938-20 20v3.640625c-8.300781 2.9375-15.980469 7.5-22.421875 13.917969l-17.578125 17.582031v-35.140625c0-33.140625 26.859375-60 60-60zm-192.339844 101.5c7.460938 3.078125 12.339844 10.398438 12.339844 18.480469v20.019531h60c11.058594 0 20 8.960938 20 20 0 11.058594-8.941406 20-20 20h-60v19.980469c0 8.078125-4.878906 15.398437-12.339844 18.480469-7.480468 3.078124-16.082031 1.359374-21.800781-4.339844l-40-40c-3.898437-3.902344-5.859375-9.019532-5.859375-14.140625 0-5.121094 1.960938-10.242188 5.859375-14.140625l40-40c5.71875-5.71875 14.320313-7.417969 21.800781-4.339844zm0 0"/></svg>