<svg height="320pt" viewBox="0 0 320 320" width="320pt" xmlns="http://www.w3.org/2000/svg"><path d="m260 260h-60l-40 60-40-60h-60c-33.140625 0-60-26.878906-60-60v-140c0-33.140625 26.859375-60 60-60h200c33.121094 0 60 26.859375 60 60v140c0 33.121094-26.878906 60-60 60zm20-200c0-11.039062-8.941406-20-20-20h-200c-11.039062 0-20 8.960938-20 20v140c0 11.058594 8.960938 20 20 20h73.320312l26.679688 40 26.679688-40h73.320312c11.058594 0 20-8.941406 20-20zm-200 60h160v20h-160zm0-40h160v20h-160zm80 100h-80v-20h80zm0 0"/></svg>