<svg height="320pt" viewBox="0 0 320 320" width="320pt" xmlns="http://www.w3.org/2000/svg"><path d="m60 200h20v20c0 11.058594 8.960938 20 20 20h120c11.058594 0 20-8.941406 20-20v-20h20v-20h-200zm40 0h120v20h-120zm-40-100h60v20c0 11.058594 8.960938 20 20 20h40c11.058594 0 20-8.941406 20-20v-20h60v-20h-200zm80 0h40v20h-40zm120-100h-200c-33.140625 0-60 26.859375-60 60v200c0 33.140625 26.859375 60 60 60h200c33.121094 0 60-26.859375 60-60v-200c0-33.140625-26.878906-60-60-60zm20 260c0 11.058594-8.941406 20-20 20h-200c-11.039062 0-20-8.941406-20-20v-200c0-11.058594 8.960938-20 20-20h200c11.058594 0 20 8.941406 20 20zm0 0"/></svg>