<svg height="320pt" viewBox="0 0 320 320" width="320pt" xmlns="http://www.w3.org/2000/svg"><path d="m260 320h-35.121094l17.601563-17.621094c6.441406-6.480468 11.199219-14.140625 14.097656-22.378906h3.421875c11.058594 0 20-8.941406 20-20v-140h-240v140c0 11.058594 8.960938 20 20 20h3.398438c2.921874 8.28125 7.679687 15.980469 14.160156 22.460938l17.582031 17.539062h-35.140625c-33.140625 0-60-26.878906-60-60v-200c0-33.140625 26.859375-60 60-60h200c33.140625 0 60 26.859375 60 60v200c0 33.121094-26.859375 60-60 60zm20-260c0-11.039062-8.941406-20-20-20h-200c-11.039062 0-20 8.960938-20 20v40h240zm-200 20h-20v-20h20zm40 0h-20v-20h20zm140 0h-120v-20h120zm-140 160h20v-60c0-11.039062 8.960938-20 20-20 11.058594 0 20 8.941406 20 20v60h20c8.078125 0 15.398438 4.878906 18.480469 12.339844 3.078125 7.5 1.359375 16.101562-4.339844 21.800781l-40 40c-3.902344 3.898437-9.019531 5.898437-14.140625 5.898437s-10.238281-2-14.140625-5.898437l-40-40c-5.71875-5.699219-7.417969-14.339844-4.339844-21.800781 3.082031-7.460938 10.402344-12.339844 18.480469-12.339844zm0 0"/></svg>