<svg height="320pt" viewBox="0 0 320 320" width="320pt" xmlns="http://www.w3.org/2000/svg"><path d="m160 320c-88.359375 0-160-71.640625-160-160s71.640625-160 160-160 160 71.640625 160 160-71.640625 160-160 160zm0-280c-66.261719 0-120 53.738281-120 120s53.738281 120 120 120 120-53.738281 120-120-53.738281-120-120-120zm56.558594 176.558594c-7.820313 7.820312-20.457032 7.820312-28.277344 0l-28.28125-28.277344-28.28125 28.277344c-7.820312 7.820312-20.480469 7.820312-28.296875 0-7.820313-7.820313-7.820313-20.457032 0-28.277344l28.296875-28.28125-28.296875-28.28125c-7.820313-7.820312-7.820313-20.480469 0-28.296875 7.816406-7.820313 20.476563-7.820313 28.296875 0l28.28125 28.296875 28.28125-28.296875c7.820312-7.820313 20.457031-7.820313 28.277344 0 7.820312 7.816406 7.820312 20.476563 0 28.296875l-28.277344 28.28125 28.277344 28.28125c7.820312 7.820312 7.820312 20.480469 0 28.277344zm0 0"/></svg>