<svg height="320pt" viewBox="0 0 320 320" width="320pt" xmlns="http://www.w3.org/2000/svg"><path d="m280 140c-22.078125 0-40-17.921875-40-40 0 22.078125-17.921875 40-40 40s-40-17.921875-40-40c0 22.078125-17.921875 40-40 40s-40-17.921875-40-40c0 22.078125-17.921875 40-40 40s-40-17.921875-40-40l40-100h240l40 100c0 22.078125-17.921875 40-40 40zm-240 140v-120c15.441406 0 29.359375-6 40-15.558594v135.558594zm240-120v120h-40v-135.558594c10.621094 9.558594 24.578125 15.558594 40 15.558594zm-200 160h20v-40h120v40h20v-20h60v20h-280v-20h60zm0 0"/></svg>