<svg height="320pt" viewBox="0 0 320 320" width="320pt" xmlns="http://www.w3.org/2000/svg"><path d="m280 280h-3.679688c-8.261718 23.238281-30.242187 40-56.320312 40h-160c-33.140625 0-60-26.859375-60-60v-200c0-33.140625 26.859375-60 60-60h160c33.140625 0 60 26.859375 60 60v80c22.078125 0 40 17.921875 40 40v60c0 22.078125-17.921875 40-40 40zm-100 0h40c11.058594 0 20-8.941406 20-20h-60zm-140-20c0 11.058594 8.960938 20 20 20h80v-20h-20c-22.078125 0-40-17.921875-40-40v-20c0-22.078125 17.921875-40 40-40h20v-20h-100zm120-160c11.058594 0 20 8.941406 20 20v40h20v-80h-120v20zm80 40v-80c0-11.058594-8.941406-20-20-20h-160c-11.039062 0-20 8.941406-20 20v40h20v-40h160v100h20zm40 60c0-11.058594-8.941406-20-20-20h-140c-11.039062 0-20 8.941406-20 20v20c0 11.058594 8.960938 20 20 20h140c11.058594 0 20-8.941406 20-20zm0 0"/></svg>