<svg height="320pt" viewBox="0 0 320 320" width="320pt" xmlns="http://www.w3.org/2000/svg"><path d="m260 320h-200c-33.140625 0-60-26.859375-60-60v-200c0-33.140625 26.859375-60 60-60h200c33.140625 0 60 26.859375 60 60v200c0 33.140625-26.859375 60-60 60zm20-260c0-11.039062-8.941406-20-20-20h-200c-11.039062 0-20 8.960938-20 20v40h240zm0 60h-240v140c0 11.058594 8.960938 20 20 20h200c11.058594 0 20-8.941406 20-20zm-80 100h-20v20c0 11.058594-8.941406 20-20 20-11.039062 0-20-8.941406-20-20v-20h-20c-11.039062 0-20-8.941406-20-20s8.960938-20 20-20h20v-20c0-11.039062 8.960938-20 20-20 11.058594 0 20 8.960938 20 20v20h20c11.058594 0 20 8.941406 20 20s-8.941406 20-20 20zm-120-140h-20v-20h20zm40 0h-20v-20h20zm140 0h-120v-20h120zm0 0"/></svg>