<svg height="320pt" viewBox="0 0 320 320" width="320pt" xmlns="http://www.w3.org/2000/svg"><path d="m320 180v-60h-20c0-33.140625-26.859375-60-60-60h-63.898438l3.859376-19.039062-13.980469 19.039062h-105.980469c-33.140625 0-60 26.859375-60 60v80c0 33.140625 26.859375 60 60 60h82.378906l-4.398437 20.300781 14.878906-20.300781h87.140625c33.140625 0 60-26.859375 60-60h20zm-260-80h76.660156l-58.160156 79.339844h81.398438l-8.820313 40.660156h-91.078125c-11.058594 0-20-8.941406-20-20v-80c0-11.039062 8.941406-20 20-20zm200 20v80c0 11.058594-8.941406 20-20 20h-57.839844l58.71875-80.140625h-80.980468l8.082031-39.859375h72.019531c11.058594 0 20 8.960938 20 20zm0 0"/></svg>