<svg height="320pt" viewBox="0 0 320 320" width="320pt" xmlns="http://www.w3.org/2000/svg"><path d="m260 40c33.140625 0 60 26.859375 60 60v80c0 33.140625-26.859375 60-60 60h-180v20c0 8.078125-4.878906 15.398438-12.339844 18.480469-7.480468 3.078125-16.082031 1.359375-21.800781-4.339844l-40-40c-3.898437-3.902344-5.859375-9.019531-5.859375-14.140625s1.960938-10.238281 5.859375-14.140625l40-40c5.71875-5.71875 14.320313-7.417969 21.800781-4.339844 7.460938 3.082031 12.339844 10.402344 12.339844 18.480469v20h180c11.058594 0 20-8.941406 20-20v-80c0-11.039062-8.941406-20-20-20h-160c-11.039062 0-20-8.960938-20-20s8.960938-20 20-20zm0 0"/></svg>