<svg height="320pt" viewBox="0 0 320 320" width="320pt" xmlns="http://www.w3.org/2000/svg"><path d="m160 320c-88.359375 0-160-71.640625-160-160s71.640625-160 160-160 160 71.640625 160 160-71.640625 160-160 160zm0-40c58.78125 0 107.480469-42.320312 117.800781-98.101562-39.242187 30.640624-95.839843 28.339843-131.941406-7.757813-23.4375-23.441406-61.417969-23.441406-84.859375 0-6.859375 6.878906-11.480469 15.058594-14.320312 23.71875 15.921874 47.601563 60.359374 82.140625 113.320312 82.140625zm0-240c-58.78125 0-107.480469 42.320312-117.800781 98.101562 39.242187-30.640624 95.839843-28.339843 131.941406 7.757813 23.4375 23.441406 61.417969 23.441406 84.839844 0 6.878906-6.878906 11.480469-15.058594 14.339843-23.71875-15.921874-47.582031-60.359374-82.140625-113.320312-82.140625zm0 0"/></svg>