<svg height="320pt" viewBox="0 0 320 320" width="320pt" xmlns="http://www.w3.org/2000/svg"><path d="m209.71875 186.28125c-3.160156 4.4375-6.457031 8.679688-9.980469 12.4375.023438.460938.261719.839844.261719 1.28125v40c0 11.058594-8.941406 20-20 20h-40c-11.058594 0-20-8.941406-20-20v-40c0-.441406.238281-.820312.261719-1.261719-3.523438-3.757812-6.820313-8-9.980469-12.4375-29.902344-17.300781-50.28125-49.261719-50.28125-86.300781 0-55.238281 44.761719-100 100-100s100 44.761719 100 100c0 37.039062-20.378906 69-50.28125 86.28125zm-59.71875 93.71875h20c5.519531 0 10 4.480469 10 10s-4.480469 10-10 10h-20c-5.519531 0-10-4.480469-10-10s4.480469-10 10-10zm0 0"/></svg>