<svg height="320pt" viewBox="0 0 320 320" width="320pt" xmlns="http://www.w3.org/2000/svg"><path d="m320 160c0-88.359375-71.640625-160-160-160s-160 71.640625-160 160 71.640625 160 160 160h20c11.019531 0 20-8.980469 20-20s-8.980469-20-20-20h-20c-66.238281 0-120-53.71875-120-120s53.761719-120 120-120c66.28125 0 120 53.71875 120 120v60c0 11.019531-8.980469 20-20 20s-20-8.980469-20-20v-60c0-44.160156-35.859375-80-80-80-44.160156 0-80 35.839844-80 80 0 44.140625 35.839844 80 80 80 15 0 28.898438-4.378906 40.859375-11.558594 4.140625 29.058594 28.902344 51.558594 59.140625 51.558594 33.121094 0 60-26.878906 60-60zm-160 40c-22.121094 0-40-17.898438-40-40 0-22.121094 17.878906-40 40-40 22.101562 0 40 17.878906 40 40 0 22.101562-17.898438 40-40 40zm0 0"/></svg>