<svg height="320pt" viewBox="0 0 320 320" width="320pt" xmlns="http://www.w3.org/2000/svg"><path d="m60 320h200c33.140625 0 60-26.859375 60-60v-200c0-33.140625-26.859375-60-60-60h-200c-33.140625 0-60 26.859375-60 60v200c0 33.140625 26.859375 60 60 60zm-20-260c0-11.058594 8.941406-20 20-20h200c11.058594 0 20 8.941406 20 20v200c0 11.058594-8.941406 20-20 20h-200c-11.058594 0-20-8.941406-20-20zm60 140h20v60h20v-200h-20v60h-20c-11.058594 0-20 8.960938-20 20v40c0 11.058594 8.941406 20 20 20zm0-60h20v40h-20zm100 100h20v20h20v-200h-20v20h-20c-11.058594 0-20 8.941406-20 20v120c0 11.058594 8.941406 20 20 20zm0-140h20v120h-20zm0 0"/></svg>