<svg height="320pt" viewBox="0 0 320 320" width="320pt" xmlns="http://www.w3.org/2000/svg"><path d="m240 298.421875v-18.421875c0-9.539062-1.960938-18.539062-5-27.019531 27.21875-21.980469 45-55.242188 45-92.980469 0-66.261719-53.738281-120-120-120s-120 53.738281-120 120c0 37.738281 17.78125 71 45 92.980469-3.039062 8.480469-5 17.480469-5 27.019531v18.421875c-47.78125-27.683594-80-79.242187-80-138.421875 0-88.359375 71.640625-160 160-160s160 71.640625 160 160c0 59.179688-32.21875 110.738281-80 138.421875zm-80-238.421875c55.238281 0 100 44.761719 100 100 0 29.878906-13.359375 56.378906-34.121094 74.699219-7.757812-11.238281-18.417968-20.179688-30.757812-26.238281 15.019531-10.921876 24.878906-28.480469 24.878906-48.460938 0-33.140625-26.859375-60-60-60s-60 26.859375-60 60c0 19.980469 9.859375 37.539062 24.878906 48.460938-12.339844 6.078124-23 15-30.757812 26.238281-20.761719-18.320313-34.121094-44.820313-34.121094-74.699219 0-55.238281 44.761719-100 100-100zm-40 100c0-22.078125 17.921875-40 40-40s40 17.921875 40 40-17.921875 40-40 40-40-17.921875-40-40zm40 60c33.140625 0 60 26.859375 60 60v40h-120v-40c0-33.140625 26.859375-60 60-60zm0 0"/></svg>