<svg height="320pt" viewBox="0 0 320 320" width="320pt" xmlns="http://www.w3.org/2000/svg"><path d="m260 320h-200c-33.140625 0-60-26.859375-60-60v-60l80-80h20v40h-3.421875l-56.578125 60h60v20c0 11.058594 8.960938 20 20 20h80c11.058594 0 20-8.941406 20-20v-20h60l-56.558594-60h-3.441406v-40h20l80 80v60c0 33.140625-26.859375 60-60 60zm-60-240h-20v60c0 11.039062-8.941406 20-20 20-11.039062 0-20-8.960938-20-20v-60h-20c-8.078125 0-15.398438-4.878906-18.480469-12.339844-3.078125-7.480468-1.359375-16.082031 4.339844-21.800781l40-40c3.902344-3.898437 9.019531-5.859375 14.140625-5.859375s10.238281 1.960938 14.140625 5.859375l40 40c5.71875 5.71875 7.417969 14.320313 4.339844 21.800781-3.082031 7.460938-10.402344 12.339844-18.480469 12.339844zm0 0"/></svg>