<svg height="320pt" viewBox="0 0 320 320" width="320pt" xmlns="http://www.w3.org/2000/svg"><path d="m60 260 40-60h120l40 60zm60-180c-8.078125 0-15.398438-4.878906-18.480469-12.339844-.757812-1.878906-1.238281-3.820312-1.417969-5.761718-.5625-5.859376 1.457032-11.757813 5.757813-16.058594l40-40c3.902344-3.898438 9.019531-5.8593752 14.140625-5.8593752s10.238281 1.9609372 14.140625 5.8593752l40 40c4.28125 4.300781 6.300781 10.21875 5.757813 16.058594-.179688 1.941406-.636719 3.882812-1.417969 5.761718-3.082031 7.460938-10.402344 12.339844-18.480469 12.339844h-20v60c0 11.058594-8.941406 20-20 20-11.039062 0-20-8.941406-20-20v-60zm140-80c33.140625 0 60 26.859375 60 60v200c0 33.140625-26.859375 60-60 60h-200c-33.140625 0-60-26.859375-60-60v-200c0-33.140625 26.859375-60 60-60h35.140625l-17.582031 17.558594c-6.480469 6.480468-11.238282 14.160156-14.160156 22.441406h-3.398438c-11.039062 0-20 8.960938-20 20v200c0 11.058594 8.960938 20 20 20h200c11.058594 0 20-8.941406 20-20v-200c0-11.039062-8.941406-20-20-20h-3.421875c-2.917969-8.261719-7.679687-15.941406-14.15625-22.441406l-17.5625-17.558594zm0 0"/></svg>