<svg height="320pt" viewBox="0 0 320 320" width="320pt" xmlns="http://www.w3.org/2000/svg"><path d="m300 300h-280c-11.058594 0-20-8.941406-20-20v-200c0-11.039062 8.941406-20 20-20h60v-20c0-11.039062 8.941406-20 20-20h120c11.058594 0 20 8.960938 20 20v20h60c11.058594 0 20 8.960938 20 20v200c0 11.058594-8.941406 20-20 20zm-20-200h-80v-40h-80v40h-80v160h240zm-210 20c5.519531 0 10 4.480469 10 10s-4.480469 10-10 10-10-4.480469-10-10 4.480469-10 10-10zm90 0c33.140625 0 60 26.859375 60 60 0 33.121094-26.859375 60-60 60s-60-26.878906-60-60c0-33.140625 26.859375-60 60-60zm0 100c22.078125 0 40-17.921875 40-40s-17.921875-40-40-40-40 17.921875-40 40 17.921875 40 40 40zm0 0"/></svg>