<svg height="320pt" viewBox="0 0 320 320" width="320pt" xmlns="http://www.w3.org/2000/svg"><path d="m318.480469 132.339844c-3.082031-7.460938-10.402344-12.339844-18.480469-12.339844h-20v-20c0-33.140625-26.859375-60-60-60h-120c-27.101562 0-49.761719 18.101562-57.179688 42.800781 5.519532-1.660156 11.238282-2.800781 17.179688-2.800781 9.078125 0 17.78125 2.21875 25.738281 6.019531 3.640625-3.699219 8.660157-6.019531 14.261719-6.019531h120c11.058594 0 20 8.960938 20 20v20h-20c-8.078125 0-15.398438 4.878906-18.480469 12.339844-3.078125 7.480468-1.378906 16.082031 4.339844 21.800781l40 40c3.902344 3.898437 9.019531 5.859375 14.140625 5.859375s10.238281-1.960938 14.140625-5.859375l40-40c5.71875-5.71875 7.4375-14.320313 4.339844-21.800781zm-84.21875 101.640625c-3.640625 3.699219-8.660157 6.019531-14.261719 6.019531h-120c-11.039062 0-20-8.941406-20-20v-20h20c8.078125 0 15.398438-4.878906 18.480469-12.339844 3.097656-7.480468 1.378906-16.082031-4.339844-21.800781l-40-40c-3.902344-3.898437-9.019531-5.859375-14.140625-5.859375s-10.238281 1.960938-14.140625 5.859375l-40 40c-5.71875 5.71875-7.417969 14.320313-4.339844 21.800781 3.082031 7.460938 10.402344 12.339844 18.480469 12.339844h20v20c0 33.140625 26.859375 60 60 60h120c27.121094 0 49.761719-18.101562 57.179688-42.800781-5.519532 1.660156-11.238282 2.800781-17.179688 2.800781-9.078125 0-17.78125-2.199219-25.738281-6.019531zm0 0"/></svg>