<svg height="320pt" viewBox="0 0 320 320" width="320pt" xmlns="http://www.w3.org/2000/svg"><path d="m302.421875 217.558594-82.421875-82.417969v-95.140625c11.058594 0 20-8.960938 20-20s-8.941406-20-20-20h-120c-11.039062 0-20 8.960938-20 20s8.960938 20 20 20v95.140625l-82.441406 82.417969c-23.417969 23.441406-23.417969 61.421875 0 84.863281 11.722656 11.71875 27.082031 17.578125 42.441406 17.578125h200c15.359375 0 30.699219-5.859375 42.421875-17.578125 23.4375-23.441406 23.4375-61.421875 0-84.863281zm-28.28125 56.582031c-5.101563 5.097656-11.0625 5.859375-14.140625 5.859375h-200c-3.101562 0-9.039062-.761719-14.160156-5.859375-7.800782-7.800781-7.800782-20.5 0-28.300781l94.160156-94.121094v-111.71875h40v111.71875l94.140625 94.121094c5.097656 5.101562 5.859375 11.058594 5.859375 14.140625 0 3.097656-.761719 9.058593-5.859375 14.160156zm0 0"/></svg>