<svg height="320pt" viewBox="0 0 320 320" width="320pt" xmlns="http://www.w3.org/2000/svg"><path d="m160 280c-120 0-160-120-160-120s40-120 160-120 160 120 160 120-40 120-160 120zm0-200c-44.179688 0-80 35.820312-80 80s35.820312 80 80 80 80-35.820312 80-80-35.820312-80-80-80zm0 120c-22.078125 0-40-17.921875-40-40 0-.679688.160156-1.300781.199219-1.980469 3.101562 1.082031 6.320312 1.980469 9.800781 1.980469 16.558594 0 30-13.441406 30-30 0-3.480469-.898438-6.699219-1.980469-9.800781.679688-.039063 1.300781-.199219 1.980469-.199219 22.078125 0 40 17.921875 40 40s-17.921875 40-40 40zm0 0"/></svg>