<svg height="320pt" viewBox="0 0 320 320" width="320pt" xmlns="http://www.w3.org/2000/svg"><path d="m296.421875 158.578125-136.421875 141.421875-136.421875-141.421875c-31.238281-31.238281-31.238281-81.898437 0-113.136719 31.242187-31.242187 81.902344-31.242187 113.140625 0l23.28125 28.296875 23.28125-28.277343c31.238281-31.242188 81.898438-31.242188 113.140625 0 31.238281 31.21875 31.238281 81.878906 0 113.117187zm-84.863281-84.839844-51.558594 56.5625-51.558594-56.5625c-15.621094-15.617187-40.960937-15.617187-56.582031 0-15.597656 15.621094-15.597656 40.941407 0 56.5625l108.140625 113.140625 108.140625-113.140625c15.597656-15.621093 15.597656-40.941406 0-56.5625-15.621094-15.636719-40.960937-15.636719-56.582031 0zm0 0"/></svg>