<svg height="320pt" viewBox="0 0 320 320" width="320pt" xmlns="http://www.w3.org/2000/svg"><path d="m300 320h-20v-30c0-5.5-4.480469-10-10-10s-10 4.5-10 10v30h-40v-10c0-5.5-4.480469-10-10-10s-10 4.5-10 10v10h-80v-10c0-5.5-4.480469-10-10-10s-10 4.5-10 10v10h-80c-11.058594 0-20-8.941406-20-20v-280c0-11.039062 8.941406-20 20-20h280c11.058594 0 20 8.960938 20 20v280c0 11.058594-8.941406 20-20 20zm-160-40c0 11.058594 8.941406 20 20 20s20-8.941406 20-20v-20c0-11.058594-8.941406-20-20-20s-20 8.941406-20 20zm20-60c33.140625 0 60-26.878906 60-60 0-33.140625-26.859375-60-60-60s-60 26.859375-60 60c0 33.121094 26.859375 60 60 60zm140-180c0-11.039062-8.941406-20-20-20h-240c-11.058594 0-20 8.960938-20 20v20c0 11.039062 8.941406 20 20 20h240c11.058594 0 20-8.960938 20-20zm-260 0h140v20h-140zm120 80c22.078125 0 40 17.921875 40 40s-17.921875 40-40 40-40-17.921875-40-40 17.921875-40 40-40zm0 60c11.058594 0 20-8.960938 20-20s-8.941406-20-20-20-20 8.960938-20 20 8.941406 20 20 20zm0 0"/></svg>