<svg height="320pt" viewBox="0 0 320 320" width="320pt" xmlns="http://www.w3.org/2000/svg"><path d="m260 320h-200c-33.140625 0-60-26.859375-60-60v-200c0-33.140625 26.859375-60 60-60h200c33.140625 0 60 26.859375 60 60v200c0 33.140625-26.859375 60-60 60zm20-260c0-11.039062-8.941406-20-20-20h-200c-11.039062 0-20 8.960938-20 20v40h240zm0 60h-240v140c0 11.058594 8.960938 20 20 20h200c11.058594 0 20-8.941406 20-20zm-77.578125 122.421875c-7.820313 7.816406-20.460937 7.816406-28.28125 0l-14.140625-14.140625-14.140625 14.140625c-7.820313 7.816406-20.480469 7.816406-28.28125 0-7.816406-7.820313-7.816406-20.460937 0-28.28125l14.140625-14.140625-14.140625-14.140625c-7.816406-7.820313-7.816406-20.480469 0-28.28125 7.800781-7.816406 20.460937-7.816406 28.28125 0l14.140625 14.140625 14.140625-14.140625c7.820313-7.816406 20.460937-7.816406 28.28125 0 7.816406 7.800781 7.816406 20.460937 0 28.28125l-14.140625 14.140625 14.140625 14.140625c7.816406 7.820313 7.816406 20.460937 0 28.28125zm-122.421875-162.421875h-20v-20h20zm40 0h-20v-20h20zm140 0h-120v-20h120zm0 0"/></svg>