<svg height="320pt" viewBox="0 0 320 320" width="320pt" xmlns="http://www.w3.org/2000/svg"><path d="m200 120v20h20c11.058594 0 20 8.941406 20 20s-8.941406 20-20 20h-40c-11.058594 0-20-8.941406-20-20v-40c0-11.058594 8.941406-20 20-20s20 8.941406 20 20zm-20 180c-43.28125 0-81.980469-19.660156-107.660156-50.519531.582031-.441407 1.261718-.660157 1.800781-1.199219l28.140625-26.082031c18.296875 22.878906 46.140625 37.800781 77.71875 37.800781 55.238281 0 100-44.761719 100-100 0-55.21875-44.761719-100-100-100-48.378906 0-88.71875 34.359375-97.980469 80h17.980469c8.078125 0 15.398438 4.878906 18.480469 12.339844 3.078125 7.5 1.359375 16.101562-4.339844 21.800781l-40 40c-3.902344 3.898437-9.019531 5.859375-14.140625 5.859375s-10.238281-1.960938-14.140625-5.859375l-40-40c-5.71875-5.699219-7.417969-14.339844-4.339844-21.800781 3.082031-7.460938 10.402344-12.339844 18.480469-12.339844h21.601562c9.699219-67.820312 67.878907-120 138.398438-120 77.320312 0 140 62.679688 140 140s-62.679688 140-140 140zm0 0"/></svg>