<svg height="320pt" viewBox="0 0 320 320" width="320pt" xmlns="http://www.w3.org/2000/svg"><path d="m240 20c0-11.058594 8.941406-20 20-20s20 8.941406 20 20v190c0 60.761719-49.261719 110-110 110s-110-49.238281-110-110v-130c0-44.179688 35.820312-80 80-80s80 35.820312 80 80v130c0 27.621094-22.378906 50-50 50s-50-22.378906-50-50v-130c0-11.039062 8.941406-20 20-20s20 8.960938 20 20v130c0 5.519531 4.480469 10 10 10s10-4.480469 10-10v-130c0-22.078125-17.921875-40-40-40s-40 17.921875-40 40v130c0 38.660156 31.339844 70 70 70s70-31.339844 70-70zm0 0"/></svg>