<svg height="320pt" viewBox="0 0 320 320" width="320pt" xmlns="http://www.w3.org/2000/svg"><path d="m260 320h-40v-40h40c11.058594 0 20-8.941406 20-20v-140h-240v140c0 11.058594 8.960938 20 20 20h40v40h-40c-33.140625 0-60-26.878906-60-60v-200c0-33.140625 26.859375-60 60-60h200c33.121094 0 60 26.859375 60 60v200c0 33.121094-26.878906 60-60 60zm20-260c0-11.039062-8.941406-20-20-20h-200c-11.039062 0-20 8.960938-20 20v40h240zm-200 20h-20v-20h20zm40 0h-20v-20h20zm140 0h-120v-20h120zm-114.140625 85.839844c3.902344-3.898438 9.019531-5.859375 14.140625-5.859375s10.238281 1.960937 14.140625 5.859375l40 40c5.699219 5.71875 7.417969 14.320312 4.339844 21.820312-3.082031 7.460938-10.402344 12.339844-18.480469 12.339844h-20v60c0 11.058594-8.941406 20-20 20-11.039062 0-20-8.941406-20-20v-60h-20c-8.078125 0-15.398438-4.878906-18.480469-12.339844-3.078125-7.480468-1.378906-16.101562 4.339844-21.820312zm0 0"/></svg>