<svg height="320pt" viewBox="0 0 320 320" width="320pt" xmlns="http://www.w3.org/2000/svg"><path d="m273.140625 166.859375-28.300781 28.300781c-46.859375-46.878906-122.839844-46.878906-169.679688 0l-28.300781-28.300781c62.480469-62.480469 163.78125-62.480469 226.28125 0zm-42.441406 42.441406-28.277344 28.277344c-23.421875-23.4375-61.402344-23.4375-84.84375 0l-28.277344-28.277344c39.039063-39.0625 102.359375-39.0625 141.398438 0zm-70.699219 30.699219c22.078125 0 40 17.921875 40 40s-17.921875 40-40 40-40-17.921875-40-40 17.921875-40 40-40zm0 0"/></svg>