<svg height="320pt" viewBox="0 0 320 320" width="320pt" xmlns="http://www.w3.org/2000/svg"><path d="m160 320c-77.320312 0-140-62.679688-140-140 0-55.738281 32.820312-103.320312 80-125.71875v46.140625c-24.199219 18.21875-40 46.957031-40 79.578125 0 55.238281 44.761719 100 100 100s100-44.761719 100-100c0-32.621094-15.800781-61.359375-40-79.578125v-46.140625c47.179688 22.417969 80 70 80 125.71875 0 77.320312-62.679688 140-140 140zm20-180c0 11.039062-8.941406 20-20 20s-20-8.960938-20-20v-120c0-11.039062 8.941406-20 20-20s20 8.960938 20 20zm0 0"/></svg>