<svg height="320pt" viewBox="0 0 320 320" width="320pt" xmlns="http://www.w3.org/2000/svg"><path d="m200 200h-80c-5.660156 0-10.71875 2.398438-14.359375 6.179688 20.238281 9.621093 34.359375 29.941406 34.359375 53.820312 0 33.140625-26.859375 60-60 60s-60-26.859375-60-60c0-26.101562 16.738281-48.058594 40-56.339844v-87.339844c-23.261719-8.261718-40-30.21875-40-56.320312 0-33.140625 26.859375-60 60-60s60 26.859375 60 60c0 26.101562-16.738281 48.058594-40 56.320312v47.359376c6.28125-2.238282 12.941406-3.679688 20-3.679688h80c11.058594 0 20-8.941406 20-20v-3.679688c-23.238281-8.261718-40-30.21875-40-56.320312 0-33.140625 26.878906-60 60-60s60 26.859375 60 60c0 26.101562-16.761719 48.058594-40 56.320312v3.679688c0 33.140625-26.878906 60-60 60zm40-140c11.058594 0 20 8.941406 20 20s-8.941406 20-20 20-20-8.941406-20-20 8.941406-20 20-20zm-160-20c11.039062 0 20 8.941406 20 20s-8.960938 20-20 20-20-8.941406-20-20 8.960938-20 20-20zm0 200c11.039062 0 20 8.941406 20 20s-8.960938 20-20 20-20-8.941406-20-20 8.960938-20 20-20zm0 0"/></svg>