<svg height="320pt" viewBox="0 0 320 320" width="320pt" xmlns="http://www.w3.org/2000/svg"><path d="m260 0h-200c-33.140625 0-60 26.859375-60 60v200c0 33.140625 26.859375 60 60 60h200c33.140625 0 60-26.859375 60-60v-200c0-33.140625-26.859375-60-60-60zm-220 60c0-11.039062 8.960938-20 20-20h20c11.039062 0 20 8.960938 20 20v20c0 11.039062-8.960938 20-20 20h-20c-11.039062 0-20-8.960938-20-20zm240 200c0 11.058594-8.941406 20-20 20h-200c-11.039062 0-20-8.941406-20-20v-120h71.71875l47.621094 47.621094-13.480469 13.820312c-5.71875 5.71875-7.4375 15.820313-4.339844 23.277344 3.101563 7.460938 10.378907 15.28125 18.480469 15.28125h56.558594c5.519531 0 12.242187-5.199219 15.863281-8.78125 3.617187-3.640625 7.578125-11.578125 7.578125-17.097656v-56.582032c0-8.078124-6.601562-15.378906-14.058594-18.480468-7.460937-3.097656-17.800781-1.378906-23.519531 4.339844l-15.183594 15.582031-47.238281-47.261719v-71.71875h120c11.058594 0 20 8.960938 20 20zm0 0"/></svg>