<svg height="320pt" viewBox="0 0 320 320" width="320pt" xmlns="http://www.w3.org/2000/svg"><path d="m302.421875 242.421875-60 60c-23.441406 23.4375-61.402344 23.4375-84.84375 0l-100-100c-11.71875-11.722656-17.578125-27.0625-17.578125-42.421875v-120h60c0-11.039062-8.960938-20-20-20h-40c-11.039062 0-20 8.960938-20 20v30c0 5.519531-4.480469 10-10 10s-10-4.480469-10-10v-30c0-22.078125 17.921875-40 40-40h40c22.078125 0 40 17.921875 40 40h40c15.359375 0 30.699219 5.859375 42.421875 17.578125l100 100c23.4375 23.441406 23.4375 61.402344 0 84.84375zm-182.421875-160.402344v27.980469c0 5.519531-4.480469 10-10 10s-10-4.480469-10-10v-27.980469c-11.601562 4.160157-20 14.960938-20 27.980469 0 16.578125 13.421875 30 30 30s30-13.421875 30-30c0-13.019531-8.398438-23.820312-20-27.980469zm154.140625 103.839844-100-100c-3.902344-3.898437-9.019531-5.859375-14.140625-5.859375h-10.21875c6.320312 8.378906 10.21875 18.699219 10.21875 30 0 27.621094-22.378906 50-50 50-11.300781 0-21.621094-3.898438-30-10.21875v10.21875c0 5.121094 1.960938 10.238281 5.859375 14.140625l100 100c7.820313 7.820313 20.460937 7.820313 28.28125 0l60-60c7.820313-7.820313 7.820313-20.460937 0-28.28125zm0 0"/></svg>