<svg height="320pt" viewBox="0 0 320 320" width="320pt" xmlns="http://www.w3.org/2000/svg"><path d="m280 180h40v40h-40zm0-80h40v40h-40zm-20-60v-40c33.140625 0 60 26.859375 60 60h-40c0-11.039062-8.941406-20-20-20zm-80 240h40v40h-40zm0-280h40v40h-40zm38.480469 147.660156c-3.082031 7.460938-10.402344 12.339844-18.480469 12.339844h-20v60c0 11.058594-8.941406 20-20 20-11.039062 0-20-8.941406-20-20v-60h-20c-8.078125 0-15.398438-4.878906-18.480469-12.339844-3.078125-7.480468-1.378906-16.101562 4.339844-21.820312l40-40c3.902344-3.898438 9.019531-5.859375 14.140625-5.859375s10.238281 1.960937 14.140625 5.859375l40 40c5.699219 5.71875 7.417969 14.320312 4.339844 21.820312zm-118.480469-147.660156h40v40h-40zm-100 260h40c0 11.058594 8.960938 20 20 20v40c-33.140625 0-60-26.859375-60-60zm40-200h-40c0-33.140625 26.859375-60 60-60v40c-11.039062 0-20 8.960938-20 20zm0 80h-40v-40h40zm0 80h-40v-40h40zm100 100h-40v-40h40zm140-60h40c0 33.140625-26.859375 60-60 60v-40c11.058594 0 20-8.941406 20-20zm0 0"/></svg>