<svg height="320pt" viewBox="0 0 320 320" width="320pt" xmlns="http://www.w3.org/2000/svg"><path d="m300 100h-20v20c0 11.058594-8.941406 20-20 20s-20-8.941406-20-20v-20h-20c-11.058594 0-20-8.941406-20-20s8.941406-20 20-20h20v-20c0-11.058594 8.941406-20 20-20s20 8.941406 20 20v20h20c11.058594 0 20 8.941406 20 20s-8.941406 20-20 20zm-140 120c-22.078125 0-40-17.921875-40-40 0-.679688.160156-1.300781.199219-1.980469 3.101562 1.082031 6.320312 1.980469 9.800781 1.980469 16.558594 0 30-13.441406 30-30 0-3.480469-.898438-6.699219-1.980469-9.800781.679688-.039063 1.300781-.199219 1.980469-.199219 22.078125 0 40 17.921875 40 40s-17.921875 40-40 40zm0-120c-44.179688 0-80 35.820312-80 80s35.820312 80 80 80 80-35.820312 80-80c0-1.238281-.320312-2.421875-.378906-3.679688 6.359375 2.339844 13.199218 3.679688 20.378906 3.679688 20.078125 0 37.660156-9.980469 48.480469-25.160156 7.917969 14.660156 11.519531 25.160156 11.519531 25.160156s-40 120-160 120-160-120-160-120 40-120 160-120c1.199219 0 2.238281.199219 3.421875.21875-2.183594 6.179688-3.421875 12.820312-3.421875 19.78125 0 7.179688 1.339844 14.019531 3.679688 20.378906-1.257813-.058594-2.441407-.378906-3.679688-.378906zm0 0"/></svg>