<svg height="320pt" viewBox="0 0 320 320" width="320pt" xmlns="http://www.w3.org/2000/svg"><path d="m260 280h-200c-33.140625 0-60-26.859375-60-60v-120c0-33.140625 26.859375-60 60-60h200c33.121094 0 60 26.859375 60 60v120c0 33.140625-26.878906 60-60 60zm-200-200c-4.898438 0-9.199219 1.960938-12.679688 4.878906l112.679688 75.121094 112.699219-75.121094c-3.480469-2.917968-7.820313-4.878906-12.699219-4.878906zm220 40-120 80-120-80v80l60-20-54.140625 54.140625c3.621094 3.621094 8.621094 5.859375 14.140625 5.859375h200c5.519531 0 10.519531-2.238281 14.140625-5.859375l-54.140625-54.140625 60 20zm0 0"/></svg>