<svg height="320pt" viewBox="0 0 320 320" width="320pt" xmlns="http://www.w3.org/2000/svg"><path d="m260 240h-3.601562c-.359376-.980469-.578126-2-.976563-2.941406-6.640625-16.078125-15.421875-28.097656-35.421875-33.636719v-23.421875c0-33.078125-26.921875-60-60-60s-60 26.921875-60 60v23.378906c-20 5.542969-28.78125 17.5625-35.421875 33.582032-.199219.460937-.296875.980468-.457031 1.4375-36.582032-7.359376-64.121094-39.660157-64.121094-78.398438v-20c0-44.179688 35.820312-80 80-80 7.601562 0 14.820312 1.398438 21.78125 3.378906 7.660156-36.199218 39.738281-63.378906 78.21875-63.378906 44.179688 0 80 35.820312 80 80 0 7.058594-1.21875 13.78125-2.921875 20.300781.980469-.0625 1.921875-.300781 2.921875-.300781 33.140625 0 60 26.878906 60 60v20c0 33.140625-26.859375 60-60 60zm-140 0h20.039062v-60c0-11.058594 8.941407-20 20-20 11.082032 0 20.019532 8.941406 20.019532 20v60h19.960937c8.082031 0 15.402344 4.878906 18.480469 12.339844.78125 1.878906 1.238281 3.78125 1.441406 5.738281.539063 5.863281-1.480468 11.761719-5.78125 16.0625l-40.019531 40c-3.902344 3.898437-9.019531 5.859375-14.140625 5.859375s-10.238281-1.960938-14.140625-5.859375l-40-40c-4.257813-4.300781-6.28125-10.199219-5.738281-16.0625.160156-1.957031.617187-3.859375 1.398437-5.738281 3.101563-7.460938 10.402344-12.339844 18.480469-12.339844zm0 0"/></svg>