<svg height="320pt" viewBox="0 0 320 320" width="320pt" xmlns="http://www.w3.org/2000/svg"><path d="m260 320h-200c-33.140625 0-60-26.878906-60-60v-200c0-26.078125 16.761719-48.058594 40-56.320312v26.320312c0 16.578125 13.441406 30 30 30s30-13.421875 30-30v-30h120v30c0 16.578125 13.441406 30 30 30s30-13.421875 30-30v-26.320312c23.238281 8.261718 40 30.242187 40 56.320312v200c0 33.121094-26.859375 60-60 60zm20-220h-240v160c0 11.058594 8.941406 20 20 20h200c11.058594 0 20-8.941406 20-20zm-80 100h40v40h-40zm0-60h40v40h-40zm-60 60h40v40h-40zm0-60h40v40h-40zm-60 60h40v40h-40zm0-60h40v40h-40zm170-100c-5.519531 0-10-4.480469-10-10v-30h20v30c0 5.519531-4.480469 10-10 10zm-180 0c-5.519531 0-10-4.480469-10-10v-30h20v30c0 5.519531-4.480469 10-10 10zm0 0"/></svg>