<svg height="320pt" viewBox="0 0 320 320" width="320pt" xmlns="http://www.w3.org/2000/svg"><path d="m260 320h-200c-33.140625 0-60-26.859375-60-60v-200c0-33.140625 26.859375-60 60-60h200c33.121094 0 60 26.859375 60 60v200c0 33.140625-26.878906 60-60 60zm20-260c0-11.039062-8.941406-20-20-20h-200c-11.039062 0-20 8.960938-20 20v200c0 11.058594 8.960938 20 20 20h200c11.058594 0 20-8.941406 20-20zm-40 200h-60l80-80v60c0 11.058594-8.941406 20-20 20zm0-200c11.058594 0 20 8.960938 20 20v60l-80-80zm-160 200c-11.039062 0-20-8.941406-20-20v-60l80 80zm-20-180c0-11.039062 8.960938-20 20-20h60l-80 80zm0 0"/></svg>