<svg height="320pt" viewBox="0 0 320 320" width="320pt" xmlns="http://www.w3.org/2000/svg"><path d="m160 320c-88.359375 0-160-71.640625-160-160s71.640625-160 160-160 160 71.640625 160 160-71.640625 160-160 160zm0-280c-66.261719 0-120 53.738281-120 120 0 66.28125 53.738281 120 120 120s120-53.71875 120-120c0-66.261719-53.738281-120-120-120zm86.601562 170c-5.5 9.578125-17.761718 12.859375-27.320312 7.320312-9.5625-5.519531-12.839844-17.761718-7.320312-27.320312 5.519531-9.578125 17.777343-12.839844 27.320312-7.320312 9.558594 5.519531 12.839844 17.742187 7.320312 27.320312zm-86.601562-10c-22.078125 0-40-17.921875-40-40s17.921875-40 40-40 40 17.921875 40 40-17.921875 40-40 40zm0-60c-11.039062 0-20 8.960938-20 20s8.960938 20 20 20 20-8.960938 20-20-8.960938-20-20-20zm0-40c-11.039062 0-20-8.960938-20-20s8.960938-20 20-20 20 8.960938 20 20-8.960938 20-20 20zm-59.28125 117.320312c-9.578125 5.519532-21.796875 2.238282-27.320312-7.320312-5.519532-9.558594-2.238282-21.800781 7.320312-27.320312 9.5625-5.519532 21.800781-2.257813 27.320312 7.320312 5.519532 9.578125 2.242188 21.800781-7.320312 27.320312zm0 0"/></svg>