<svg height="320pt" viewBox="0 0 320 320" width="320pt" xmlns="http://www.w3.org/2000/svg"><path d="m260 140c-1 0-1.941406.238281-2.921875.300781 1.703125-6.519531 2.921875-13.242187 2.921875-20.300781 0-44.179688-35.820312-80-80-80-38.480469 0-70.558594 27.179688-78.21875 63.378906-6.980469-1.980468-14.160156-3.378906-21.78125-3.378906-44.179688 0-80 35.820312-80 80v20c0 44.179688 35.820312 80 80 80h180c33.140625 0 60-26.859375 60-60v-20c0-33.121094-26.859375-60-60-60zm-90 100c-27.621094 0-50-22.378906-50-50s22.378906-50 50-50 50 22.378906 50 50-22.378906 50-50 50zm-30-40h60v-20h-60zm0 0"/></svg>