<svg height="320pt" viewBox="0 0 320 320" width="320pt" xmlns="http://www.w3.org/2000/svg"><path d="m267.261719 295.558594-242.820313-242.839844 28.277344-28.277344 242.839844 242.839844zm-7.261719-92.117188-139.621094-139.640625c-.117187-1.261719-.378906-2.5-.378906-3.800781 0-22.078125 17.921875-40 40-40s40 17.921875 40 40c0 2.738281-.28125 5.421875-.820312 8 35.742187 15.261719 60.820312 50.699219 60.820312 92zm-100 56.558594c-19.539062 0-35.738281-14.019531-39.238281-32.519531 10.539062-4.601563 24.160156-7.480469 39.238281-7.480469 1.339844 0 2.480469.320312 3.800781.359375l25.738281 25.742187c-7.339843 8.296876-17.597656 13.898438-29.539062 13.898438zm0 20c20.480469 0 38.980469-3.960938 53.121094-10.300781l18.277344 18.261719c-20 7.460937-44.519532 12.039062-71.398438 12.039062-66.261719 0-120-26.859375-120-60 0-12.238281 7.421875-23.601562 20-33.078125v-46.921875c0-12.878906 2.679688-25.039062 7.101562-36.320312l77.117188 77.121093c-36.617188 3.660157-64.21875 19.800781-64.21875 39.199219 0 22.078125 35.820312 40 80 40zm0 0"/></svg>