<svg height="320pt" viewBox="0 0 320 320" width="320pt" xmlns="http://www.w3.org/2000/svg"><path d="m100 240c8.078125 0 15.398438 4.878906 18.480469 12.339844 3.078125 7.480468 1.378906 16.082031-4.339844 21.800781l-40 40c-3.902344 3.898437-9.019531 5.859375-14.140625 5.859375s-10.238281-1.960938-14.140625-5.859375l-40-40c-5.699219-5.71875-7.417969-14.320313-4.339844-21.800781 3.082031-7.460938 10.402344-12.339844 18.480469-12.339844h20v-40c0-33.140625 26.5-60 59.621094-60h120c11.058594 0 20.378906-8.960938 20.378906-20v-100c0-11.039062 8.941406-20 20-20s20 8.960938 20 20v100c0 33.140625-27.21875 60-60.378906 60h-120c-11.042969 0-19.621094 8.960938-19.621094 20v40zm218.480469 12.339844c3.078125 7.480468 1.378906 16.082031-4.339844 21.800781l-40 40c-3.902344 3.898437-9.019531 5.859375-14.140625 5.859375s-10.238281-1.960938-14.140625-5.859375l-40-40c-5.699219-5.71875-7.417969-14.320313-4.339844-21.800781 3.082031-7.460938 10.402344-12.339844 18.480469-12.339844h20v-42.839844c20-4.082031 20-12.820312 40-24.761718v67.601562h20c8.078125 0 15.398438 4.878906 18.480469 12.339844zm0 0"/></svg>