<svg height="320pt" viewBox="0 0 320 320" width="320pt" xmlns="http://www.w3.org/2000/svg"><path d="m45.859375 134.121094-40-40c-3.898437-3.902344-5.859375-9.019532-5.859375-14.140625 0-5.121094 1.960938-10.242188 5.859375-14.140625l40-40c5.71875-5.699219 14.320313-7.417969 21.800781-4.339844 7.460938 3.078125 12.339844 10.398438 12.339844 18.480469v20.019531h20v40h-20v19.980469c0 8.078125-4.878906 15.398437-12.339844 18.480469-7.480468 3.078124-16.082031 1.378906-21.800781-4.339844zm228.28125 51.71875 40 40c3.898437 3.898437 5.859375 9.019531 5.859375 14.140625 0 5.121093-1.960938 10.238281-5.859375 14.140625l-40 40c-5.71875 5.71875-14.320313 7.417968-21.800781 4.339844-7.460938-3.082032-12.339844-10.402344-12.339844-18.480469v-19.980469h-20v-40h20v-20.019531c0-8.082031 4.878906-15.402344 12.339844-18.480469 7.480468-3.078125 16.082031-1.359375 21.800781 4.339844zm-134.140625 34.160156h20v40h-20zm-20-160h20v40h-20zm-20 120h-80c-11.039062 0-20 8.960938-20 20v80c0 11.058594 8.960938 20 20 20h80c11.039062 0 20-8.941406 20-20v-80c0-11.039062-8.960938-20-20-20zm-20 80h-40v-40h40zm80-200h20v40h-20zm140-40h-80c-11.058594 0-20 8.960938-20 20v80c0 11.039062 8.941406 20 20 20h80c11.058594 0 20-8.960938 20-20v-80c0-11.039062-8.941406-20-20-20zm-20 80h-40v-40h40zm-100 120h20v40h-20zm0 0"/></svg>