<svg height="320pt" viewBox="0 0 320 320" width="320pt" xmlns="http://www.w3.org/2000/svg"><path d="m160 320c-88.359375 0-160-71.640625-160-160s71.640625-160 160-160 160 71.640625 160 160-71.640625 160-160 160zm0-280c-66.261719 0-120 53.738281-120 120 0 66.28125 53.738281 120 120 120s120-53.71875 120-120c0-66.261719-53.738281-120-120-120zm0 220c-21.539062 0-41.359375-6.960938-57.699219-18.558594-1.441406-3.519531-2.300781-7.382812-2.300781-11.441406 3.078125-18.339844 15.421875-33.761719 31.140625-42.441406-6.878906-7.160156-11.140625-16.859375-11.140625-27.558594v-20c0-22.078125 17.921875-40 40-40s40 17.921875 40 40v20c0 10.699219-4.261719 20.398438-11.121094 27.558594 15.699219 8.679687 28.042969 24.101562 31.121094 42.441406 0 4.058594-.859375 7.921875-2.300781 11.441406-16.339844 11.597656-36.160157 18.558594-57.699219 18.558594zm0 0"/></svg>