<svg height="320pt" viewBox="0 0 320 320" width="320pt" xmlns="http://www.w3.org/2000/svg"><path d="m280 256.320312v-116.320312c0-33.140625-26.859375-60-60-60h-63.679688c-8.261718-23.238281-30.242187-40-56.320312-40h-36.320312c8.261718-23.238281 30.242187-40 56.320312-40h20c26.078125 0 48.058594 16.761719 56.320312 40h63.679688c33.140625 0 60 26.859375 60 60v100c0 26.101562-16.761719 48.058594-40 56.320312zm-143.679688-156.320312h63.679688c33.140625 0 60 26.859375 60 60v100c0 33.140625-26.859375 60-60 60h-140c-33.140625 0-60-26.859375-60-60v-140c0-33.140625 26.859375-60 60-60h20c26.078125 0 48.058594 16.761719 56.320312 40zm-96.320312 20v140c0 11.058594 8.960938 20 20 20h20v-80c0-11.039062 8.960938-20 20-20h120v-20c0-11.039062-8.941406-20-20-20h-100v-20c0-11.039062-8.960938-20-20-20h-20c-11.039062 0-20 8.960938-20 20zm0 0"/></svg>