<svg height="320pt" viewBox="0 0 320 320" width="320pt" xmlns="http://www.w3.org/2000/svg"><path d="m180 170c0 5.519531 4.5 10 10 10h50c0 26.101562-16.761719 48.058594-40 56.320312v-26.320312c0-5.5-4.5-10-10-10s-10 4.5-10 10v70c0 11.058594-8.960938 20-20 20s-20-8.941406-20-20v-70c0-5.5-4.480469-10-10-10s-10 4.5-10 10v26.320312c-23.261719-8.261718-40-30.21875-40-56.320312h50c5.519531 0 10-4.480469 10-10s-4.480469-10-10-10h-50v-20h30c5.519531 0 10-4.480469 10-10s-4.480469-10-10-10h-30v-20h50c5.519531 0 10-4.480469 10-10s-4.480469-10-10-10h-50c0-26.078125 16.738281-48.058594 40-56.320312v26.320312c0 5.519531 4.480469 10 10 10s10-4.480469 10-10v-30h40v30c0 5.519531 4.5 10 10 10s10-4.480469 10-10v-26.320312c23.238281 8.261718 40 30.242187 40 56.320312h-50c-5.5 0-10 4.480469-10 10s4.5 10 10 10h50v20h-30c-5.5 0-10 4.480469-10 10s4.5 10 10 10h30v20h-50c-5.5 0-10 4.480469-10 10zm-10-50h-20c-5.519531 0-10 4.480469-10 10s4.480469 10 10 10h20c5.519531 0 10-4.480469 10-10s-4.480469-10-10-10zm0 0"/></svg>