<svg height="320pt" viewBox="0 0 320 320" width="320pt" xmlns="http://www.w3.org/2000/svg"><path d="m260 320h-140c-33.140625 0-60-26.859375-60-60v-140c0-33.140625 26.859375-60 60-60h140c33.140625 0 60 26.859375 60 60v140c0 33.140625-26.859375 60-60 60zm20-200c0-11.039062-8.941406-20-20-20h-140c-11.058594 0-20 8.960938-20 20v140c0 11.058594 8.941406 20 20 20h80v-60c0-11.058594 8.941406-20 20-20h60zm-40 120 20 40 20-40zm-200-140v156.320312c-23.238281-8.261718-40-30.21875-40-56.320312v-140c0-33.140625 26.859375-60 60-60h140c26.101562 0 48.058594 16.761719 56.320312 40h-156.320312c-33.140625 0-60 26.859375-60 60zm0 0"/></svg>