<svg height="320pt" viewBox="0 0 320 320" width="320pt" xmlns="http://www.w3.org/2000/svg"><path d="m316.558594 188.28125-28.277344 28.277344-28.28125-28.277344-28.28125 28.277344-28.277344-28.277344 28.277344-28.28125-28.277344-28.28125 28.277344-28.296875 28.28125 28.296875 28.28125-28.296875 28.277344 28.296875-28.277344 28.28125zm-256.558594 51.71875c-33.140625 0-60-26.878906-60-60v-40c0-33.140625 26.859375-60 60-60h20l100-80v320l-100-80zm80 0v-160l-40 40h-40c-11.058594 0-20 8.960938-20 20v40c0 11.058594 8.941406 20 20 20h40zm0 0"/></svg>