<svg height="320pt" viewBox="0 0 320 320" width="320pt" xmlns="http://www.w3.org/2000/svg"><path d="m129.378906 220.621094c-14.859375 0-38.117187-58.761719-49.378906-35-4.679688 9.878906-12.480469 30.9375-20 47.800781v6.578125c0 11.058594 8.960938 20 20 20h160c11.058594 0 20-8.941406 20-20v-9.320312c-11.300781-25.441407-25.941406-67.601563-40-83.800782-28.761719-33.117187-63.121094 73.742188-90.621094 73.742188zm130.621094-220.621094h-200c-33.140625 0-60 26.859375-60 60v200c0 33.121094 26.859375 60 60 60h200c33.121094 0 60-26.878906 60-60v-200c0-33.140625-26.878906-60-60-60zm20 260c0 11.058594-8.941406 20-20 20h-200c-11.039062 0-20-8.941406-20-20v-200c0-11.039062 8.960938-20 20-20h200c11.058594 0 20 8.960938 20 20zm-190-140c16.578125 0 30-13.421875 30-30s-13.421875-30-30-30-30 13.421875-30 30 13.421875 30 30 30zm0 0"/></svg>