<svg height="320pt" viewBox="0 0 320 320" width="320pt" xmlns="http://www.w3.org/2000/svg"><path d="m247.539062 147.738281c-1.257812 3.980469-3.378906 8.101563-7.539062 12.261719-20 20-20 40-20 40v20c0 11.058594-8.941406 20-20 20h-80c-11.058594 0-20-8.941406-20-20v-20c0-14.539062-10.480469-28.941406-16.261719-35.820312-.179687-.199219-.339843-.417969-.476562-.601563-1.960938-2.277344-3.261719-3.578125-3.261719-3.578125v-.699219c-12.441406-16.5625-20-36.960937-20-59.300781 0-55.238281 44.761719-100 100-100s100 44.761719 100 100c0 17.378906-4.601562 33.578125-12.460938 47.738281zm-87.539062-107.738281c-33.140625 0-60 26.859375-60 60 0 26.101562 16.761719 48.058594 40 56.320312v23.679688c0 11.058594 8.941406 20 20 20s20-8.941406 20-20v-23.679688c23.238281-8.261718 40-30.21875 40-56.320312 0-33.140625-26.859375-60-60-60zm-30 220h60c5.519531 0 10 4.480469 10 10s-4.480469 10-10 10h-60c-5.519531 0-10-4.480469-10-10s4.480469-10 10-10zm20 40h20c5.519531 0 10 4.480469 10 10s-4.480469 10-10 10h-20c-5.519531 0-10-4.480469-10-10s4.480469-10 10-10zm0 0"/></svg>