<svg height="320pt" viewBox="0 0 320 320" width="320pt" xmlns="http://www.w3.org/2000/svg"><path d="m120 180c11.058594 0 20 8.941406 20 20v60c0 8.078125-4.878906 15.398438-12.339844 18.480469-2.480468 1.019531-5.082031 1.519531-7.660156 1.519531-5.199219 0-10.320312-2.039062-14.140625-5.859375l-15.859375-15.859375-55.859375 55.859375c-7.820313 7.820313-20.460937 7.820313-28.28125 0s-7.820313-20.460937 0-28.28125l55.859375-55.859375-15.859375-15.859375c-5.71875-5.71875-7.417969-14.320313-4.339844-21.800781 3.082031-7.460938 10.402344-12.339844 18.480469-12.339844zm80-40c-11.058594 0-20-8.941406-20-20v-60c0-8.078125 4.878906-15.398438 12.339844-18.480469 2.480468-1.019531 5.082031-1.519531 7.660156-1.519531 5.199219 0 10.320312 2.039062 14.140625 5.859375l15.859375 15.859375 55.859375-55.859375c7.820313-7.820313 20.460937-7.820313 28.28125 0s7.820313 20.460937 0 28.28125l-55.859375 55.859375 15.859375 15.859375c5.71875 5.71875 7.417969 14.320313 4.339844 21.800781-3.082031 7.460938-10.402344 12.339844-18.480469 12.339844zm-72.339844-98.480469c7.460938 3.082031 12.339844 10.402344 12.339844 18.480469v60c0 11.058594-8.941406 20-20 20h-60c-8.078125 0-15.398438-4.878906-18.480469-12.339844-3.078125-7.480468-1.378906-16.082031 4.339844-21.800781l15.859375-15.859375-55.859375-55.859375c-7.820313-7.820313-7.820313-20.460937 0-28.28125s20.460937-7.820313 28.28125 0l55.859375 55.859375 15.859375-15.859375c3.820313-3.820313 8.941406-5.859375 14.140625-5.859375 2.578125 0 5.179688.5 7.660156 1.519531zm130.621094 188.480469 55.859375 55.859375c7.820313 7.820313 7.820313 20.460937 0 28.28125s-20.460937 7.820313-28.28125 0l-55.859375-55.859375-15.859375 15.859375c-3.820313 3.820313-8.941406 5.859375-14.140625 5.859375-2.578125 0-5.179688-.5-7.660156-1.519531-7.460938-3.082031-12.339844-10.402344-12.339844-18.480469v-60c0-11.058594 8.941406-20 20-20h60c8.078125 0 15.398438 4.878906 18.480469 12.339844 3.078125 7.480468 1.378906 16.082031-4.339844 21.800781zm0 0"/></svg>