<svg height="320pt" viewBox="0 0 320 320" width="320pt" xmlns="http://www.w3.org/2000/svg"><path d="m300 0c11.058594 0 20 8.960938 20 20v60c0 8.078125-4.878906 15.378906-12.339844 18.480469-2.480468 1.019531-5.082031 1.519531-7.660156 1.519531-5.199219 0-10.320312-2.039062-14.140625-5.859375l-15.859375-15.859375-55.859375 55.859375c-7.820313 7.820313-20.460937 7.820313-28.28125 0s-7.820313-20.460937 0-28.28125l55.859375-55.859375-15.859375-15.859375c-5.71875-5.71875-7.417969-14.320313-4.339844-21.800781 3.082031-7.460938 10.402344-12.339844 18.480469-12.339844zm-194.140625 185.859375c7.820313-7.820313 20.460937-7.820313 28.28125 0s7.820313 20.460937 0 28.28125l-55.859375 55.859375 15.859375 15.859375c5.71875 5.71875 7.4375 14.320313 4.339844 21.800781-3.101563 7.460938-10.402344 12.339844-18.480469 12.339844h-60c-11.039062 0-20-8.941406-20-20v-60c0-8.078125 4.878906-15.398438 12.339844-18.480469 2.480468-1.019531 5.082031-1.519531 7.660156-1.519531 5.199219 0 10.320312 2.039062 14.140625 5.859375l15.859375 15.859375zm0 0"/></svg>