<svg height="320pt" viewBox="0 0 320 320" width="320pt" xmlns="http://www.w3.org/2000/svg"><path d="m260 40h-63.679688c-8.28125-23.238281-30.242187-40-56.320312-40h-80c-33.140625 0-60 26.859375-60 60v200c0 33.140625 26.859375 60 60 60h200c33.121094 0 60-26.859375 60-60v-160c0-33.140625-26.878906-60-60-60zm-30 240c-27.621094 0-50-22.378906-50-50s22.378906-50 50-50 50 22.378906 50 50-22.378906 50-50 50zm50-160h-180c-11.039062 0-20 8.941406-20 20v140h-20c-11.039062 0-20-8.941406-20-20v-200c0-11.058594 8.960938-20 20-20h80c11.039062 0 20 8.941406 20 20v20h100c11.058594 0 20 8.941406 20 20zm-40 80h-20v20h-20v20h20v20h20v-20h20v-20h-20zm0 0"/></svg>