<svg height="320pt" viewBox="0 0 320 320" width="320pt" xmlns="http://www.w3.org/2000/svg"><path d="m280 132.539062v-72.539062c0-11.039062-8.941406-20-20-20h-160c-11.058594 0-20 8.960938-20 20v200c0 11.058594 8.941406 20 20 20h32.539062c8.199219 15.960938 19.902344 29.761719 34.5 40h-67.039062c-33.140625 0-60-26.878906-60-60h-20c-11.058594 0-20-8.941406-20-20s8.941406-20 20-20h20v-40h-20c-11.058594 0-20-8.960938-20-20s8.941406-20 20-20h20v-40h-20c-11.058594 0-20-8.960938-20-20s8.941406-20 20-20h20c0-33.140625 26.859375-60 60-60h160c33.140625 0 60 26.859375 60 60v107.039062c-10.238281-14.597656-24.039062-26.277343-40-34.5zm-180 7.460938h67.039062c-8.039062 5.621094-14.980468 12.5-21.238281 20h-45.800781zm0 40h32.539062c-3.257812 6.339844-5.878906 13-7.878906 20h-24.660156zm0 60v-20h21.019531c-.320312 3.359375-1.019531 6.558594-1.019531 10s.699219 6.660156 1.019531 10zm0-180h160v20h-160zm160 60h-160v-20h160zm-120 110c0-49.699219 40.300781-90 90-90s90 40.300781 90 90-40.300781 90-90 90-90-40.300781-90-90zm90 50c27.621094 0 50-22.378906 50-50s-22.378906-50-50-50-50 22.378906-50 50 22.378906 50 50 50zm0-80c5.519531 0 10 4.5 10 10v10h10c5.519531 0 10 4.5 10 10 0 5.519531-4.480469 10-10 10h-20c-5.519531 0-10-4.480469-10-10v-20c0-5.5 4.480469-10 10-10zm0 0"/></svg>