<svg height="320pt" viewBox="0 0 320 320" width="320pt" xmlns="http://www.w3.org/2000/svg"><path d="m160 300c-66.261719 0-120-26.859375-120-60 0-12.238281 7.421875-23.601562 20-33.078125v-46.921875c0-41.300781 25.058594-76.738281 60.820312-92-.539062-2.578125-.820312-5.261719-.820312-8 0-22.078125 17.921875-40 40-40s40 17.921875 40 40c0 2.738281-.28125 5.421875-.820312 8 35.742187 15.261719 60.820312 50.699219 60.820312 92v46.921875c12.578125 9.5 20 20.839844 20 33.078125 0 33.140625-53.738281 60-120 60zm0-100c-44.179688 0-80 17.921875-80 40s35.820312 40 80 40 80-17.921875 80-40-35.820312-40-80-40zm0 60c-19.539062 0-35.738281-14.019531-39.238281-32.519531 10.539062-4.601563 24.160156-7.480469 39.238281-7.480469s28.71875 2.878906 39.261719 7.480469c-3.523438 18.5-19.722657 32.519531-39.261719 32.519531zm0 0"/></svg>