<svg height="320pt" viewBox="0 0 320 320" width="320pt" xmlns="http://www.w3.org/2000/svg"><path d="m20 100c-11.039062 0-20-8.960938-20-20s8.960938-20 20-20h20c25.601562 0 48.71875 9.921875 66.398438 25.761719-8.679688 10.898437-15.378907 23.277343-19.839844 36.816406-11-13.65625-27.660156-22.578125-46.558594-22.578125zm180 0c-33.140625 0-60 26.859375-60 60 0 55.238281-44.78125 100-100 100h-20c-11.039062 0-20-8.941406-20-20s8.960938-20 20-20h20c33.140625 0 60-26.859375 60-60 0-55.21875 44.78125-100 100-100h40v-20.019531c0-8.082031 4.878906-15.402344 12.339844-18.480469 7.480468-3.078125 16.082031-1.359375 21.800781 4.339844l40 40c3.898437 3.898437 5.859375 9.019531 5.859375 14.140625 0 5.121093-1.960938 10.238281-5.859375 14.140625l-40 40c-5.71875 5.71875-14.320313 7.417968-21.800781 4.339844-7.460938-3.082032-12.339844-10.402344-12.339844-18.480469v-19.980469zm74.140625 85.839844 40 40c3.898437 3.898437 5.859375 9.019531 5.859375 14.140625 0 5.121093-1.960938 10.238281-5.859375 14.140625l-40 40c-5.71875 5.71875-14.320313 7.417968-21.800781 4.339844-7.460938-3.082032-12.339844-10.402344-12.339844-18.480469v-19.980469h-40c-25.601562 0-48.71875-9.898438-66.421875-25.738281 8.683594-10.921875 15.382813-23.28125 19.863281-36.839844 11 13.679687 27.660156 22.578125 46.558594 22.578125h40v-20.019531c0-8.082031 4.878906-15.402344 12.339844-18.480469 7.480468-3.078125 16.082031-1.359375 21.800781 4.339844zm0 0"/></svg>