<svg height="320pt" viewBox="0 0 320 320" width="320pt" xmlns="http://www.w3.org/2000/svg"><path d="m259 81.019531c-54.679688-54.679687-143.320312-54.679687-197.980469 0l-28.300781-28.300781c70.300781-70.296875 184.28125-70.296875 254.582031 0zm-155.558594 42.421875-28.28125-28.300781c46.859375-46.859375 122.839844-46.859375 169.679688 0l-28.28125 28.300781c-31.21875-31.261718-81.898438-31.261718-113.117188 0zm156.558594 176.558594c0 11.058594-8.941406 20-20 20h-160c-11.058594 0-20-8.941406-20-20v-20c5.800781-28.5 25.699219-52.601562 50.121094-66.679688-6.359375-9.539062-10.121094-20.980468-10.121094-33.320312 0-33.140625 26.859375-60 60-60s60 26.859375 60 60c0 12.339844-3.761719 23.78125-10.121094 33.320312 24.421875 14.078126 44.320313 38.179688 50.121094 66.679688zm-100-140c-11.058594 0-20 8.941406-20 20s8.941406 20 20 20 20-8.941406 20-20-8.941406-20-20-20zm56.320312 120c-8.261718-23.238281-30.21875-40-56.320312-40s-48.058594 16.761719-56.320312 40zm0 0"/></svg>