<svg height="320pt" viewBox="0 0 320 320" width="320pt" xmlns="http://www.w3.org/2000/svg"><path d="m300 180c-1.238281 0-2.28125-.480469-3.460938-.699219-8.058593 23.621094-30.199218 40.699219-56.539062 40.699219v-140h-20c0-11.039062-8.941406-20-20-20h-80c-11.039062 0-20 8.960938-20 20h-20v160c0 11.058594 8.960938 20 20 20 0-11.058594 8.960938-20 20-20h20c11.039062 0 20 8.941406 20 20v20c0 11.058594-8.960938 20-20 20h-20c-11.039062 0-20-8.941406-20-20-22.078125 0-40-17.921875-40-40v-23.558594c-17.140625-6.121094-30.640625-19.839844-36.539062-37.140625-1.160157.21875-2.222657.699219-3.460938.699219-11.039062 0-20-8.960938-20-20s8.960938-20 20-20c1.179688 0 2.199219.480469 3.339844.679688 5.921875-17.238282 19.480468-30.898438 36.660156-37v-23.679688c0-33.140625 26.859375-60 60-60h80c33.140625 0 60 26.859375 60 60v23.679688c17.179688 6.121093 30.71875 19.78125 36.679688 37 1.121093-.199219 2.121093-.679688 3.320312-.679688 11.058594 0 20 8.960938 20 20s-8.941406 20-20 20zm-240-40h-20v40h20zm220 0h-20v40h20zm0 0"/></svg>