<svg height="320pt" viewBox="0 0 320 320" width="320pt" xmlns="http://www.w3.org/2000/svg"><path d="m300 320h-280c-11.058594 0-20-8.941406-20-20v-220c0-11.039062 8.941406-20 20-20h20v-20h20v20h40v-40c0-11.039062 8.941406-20 20-20h80c11.058594 0 20 8.960938 20 20v40h80c11.058594 0 20 8.960938 20 20v220c0 11.058594-8.941406 20-20 20zm-120-280h-40v20h40zm100 60h-240v60h75.558594c11-12.179688 26.742187-20 44.441406-20s33.441406 7.820312 44.441406 20h75.558594zm-160 100c0 22.078125 17.921875 40 40 40s40-17.921875 40-40-17.921875-40-40-40-40 17.921875-40 40zm160-20h-63.679688c2.238282 6.28125 3.679688 12.941406 3.679688 20 0 33.121094-26.859375 60-60 60s-60-26.878906-60-60c0-7.058594 1.441406-13.71875 3.679688-20h-63.679688v100h240zm-20-40h-40v-20h40zm-160-20h20v20h-20zm-40 0h20v20h-20zm0 0"/></svg>