<svg height="320pt" viewBox="0 0 320 320" width="320pt" xmlns="http://www.w3.org/2000/svg"><path d="m282.738281 93.980469c7.640625 14.140625 13.042969 29.597656 15.582031 46.019531h-61.160156c-7.238281-28-29.160156-49.921875-57.160156-57.160156v-61.160156c16.5 2.539062 32.039062 8 46.238281 15.679687l25.640625-25.640625c15.621094-15.617188 40.941406-15.617188 56.5625 0 15.617188 15.621094 15.617188 40.941406 0 56.5625zm11.5625-68.121094c-7.820312-7.820313-20.460937-7.820313-28.28125 0l-22.417969 22.441406c10.71875 8.039063 20.21875 17.539063 28.257813 28.277344l22.441406-22.4375c7.800781-7.820313 7.800781-20.460937 0-28.28125zm-154.300781 56.980469c-28 7.238281-49.921875 29.160156-57.160156 57.160156h-61.160156c2.539062-16.421875 7.941406-31.878906 15.582031-46.019531l-25.703125-25.699219c-15.617188-15.621094-15.617188-40.941406 0-56.5625 15.621094-15.617188 40.941406-15.617188 56.5625 0l25.640625 25.640625c14.199219-7.679687 29.738281-13.140625 46.238281-15.679687zm-86.019531-56.980469c-7.820313-7.820313-20.460938-7.820313-28.28125 0-7.820313 7.820313-7.820313 20.460937 0 28.28125l22.441406 22.4375c8.039063-10.738281 17.519531-20.238281 28.257813-28.277344zm-16.71875 200.160156c-7.640625-14.140625-13.042969-29.597656-15.582031-46.019531h61.160156c7.238281 28 29.160156 49.921875 57.160156 57.160156v61.179688c-16.5-2.558594-32.039062-8.019532-46.238281-15.699219l-25.640625 25.640625c-15.621094 15.617188-40.941406 15.617188-56.5625 0-15.617188-15.621094-15.617188-40.941406 0-56.5625zm-11.5625 68.121094c7.820312 7.820313 20.460937 7.820313 28.28125 0l22.417969-22.421875c-10.738282-8.058594-20.238282-17.558594-28.257813-28.296875l-22.441406 22.4375c-7.800781 7.820313-7.800781 20.460937 0 28.28125zm154.300781-56.980469c28-7.238281 49.921875-29.160156 57.160156-57.160156h61.160156c-2.539062 16.421875-7.941406 31.878906-15.582031 46.019531l25.703125 25.699219c15.617188 15.621094 15.617188 40.941406 0 56.5625-15.621094 15.617188-40.941406 15.617188-56.5625 0l-25.640625-25.640625c-14.199219 7.679687-29.71875 13.140625-46.238281 15.699219zm86.019531 56.980469c7.820313 7.820313 20.460938 7.820313 28.28125 0 7.820313-7.820313 7.820313-20.460937 0-28.28125l-22.441406-22.4375c-8.039063 10.738281-17.539063 20.238281-28.257813 28.296875zm0 0"/></svg>