<svg height="320pt" viewBox="0 0 320 320" width="320pt" xmlns="http://www.w3.org/2000/svg"><path d="m302.421875 26.878906c-6.722656-4.539062-14.523437-6.878906-22.421875-6.878906-5.019531 0-10.058594.960938-14.859375 2.878906l-100 40c-1.878906.742188-3.421875 1.980469-5.140625 3-1.71875-1.019531-3.261719-2.257812-5.140625-3l-100-40c-4.800781-1.917968-9.839844-2.878906-14.859375-2.878906-7.878906 0-15.71875 2.339844-22.421875 6.878906-11 7.441406-17.578125 19.839844-17.578125 33.121094v180c0 16.339844 9.960938 31.078125 25.140625 37.140625l100 40c4.800781 1.917969 9.839844 2.859375 14.859375 2.859375 7 0 13.820312-2.121094 20-5.71875 6.179688 3.597656 13 5.71875 20 5.71875 5.019531 0 10.058594-.941406 14.859375-2.859375l100-40c15.179687-6.0625 25.140625-20.800781 25.140625-37.140625v-180c0-13.28125-6.578125-25.679688-17.578125-33.121094zm-162.421875 253.121094-100-40v-180l100 40zm140-40-100 40v-180l100-40zm-160-128-60-24v20l60 24zm0 40-60-24v20l60 24zm0 40-60-24v20l60 24zm0 40-60-24v20l60 24zm140-24-60 24v20l60-23.980469zm0-40-60 24v20l60-24zm0-40-60 24v20l60-24zm0-40-60 24v20l60-24zm0 0"/></svg>