<svg height="320pt" viewBox="0 0 320 320" width="320pt" xmlns="http://www.w3.org/2000/svg"><path d="m40 216.320312v-116.320312c0-33.140625 26.859375-60 60-60h156.320312c-8.261718-23.261719-30.21875-40-56.320312-40h-140c-33.140625 0-60 26.859375-60 60v100c0 26.101562 16.761719 48.058594 40 56.320312zm20-96.320312v80c0 33.121094 26.859375 60 60 60h60l40 60 40-60c33.140625 0 60-26.878906 60-60v-80c0-33.140625-26.859375-60-60-60h-140c-33.140625 0-60 26.859375-60 60zm220 0v80c0 11.058594-8.941406 20-20 20h-13.339844l-26.660156 40-26.660156-40h-73.339844c-11.058594 0-20-8.941406-20-20v-80c0-11.039062 8.941406-20 20-20h140c11.058594 0 20 8.960938 20 20zm0 0"/></svg>