<svg height="320pt" viewBox="0 0 320 320" width="320pt" xmlns="http://www.w3.org/2000/svg"><path d="m302.921875 130.21875-29.582031 29.542969c-18.441406 18.4375-45.820313 22.136719-68.078125 11.539062l68.078125-68.101562c7.820312-7.820313 7.820312-20.480469 0-28.277344l-28.261719-28.320313c-7.816406-7.820312-20.457031-7.820312-28.277344 0l-68.101562 68.117188c-10.597657-22.277344-6.898438-49.660156 11.539062-68.117188l29.523438-29.542968c23.4375-23.417969 61.4375-23.417969 84.839843 0l28.320313 28.28125c23.398437 23.441406 23.398437 61.441406 0 84.878906zm-199.242187 86.082031c-7.820313-7.820312-7.820313-20.460937 0-28.28125l84.839843-84.839843c7.820313-7.820313 20.460938-7.820313 28.28125 0 7.820313 7.820312 7.820313 20.460937 0 28.28125l-84.839843 84.839843c-7.800782 7.820313-20.480469 7.820313-28.28125 0zm-56.578126 28.300781 28.277344 28.277344c7.820313 7.820313 20.460938 7.820313 28.28125 0l68.121094-68.117187c10.597656 22.277343 6.898438 49.660156-11.542969 68.117187l-27.039062 29.542969c-23.4375 23.4375-61.417969 23.4375-84.859375 0l-30.800782-30.78125c-23.417968-23.441406-23.417968-61.421875 0-84.859375l29.539063-27.042969c18.480469-18.4375 45.84375-22.136719 68.140625-11.539062l-68.117188 68.101562c-7.800781 7.820313-7.800781 20.5 0 28.300781zm0 0"/></svg>