<svg height="320pt" viewBox="0 0 320 320" width="320pt" xmlns="http://www.w3.org/2000/svg"><path d="m50.558594 257.640625c-6.5-3.5-10.558594-10.261719-10.558594-17.640625v-160c0-7.378906 4.078125-14.160156 10.578125-17.640625s14.382813-3.078125 20.523437 1l120 80c5.558594 3.71875 8.898438 9.941406 8.898438 16.640625 0 6.679688-3.339844 12.921875-8.921875 16.640625l-120 80c-6.117187 4.097656-14.019531 4.480469-20.519531 1zm169.441406 2.359375c-11.058594 0-20-8.941406-20-20v-160c0-11.058594 8.941406-20 20-20h40c11.058594 0 20 8.941406 20 20v160c0 11.058594-8.941406 20-20 20zm0 0"/></svg>