<svg height="320pt" viewBox="0 0 320 320" width="320pt" xmlns="http://www.w3.org/2000/svg"><path d="m260 60h-200v200h200zm-180 20h60v20h-60zm0 60h100v20h-100zm80 100h-80v-20h80zm60-40h-140v-20h140zm20-100h-20v-20h20zm80-40v-40c0-11.039062-8.941406-20-20-20h-40c0 11.058594-8.941406 20-20 20s-20-8.941406-20-20h-40c0 11.058594-8.941406 20-20 20s-20-8.941406-20-20h-40c0 11.058594-8.941406 20-20 20s-20-8.941406-20-20h-40c-11.058594 0-20 8.960938-20 20v40c11.058594 0 20 8.960938 20 20 0 11.058594-8.941406 20-20 20v40c11.058594 0 20 8.960938 20 20 0 11.058594-8.941406 20-20 20v40c11.058594 0 20 8.960938 20 20 0 11.058594-8.941406 20-20 20v40c0 11.058594 8.941406 20 20 20h40c0-11.039062 8.941406-20 20-20s20 8.960938 20 20h40c0-11.039062 8.941406-20 20-20s20 8.960938 20 20h40c0-11.039062 8.941406-20 20-20s20 8.960938 20 20h40c11.058594 0 20-8.941406 20-20v-40c-11.058594 0-20-8.941406-20-20 0-11.039062 8.941406-20 20-20v-40c-11.058594 0-20-8.941406-20-20 0-11.039062 8.941406-20 20-20v-40c-11.058594 0-20-8.941406-20-20 0-11.039062 8.941406-20 20-20zm-40 220h-240v-240h240zm0 0"/></svg>