<svg height="320pt" viewBox="0 0 320 320" width="320pt" xmlns="http://www.w3.org/2000/svg"><path d="m320 260v40c0 11.058594-8.941406 20-20 20h-40c0-11.039062-8.941406-20-20-20s-20 8.960938-20 20h-40c0-11.039062-8.941406-20-20-20s-20 8.960938-20 20h-40c0-11.039062-8.941406-20-20-20s-20 8.960938-20 20h-40c-11.058594 0-20-8.941406-20-20v-40c11.058594 0 20-8.941406 20-20 0-11.039062-8.941406-20-20-20v-40c11.058594 0 20-8.941406 20-20 0-11.039062-8.941406-20-20-20v-40c11.058594 0 20-8.941406 20-20 0-11.039062-8.941406-20-20-20v-40c0-11.039062 8.941406-20 20-20h40c0 11.058594 8.941406 20 20 20s20-8.941406 20-20h40c0 11.058594 8.941406 20 20 20s20-8.941406 20-20h40c0 11.058594 8.941406 20 20 20s20-8.941406 20-20h40c11.058594 0 20 8.960938 20 20v40c-11.058594 0-20 8.960938-20 20 0 11.058594 8.941406 20 20 20v40c-11.058594 0-20 8.960938-20 20 0 11.058594 8.941406 20 20 20v40c-11.058594 0-20 8.960938-20 20 0 11.058594 8.941406 20 20 20zm-40-220h-240v240h240zm-20 220h-200v-200h200zm-20-180h-160v160h160zm0 0"/></svg>