<svg height="320pt" viewBox="0 0 320 320" width="320pt" xmlns="http://www.w3.org/2000/svg"><path d="m280 100v160c0 33.140625-26.878906 60-60 60h-120c-33.140625 0-60-26.859375-60-60v-160c-11.039062 0-20-8.941406-20-20s8.960938-20 20-20h60c0-33.140625 26.859375-60 60-60 33.121094 0 60 26.859375 60 60h60c11.058594 0 20 8.941406 20 20s-8.941406 20-20 20zm-120-60c-11.039062 0-20 8.941406-20 20h40c0-11.058594-8.941406-20-20-20zm-80 60v160c0 11.058594 8.960938 20 20 20h120c11.058594 0 20-8.941406 20-20v-160zm110 140c-5.5 0-10-4.480469-10-10v-80c0-5.519531 4.5-10 10-10 5.519531 0 10 4.480469 10 10v80c0 5.519531-4.480469 10-10 10zm-60 0c-5.519531 0-10-4.480469-10-10v-80c0-5.519531 4.480469-10 10-10s10 4.480469 10 10v80c0 5.519531-4.480469 10-10 10zm0 0"/></svg>