<svg height="320pt" viewBox="0 0 320 320" width="320pt" xmlns="http://www.w3.org/2000/svg"><path d="m318.480469 252.339844c-3.082031-7.460938-10.402344-12.339844-18.480469-12.339844h-20v-170c0-38.660156-31.339844-70-70-70s-70 31.339844-70 70v180c0 16.558594-13.421875 30-30 30s-30-13.441406-30-30 0-170 0-170h20c8.078125 0 15.398438-4.878906 18.480469-12.339844 3.078125-7.480468 1.378906-16.082031-4.339844-21.800781l-40-40c-3.921875-3.898437-9.039063-5.859375-14.140625-5.859375s-10.238281 1.960938-14.160156 5.859375l-40 40c-5.699219 5.71875-7.417969 14.320313-4.339844 21.800781 3.101562 7.460938 10.398438 12.339844 18.5 12.339844h20v170s31.339844 70 70 70c38.679688 0 70-31.339844 70-70v-180c0-16.578125 13.441406-30 30-30s30 13.421875 30 30v170h-20c-8.078125 0-15.398438 4.878906-18.480469 12.339844-3.078125 7.480468-1.359375 16.082031 4.339844 21.800781l40 40c3.902344 3.898437 9.019531 5.859375 14.140625 5.859375s10.238281-1.960938 14.140625-5.859375l40-40c5.71875-5.71875 7.417969-14.320313 4.339844-21.800781zm0 0"/></svg>