<svg height="320pt" viewBox="0 0 320 320" width="320pt" xmlns="http://www.w3.org/2000/svg"><path d="m314.21875 285.320312-34.21875-34.21875v-181.5625l34.460938-34.4375c3.460937 7.597657 5.539062 15.976563 5.539062 24.898438v200c0 9.078125-2.160156 17.601562-5.78125 25.320312zm-247.179688-245.320312-33.558593-33.558594c8.019531-3.980468 16.941406-6.441406 26.519531-6.441406h200c9.578125 0 18.5 2.460938 26.519531 6.441406l-33.558593 33.558594zm-27.039062 211.101562-34.21875 34.21875c-3.621094-7.71875-5.78125-16.242187-5.78125-25.320312v-200c0-8.921875 2.078125-17.300781 5.558594-24.898438l34.441406 34.4375zm200-11.101562h-160v-40h160zm-160-160h160v40h-160zm160 100h-160v-40h160zm12.339844 100 33.78125 33.78125c-7.921875 3.878906-16.699219 6.21875-26.121094 6.21875h-200c-9.398438 0-18.199219-2.339844-26.121094-6.21875l33.78125-33.78125zm0 0"/></svg>