<svg height="320pt" viewBox="0 0 320 320" width="320pt" xmlns="http://www.w3.org/2000/svg"><path d="m280 100v160c0 33.121094-26.878906 60-60 60h-120c-33.140625 0-60-26.878906-60-60v-160c-11.039062 0-20-8.960938-20-20s8.960938-20 20-20h60c0-33.140625 26.859375-60 60-60 33.121094 0 60 26.859375 60 60h60c11.058594 0 20 8.960938 20 20s-8.941406 20-20 20zm-120-60c-11.039062 0-20 8.960938-20 20h40c0-11.039062-8.960938-20-20-20zm80 60h-160v160c0 11.058594 8.960938 20 20 20h120c11.058594 0 20-8.941406 20-20zm-40 20h20v140h-20zm-60 0h40v140h-40zm-40 0h20v140h-20zm0 0"/></svg>