<svg height="320pt" viewBox="0 0 320 320" width="320pt" xmlns="http://www.w3.org/2000/svg"><path d="m0 260v-200c0-33.140625 26.859375-60 60-60h160c33.121094 0 60 26.859375 60 60v40h20c11.058594 0 20 8.941406 20 20v80c0 11.058594-8.941406 20-20 20h-20v40c0 33.140625-26.878906 60-60 60h-160c-33.140625 0-60-26.859375-60-60zm300-60v-80h-120v80zm-80 80c11.058594 0 20-8.941406 20-20v-40h-20v20h-20v-20h-20c-11.039062 0-20-8.941406-20-20v-80c0-11.058594 8.960938-20 20-20h60v-40c0-11.039062-8.941406-20-20-20h-160c-11.039062 0-20 8.960938-20 20v200c0 11.058594 8.960938 20 20 20zm-160-40h20v20c-11.039062 0-20-8.941406-20-20zm60 0v20h-20v-20zm40 0v20h-20v-20zm-80-40v20h-20v-20zm0-40v20h-20v-20zm0-40v20h-20v-20zm0-40v20h-20v-20zm20-20v20h-20v-20zm40 0v20h-20v-20zm40 0v20h-20v-20zm40 20h-20v-20c11.058594 0 20 8.960938 20 20zm-40 180v-20h20v20zm60-100c0 11.058594-8.941406 20-20 20s-20-8.941406-20-20 8.941406-20 20-20 20 8.941406 20 20zm0 0"/></svg>