<svg height="320pt" viewBox="0 0 320 320" width="320pt" xmlns="http://www.w3.org/2000/svg"><path d="m260 0c33.140625 0 60 26.859375 60 60v200c0 33.140625-26.859375 60-60 60h-200c-33.140625 0-60-26.859375-60-60v-200c0-33.140625 26.859375-60 60-60h40v40h-40c-11.039062 0-20 8.960938-20 20v200c0 11.058594 8.960938 20 20 20h200c11.058594 0 20-8.941406 20-20v-200c0-11.039062-8.941406-20-20-20h-40v-40zm-160 200h120l40 60h-200zm45.859375-45.859375-40-40c-5.71875-5.71875-7.417969-14.320313-4.339844-21.800781 3.082031-7.460938 10.402344-12.339844 18.480469-12.339844h20v-60c0-11.058594 8.960938-20 20-20 11.058594 0 20 8.941406 20 20v60h20c8.078125 0 15.398438 4.878906 18.480469 12.339844 3.078125 7.480468 1.359375 16.082031-4.339844 21.800781l-40 40c-3.902344 3.898437-9.019531 5.859375-14.140625 5.859375s-10.238281-1.960938-14.140625-5.859375zm0 0"/></svg>