<svg height="320pt" viewBox="0 0 320 320" width="320pt" xmlns="http://www.w3.org/2000/svg"><path d="m160 320c-88.359375 0-160-71.640625-160-160s71.640625-160 160-160 160 71.640625 160 160-71.640625 160-160 160zm0-280c-66.261719 0-120 53.738281-120 120s53.738281 120 120 120 120-53.738281 120-120-53.738281-120-120-120zm-56.578125 176.558594c-15.621094-15.597656 12.65625-69.21875 28.296875-84.839844 15.621094-15.617188 69.242188-43.898438 84.839844-28.277344 15.621094 15.597656-12.660156 69.21875-28.277344 84.839844-15.621094 15.617188-69.222656 43.898438-84.859375 28.277344zm99-98.980469c-7.820313-7.816406-48.742187 20.460937-56.5625 28.28125l28.28125 28.28125c7.820313-7.820313 36.097656-48.742187 28.28125-56.5625zm0 0"/></svg>