<svg height="320pt" viewBox="0 0 320 320" width="320pt" xmlns="http://www.w3.org/2000/svg"><path d="m283.921875 134.640625c-10.203125 5.878906-41.601563 18.097656-70.363281 25.359375 28.761718 7.261719 60.160156 19.480469 70.382812 25.359375 19.097656 11.039063 25.660156 35.5 14.617188 54.640625-11.039063 19.140625-35.5 25.679688-54.617188 14.640625-10.222656-5.902344-36.5-27.019531-57.160156-48.300781 8.097656 28.558594 13.21875 61.878906 13.21875 73.660156 0 22.078125-17.921875 40-40 40s-40-17.921875-40-40c0-11.78125 5.121094-45.101562 13.238281-73.660156-20.660156 21.28125-46.9375 42.398437-57.160156 48.300781-19.136719 11.039063-43.597656 4.5-54.636719-14.640625-11.042968-19.140625-4.5-43.601562 14.636719-54.640625 10.203125-5.878906 41.601563-18.097656 70.382813-25.359375-28.78125-7.261719-60.179688-19.480469-70.382813-25.359375-19.136719-11.039063-25.679687-35.5-14.636719-54.640625 11.039063-19.140625 35.5-25.679688 54.636719-14.640625 10.222656 5.902344 36.5 27.019531 57.160156 48.300781-8.117187-28.558594-13.238281-61.878906-13.238281-73.660156 0-22.078125 17.921875-40 40-40s40 17.921875 40 40c0 11.78125-5.121094 45.101562-13.238281 73.660156 20.660156-21.28125 46.957031-42.398437 57.160156-48.300781 19.117187-11.039063 43.597656-4.5 54.617187 14.640625 11.0625 19.140625 4.5 43.601562-14.617187 54.640625zm0 0"/></svg>