<svg height="320pt" viewBox="0 0 320 320" width="320pt" xmlns="http://www.w3.org/2000/svg"><path d="m300 140h-20c-.699219 0-1.28125.339844-1.980469.398438-3.039062-18.457032-10.179687-35.4375-20.621093-50.039063.5-.417969 1.121093-.578125 1.601562-1.058594l14.140625-14.140625c7.820313-7.820312 7.820313-20.460937 0-28.28125-7.820313-7.820312-20.480469-7.820312-28.300781 0l-14.140625 14.121094c-.460938.460938-.640625 1.101562-1.058594 1.601562-14.582031-10.460937-31.582031-17.582031-50.039063-20.621093.058594-.699219.398438-1.28125.398438-1.980469v-20c0-11.039062-8.941406-20-20-20s-20 8.960938-20 20v20c0 .699219.339844 1.28125.398438 1.980469-18.457032 3.039062-35.457032 10.160156-50.039063 20.621093-.417969-.5-.597656-1.121093-1.058594-1.601562l-14.140625-14.140625c-7.820312-7.820313-20.480468-7.820313-28.300781 0-7.800781 7.820313-7.800781 20.460937 0 28.28125l14.160156 14.140625c.460938.480469 1.058594.660156 1.582031 1.078125-10.460937 14.601563-17.582031 31.582031-20.621093 50.039063-.699219-.058594-1.28125-.398438-1.980469-.398438h-20c-11.058594 0-20 8.960938-20 20s8.941406 20 20 20h20c.699219 0 1.28125-.320312 1.980469-.398438 3.039062 18.457032 10.179687 35.4375 20.621093 50.039063-.5.417969-1.121093.578125-1.582031 1.058594l-14.160156 14.140625c-7.800781 7.820312-7.800781 20.480468 0 28.28125 7.820313 7.820312 20.480469 7.820312 28.300781 0l14.140625-14.140625c.460938-.460938.640625-1.101563 1.058594-1.601563 14.582031 10.460938 31.582031 17.582032 50.039063 20.640625-.058594.699219-.398438 1.28125-.398438 1.980469v20c0 11.058594 8.941406 20 20 20s20-8.941406 20-20v-20c0-.699219-.339844-1.28125-.398438-1.980469 18.457032-3.058593 35.4375-10.179687 50.039063-20.640625.417969.5.578125 1.140625 1.058594 1.601563l14.140625 14.140625c7.820312 7.820312 20.480468 7.820312 28.300781 0 7.820313-7.800782 7.820313-20.460938 0-28.28125l-14.140625-14.140625c-.480469-.460938-1.101562-.621094-1.601562-1.058594 10.441406-14.601563 17.582031-31.582031 20.621093-50.039063.699219.078126 1.28125.398438 1.980469.398438h20c11.058594 0 20-8.960938 20-20s-8.941406-20-20-20zm-140 80c-33.140625 0-60-26.878906-60-60 0-33.140625 26.859375-60 60-60s60 26.859375 60 60c0 33.121094-26.859375 60-60 60zm0 0"/></svg>