<svg height="320pt" viewBox="0 0 320 320" width="320pt" xmlns="http://www.w3.org/2000/svg"><path d="m280 320h-200c-11.058594 0-20-8.941406-20-20v-20c11.058594 0 20-8.941406 20-20v-20c0-11.039062-8.941406-20-20-20v-120c11.058594 0 20-8.941406 20-20v-20c0-11.039062-8.941406-20-20-20v-20c0-11.039062 8.941406-20 20-20h200c11.058594 0 20 8.960938 20 20v280c0 11.058594-8.941406 20-20 20zm-40-110c-3.078125-18.339844-15.421875-33.761719-31.121094-42.441406 6.859375-7.160156 11.121094-16.859375 11.121094-27.558594v-20c0-22.078125-17.921875-40-40-40s-40 17.921875-40 40v20c0 10.699219 4.261719 20.398438 11.121094 27.558594-15.699219 8.679687-28.042969 24.101562-31.121094 42.441406 0 16.558594 13.441406 30 30 30h60c16.558594 0 30-13.441406 30-30zm-190-130h-20c-5.519531 0-10-4.480469-10-10s4.480469-10 10-10h20c5.519531 0 10 4.480469 10 10s-4.480469 10-10 10zm-30-60c0-11.039062 8.941406-20 20-20v40h-20zm20 200h-20v-120h20zm-10 20h20c5.519531 0 10 4.480469 10 10s-4.480469 10-10 10h-20c-5.519531 0-10-4.480469-10-10s4.480469-10 10-10zm10 80c-11.058594 0-20-8.941406-20-20v-20h20zm0 0"/></svg>