<svg height="320pt" viewBox="0 0 320 320" width="320pt" xmlns="http://www.w3.org/2000/svg"><path d="m310.660156 310.660156c-11.71875 11.71875-30.699218 11.71875-42.421875 0l-52.9375-52.941406c-21.78125 13.941406-47.519531 22.28125-75.300781 22.28125-77.320312 0-140-62.679688-140-140s62.679688-140 140-140 140 62.679688 140 140c0 27.78125-8.339844 53.519531-22.28125 75.300781l52.941406 52.9375c11.71875 11.722657 11.71875 30.703125 0 42.421875zm-170.660156-270.660156c-55.21875 0-100 44.78125-100 100 0 55.238281 44.78125 100 100 100 55.238281 0 100-44.761719 100-100 0-55.21875-44.761719-100-100-100zm40 120h-20v20c0 11.058594-8.941406 20-20 20s-20-8.941406-20-20v-20h-20c-11.039062 0-20-8.960938-20-20s8.960938-20 20-20h20v-20c0-11.039062 8.941406-20 20-20s20 8.960938 20 20v20h20c11.058594 0 20 8.960938 20 20s-8.941406 20-20 20zm0 0"/></svg>