<svg height="320pt" viewBox="0 0 320 320" width="320pt" xmlns="http://www.w3.org/2000/svg"><path d="m280 260h-80c-11.058594 0-20-8.941406-20-20s8.941406-20 20-20h80c11.058594 0 20 8.941406 20 20s-8.941406 20-20 20zm-75.261719-80h-4.738281c-18.320312 0-34.539062 8.398438-45.539062 21.339844-4.742188-.859375-9.5625-1.339844-14.460938-1.339844-37.238281 0-71.078125 25.539062-80 60 0 11.058594 8.960938 20 20 20h75.578125c10.980469 12.179688 26.722656 20 44.421875 20h44.421875c-10.980469 12.179688-26.722656 20-44.421875 20h-120c-33.140625 0-60-26.878906-60-60 6.179688-36.679688 30.859375-67.5 62.238281-84.859375-13.699219-14.378906-22.238281-33.742187-22.238281-55.140625v-40c0-44.179688 35.820312-80 80-80s80 35.820312 80 80v40c0 21.398438-8.539062 40.761719-22.21875 55.140625 2.480469 1.359375 4.578125 3.320313 6.957031 4.859375zm-24.738281-100c0-22.078125-17.921875-40-40-40s-40 17.921875-40 40v40c0 22.078125 17.921875 40 40 40s40-17.921875 40-40zm0 0"/></svg>