<svg height="320pt" viewBox="0 0 320 320" width="320pt" xmlns="http://www.w3.org/2000/svg"><path d="m220 180h-120c-11.039062 0-20 8.941406-20 20h-20v20h20c0 11.058594 8.960938 20 20 20h120c11.058594 0 20-8.941406 20-20h20v-20h-20c0-11.058594-8.941406-20-20-20zm0 40h-120v-20h120zm40-220h-200c-33.140625 0-60 26.859375-60 60v200c0 33.140625 26.859375 60 60 60h200c33.140625 0 60-26.859375 60-60v-200c0-33.140625-26.859375-60-60-60zm20 260c0 11.058594-8.941406 20-20 20h-200c-11.039062 0-20-8.941406-20-20v-200c0-11.058594 8.960938-20 20-20h200c11.058594 0 20 8.941406 20 20zm-100-180h-40c-11.039062 0-20 8.941406-20 20h-60v20h60c0 11.058594 8.960938 20 20 20h40c11.058594 0 20-8.941406 20-20h60v-20h-60c0-11.058594-8.941406-20-20-20zm0 40h-40v-20h40zm0 0"/></svg>