<svg height="320pt" viewBox="0 0 320 320" width="320pt" xmlns="http://www.w3.org/2000/svg"><path d="m260 320h-200c-33.140625 0-60-26.859375-60-60v-200c0-33.140625 26.859375-60 60-60h200c33.121094 0 60 26.859375 60 60v200c0 33.140625-26.878906 60-60 60zm20-260c0-11.058594-8.941406-20-20-20h-200c-11.039062 0-20 8.941406-20 20v200c0 11.058594 8.960938 20 20 20h200c11.058594 0 20-8.941406 20-20zm-63.441406 156.558594c-7.820313 7.820312-20.457032 7.820312-28.277344 0l-28.28125-28.277344-28.28125 28.277344c-7.820312 7.820312-20.480469 7.820312-28.296875 0-7.800781-7.820313-7.800781-20.457032 0-28.277344l28.296875-28.28125-28.296875-28.28125c-7.800781-7.820312-7.800781-20.457031 0-28.277344 7.816406-7.820312 20.476563-7.820312 28.296875 0l28.28125 28.277344 28.28125-28.277344c7.820312-7.820312 20.457031-7.820312 28.277344 0 7.820312 7.820313 7.820312 20.457032 0 28.277344l-28.277344 28.28125 28.277344 28.28125c7.820312 7.820312 7.820312 20.480469 0 28.277344zm0 0"/></svg>