<svg height="320pt" viewBox="0 0 320 320" width="320pt" xmlns="http://www.w3.org/2000/svg"><path d="m160 320c-66.261719 0-120-26.859375-120-60v-33.761719c0 33.160157 53.738281 53.761719 120 53.761719s120-20.601562 120-53.761719v33.761719c0 33.140625-53.738281 60-120 60zm0-60c-66.261719 0-120-26.859375-120-60v-33.761719c0 33.160157 53.738281 53.761719 120 53.761719s120-20.601562 120-53.761719v33.761719c0 33.140625-53.738281 60-120 60zm0-60c-66.261719 0-120-26.859375-120-60v-33.761719c0 33.160157 53.738281 53.761719 120 53.761719s120-20.601562 120-53.761719v33.761719c0 33.140625-53.738281 60-120 60zm0-60c-66.261719 0-120-26.859375-120-60v-20c0-33.140625 53.738281-60 120-60s120 26.859375 120 60v20c0 33.140625-53.738281 60-120 60zm0 0"/></svg>