<svg height="320pt" viewBox="0 0 320 320" width="320pt" xmlns="http://www.w3.org/2000/svg"><path d="m160 320c-88.359375 0-160-71.640625-160-160s71.640625-160 160-160 160 71.640625 160 160-71.640625 160-160 160zm0-40c35.398438 0 66.898438-15.621094 88.859375-40h-177.71875c21.960937 24.378906 53.460937 40 88.859375 40zm0-240c-66.261719 0-120 53.738281-120 120 0 14.101562 2.878906 27.441406 7.339844 40h225.320312c4.441406-12.558594 7.339844-25.898438 7.339844-40 0-66.261719-53.738281-120-120-120zm0 0"/></svg>