<svg height="320pt" viewBox="0 0 320 320" width="320pt" xmlns="http://www.w3.org/2000/svg"><path d="m302.421875 157.578125-140-140c-11.722656-11.71875-27.0625-17.578125-42.421875-17.578125h-120v120c0 15.359375 5.859375 30.699219 17.578125 42.421875l140 140c23.441406 23.4375 61.402344 23.4375 84.84375 0l60-60c23.4375-23.441406 23.4375-61.402344 0-84.84375zm-28.28125 56.5625-60 60c-7.820313 7.820313-20.460937 7.820313-28.28125 0l-140-140c-3.898437-3.902344-5.859375-9.019531-5.859375-14.140625v-80h80c5.121094 0 10.238281 1.960938 14.140625 5.859375l140 140c7.820313 7.820313 7.820313 20.460937 0 28.28125zm-194.140625-154.140625c-11.058594 0-20 8.941406-20 20s8.941406 20 20 20 20-8.941406 20-20-8.941406-20-20-20zm0 0"/></svg>