<svg height="320pt" viewBox="0 0 320 320" width="320pt" xmlns="http://www.w3.org/2000/svg"><path d="m40 100v40h-40v-40zm0 80v40h-40v-40zm0 80c0 11.058594 8.960938 20 20 20v40c-33.140625 0-60-26.878906-60-60zm60-220v-40h40v40zm180 20c0-11.039062-8.941406-20-20-20v-40c33.121094 0 60 26.859375 60 60zm-280 0c0-33.140625 26.859375-60 60-60v40c-11.039062 0-20 8.960938-20 20zm280 160v-40h40v40zm0-80v-40h40v40zm-20 140c11.058594 0 20-8.941406 20-20h40c0 33.121094-26.878906 60-60 60zm-80-240v-40h40v40zm-80 280v-40h40v40zm80 0v-40h40v40zm0 0"/></svg>