<svg height="320pt" viewBox="0 0 320 320" width="320pt" xmlns="http://www.w3.org/2000/svg"><path d="m300 80h-80c-11.058594 0-20-8.941406-20-20s8.941406-20 20-20h80c11.058594 0 20 8.941406 20 20s-8.941406 20-20 20zm-140 120c-22.078125 0-40-17.921875-40-40 0-.679688.160156-1.300781.199219-1.980469 3.101562 1.082031 6.320312 1.980469 9.800781 1.980469 16.558594 0 30-13.441406 30-30 0-3.480469-.898438-6.699219-1.980469-9.800781.679688-.039063 1.300781-.199219 1.980469-.199219 22.078125 0 40 17.921875 40 40s-17.921875 40-40 40zm0-120c-44.179688 0-80 35.820312-80 80s35.820312 80 80 80 80-35.820312 80-80c0-14.640625-4.21875-28.179688-11.101562-40h70.742187c14.28125 22.019531 20.359375 40 20.359375 40s-40 120-160 120-160-120-160-120 40-120 160-120c1.238281 0 2.359375.199219 3.621094.238281-2.199219 6.203125-3.621094 12.78125-3.621094 19.761719 0 7.179688 1.460938 13.980469 3.78125 20.398438-1.28125-.078126-2.480469-.398438-3.78125-.398438zm0 0"/></svg>