<svg height="320pt" viewBox="0 0 320 320" width="320pt" xmlns="http://www.w3.org/2000/svg"><path d="m280 200c0 66.261719-53.738281 120-120 120s-120-53.738281-120-120 53.738281-120 120-120 120 53.738281 120 120zm-120-80c-44.179688 0-80 35.820312-80 80s35.820312 80 80 80 80-35.820312 80-80-35.820312-80-80-80zm0 100c-11.039062 0-20-8.941406-20-20s20-60 20-60 20 48.941406 20 60-8.941406 20-20 20zm-40-180c0-22.078125 17.921875-40 40-40s40 17.921875 40 40-17.921875 40-40 40-40-17.921875-40-40zm40 20c11.058594 0 20-8.941406 20-20s-8.941406-20-20-20c-11.039062 0-20 8.941406-20 20s8.960938 20 20 20zm0 0"/></svg>