<svg height="320pt" viewBox="0 0 320 320" width="320pt" xmlns="http://www.w3.org/2000/svg"><path d="m160 320c-88.359375 0-160-71.640625-160-160s71.640625-160 160-160 160 71.640625 160 160-71.640625 160-160 160zm0-280c-66.261719 0-120 53.738281-120 120s53.738281 120 120 120 120-53.738281 120-120-53.738281-120-120-120zm0 160c-11.058594 0-20-8.941406-20-20 0 0-20-57.921875-20-80s17.921875-40 40-40 40 17.921875 40 40l-20 80c0 11.058594-8.941406 20-20 20zm0 20c11.058594 0 20 8.960938 20 20 0 11.058594-8.941406 20-20 20s-20-8.941406-20-20c0-11.039062 8.941406-20 20-20zm0 0"/></svg>