<svg height="320pt" viewBox="0 0 320 320" width="320pt" xmlns="http://www.w3.org/2000/svg"><path d="m250 220h-180c-4.839844 0-9.558594-.480469-14.121094-1.421875-13.660156-2.796875-25.878906-9.578125-35.398437-19.078125-12.640625-12.660156-20.480469-30.160156-20.480469-49.5 0-38.679688 31.339844-70 70-70s70 31.320312 70 70c0 10.78125-2.640625 20.878906-7 30h54c-4.359375-9.121094-7-19.21875-7-30 0-38.679688 31.339844-70 70-70s70 31.320312 70 70c0 38.660156-31.339844 70-70 70zm-150-70c0-16.558594-13.421875-30-30-30s-30 13.441406-30 30 13.421875 30 30 30 30-13.441406 30-30zm150-30c-16.558594 0-30 13.441406-30 30s13.441406 30 30 30 30-13.441406 30-30-13.441406-30-30-30zm0 0"/></svg>