<svg height="320pt" viewBox="0 0 320 320" width="320pt" xmlns="http://www.w3.org/2000/svg"><path d="m280 256.320312v-156.320312c0-33.140625-26.878906-60-60-60h-156.320312c8.261718-23.261719 30.242187-40 56.320312-40h140c33.121094 0 60 26.859375 60 60v140c0 26.101562-16.761719 48.058594-40 56.320312zm-20-136.320312v140c0 33.121094-26.878906 60-60 60h-140c-33.140625 0-60-26.878906-60-60v-140c0-33.140625 26.859375-60 60-60h140c33.121094 0 60 26.859375 60 60zm-220 140c0 11.058594 8.960938 20 20 20h140c11.058594 0 20-8.941406 20-20v-80h-180zm0-140v40h180v-40c0-11.039062-8.941406-20-20-20h-140c-11.039062 0-20 8.960938-20 20zm160 20h-60v-20h60zm-100-20h20v20h-20zm-40 0h20v20h-20zm0 0"/></svg>