<svg height="320pt" viewBox="0 0 320 320" width="320pt" xmlns="http://www.w3.org/2000/svg"><path d="m260 260v-200c0-11.039062-8.941406-20-20-20s-20 8.960938-20 20v200c0 33.121094-26.859375 60-60 60s-60-26.878906-60-60v-200c0-11.039062-8.941406-20-20-20s-20 8.960938-20 20v200c0 33.121094-26.859375 60-60 60v-40c11.058594 0 20-8.941406 20-20v-200c0-33.140625 26.859375-60 60-60s60 26.859375 60 60v200c0 11.058594 8.941406 20 20 20s20-8.941406 20-20v-200c0-33.140625 26.859375-60 60-60s60 26.859375 60 60v200c0 11.058594 8.941406 20 20 20v40c-33.140625 0-60-26.878906-60-60zm0 0"/></svg>