<svg height="320pt" viewBox="0 0 320 320" width="320pt" xmlns="http://www.w3.org/2000/svg"><path d="m300 280h-280c-11.039062 0-20-8.941406-20-20v-160h320v160c0 11.058594-8.941406 20-20 20zm-124.859375-132.980469c-7.421875-4.359375-15.941406-7.019531-25.140625-7.019531-27.621094 0-50 22.378906-50 50s22.378906 50 50 50c9.199219 0 17.71875-2.660156 25.140625-7.019531-9.339844-11.878907-15.140625-26.699219-15.140625-42.980469s5.800781-31.101562 15.140625-42.980469zm54.859375-7.019531c-27.621094 0-50 22.378906-50 50s22.378906 50 50 50 50-22.378906 50-50-22.378906-50-50-50zm-230-80c0-11.058594 8.960938-20 20-20h280c11.058594 0 20 8.941406 20 20v20h-320zm0 0"/></svg>