<svg height="320pt" viewBox="0 0 320 320" width="320pt" xmlns="http://www.w3.org/2000/svg"><path d="m300 180h-40c-11.058594 0-20-8.941406-20-20 0-11.039062 8.941406-20 20-20h40c11.058594 0 20 8.960938 20 20 0 11.058594-8.941406 20-20 20zm-55.160156-76.558594c-7.820313 7.820313-20.460938 7.820313-28.28125 0-7.820313-7.820312-7.820313-20.460937 0-28.28125l28.28125-28.300781c7.820312-7.800781 20.460937-7.800781 28.28125 0 7.820312 7.820313 7.820312 20.480469 0 28.300781zm-84.839844 216.558594c-11.039062 0-20-8.941406-20-20v-40c0-11.039062 8.960938-20 20-20 11.058594 0 20 8.960938 20 20v40c0 11.058594-8.941406 20-20 20zm0-240c-11.039062 0-20-8.941406-20-20v-40c0-11.039062 8.960938-20 20-20 11.058594 0 20 8.960938 20 20v40c0 11.058594-8.941406 20-20 20zm-84.859375 193.140625c-7.820313 7.820313-20.460937 7.820313-28.28125 0s-7.820313-20.480469 0-28.28125l28.28125-28.300781c7.820313-7.796875 20.480469-7.796875 28.28125 0 7.816406 7.820312 7.816406 20.480468 0 28.300781zm0-169.699219-28.28125-28.28125c-7.820313-7.820312-7.820313-20.480468 0-28.300781 7.820313-7.800781 20.460937-7.800781 28.28125 0l28.28125 28.300781c7.816406 7.820313 7.816406 20.460938 0 28.28125-7.800781 7.796875-20.460937 7.796875-28.28125 0zm4.859375 56.558594c0 11.058594-8.960938 20-20 20h-40c-11.039062 0-20-8.941406-20-20 0-11.039062 8.960938-20 20-20h40c11.039062 0 20 8.960938 20 20zm164.839844 56.558594 28.28125 28.300781c7.820312 7.800781 7.820312 20.460937 0 28.28125-7.820313 7.820313-20.460938 7.820313-28.28125 0l-28.28125-28.28125c-7.820313-7.820313-7.820313-20.480469 0-28.300781 7.820312-7.796875 20.480468-7.796875 28.28125 0zm0 0"/></svg>