<svg height="320pt" viewBox="0 0 320 320" width="320pt" xmlns="http://www.w3.org/2000/svg"><path d="m260 40h-63.679688c-8.261718-23.261719-30.242187-40-56.320312-40h-80c-33.140625 0-60 26.859375-60 60v200c0 33.140625 26.859375 60 60 60h170c49.699219 0 90-40.300781 90-90v-130c0-33.140625-26.859375-60-60-60zm-30 240c-27.621094 0-50-22.378906-50-50s22.378906-50 50-50 50 22.378906 50 50-22.378906 50-50 50zm50-124.800781c-14.300781-9.578125-31.480469-15.199219-50-15.199219-49.699219 0-90 40.300781-90 90 0 18.519531 5.621094 35.699219 15.199219 50h-95.199219c-11.039062 0-20-8.941406-20-20v-200c0-11.039062 8.960938-20 20-20h80c11.039062 0 20 8.960938 20 20v20h100c11.058594 0 20 8.960938 20 20zm-80 64.800781h60v20h-60zm0 0"/></svg>