<svg height="320pt" viewBox="0 0 320 320" width="320pt" xmlns="http://www.w3.org/2000/svg"><path d="m160 320c-88.359375 0-160-71.640625-160-160s71.640625-160 160-160 160 71.640625 160 160-71.640625 160-160 160zm0-40c25.898438 0 49.738281-8.398438 69.359375-22.359375l-167-167c-13.960937 19.621094-22.359375 43.460937-22.359375 69.359375 0 66.261719 53.738281 120 120 120zm0-240c-25.898438 0-49.738281 8.398438-69.359375 22.359375l167 167c13.960937-19.621094 22.359375-43.4375 22.359375-69.359375 0-66.261719-53.738281-120-120-120zm0 0"/></svg>