<svg height="320pt" viewBox="0 0 320 320" width="320pt" xmlns="http://www.w3.org/2000/svg"><path d="m260 320h-200c-33.140625 0-60-26.859375-60-60v-200c0-33.140625 26.859375-60 60-60h80c26.078125 0 48.039062 16.761719 56.320312 40h63.679688c33.121094 0 60 26.859375 60 60v160c0 33.140625-26.878906 60-60 60zm0-240h-100v-20c0-11.058594-8.960938-20-20-20h-80c-11.039062 0-20 8.941406-20 20v200c0 11.058594 8.960938 20 20 20h20v-140c0-11.058594 8.960938-20 20-20h180v-20c0-11.058594-8.941406-20-20-20zm0 0"/></svg>