<svg height="320pt" viewBox="0 0 320 320" width="320pt" xmlns="http://www.w3.org/2000/svg"><path d="m260 320h-200c-33.140625 0-60-26.859375-60-60v-200c0-33.140625 26.859375-60 60-60h200c33.140625 0 60 26.859375 60 60v200c0 33.140625-26.859375 60-60 60zm20-260c0-11.058594-8.941406-20-20-20h-200c-11.058594 0-20 8.941406-20 20v200c0 11.058594 8.941406 20 20 20h200c11.058594 0 20-8.941406 20-20zm-180 180h-40v-20h20v-20c0-11.058594 8.941406-20 20-20h120c11.058594 0 20 8.941406 20 20v20h20v20zm120-40h-120v20h120zm-80-60h-80v-20h60v-20c0-11.058594 8.941406-20 20-20h40c11.058594 0 20 8.941406 20 20v20h60v20zm40-40h-40v20h40zm0 0"/></svg>