<svg height="320pt" viewBox="0 0 320 320" width="320pt" xmlns="http://www.w3.org/2000/svg"><path d="m280 260h-20v20c0 11.058594-8.941406 20-20 20s-20-8.941406-20-20v-20h-20c-11.058594 0-20-8.941406-20-20s8.941406-20 20-20h20v-20c0-11.058594 8.941406-20 20-20s20 8.941406 20 20v20h20c11.058594 0 20 8.941406 20 20s-8.941406 20-20 20zm-97.179688-77.179688c-11.179687 3.359376-20.878906 9.941407-28.300781 18.558594-4.757812-.878906-9.597656-1.378906-14.519531-1.378906-37.238281 0-71.078125 25.539062-80 60 0 11.058594 8.960938 20 20 20h76.359375c6.5625 7.078125 14.339844 13.019531 23.640625 16.320312v23.679688h-100c-33.140625 0-60-26.878906-60-60 6.179688-36.679688 30.859375-67.5 62.238281-84.859375-13.699219-14.378906-22.238281-33.742187-22.238281-55.140625v-40c0-44.179688 35.820312-80 80-80s80 35.820312 80 80v40c0 8.980469-1.800781 17.460938-4.558594 25.480469-15.582031 7.140625-27.621094 20.660156-32.621094 37.339843zm-2.820312-102.820312c0-22.078125-17.921875-40-40-40s-40 17.921875-40 40v40c0 22.078125 17.921875 40 40 40s40-17.921875 40-40zm0 0"/></svg>