<svg height="320pt" viewBox="0 0 320 320" width="320pt" xmlns="http://www.w3.org/2000/svg"><path d="m300 60h-40c-11.058594 0-20-8.960938-20-20s-8.941406-20-20-20h-120c-11.058594 0-20 8.960938-20 20s-8.941406 20-20 20h-40c-11.058594 0-20 8.960938-20 20v200c0 11.058594 8.941406 20 20 20h280c11.058594 0 20-8.941406 20-20v-200c0-11.039062-8.941406-20-20-20zm-140 200c-55.238281 0-100-44.761719-100-100 0-55.21875 44.761719-100 100-100s100 44.78125 100 100c0 55.238281-44.761719 100-100 100zm0-160c-33.140625 0-60 26.859375-60 60 0 33.121094 26.859375 60 60 60s60-26.878906 60-60c0-33.140625-26.859375-60-60-60zm0 0"/></svg>