<svg height="320pt" viewBox="0 0 320 320" width="320pt" xmlns="http://www.w3.org/2000/svg"><path d="m160 20c33.078125 0 60 26.921875 60 60 0 1.640625-.199219 3.261719-.601562 4.878906l-19.5 78c-1.476563 20.722656-18.796876 37.121094-39.898438 37.121094-20.738281 0-37.878906-15.878906-39.800781-36.140625-4.9375-14.519531-20.199219-61.300781-20.199219-83.859375 0-33.078125 26.921875-60 60-60zm0 200c22.058594 0 40 17.941406 40 40s-17.941406 40-40 40-40-17.941406-40-40 17.941406-40 40-40zm0 0"/></svg>