<svg height="320pt" viewBox="0 0 320 320" width="320pt" xmlns="http://www.w3.org/2000/svg"><path d="m300 160c0 44.179688-35.820312 80-80 80s-80-35.820312-80-80c0-22.078125-17.921875-40-40-40s-40 17.921875-40 40 17.921875 40 40 40c2.441406 0 4.800781-.300781 7.121094-.71875 4.578125 13.140625 11.320312 25.097656 19.878906 35.71875-8.460938 3.039062-17.460938 5-27 5-44.179688 0-80-35.820312-80-80s35.820312-80 80-80 80 35.820312 80 80c0 22.078125 17.921875 40 40 40s40-17.921875 40-40-17.921875-40-40-40c-2.441406 0-4.800781.300781-7.121094.71875-4.578125-13.140625-11.300781-25.097656-19.878906-35.71875 8.460938-3.039062 17.460938-5 27-5 44.179688 0 80 35.820312 80 80zm0 0"/></svg>