<svg height="320pt" viewBox="0 0 320 320" width="320pt" xmlns="http://www.w3.org/2000/svg"><path d="m300 280c-30.601562 1.339844-88.941406 6.578125-120.601562 23.019531-1.5 9.558594-9.417969 16.980469-19.398438 16.980469s-17.878906-7.421875-19.398438-16.980469c-31.640624-16.441406-90-21.679687-120.601562-23.019531-11.039062 0-20-8.941406-20-20v-240c0-11.039062 8.960938-20 20-20 .699219 0 1.28125.339844 1.980469.398438 137.539062 3.542968 138.019531 39.601562 138.019531 39.601562s.480469-36.058594 138.019531-39.601562c.699219-.058594 1.28125-.398438 1.980469-.398438 11.058594 0 20 8.960938 20 20v240c0 11.058594-8.941406 20-20 20zm-160-217.320312c-25.800781-13.121094-68.480469-18.578126-100-20.898438v199.320312c53.679688 2.71875 83.71875 10.757813 100 18.898438zm140-20.898438c-31.519531 2.320312-74.199219 7.777344-100 20.898438v197.320312c16.28125-8.140625 46.320312-16.179688 100-18.898438zm-20 38.21875v40s-60 0-60 20v-40s0-20 60-20zm0 80v40s-60 0-60 20v-40s0-20 60-20zm-140-60v40c0-20-60-20-60-20v-40c60 0 60 20 60 20zm0 80v40c0-20-60-20-60-20v-40c60 0 60 20 60 20zm0 0"/></svg>