<svg height="320pt" viewBox="0 0 320 320" width="320pt" xmlns="http://www.w3.org/2000/svg"><path d="m260 120h-20v80h20c33.121094 0 60 26.878906 60 60s-26.878906 60-60 60-60-26.878906-60-60v-20h-80v20c0 33.121094-26.859375 60-60 60s-60-26.878906-60-60 26.859375-60 60-60h20v-80h-20c-33.140625 0-60-26.859375-60-60s26.859375-60 60-60 60 26.859375 60 60c0 7.058594-1.441406 13.71875-3.679688 20h87.359376c-2.238282-6.28125-3.679688-12.941406-3.679688-20 0-33.140625 26.878906-60 60-60s60 26.859375 60 60-26.878906 60-60 60zm0 160c11.058594 0 20-8.941406 20-20s-8.941406-20-20-20-20 8.941406-20 20 8.941406 20 20 20zm-200-40c-11.039062 0-20 8.941406-20 20s8.960938 20 20 20 20-8.941406 20-20-8.960938-20-20-20zm0-200c-11.039062 0-20 8.960938-20 20s8.960938 20 20 20 20-8.960938 20-20-8.960938-20-20-20zm140 80h-80v80h80zm60-80c-11.058594 0-20 8.960938-20 20s8.941406 20 20 20 20-8.960938 20-20-8.941406-20-20-20zm0 0"/></svg>