<svg height="320pt" viewBox="0 0 320 320" width="320pt" xmlns="http://www.w3.org/2000/svg"><path d="m302.421875 242.421875-60 60c-23.441406 23.4375-61.402344 23.4375-84.84375 0l-100-100c-11.71875-11.722656-17.578125-27.0625-17.578125-42.421875v-120h60c0-11.058594-8.941406-20-20-20h-40c-11.058594 0-20 8.941406-20 20v30c0 5.519531-4.480469 10-10 10s-10-4.480469-10-10v-30c0-22.078125 17.921875-40 40-40h40c22.078125 0 40 17.921875 40 40v70c0 5.519531-4.480469 10-10 10s-10-4.480469-10-10v-27.980469c-11.601562 4.160157-20 14.960938-20 27.980469 0 16.558594 13.441406 30 30 30s30-13.441406 30-30v-70h20c15.359375 0 30.699219 5.859375 42.421875 17.578125l100 100c23.4375 23.441406 23.4375 61.402344 0 84.84375zm0 0"/></svg>