<svg height="320pt" viewBox="0 0 320 320" width="320pt" xmlns="http://www.w3.org/2000/svg"><path d="m320 160c0-88.359375-71.640625-160-160-160s-160 71.640625-160 160 71.640625 160 160 160 160-71.640625 160-160zm-40 0c0 66.261719-53.738281 120-120 120s-120-53.738281-120-120 53.738281-120 120-120 120 53.738281 120 120zm-105.859375 74.160156c-3.902344 3.898438-9.019531 5.859375-14.140625 5.859375s-10.238281-1.960937-14.140625-5.859375l-40-40c-5.71875-5.71875-7.417969-14.339844-4.339844-21.820312 3.082031-7.460938 10.402344-12.339844 18.480469-12.339844h20v-60c0-11.058594 8.941406-20 20-20s20 8.941406 20 20v60h20c8.078125 0 15.398438 4.878906 18.480469 12.339844 3.078125 7.5 1.359375 16.101562-4.339844 21.820312zm0 0"/></svg>