<svg height="320pt" viewBox="0 0 320 320" width="320pt" xmlns="http://www.w3.org/2000/svg"><path d="m160 320c-88.359375 0-160-71.640625-160-160v-40l80 80h-32.941406c14.363281 40.359375 49.660156 70.679688 92.941406 77.980469v-97.980469h-20c-11.039062 0-20-8.941406-20-20s8.960938-20 20-20h20v-23.679688c-23.261719-8.261718-40-30.21875-40-56.320312 0-30.378906 22.660156-55.21875 51.941406-59.179688 2.597656-.539062 5.296875-.820312 8.058594-.820312s5.460938.28125 8.058594.820312c29.28125 3.960938 51.941406 28.800782 51.941406 59.179688 0 26.101562-16.761719 48.058594-40 56.320312v23.679688h20c11.058594 0 20 8.941406 20 20s-8.941406 20-20 20h-20v97.980469c43.28125-7.300781 78.601562-37.640625 92.941406-77.980469h-32.941406l80-80v40c0 88.359375-71.640625 160-160 160zm0-280c-11.039062 0-20 8.941406-20 20s8.960938 20 20 20 20-8.941406 20-20-8.960938-20-20-20zm0 0"/></svg>