<svg height="320pt" viewBox="0 0 320 320" width="320pt" xmlns="http://www.w3.org/2000/svg"><path d="m260 320h-200c-33.140625 0-60-26.859375-60-60v-40h40v40c0 11.058594 8.960938 20 20 20h200c11.058594 0 20-8.941406 20-20v-200c0-11.039062-8.941406-20-20-20h-200c-11.039062 0-20 8.960938-20 20v40h-40v-40c0-33.140625 26.859375-60 60-60h200c33.140625 0 60 26.859375 60 60v200c0 33.140625-26.859375 60-60 60zm-167.660156-218.5c7.480468-3.078125 16.082031-1.378906 21.800781 4.339844l40 40c3.898437 3.898437 5.859375 9.019531 5.859375 14.140625 0 5.121093-1.960938 10.238281-5.859375 14.140625l-40 40c-5.71875 5.699218-14.320313 7.417968-21.800781 4.339844-7.460938-3.082032-12.339844-10.402344-12.339844-18.480469v-19.980469h-60c-11.039062 0-20-8.941406-20-20 0-11.039062 8.960938-20 20-20h60v-20.019531c0-8.082031 4.878906-15.402344 12.339844-18.480469zm0 0"/></svg>