<svg height="320pt" viewBox="0 0 320 320" width="320pt" xmlns="http://www.w3.org/2000/svg"><path d="m120 80h-20c-11.039062 0-20 8.941406-20 20v120c0 11.058594 8.960938 20 20 20h20c11.039062 0 20-8.941406 20-20v-120c0-11.058594-8.960938-20-20-20zm0 140h-20v-120h20zm100-60h-20c-11.058594 0-20 8.941406-20 20v40c0 11.058594 8.941406 20 20 20h20c11.058594 0 20-8.941406 20-20v-40c0-11.058594-8.941406-20-20-20zm0 60h-20v-40h20zm40-220h-200c-33.140625 0-60 26.859375-60 60v200c0 33.140625 26.859375 60 60 60h200c33.121094 0 60-26.859375 60-60v-200c0-33.140625-26.878906-60-60-60zm20 260c0 11.058594-8.941406 20-20 20h-200c-11.039062 0-20-8.941406-20-20v-200c0-11.058594 8.960938-20 20-20h200c11.058594 0 20 8.941406 20 20zm0 0"/></svg>