<svg height="320pt" viewBox="0 0 320 320" width="320pt" xmlns="http://www.w3.org/2000/svg"><path d="m300 320h-280c0-36.179688 42.320312-66.398438 100-76.28125v-14.796875c-23.800781-13.882813-40-39.382813-40-68.921875v-2.019531c-11.601562-4.160157-20-14.960938-20-27.980469s8.398438-23.820312 20-27.980469v-2.019531c0-44.179688 35.820312-80 80-80s80 35.820312 80 80v2.019531c11.601562 4.160157 20 14.960938 20 27.980469s-8.398438 23.820312-20 27.980469v2.019531c0 29.539062-16.199219 55.039062-40 68.898438v14.800781c57.699219 9.902343 100 40.121093 100 76.300781zm0 0"/></svg>