<svg height="320pt" viewBox="0 0 320 320" width="320pt" xmlns="http://www.w3.org/2000/svg"><path d="m200 314.761719v-42.101563c46.5-16.519531 80-60.460937 80-112.660156 0-52.160156-33.5-96.121094-80-112.640625v-42.121094c68.960938 17.800781 120 80.242188 120 154.761719 0 74.539062-51.039062 136.980469-120 154.761719zm-140-74.761719c-33.140625 0-60-26.878906-60-60v-40c0-33.140625 26.859375-60 60-60h20l100-80v320l-100-80zm80 0v-160l-40 40h-40c-11.058594 0-20 8.960938-20 20v40c0 11.058594 8.941406 20 20 20h40zm120-80c0 37.21875-25.539062 68.238281-60 77.160156v-42.699218c11.921875-6.941407 20-19.699219 20-34.460938s-8.078125-27.519531-20-34.460938v-42.699218c34.460938 8.898437 60 39.921875 60 77.160156zm0 0"/></svg>