<svg height="320pt" viewBox="0 0 320 320" width="320pt" xmlns="http://www.w3.org/2000/svg"><path d="m160 0c-88.359375 0-160 71.640625-160 160s71.640625 160 160 160 160-71.640625 160-160-71.640625-160-160-160zm0 280c-66.261719 0-120-53.738281-120-120s53.738281-120 120-120 120 53.738281 120 120-53.738281 120-120 120zm14.140625-194.160156 40 40c5.699219 5.71875 7.417969 14.320312 4.339844 21.820312-3.082031 7.460938-10.402344 12.339844-18.480469 12.339844h-20v60c0 11.058594-8.941406 20-20 20s-20-8.941406-20-20v-60h-20c-8.078125 0-15.398438-4.878906-18.480469-12.339844-3.078125-7.480468-1.378906-16.101562 4.339844-21.820312l40-40c3.902344-3.898438 9.019531-5.859375 14.140625-5.859375s10.238281 1.960937 14.140625 5.859375zm0 0"/></svg>