<svg height="320pt" viewBox="0 0 320 320" width="320pt" xmlns="http://www.w3.org/2000/svg"><path d="m280 280h-20v20c0 11.058594-8.941406 20-20 20s-20-8.941406-20-20v-20h-20c-11.058594 0-20-8.941406-20-20s8.941406-20 20-20h20v-20c0-11.058594 8.941406-20 20-20s20 8.941406 20 20v20h20c11.058594 0 20 8.941406 20 20s-8.941406 20-20 20zm-97.179688-77.179688c-24.71875 7.417969-42.820312 30.078126-42.820312 57.179688 0 26.101562 16.738281 48.058594 40 56.320312v3.679688h-140c-11.039062 0-20-8.941406-20-20 0-40 38.660156-77.320312 78.179688-92.078125-22.820313-14.101563-38.179688-39.140625-38.179688-67.921875v-20c0-44.179688 35.820312-80 80-80s80 35.820312 80 80v20c0 9.320312-2.078125 17.980469-5.039062 26.261719-15.222657 7.238281-27.222657 20.136719-32.140626 36.558593zm0 0"/></svg>