<svg height="320pt" viewBox="0 0 320 320" width="320pt" xmlns="http://www.w3.org/2000/svg"><path d="m300 280h-280c-11.039062 0-20-8.941406-20-20v-200c0-11.058594 8.960938-20 20-20h280c11.058594 0 20 8.941406 20 20v200c0 11.058594-8.941406 20-20 20zm0-220h-280v20h280zm0 60h-280v140h280zm-200 40h-60v-20h60zm-40 40h-20v-20h20zm40 40h-60v-20h60zm90-100c7.101562 0 13.859375 1.539062 20 4.21875 6.140625-2.679688 12.898438-4.21875 20-4.21875 27.621094 0 50 22.378906 50 50s-22.378906 50-50 50c-7.101562 0-13.859375-1.539062-20-4.21875-6.140625 2.679688-12.898438 4.21875-20 4.21875-27.621094 0-50-22.378906-50-50s22.378906-50 50-50zm39.800781 79.960938c.078125 0 .121094.039062.199219.039062 16.558594 0 30-13.441406 30-30s-13.441406-30-30-30c-.078125 0-.121094.039062-.199219.039062 6.320313 8.382813 10.199219 18.679688 10.199219 29.960938s-3.878906 21.601562-10.199219 29.960938zm-19.800781-7.921876c6.058594-5.5 10-13.238281 10-22.039062s-3.941406-16.539062-10-22.039062c-6.058594 5.5-10 13.238281-10 22.039062s3.941406 16.539062 10 22.039062zm-20 7.960938c.078125 0 .121094-.039062.199219-.039062-6.320313-8.359376-10.199219-18.679688-10.199219-29.960938s3.878906-21.578125 10.199219-29.960938c-.078125 0-.121094-.039062-.199219-.039062-16.578125 0-30 13.441406-30 30s13.421875 30 30 30zm0 0"/></svg>