<svg height="320pt" viewBox="0 0 320 320" width="320pt" xmlns="http://www.w3.org/2000/svg"><path d="m300 280c-30.601562 1.339844-88.941406 6.578125-120.601562 23.019531-1.5 9.558594-9.417969 16.980469-19.398438 16.980469-9.960938 0-17.898438-7.421875-19.398438-16.980469-31.660156-16.441406-90-21.679687-120.601562-23.019531-11.039062 0-20-8.941406-20-20v-240c0-11.039062 8.960938-20 20-20 .699219 0 1.28125.339844 1.980469.398438 137.539062 3.5625 138.019531 39.601562 138.019531 39.601562s.480469-36.039062 138.019531-39.601562c.699219-.058594 1.28125-.398438 1.980469-.398438 11.058594 0 20 8.960938 20 20v240c0 11.058594-8.941406 20-20 20zm-160-217.320312c-25.800781-13.121094-68.480469-18.578126-100-20.917969v199.316406c53.679688 2.742187 83.71875 10.78125 100 18.921875zm140-20.917969c-31.5 2.339843-74.199219 7.796875-100 20.898437v197.339844c16.28125-8.140625 46.300781-16.179688 100-18.898438zm0 0"/></svg>