<svg height="320pt" viewBox="0 0 320 320" width="320pt" xmlns="http://www.w3.org/2000/svg"><path d="m174.179688 165.859375 40 40c4.261718 4.300781 6.28125 10.199219 5.742187 16.0625-.160156 1.957031-.621094 3.859375-1.402344 5.738281-3.078125 7.460938-10.398437 12.339844-18.480469 12.339844h-20.039062v60c0 11.058594-8.941406 20-20 20s-20-8.941406-20-20v-60h-19.960938c-8.078124 0-15.398437-4.878906-18.480468-12.339844-.777344-1.878906-1.238282-3.78125-1.4375-5.738281-.542969-5.863281 1.480468-11.761719 5.777344-16.0625l40-40c3.902343-3.898437 9.023437-5.859375 14.140624-5.859375 5.121094 0 10.242188 1.960938 14.140626 5.859375zm85.820312-65.859375c33.140625 0 60 26.878906 60 60v20c0 33.140625-26.859375 60-60 60h-3.578125c1.71875-4.820312 2.9375-9.738281 3.316406-14.378906 1.660157-17.761719-4.578125-35.222656-17.277343-48.042969l-40-40c-11.320313-11.339844-26.402344-17.578125-42.421876-17.578125-16.019531 0-31.097656 6.238281-42.4375 17.578125l-40 40c-12.679687 12.683594-18.980468 30.203125-17.300781 48.320313.4375 4.179687 1.4375 8.242187 2.679688 12.203124-35.980469-7.800781-62.980469-39.761718-62.980469-78.101562v-20c0-44.179688 35.820312-80 80-80 7.621094 0 14.800781 1.398438 21.78125 3.378906 7.660156-36.199218 39.738281-63.378906 78.21875-63.378906 44.179688 0 80 35.820312 80 80 0 7.058594-1.21875 13.78125-2.921875 20.300781.980469-.0625 1.921875-.300781 2.921875-.300781zm0 0"/></svg>