<svg height="320pt" viewBox="0 0 320 320" width="320pt" xmlns="http://www.w3.org/2000/svg"><path d="m145.859375 154.140625c3.902344 3.898437 9.019531 5.859375 14.140625 5.859375s10.238281-1.960938 14.140625-5.859375l40-40c5.699219-5.699219 7.417969-14.320313 4.339844-21.800781-3.082031-7.460938-10.402344-12.339844-18.480469-12.339844h-19.980469v-60c0-11.058594-8.941406-20-20-20-11.039062 0-20 8.941406-20 20v60h-20.019531c-8.078125 0-15.398438 4.878906-18.480469 12.339844-3.078125 7.480468-1.378906 16.101562 4.339844 21.800781zm114.140625-74.140625h-3.601562c4.660156 13.21875 4.679687 27.28125.179687 40h3.421875c4.878906 0 9.21875 1.980469 12.699219 4.878906l-112.699219 75.121094-112.679688-75.121094c3.480469-2.898437 7.78125-4.878906 12.679688-4.878906h3.398438c-4.5-12.71875-4.5-26.78125.179687-40h-3.578125c-33.140625 0-60 26.878906-60 60v120c0 33.140625 26.859375 60 60 60h200c33.140625 0 60-26.859375 60-60v-120c0-33.121094-26.859375-60-60-60zm20 160-60-20 54.140625 54.140625c-3.621094 3.621094-8.621094 5.859375-14.140625 5.859375h-200c-5.519531 0-10.519531-2.238281-14.140625-5.859375l54.140625-54.140625-60 20v-80l120 80 120-80zm0 0"/></svg>