<svg height="320pt" viewBox="0 0 320 320" width="320pt" xmlns="http://www.w3.org/2000/svg"><path d="m240 120c44.179688 0 80 35.820312 80 80 0 14.640625-4.21875 28.179688-11.101562 40-13.859376-23.800781-39.359376-40-68.898438-40v40c0 7.378906-4.058594 14.140625-10.578125 17.640625-6.5 3.480469-14.382813 3.097656-20.523437-1l-120-80c-5.558594-3.71875-8.898438-9.960937-8.898438-16.640625s3.339844-12.921875 8.921875-16.640625l120-80c6.117187-4.078125 14.019531-4.480469 20.519531-1s10.558594 10.261719 10.558594 17.640625zm-180 40c0 13.421875 6.660156 25.839844 17.800781 33.300781l80.71875 53.800781c-1.699219 4.398438-4.800781 8.21875-9.097656 10.539063-6.5 3.480469-14.382813 3.097656-20.523437-1l-120-80c-5.558594-3.71875-8.898438-9.960937-8.898438-16.640625s3.339844-12.921875 8.921875-16.640625l120-80c6.117187-4.078125 14.019531-4.480469 20.519531-1 4.296875 2.300781 7.398438 6.121094 9.097656 10.5625l-80.71875 53.796875c-11.160156 7.441406-17.820312 19.882812-17.820312 33.28125zm0 0"/></svg>