<svg height="320pt" viewBox="0 0 320 320" width="320pt" xmlns="http://www.w3.org/2000/svg"><path d="m300 240h-20v-20c0-22.078125-17.921875-40-40-40h-160c-22.078125 0-40 17.921875-40 40v20h-20c-11.039062 0-20-8.941406-20-20v-120c0-11.039062 8.960938-20 20-20h40v-80h200v80h40c11.058594 0 20 8.960938 20 20v120c0 11.058594-8.941406 20-20 20zm-60-220h-160v60h160zm0 100h-20v20h20zm40 0h-20v20h20zm-220 200v-100c0-11.058594 8.960938-20 20-20h160c11.058594 0 20 8.941406 20 20v20h-20v40h-20v-40h-20v80h-20v-80h-20v60h-20v-60h-20v40h-20v-40h-20v80zm0 0"/></svg>