<svg height="320pt" viewBox="0 0 320 320" width="320pt" xmlns="http://www.w3.org/2000/svg"><path d="m220 320h-120c-33.140625 0-60-26.878906-60-60 6.179688-36.679688 30.859375-67.5 62.238281-84.878906-13.699219-14.359375-22.238281-33.699219-22.238281-55.121094v-40c0-44.179688 35.820312-80 80-80s80 35.820312 80 80v40c0 21.421875-8.539062 40.761719-22.21875 55.121094 31.359375 17.378906 56.039062 48.199218 62.21875 84.878906 0 33.121094-26.878906 60-60 60zm-20-200v-40c0-22.078125-17.921875-40-40-40s-40 17.921875-40 40v40c0 22.078125 17.921875 40 40 40s40-17.921875 40-40zm40 140c-8.921875-34.460938-42.78125-60-80-60-37.238281 0-71.078125 25.539062-80 60 0 11.058594 8.960938 20 20 20h120c11.058594 0 20-8.941406 20-20zm0 0"/></svg>