<svg height="320pt" viewBox="0 0 320 320" width="320pt" xmlns="http://www.w3.org/2000/svg"><path d="m260 280h-20c0-22.078125-17.921875-40-40-40h-80c-22.078125 0-40 17.921875-40 40h-20c-33.140625 0-60-26.878906-60-60v-120c0-33.140625 26.859375-60 60-60h200c33.121094 0 60 26.859375 60 60v120c0 33.121094-26.878906 60-60 60zm0-20h20v-20h-20zm-220 0h20v-20h-20zm240-160c0-11.039062-8.941406-20-20-20h-200c-11.039062 0-20 8.960938-20 20v100c0 11.058594 8.960938 20 20 20h200c11.058594 0 20-8.941406 20-20zm-50 100c-16.558594 0-30-13.441406-30-30s13.441406-30 30-30 30 13.441406 30 30-13.441406 30-30 30zm-170-100h200v20h-200zm30 40c16.578125 0 30 13.441406 30 30s-13.421875 30-30 30-30-13.441406-30-30 13.421875-30 30-30zm90 40h-40v-20h40zm-50 80h60c13.039062 0 24.019531 8.378906 28.160156 20h-116.320312c4.121094-11.621094 15.121094-20 28.160156-20zm0 0"/></svg>