<svg height="320pt" viewBox="0 0 320 320" width="320pt" xmlns="http://www.w3.org/2000/svg"><path d="m280 320v-20h20v-20h20v40zm20-300h-20v-20h40v40h-20zm-20 260h-240v-240h240zm-40-200h-160v160h160zm-120 20c11.058594 0 20 8.941406 20 20s-8.941406 20-20 20-20-8.941406-20-20 8.941406-20 20-20zm6.621094 120h-26.621094v-29.941406c8.960938 10.761718 18.699219 26.660156 26.621094 29.941406zm93.378906-73.121094v73.121094h-87.878906c27.019531-6.519531 60.058594-105.160156 87.878906-73.121094zm-200-106.878906h-20v-40h40v20h-20zm0 260h20v20h-40v-40h20zm0 0"/></svg>