<svg height="320pt" viewBox="0 0 320 320" width="320pt" xmlns="http://www.w3.org/2000/svg"><path d="m160 260c-66.261719 0-120-26.859375-120-60 0-12.238281 7.421875-23.601562 20-33.078125v-26.921875c0-41.300781 25.058594-76.738281 60.820312-92-.539062-2.578125-.820312-5.261719-.820312-8 0-22.078125 17.921875-40 40-40s40 17.921875 40 40c0 2.738281-.28125 5.421875-.820312 8 35.742187 15.261719 60.820312 50.699219 60.820312 92v26.921875c12.578125 9.476563 20 20.839844 20 33.078125 0 33.140625-53.738281 60-120 60zm0 20c13.878906 0 27.039062-1.320312 39.679688-3.199219.082031 1.078125.320312 2.097657.320312 3.199219 0 22.078125-17.921875 40-40 40s-40-17.921875-40-40c0-1.101562.238281-2.121094.320312-3.199219 12.660157 1.878907 25.800782 3.199219 39.679688 3.199219zm0 0"/></svg>