<svg height="320pt" viewBox="0 0 320 320" width="320pt" xmlns="http://www.w3.org/2000/svg"><path d="m300 280h-60v-20h10c5.519531 0 10-4.480469 10-10s-4.480469-10-10-10h-40c-5.5 0-10 4.480469-10 10s4.5 10 10 10h10v20h-120v-20h10c5.519531 0 10-4.480469 10-10s-4.480469-10-10-10h-40c-5.519531 0-10 4.480469-10 10s4.480469 10 10 10h10v20h-60c-11.039062 0-20-8.941406-20-20v-200c0-11.039062 8.960938-20 20-20h280c11.058594 0 20 8.960938 20 20v200c0 11.058594-8.941406 20-20 20zm-100-60h20v-20h-20zm0-80h40v-20h-40zm-20-60h-140v140h140zm80 0h-60v20h60zm40 0h-20v20h20zm0 40h-40v20h40zm0 40h-100v20h100zm-200 21.21875v-3.238281c-11.601562-4.160157-20-14.960938-20-27.980469v-20c0-16.578125 13.421875-30 30-30s30 13.421875 30 30v20c0 13.019531-8.398438 23.820312-20 27.980469v3.21875c12.078125 2.519531 22.578125 9.28125 29.78125 18.800781h-79.5625c7.203125-9.519531 17.703125-16.28125 29.78125-18.78125zm0 0"/></svg>