<svg height="320pt" viewBox="0 0 320 320" width="320pt" xmlns="http://www.w3.org/2000/svg"><path d="m260 200c-11.058594 0-20 8.941406-20 20v40c0 33.121094-26.878906 60-60 60v-40c11.058594 0 20-8.941406 20-20v-40c0-33.121094 26.878906-60 60-60-33.121094 0-60-26.859375-60-60v-40c0-11.039062-8.941406-20-20-20v-40c33.121094 0 60 26.859375 60 60v40c0 11.039062 8.941406 20 20 20 22.078125 0 40 17.921875 40 40s-17.921875 40-40 40zm-180 60v-40c0-11.058594-8.960938-20-20-20-22.078125 0-40-17.921875-40-40s17.921875-40 40-40c11.039062 0 20-8.960938 20-20v-40c0-33.140625 26.859375-60 60-60v40c-11.039062 0-20 8.960938-20 20v40c0 33.140625-26.859375 60-60 60 33.140625 0 60 26.878906 60 60v40c0 11.058594 8.960938 20 20 20v40c-33.140625 0-60-26.878906-60-60zm0 0"/></svg>