<svg height="320pt" viewBox="0 0 320 320" width="320pt" xmlns="http://www.w3.org/2000/svg"><path d="m260 155.539062v-75.539062l-80-80h-140c-11.058594 0-20 8.941406-20 20v280c0 11.058594 8.941406 20 20 20h170c49.699219 0 90-40.300781 90-90 0-31.140625-15.960938-58.339844-40-74.460938zm-124.800781 124.460938h-75.199219v-240h100v60h60v41c-3.300781-.460938-6.578125-1-10-1-49.699219 0-90 40.300781-90 90 0 18.519531 5.621094 35.699219 15.199219 50zm74.800781 0c-27.621094 0-50-22.378906-50-50s22.378906-50 50-50 50 22.378906 50 50-22.378906 50-50 50zm10-60h20v20h-20v20h-20v-20h-20v-20h20v-20h20zm0 0"/></svg>