<svg height="320pt" viewBox="0 0 320 320" width="320pt" xmlns="http://www.w3.org/2000/svg"><path d="m289.578125 129.578125-99.476563-99.476563 29.898438-30.101562 100 100zm-29.597656 28.820313c-.679688.660156-1.21875 1.023437-1.859375 1.601562h-38.121094l-20 80-160 80h-20l63.601562-63.601562c5.019532 2.28125 10.539063 3.601562 16.398438 3.601562 22.078125 0 40-17.921875 40-40s-17.921875-40-40-40-40 17.921875-40 40c0 5.859375 1.320312 11.378906 3.601562 16.398438l-63.601562 63.601562v-20l80-160 80-20v-39.441406c.378906-.398438.558594-.738282.980469-1.160156l9.179687-9.238282 99.160156 99.160156zm0 0"/></svg>