<svg height="320pt" viewBox="0 0 320 320" width="320pt" xmlns="http://www.w3.org/2000/svg"><path d="m240 160c-14.640625 0-28.199219-4.21875-40-11.101562v171.101562h-200v-240c0-44.179688 35.820312-80 80-80h160c44.179688 0 80 35.820312 80 80s-35.820312 80-80 80zm-160-120c-22.078125 0-40 17.921875-40 40v200h120v-200c0-14.640625 4.21875-28.179688 11.101562-40zm160 0c-22.078125 0-40 17.921875-40 40s17.921875 40 40 40 40-17.921875 40-40-17.921875-40-40-40zm-180 200h80v20h-80zm0-60h80v20h-80zm0-60h80v20h-80zm0-60h80v20h-80zm0 0"/></svg>