<svg height="320pt" viewBox="0 0 320 320" width="320pt" xmlns="http://www.w3.org/2000/svg"><path d="m60 160h200v-20h-200zm0-40h200v-20h-200zm200-120h-200c-33.140625 0-60 26.859375-60 60v200c0 33.140625 26.859375 60 60 60h200c33.140625 0 60-26.859375 60-60v-200c0-33.140625-26.859375-60-60-60zm20 260c0 11.058594-8.941406 20-20 20h-200c-11.039062 0-20-8.941406-20-20v-200c0-11.039062 8.960938-20 20-20h200c11.058594 0 20 8.960938 20 20zm-220-180h200v-20h-200zm114.140625 105.878906c-3.902344-3.898437-9.019531-5.878906-14.140625-5.878906s-10.238281 1.980469-14.140625 5.878906l-40 40c-5.699219 5.699219-7.417969 14.28125-4.339844 21.78125 3.082031 7.480469 10.402344 12.339844 18.480469 12.339844h80c8.078125 0 15.398438-4.859375 18.480469-12.339844 3.078125-7.460937 1.378906-16.101562-4.339844-21.800781zm0 0"/></svg>