<svg height="320pt" viewBox="0 0 320 320" width="320pt" xmlns="http://www.w3.org/2000/svg"><path d="m50 120c5.519531 0 10-4.480469 10-10s-4.480469-10-10-10-10 4.480469-10 10 4.480469 10 10 10zm0 80c-5.519531 0-10 4.480469-10 10s4.480469 10 10 10 10-4.480469 10-10-4.480469-10-10-10zm210-200h-200c-33.140625 0-60 26.859375-60 60v200c0 33.140625 26.859375 60 60 60h200c33.121094 0 60-26.859375 60-60v-200c0-33.140625-26.878906-60-60-60zm20 260c0 11.058594-8.941406 20-20 20h-200c-11.039062 0-20-8.941406-20-20v-20c-11.039062 0-20-8.941406-20-20v-20c0-11.039062 8.960938-20 20-20v-40c-11.039062 0-20-8.941406-20-20v-20c0-11.039062 8.960938-20 20-20v-20c0-11.039062 8.960938-20 20-20h200c11.058594 0 20 8.960938 20 20zm-40-200h-160c-11.039062 0-20 8.960938-20 20 11.039062 0 20 8.960938 20 20v20c0 11.058594-8.960938 20-20 20v40c11.039062 0 20 8.960938 20 20v20c0 11.058594-8.960938 20-20 20 0 11.058594 8.960938 20 20 20h160c11.058594 0 20-8.941406 20-20v-160c0-11.039062-8.941406-20-20-20zm-80 160c-33.140625 0-60-26.859375-60-60s26.859375-60 60-60c33.121094 0 60 26.859375 60 60s-26.878906 60-60 60zm0-100c-22.078125 0-40 17.921875-40 40s17.921875 40 40 40 40-17.921875 40-40-17.921875-40-40-40zm0 0"/></svg>