<svg height="320pt" viewBox="0 0 320 320" width="320pt" xmlns="http://www.w3.org/2000/svg"><path d="m260 320h-200c-33.140625 0-60-26.859375-60-60v-200c0-33.140625 26.859375-60 60-60h200c33.121094 0 60 26.859375 60 60v200c0 33.140625-26.878906 60-60 60zm20-260c0-11.058594-8.941406-20-20-20h-200c-11.039062 0-20 8.941406-20 20v200c0 11.058594 8.960938 20 20 20h200c11.058594 0 20-8.941406 20-20zm-50 180c-13 0-23.820312-8.398438-27.960938-20h-44.078124c-4.140626 11.601562-14.960938 20-27.960938 20-16.578125 0-30-13.441406-30-30s13.421875-30 30-30c13 0 23.820312 8.398438 27.960938 20h44.058593c4.140625-11.601562 14.960938-20 27.960938-20 16.558593 0 30 13.441406 30 30s-13.421875 30-29.980469 30zm0-40c-5.5 0-10 4.480469-10 10s4.5 10 10 10 10-4.480469 10-10-4.5-10-10-10zm-40-60c-13 0-23.820312-8.398438-27.960938-20h-44.058593c-4.160157 11.601562-14.960938 20-27.980469 20-16.578125 0-30-13.441406-30-30s13.421875-30 30-30c13.019531 0 23.820312 8.398438 27.980469 20h44.058593c4.140626-11.601562 14.960938-20 27.960938-20 16.558594 0 30 13.441406 30 30s-13.441406 30-30 30zm-100-40c-5.519531 0-10 4.480469-10 10s4.480469 10 10 10 10-4.480469 10-10-4.480469-10-10-10zm0 0"/></svg>