<svg height="320pt" viewBox="0 0 320 320" width="320pt" xmlns="http://www.w3.org/2000/svg"><path d="m300 180h-83.679688c-8.261718 23.261719-30.21875 40-56.320312 40-26.078125 0-48.058594-16.738281-56.320312-40h-83.679688c-11.039062 0-20-8.941406-20-20s8.960938-20 20-20h83.679688c8.261718-23.238281 30.242187-40 56.320312-40 26.101562 0 48.058594 16.761719 56.320312 40h83.679688c11.058594 0 20 8.941406 20 20s-8.941406 20-20 20zm-140-40c-11.039062 0-20 8.941406-20 20s8.960938 20 20 20c11.058594 0 20-8.941406 20-20s-8.941406-20-20-20zm0 0"/></svg>