<svg height="320pt" viewBox="0 0 320 320" width="320pt" xmlns="http://www.w3.org/2000/svg"><path d="m260 320h-200c-33.140625 0-60-26.859375-60-60v-260h240v20h40v20h40v220c0 33.140625-26.859375 60-60 60zm-60-280h-160v220c0 11.058594 8.941406 20 20 20h140zm100 20h-20v190c0 5.519531-4.480469 10-10 10s-10-4.480469-10-10v-210h-20v210c0 16.558594 13.441406 30 30 30s30-13.441406 30-30zm-240 180h60v20h-60zm0-40h80v20h-80zm120 20h-20v-20h20zm-40-60h40v20h-40zm-80-100h120v80h-120zm60 120h-60v-20h60zm0 0"/></svg>