<svg height="320pt" viewBox="0 0 320 320" width="320pt" xmlns="http://www.w3.org/2000/svg"><path d="m308.28125 68.300781-29.78125 29.777344-57.441406-55.679687 30.660156-30.660157c15.601562-15.617187 40.941406-15.617187 56.5625 0 15.617188 15.601563 15.617188 40.921875 0 56.5625zm-47.222656 47.199219-123.097656 122.800781-77.960938 21.699219 21.378906-78.261719 122.421875-122.097656zm47.222656-47.199219-29.78125 29.777344-57.441406-55.679687 30.660156-30.660157c15.601562-15.617187 40.941406-15.617187 56.5625 0 15.617188 15.601563 15.617188 40.921875 0 56.5625zm-47.222656 47.199219-123.097656 122.800781-77.960938 21.699219 21.359375-78.261719 122.421875-122.097656zm18.941406 37.621094 40-39.980469v146.859375c0 33.140625-26.859375 60-60 60h-200c-33.140625 0-60-26.859375-60-60v-200c0-33.140625 26.859375-60 60-60h146.839844l-40.078125 40h-106.761719c-11.039062 0-20 8.960938-20 20v200c0 11.058594 8.960938 20 20 20h200c11.058594 0 20-8.941406 20-20zm0 0"/></svg>