<svg height="320pt" viewBox="0 0 320 320" width="320pt" xmlns="http://www.w3.org/2000/svg"><path d="m110.101562 53.539062c3.457032-2.019531 6.976563-3.960937 10.71875-5.539062-.539062-2.578125-.820312-5.261719-.820312-8 0-22.078125 17.921875-40 40-40s40 17.921875 40 40c0 2.738281-.28125 5.421875-.820312 8 35.742187 15.261719 60.820312 50.699219 60.820312 92v26.921875c12.578125 9.476563 20 20.839844 20 33.078125 0 6.160156-2.378906 12-5.859375 17.578125zm168.878907 253.742188-266.261719-266.261719 28.28125-28.300781 266.261719 266.28125zm-218.980469-140.359375v-26.921875c0-7.21875 1.019531-14.179688 2.480469-20.960938l137.320312 137.320313c-12.539062 2.21875-25.78125 3.640625-39.800781 3.640625-66.261719 0-120-26.859375-120-60 0-12.238281 7.421875-23.601562 20-33.078125zm100 113.078125c13.878906 0 27.039062-1.320312 39.679688-3.199219.082031 1.078125.320312 2.097657.320312 3.199219 0 22.078125-17.921875 40-40 40s-40-17.921875-40-40c0-1.101562.238281-2.121094.320312-3.199219 12.660157 1.878907 25.800782 3.199219 39.679688 3.199219zm0 0"/></svg>