<svg height="320pt" viewBox="0 0 320 320" width="320pt" xmlns="http://www.w3.org/2000/svg"><path d="m280 180h40v40h-40zm0-80h40v40h-40zm-20-60v-40c33.140625 0 60 26.859375 60 60h-40c0-11.039062-8.941406-20-20-20zm-40 140h-40v40c0 11.058594-8.941406 20-20 20-11.039062 0-20-8.941406-20-20v-40h-40c-11.039062 0-20-8.941406-20-20 0-11.039062 8.960938-20 20-20h40v-40c0-11.039062 8.960938-20 20-20 11.058594 0 20 8.960938 20 20v40h40c11.058594 0 20 8.960938 20 20 0 11.058594-8.941406 20-20 20zm-40-180h40v40h-40zm-80 0h40v40h-40zm-100 260h40c0 11.058594 8.960938 20 20 20v40c-33.140625 0-60-26.859375-60-60zm40-200h-40c0-33.140625 26.859375-60 60-60v40c-11.039062 0-20 8.960938-20 20zm0 80h-40v-40h40zm0 80h-40v-40h40zm100 100h-40v-40h40zm80 0h-40v-40h40zm60-60h40c0 33.140625-26.859375 60-60 60v-40c11.058594 0 20-8.941406 20-20zm0 0"/></svg>