<svg height="320pt" viewBox="0 0 320 320" width="320pt" xmlns="http://www.w3.org/2000/svg"><path d="m260 320h-200c-33.140625 0-60-26.878906-60-60v-200c0-33.140625 26.859375-60 60-60h11.160156c-11.960937 13.261719-20.800781 29.160156-25.898437 46.761719-3.183594 3.539062-5.261719 8.117187-5.261719 13.238281v200c0 11.058594 8.941406 20 20 20h200c11.058594 0 20-8.941406 20-20v-200c0-5.121094-2.078125-9.699219-5.261719-13.238281-5.097656-17.601563-13.9375-33.5-25.878906-46.761719h11.140625c33.140625 0 60 26.859375 60 60v200c0 33.121094-26.859375 60-60 60zm-180-240c0-44.179688 35.820312-80 80-80s80 35.820312 80 80-80 160-80 160-80-115.820312-80-160zm120 0c0-22.078125-17.921875-40-40-40s-40 17.921875-40 40 17.921875 40 40 40 40-17.921875 40-40zm0 0"/></svg>