<svg height="320pt" viewBox="0 0 320 320" width="320pt" xmlns="http://www.w3.org/2000/svg"><path d="m280 20h-40v40h20v220h-200v-220h20v-40h-40c-11.058594 0-20 8.960938-20 20v260c0 11.058594 8.941406 20 20 20h240c11.058594 0 20-8.941406 20-20v-260c0-11.039062-8.941406-20-20-20zm-160 60h80c11.058594 0 20-8.960938 20-20v-40h-40v-20h-40v20h-40v40c0 11.039062 8.941406 20 20 20zm20-40h40v20h-40zm-60 220h160v-180h-20c0 11.039062-8.941406 20-20 20h-80c-11.058594 0-20-8.960938-20-20h-20zm20-140h120v20h-120zm0 40h80v20h-80zm0 40h100v20h-100zm0 0"/></svg>