<svg height="320pt" viewBox="0 0 320 320" width="320pt" xmlns="http://www.w3.org/2000/svg"><path d="m0 160c0 88.359375 71.640625 160 160 160s160-71.640625 160-160-71.640625-160-160-160-160 71.640625-160 160zm280 0c0 66.261719-53.738281 120-120 120s-120-53.738281-120-120 53.738281-120 120-120 120 53.738281 120 120zm-194.160156-14.140625 40-40c5.71875-5.699219 14.320312-7.417969 21.820312-4.339844 7.460938 3.082031 12.339844 10.402344 12.339844 18.480469v20h60c11.058594 0 20 8.941406 20 20s-8.941406 20-20 20h-60v20c0 8.078125-4.878906 15.398438-12.339844 18.480469-7.480468 3.078125-16.101562 1.378906-21.820312-4.339844l-40-40c-3.898438-3.902344-5.859375-9.019531-5.859375-14.140625s1.960937-10.238281 5.859375-14.140625zm0 0"/></svg>