<svg height="320pt" viewBox="0 0 320 320" width="320pt" xmlns="http://www.w3.org/2000/svg"><path d="m100 200h-80c-11.039062 0-20 8.960938-20 20v80c0 11.058594 8.960938 20 20 20h80c11.039062 0 20-8.941406 20-20v-80c0-11.039062-8.960938-20-20-20zm-20 80h-40v-40h40zm220-280h-80c-11.058594 0-20 8.960938-20 20v80c0 11.039062 8.941406 20 20 20h80c11.058594 0 20-8.960938 20-20v-80c0-11.039062-8.941406-20-20-20zm-20 80h-40v-40h40zm-140-60c11.039062 0 20 8.960938 20 20s-8.960938 20-20 20h-40c-11.039062 0-20 8.960938-20 20h20c8.078125 0 15.398438 4.878906 18.480469 12.339844 3.078125 7.480468 1.378906 16.082031-4.339844 21.800781l-40 40c-3.902344 3.898437-9.019531 5.859375-14.140625 5.859375s-10.238281-1.960938-14.140625-5.859375l-40-40c-5.699219-5.71875-7.417969-14.320313-4.339844-21.800781 3.082031-7.460938 10.402344-12.339844 18.480469-12.339844h20c0-33.140625 26.859375-60 60-60zm134.140625 145.859375 40 40c5.699219 5.71875 7.417969 14.320313 4.339844 21.800781-3.082031 7.460938-10.402344 12.339844-18.480469 12.339844h-20c0 33.121094-26.878906 60-60 60h-40c-11.058594 0-20-8.960938-20-20 0-11.058594 8.960938-20 20-20h40c11.058594 0 20-8.941406 20-20h-20c-8.078125 0-15.398438-4.878906-18.480469-12.339844-3.078125-7.480468-1.378906-16.082031 4.339844-21.800781l40-40c3.902344-3.898437 9.019531-5.859375 14.140625-5.859375s10.238281 1.960938 14.140625 5.859375zm0 0"/></svg>