<svg height="320pt" viewBox="0 0 320 320" width="320pt" xmlns="http://www.w3.org/2000/svg"><path d="m260 320h-200c-33.140625 0-60-26.878906-60-60v-200c0-33.140625 26.859375-60 60-60h200c33.140625 0 60 26.859375 60 60v200c0 33.121094-26.859375 60-60 60zm20-260c0-11.039062-8.941406-20-20-20h-200c-11.058594 0-20 8.960938-20 20v180h240zm-148.878906 87.558594c-6.859375-7.160156-11.121094-16.839844-11.121094-27.558594v-20c0-22.078125 17.921875-40 40-40s40 17.921875 40 40v20c0 10.71875-4.261719 20.398438-11.121094 27.558594 15.699219 8.679687 28.042969 24.101562 31.121094 42.441406 0 16.558594-13.441406 30-30 30h-60c-16.558594 0-30-13.441406-30-30 3.078125-18.339844 15.421875-33.761719 31.121094-42.441406zm48.878906-47.558594c0-11.039062-8.941406-20-20-20s-20 8.960938-20 20v20c0 11.039062 8.941406 20 20 20s20-8.960938 20-20zm-50 100h60c5.519531 0 10-4.480469 10-10-4.480469-17.21875-21.378906-30-40-30s-35.519531 12.78125-40 30c0 5.519531 4.480469 10 10 10zm0 0"/></svg>