<svg height="320pt" viewBox="0 0 320 320" width="320pt" xmlns="http://www.w3.org/2000/svg"><path d="m280 280h-80c-11.058594 0-20-8.941406-20-20s8.941406-20 20-20h80c11.058594 0 20 8.941406 20 20s-8.941406 20-20 20zm-140-20c0 33.140625 26.859375 60 60 60h-160c-11.039062 0-20-8.941406-20-20 0-40 38.660156-77.320312 78.179688-92.078125-22.820313-14.101563-38.179688-39.140625-38.179688-67.921875v-20c0-44.179688 35.820312-80 80-80s80 35.820312 80 80v20c0 24.78125-11.761719 46.320312-29.5 60.960938-28.601562 4.578124-50.5 29.160156-50.5 59.039062zm0 0"/></svg>