<svg height="320pt" viewBox="0 0 320 320" width="320pt" xmlns="http://www.w3.org/2000/svg"><path d="m300 40h-280c-11.039062 0-20 8.960938-20 20v200c0 11.058594 8.960938 20 20 20h280c11.058594 0 20-8.941406 20-20v-200c0-11.039062-8.941406-20-20-20zm-100 100h40v40h-40zm-60 0h40v40h-40zm60 60v20h-20v-20zm-60 0h20v20h-20zm-120-120c0-11.039062 8.960938-20 20-20h40c11.039062 0 20 8.960938 20 20v20c0 11.058594-8.960938 20-20 20h-40c-11.039062 0-20-8.941406-20-20zm100 60v40h-40v-40zm-60 120h-40v-20h40zm0-80h-40v-40h40zm160 80h-140v-20h140zm40-40h-20v-20h20zm40 0h-20v-20h20zm0-40h-40v-40h40zm0 0"/></svg>