<svg height="320pt" viewBox="0 0 320 320" width="320pt" xmlns="http://www.w3.org/2000/svg"><path d="m320 160c0 6.761719-.539062 13.398438-1.359375 19.941406-.199219 1.597656-.480469 3.179688-.742187 4.757813-.859376 5.480469-1.957032 10.902343-3.359376 16.199219-.257812.941406-.460937 1.902343-.71875 2.820312-3.800781 13.242188-9.21875 25.820312-16.101562 37.441406-13.757812 23.320313-33.238281 42.800782-56.558594 56.558594-11.621094 6.882812-24.199218 12.28125-37.441406 16.101562-.917969.257813-1.878906.460938-2.820312.71875-5.296876 1.402344-10.699219 2.5-16.199219 3.359376-1.578125.261718-3.160157.542968-4.757813.742187-6.542968.820313-13.179687 1.359375-19.941406 1.359375s-13.398438-.539062-19.941406-1.359375c-1.617188-.199219-3.179688-.480469-4.777344-.742187-5.480469-.859376-10.902344-1.957032-16.203125-3.359376-.917969-.257812-1.878906-.460937-2.796875-.71875-13.261719-3.800781-25.820312-9.21875-37.441406-16.101562-23.320313-13.757812-42.800782-33.238281-56.578125-56.558594-6.863281-11.621094-12.28125-24.199218-16.082031-37.441406-.257813-.917969-.480469-1.878906-.71875-2.820312-1.402344-5.296876-2.5-10.699219-3.359376-16.199219-.242187-1.578125-.523437-3.160157-.742187-4.757813-.820313-6.542968-1.359375-13.179687-1.359375-19.941406s.539062-13.398438 1.359375-19.941406c.199219-1.617188.480469-3.179688.742187-4.777344.859376-5.480469 1.957032-10.902344 3.378907-16.203125.238281-.917969.460937-1.878906.71875-2.796875 3.800781-13.242188 9.222656-25.820312 16.082031-37.441406 13.777344-23.320313 33.257812-42.800782 56.578125-56.578125 11.601563-6.839844 24.179687-12.261719 37.421875-16.0625.917969-.257813 1.878906-.480469 2.796875-.71875 5.300781-1.421875 10.722656-2.5 16.203125-3.378907 1.597656-.242187 3.160156-.523437 4.777344-.742187 6.542968-.820313 13.179687-1.359375 19.941406-1.359375s13.398438.539062 19.941406 1.359375c1.597656.199219 3.179688.480469 4.757813.742187 5.480469.859376 10.902343 1.957032 16.199219 3.378907.941406.238281 1.902343.460937 2.820312.71875 13.242188 3.800781 25.820312 9.222656 37.441406 16.082031 23.320313 13.777344 42.800782 33.257812 56.558594 56.578125 6.882812 11.621094 12.28125 24.179687 16.101562 37.441406.257813.917969.460938 1.878907.71875 2.800781 1.402344 5.296876 2.5 10.71875 3.359376 16.199219.261718 1.597657.542968 3.160157.742187 4.777344.820313 6.523437 1.359375 13.160156 1.359375 19.921875zm-252.941406-36.359375-29.738282-29.761719c-10.679687 19.78125-17.320312 42.0625-17.320312 66.121094s6.640625 46.339844 17.320312 66.121094l29.738282-29.742188c-4.417969-11.300781-7.058594-23.5-7.058594-36.378906 0-12.859375 2.640625-25.058594 7.058594-36.359375zm92.941406 176.359375c24.058594 0 46.339844-6.621094 66.121094-17.300781l-29.742188-29.757813c-11.300781 4.417969-23.5 7.058594-36.378906 7.058594-12.859375 0-25.058594-2.640625-36.359375-7.078125l-29.761719 29.757813c19.78125 10.699218 42.0625 17.320312 66.121094 17.320312zm0-280c-24.058594 0-46.339844 6.640625-66.121094 17.320312l29.761719 29.738282c11.300781-4.417969 23.5-7.058594 36.359375-7.058594 12.878906 0 25.078125 2.640625 36.359375 7.058594l29.742187-29.738282c-19.761718-10.679687-42.042968-17.320312-66.101562-17.320312zm77.039062 119.539062c-7.339843-27.640624-28.917968-49.21875-56.558593-56.578124-2.660157-.699219-5.339844-1.28125-8.101563-1.722657-4.039062-.71875-8.117187-1.238281-12.378906-1.238281s-8.339844.519531-12.398438 1.238281c-2.742187.441407-5.421874 1.023438-8.0625 1.722657-27.640624 7.359374-49.21875 28.9375-56.578124 56.578124-.699219 2.640626-1.28125 5.320313-1.722657 8.0625-.71875 4.058594-1.238281 8.136719-1.238281 12.398438s.519531 8.339844 1.238281 12.378906c.421875 2.761719 1.023438 5.421875 1.722657 8.082032 7.339843 27.640624 28.9375 49.21875 56.578124 56.558593 2.640626.699219 5.320313 1.28125 8.0625 1.71875 4.058594.742188 8.136719 1.261719 12.398438 1.261719s8.339844-.519531 12.378906-1.238281c2.761719-.421875 5.421875-1.023438 8.082032-1.722657 27.640624-7.339843 49.21875-28.917968 56.558593-56.558593.699219-2.660157 1.28125-5.339844 1.71875-8.082031.742188-4.058594 1.261719-8.136719 1.261719-12.398438s-.519531-8.339844-1.238281-12.398438c-.441407-2.742187-1.023438-5.421874-1.722657-8.0625zm45.660157-45.660156-29.757813 29.761719c4.417969 11.300781 7.058594 23.5 7.058594 36.359375 0 12.878906-2.640625 25.078125-7.078125 36.359375l29.757813 29.742187c10.699218-19.761718 17.320312-42.042968 17.320312-66.101562s-6.621094-46.339844-17.300781-66.121094zm0 0"/></svg>