<svg height="320pt" viewBox="0 0 320 320" width="320pt" xmlns="http://www.w3.org/2000/svg"><path d="m300 180h-20c-11.058594 0-20-8.960938-20-20s8.941406-20 20-20h20c11.058594 0 20 8.960938 20 20s-8.941406 20-20 20zm-41-90.699219c-7.820312 7.800781-20.480469 7.800781-28.300781 0-7.820313-7.820312-7.820313-20.480469 0-28.300781l14.160156-14.140625c7.800781-7.820313 20.460937-7.820313 28.28125 0s7.820313 20.460937 0 28.28125zm-99 150.699219c-44.179688 0-80-35.820312-80-80s35.820312-80 80-80 80 35.820312 80 80-35.820312 80-80 80zm0-120c-22.078125 0-40 17.921875-40 40s17.921875 40 40 40 40-17.921875 40-40-17.921875-40-40-40zm0-60c-11.058594 0-20-8.960938-20-20v-20c0-11.039062 8.941406-20 20-20s20 8.960938 20 20v20c0 11.039062-8.941406 20-20 20zm-98.980469 29.300781-14.160156-14.160156c-7.820313-7.820313-7.820313-20.460937 0-28.28125s20.480469-7.820313 28.300781 0l14.140625 14.140625c7.820313 7.820312 7.820313 20.480469 0 28.300781-7.820312 7.800781-20.5 7.800781-28.28125 0zm-1.019531 70.699219c0 11.039062-8.941406 20-20 20h-20c-11.058594 0-20-8.960938-20-20s8.941406-20 20-20h20c11.058594 0 20 8.960938 20 20zm1.019531 70.699219c7.800781-7.820313 20.460938-7.820313 28.28125 0 7.820313 7.820312 7.820313 20.460937 0 28.28125l-14.140625 14.140625c-7.820312 7.820312-20.480468 7.820312-28.300781 0-7.820313-7.800782-7.820313-20.460938 0-28.28125zm98.980469 29.300781c11.058594 0 20 8.941406 20 20v20c0 11.058594-8.941406 20-20 20s-20-8.941406-20-20v-20c0-11.058594 8.941406-20 20-20zm99-29.300781 14.140625 14.140625c7.820313 7.820312 7.820313 20.480468 0 28.28125-7.820313 7.820312-20.480469 7.820312-28.28125 0l-14.160156-14.140625c-7.820313-7.820313-7.820313-20.460938 0-28.28125 7.820312-7.820313 20.5-7.800781 28.300781 0zm0 0"/></svg>