<svg height="320pt" viewBox="0 0 320 320" width="320pt" xmlns="http://www.w3.org/2000/svg"><path d="m300 0c-11.058594 0-20 8.960938-20 20v60c0 11.039062-8.941406 20-20 20h-60c-15.421875 0-29.378906 6-40 15.578125-10.640625-9.578125-24.558594-15.578125-40-15.578125h-60c-11.039062 0-20-8.960938-20-20v-60c0-11.039062-8.960938-20-20-20s-20 8.960938-20 20v60c0 33.140625 26.859375 60 60 60h60c11.039062 0 20 8.960938 20 20v80h-20c-8.078125 0-15.398438 4.878906-18.480469 12.339844-3.078125 7.480468-1.359375 16.082031 4.339844 21.800781l40 40c3.902344 3.898437 9.019531 5.859375 14.140625 5.859375s10.238281-1.960938 14.140625-5.859375l40-40c5.71875-5.71875 7.417969-14.320313 4.339844-21.800781-3.082031-7.460938-10.402344-12.339844-18.480469-12.339844h-20v-80c0-11.039062 8.941406-20 20-20h60c33.140625 0 60-26.859375 60-60v-60c0-11.039062-8.941406-20-20-20zm0 0"/></svg>