<svg height="320pt" viewBox="0 0 320 320" width="320pt" xmlns="http://www.w3.org/2000/svg"><path d="m260 320h-200c-33.140625 0-60-26.878906-60-60v-200c0-33.140625 26.859375-60 60-60h200c33.121094 0 60 26.859375 60 60v200c0 33.121094-26.878906 60-60 60zm20-260c0-11.039062-8.941406-20-20-20h-200v20h-20v40h240zm0 80h-240v120c0 11.058594 8.960938 20 20 20h200c11.058594 0 20-8.941406 20-20zm-220 60h180v20h-180zm0-40h180v20h-180zm140 100h-140v-20h140zm-80-200h-20v-20h20zm20 20h-20v-20h20zm-40 20v-20h20v20zm80-40h-20v-20h20zm20 20h-20v-20h20zm-40 20v-20h20v20zm80-40h-20v-20h20zm20 20h-20v-20h20zm-40 20v-20h20v20zm-140-20h-20v-20h20zm-40 20v-20h20v20zm0 0"/></svg>