<svg height="320pt" viewBox="0 0 320 320" width="320pt" xmlns="http://www.w3.org/2000/svg"><path d="m260 0h-200c-33.140625 0-60 26.878906-60 60v200c0 33.140625 26.859375 60 60 60h200c33.140625 0 60-26.859375 60-60v-200c0-33.121094-26.859375-60-60-60zm20 260c0 11.058594-8.941406 20-20 20h-200c-11.039062 0-20-8.941406-20-20v-200c0-11.039062 8.960938-20 20-20h200c11.058594 0 20 8.960938 20 20zm-70.820312-156.601562-70.699219 70.703124-28.300781-28.28125c-7.800782-7.820312-20.460938-7.820312-28.28125 0-7.820313 7.820313-7.820313 20.480469 0 28.28125l42.441406 42.417969c7.800781 7.820313 20.460937 7.820313 28.28125 0l84.839844-84.839843c7.820312-7.820313 7.820312-20.460938 0-28.28125-7.820313-7.820313-20.460938-7.820313-28.28125 0zm0 0"/></svg>