<svg height="320pt" viewBox="0 0 320 320" width="320pt" xmlns="http://www.w3.org/2000/svg"><path d="m280 180h40v40h-40zm0-80h40v40h-40zm0-40c0-11.039062-8.941406-20-20-20v-40c33.140625 0 60 26.859375 60 60zm-100 220h40v40h-40zm0-280h40v40h-40zm38.480469 172.339844c3.078125 7.5 1.359375 16.082031-4.339844 21.800781l-40 40c-3.902344 3.898437-9.019531 5.859375-14.140625 5.859375s-10.238281-1.960938-14.140625-5.859375l-40-40c-5.71875-5.71875-7.417969-14.320313-4.339844-21.800781 3.082031-7.460938 10.402344-12.339844 18.480469-12.339844h20v-60.019531c0-11.058594 8.960938-20 20-20 11.058594 0 20 8.941406 20 20v60.019531h20c8.078125 0 15.398438 4.878906 18.480469 12.339844zm-118.480469-172.339844h40v40h-40zm-60 260c0 11.058594 8.960938 20 20 20v40c-33.140625 0-60-26.859375-60-60zm-40-200c0-33.140625 26.859375-60 60-60v40c-11.039062 0-20 8.960938-20 20zm0 40h40v40h-40zm0 80h40v40h-40zm100 100h40v40h-40zm160 0c11.058594 0 20-8.941406 20-20h40c0 33.140625-26.859375 60-60 60zm0 0"/></svg>