<svg height="320pt" viewBox="0 0 320 320" width="320pt" xmlns="http://www.w3.org/2000/svg"><path d="m260 100h-18.160156c-1.121094 6.28125-1.839844 12.941406-1.839844 20s.71875 13.71875 1.839844 20h18.160156c11.058594 0 20-8.960938 20-20s-8.941406-20-20-20zm0-100c-56.878906 58.121094-140 60-140 60h-60c-33.140625 0-60 26.859375-60 60s26.859375 60 60 60c0 2.78125.558594 5.398438 1.578125 7.78125 1.882813 4.5 5.441406 7.957031 9.800781 10.078125.300782.140625.519532.421875.839844.582031 2.382812 1.019532 5.019531 1.558594 7.78125 1.558594l-20 100c0 11.058594 8.960938 20 20 20h40c11.039062 0 20-8.941406 20-20s-8.960938-20-20-20l16-80h4c9.019531 0 16.359375-6.101562 18.839844-14.300781 29.121094 6.800781 69.261718 21.699219 101.160156 54.300781 33.121094 0 60-53.738281 60-120s-26.878906-120-60-120zm-200 140h-20v-40h20zm200 60c-22.078125 0-40-35.820312-40-80s17.921875-80 40-80 40 35.820312 40 80-17.921875 80-40 80zm0 0"/></svg>