<svg height="320pt" viewBox="0 0 320 320" width="320pt" xmlns="http://www.w3.org/2000/svg"><path d="m260 320h-200c-33.140625 0-60-26.859375-60-60v-60l68.898438-68.898438c2.441406 4.019532 5.261718 7.859376 8.679687 11.296876l18.320313 18.320312-55.898438 59.28125h60v20c0 11.058594 8.960938 20 20 20h80c11.058594 0 20-8.941406 20-20v-20h60l-55.898438-59.28125 18.320313-18.320312c3.4375-3.4375 6.238281-7.277344 8.699219-11.277344l68.878906 68.878906v60c0 33.140625-26.859375 60-60 60zm-85.859375-165.878906c-3.902344 3.898437-9.019531 5.859375-14.140625 5.859375s-10.238281-1.960938-14.140625-5.859375l-40-40c-5.699219-5.722656-7.417969-14.320313-4.339844-21.800782 3.082031-7.460937 10.402344-12.320312 18.480469-12.320312h20v-60c0-11.039062 8.960938-20 20-20 11.058594 0 20 8.960938 20 20v60h20c8.078125 0 15.398438 4.878906 18.480469 12.339844 3.078125 7.480468 1.378906 16.058594-4.339844 21.78125zm0 0"/></svg>