<svg height="320pt" viewBox="0 0 320 320" width="320pt" xmlns="http://www.w3.org/2000/svg"><path d="m260 280v20c0 11.058594-8.941406 20-20 20h-160c-11.039062 0-20-8.941406-20-20v-20c-33.140625 0-60-26.859375-60-60v-60c0-33.140625 26.859375-60 60-60v-80c0-11.058594 8.960938-20 20-20h160c11.058594 0 20 8.941406 20 20v80c33.121094 0 60 26.859375 60 60v60c0 33.140625-26.878906 60-60 60zm-180 20h160v-80h-160zm160-280h-160v80h20v-60h120v60h20zm-120 40v40h80v-40zm120 80h-20v20h20zm0 40h-160c-22.078125 0-40 17.921875-40 40v20h20v-20c0-11.058594 8.960938-20 20-20h160c11.058594 0 20 8.941406 20 20v20h20v-20c0-22.078125-17.921875-40-40-40zm40-40h-20v20h20zm0 0"/></svg>