<svg height="76pt" viewBox="0 0 76 76" width="76pt" xmlns="http://www.w3.org/2000/svg"><path d="m50.097656 43.949219-9.539062-7.152344v-14.570313c0-1.464843-1.183594-2.648437-2.648438-2.648437s-2.648437 1.183594-2.648437 2.648437v15.894532c0 .835937.390625 1.625 1.058593 2.121094l10.597657 7.949218c.476562.355469 1.03125.527344 1.585937.527344.808594 0 1.601563-.363281 2.121094-1.0625.882812-1.167969.644531-2.828125-.527344-3.707031zm-12.1875-40.238281c-18.859375 0-34.199218 15.339843-34.199218 34.199218s15.339843 34.199219 34.199218 34.199219 34.199219-15.339844 34.199219-34.199219-15.339844-34.199218-34.199219-34.199218zm0 63.101562c-15.933594 0-28.902344-12.96875-28.902344-28.902344s12.96875-28.902344 28.902344-28.902344c15.9375 0 28.902344 12.96875 28.902344 28.902344s-12.96875 28.902344-28.902344 28.902344zm0 0"/></svg>