<svg xmlns="http://www.w3.org/2000/svg" version="1.1" width="95" height="95" viewBox="0 0 95 95" xml:space="preserve">
	<g transform="matrix(0.9 0 0 0.9 5 5)">
		<path d="M 83.125 5.9375 C 86.402344 5.9375 89.0625 8.597656 89.0625 11.875 L 89.0625 83.125 C 89.0625 86.402344 86.402344 89.0625 83.125 89.0625 L 11.875 89.0625 C 8.597656 89.0625 5.9375 86.402344 5.9375 83.125 L 5.9375 11.875 C 5.9375 8.597656 8.597656 5.9375 11.875 5.9375 Z M 11.875 0 C 5.316406 0 0 5.316406 0 11.875 L 0 83.125 C 0 89.683594 5.316406 95 11.875 95 L 83.125 95 C 89.683594 95 95 89.683594 95 83.125 L 95 11.875 C 95 5.316406 89.683594 0 83.125 0 Z M 11.875 0 M 32.65625 71.25 C 32.65625 76.167969 28.667969 80.15625 23.75 80.15625 C 18.832031 80.15625 14.84375 76.167969 14.84375 71.25 C 14.84375 66.332031 18.832031 62.34375 23.75 62.34375 C 28.667969 62.34375 32.65625 66.332031 32.65625 71.25 Z M 14.84375 20.78125 C 14.84375 17.503906 17.503906 14.84375 20.78125 14.84375 C 53.574219 14.84375 80.15625 41.425781 80.15625 74.21875 C 80.15625 77.496094 77.496094 80.15625 74.21875 80.15625 C 70.941406 80.15625 68.28125 77.496094 68.28125 74.21875 C 68.28125 47.984375 47.015625 26.71875 20.78125 26.71875 C 17.503906 26.71875 14.84375 24.058594 14.84375 20.78125 Z M 14.84375 44.53125 C 14.84375 41.253906 17.503906 38.59375 20.78125 38.59375 C 40.457031 38.59375 56.40625 54.542969 56.40625 74.21875 C 56.40625 77.496094 53.746094 80.15625 50.46875 80.15625 C 47.191406 80.15625 44.53125 77.496094 44.53125 74.21875 C 44.53125 61.101562 33.898438 50.46875 20.78125 50.46875 C 17.503906 50.46875 14.84375 47.808594 14.84375 44.53125 Z M 14.84375 44.53125" stroke-linecap="round" />
	</g>
</svg>
