<svg xmlns="http://www.w3.org/2000/svg" width="95px" height="95px" viewBox="0 0 95 95" version="1.1"><path d="M 11.917969 44.460938 C 13.597656 44.488281 15.234375 43.945312 16.570312 42.921875 C 17.800781 41.890625 18.644531 40.46875 18.957031 38.890625 C 19.453125 36.003906 19.664062 33.078125 19.59375 30.152344 C 19.617188 26.023438 19.691406 23.304688 19.816406 21.996094 C 19.949219 20.269531 20.367188 18.578125 21.058594 16.988281 C 21.582031 15.835938 22.347656 14.804688 23.296875 13.96875 C 24.304688 13.15625 25.46875 12.570312 26.71875 12.246094 C 28.226562 11.945312 29.765625 11.824219 31.300781 11.875 L 33.378906 11.875 L 33.378906 17.695312 L 32.230469 17.695312 C 30.410156 17.460938 28.570312 17.960938 27.117188 19.082031 C 26.039062 20.964844 25.597656 23.140625 25.855469 25.292969 C 25.953125 29.386719 25.816406 33.484375 25.449219 37.5625 C 25.179688 39.753906 24.398438 41.847656 23.167969 43.679688 C 21.808594 45.335938 20.074219 46.644531 18.109375 47.5 C 20.640625 48.46875 22.738281 50.320312 24.023438 52.707031 C 25.480469 56.347656 26.109375 60.269531 25.859375 64.179688 C 25.859375 69 25.90625 71.871094 26.007812 72.789062 C 26.042969 74.105469 26.578125 75.359375 27.503906 76.296875 C 28.933594 77.121094 30.585938 77.46875 32.230469 77.296875 L 33.378906 77.296875 L 33.378906 83.125 L 31.300781 83.125 C 29.523438 83.207031 27.746094 83.007812 26.035156 82.53125 C 24.496094 81.992188 23.132812 81.035156 22.105469 79.769531 C 21.011719 78.367188 20.3125 76.695312 20.082031 74.929688 C 19.707031 71.746094 19.542969 68.539062 19.59375 65.332031 C 19.671875 62.242188 19.460938 59.15625 18.957031 56.109375 C 18.640625 54.53125 17.796875 53.109375 16.570312 52.070312 C 15.242188 51.035156 13.597656 50.488281 11.917969 50.511719 Z M 11.917969 44.460938 M 83.082031 50.5 C 81.402344 50.476562 79.757812 51.023438 78.429688 52.058594 C 77.203125 53.097656 76.359375 54.519531 76.042969 56.097656 C 75.539062 59.148438 75.328125 62.238281 75.414062 65.328125 C 75.460938 68.535156 75.292969 71.742188 74.910156 74.929688 C 74.679688 76.691406 73.984375 78.363281 72.890625 79.765625 C 71.859375 81.035156 70.5 81.988281 68.957031 82.527344 C 67.246094 83.003906 65.46875 83.203125 63.695312 83.121094 L 61.617188 83.121094 L 61.617188 77.304688 L 62.765625 77.304688 C 64.40625 77.480469 66.0625 77.128906 67.492188 76.304688 C 68.421875 75.367188 68.957031 74.105469 68.992188 72.785156 C 69.09375 71.871094 69.140625 69 69.140625 64.175781 C 68.890625 60.261719 69.519531 56.339844 70.976562 52.703125 C 72.261719 50.316406 74.359375 48.46875 76.890625 47.5 C 74.929688 46.644531 73.203125 45.335938 71.84375 43.683594 C 70.613281 41.851562 69.832031 39.753906 69.5625 37.566406 C 69.195312 33.488281 69.058594 29.390625 69.15625 25.296875 C 69.414062 23.144531 68.972656 20.96875 67.894531 19.085938 C 66.441406 17.964844 64.601562 17.464844 62.78125 17.695312 L 61.632812 17.695312 L 61.632812 11.875 L 63.710938 11.875 C 65.242188 11.824219 66.777344 11.949219 68.28125 12.246094 C 69.527344 12.570312 70.691406 13.160156 71.691406 13.972656 C 72.644531 14.808594 73.410156 15.839844 73.933594 16.992188 C 74.625 18.582031 75.042969 20.273438 75.175781 22 C 75.296875 23.308594 75.371094 26.027344 75.398438 30.152344 C 75.324219 33.082031 75.535156 36.011719 76.027344 38.902344 C 76.34375 40.476562 77.1875 41.894531 78.417969 42.925781 C 79.75 43.949219 81.390625 44.488281 83.070312 44.464844 Z M 83.082031 50.5" /></svg>
