<svg version="1.1" xmlns="http://www.w3.org/2000/svg" xmlns:xlink="http://www.w3.org/1999/xlink" preserveAspectRatio="xMidYMid meet" viewBox="0 0 95 95" width="95" height="95"><defs><path d="M52.79 4.52C41.53 3.04 30.37 6 21.32 12.86C21 12.53 18.38 9.9 18.05 9.58C17.12 8.64 16.26 8.95 16.14 10.27C16.03 11.44 15.18 20.84 15.07 22.01C14.95 23.33 15.93 24.31 17.24 24.19C18.41 24.08 27.79 23.24 28.97 23.13C30.28 23.01 30.59 22.15 29.66 21.21C29.32 20.87 26.6 18.15 26.26 17.81C33.71 12.46 42.76 10.17 51.89 11.37C61.44 12.62 69.92 17.52 75.78 25.16C81.65 32.8 84.19 42.27 82.94 51.83C82.05 58.62 79.33 64.87 75.09 70.03C73.36 72.13 71.38 74.06 69.17 75.76C61.54 81.63 52.09 84.18 42.54 82.93C33 81.68 24.52 76.78 18.66 69.14C12.94 61.69 10.37 52.46 11.42 43.13C11.63 41.23 10.27 39.52 8.37 39.31C6.48 39.09 4.77 40.46 4.56 42.36C3.31 53.47 6.37 64.48 13.18 73.35C20.17 82.46 30.28 88.3 41.65 89.79C53.02 91.28 64.29 88.24 73.38 81.24C76.01 79.22 78.37 76.92 80.43 74.42C85.49 68.27 88.73 60.82 89.79 52.73C91.27 41.34 88.24 30.05 81.26 20.95C74.27 11.84 64.16 6 52.79 4.52Z" id="f3GtuhwgBK"></path><path d="M42.74 21.96C42.74 23.82 42.74 33.12 42.74 49.86C58.02 57.77 66.51 62.17 68.21 63.05C68.62 63.26 69.06 63.36 69.49 63.36C70.5 63.36 71.48 62.8 71.98 61.84C72.69 60.47 72.15 58.78 70.78 58.07C69.28 57.29 61.8 53.42 48.33 46.45C48.33 31.75 48.33 23.59 48.33 21.96C48.33 20.41 47.08 19.16 45.53 19.16C43.99 19.16 42.74 20.41 42.74 21.96Z" id="g2ZmKptuW4"></path></defs><g><g><g><use xlink:href="#f3GtuhwgBK" opacity="1" fill="#000000" fill-opacity="1"></use><g><use xlink:href="#f3GtuhwgBK" opacity="1" fill-opacity="0" stroke="#000000" stroke-width="1" stroke-opacity="0"></use></g></g><g><use xlink:href="#g2ZmKptuW4" opacity="1" fill="#000000" fill-opacity="1"></use><g><use xlink:href="#g2ZmKptuW4" opacity="1" fill-opacity="0" stroke="#000000" stroke-width="1" stroke-opacity="0"></use></g></g></g></g></svg>
