<svg xmlns="http://www.w3.org/2000/svg" width="95px" height="95px" viewBox="0 0 95 95" version="1.1"><path d="M 9.9375 58.917969 C 9.660156 57.066406 7.917969 55.832031 6.125 56.113281 C 4.273438 56.394531 3.039062 58.132812 3.316406 59.929688 C 4.046875 64.53125 8.367188 72.890625 19.589844 74.183594 L 19.589844 79.457031 C 19.589844 81.308594 21.105469 82.824219 22.957031 82.824219 C 24.808594 82.824219 26.324219 81.308594 26.324219 79.457031 L 26.324219 74.125 C 39.175781 72.667969 42.710938 63.464844 42.710938 58.359375 C 42.710938 52.746094 40.746094 46.011719 26.324219 42.589844 L 26.324219 25.476562 C 33.226562 26.652344 34.574219 31.085938 34.683594 31.648438 L 34.683594 31.59375 L 41.304688 30.246094 C 41.195312 29.796875 39.0625 20.199219 26.378906 18.6875 L 26.378906 13.859375 C 26.378906 12.007812 24.867188 10.492188 23.011719 10.492188 C 21.160156 10.492188 19.648438 12.007812 19.648438 13.859375 L 19.648438 18.574219 C 4.441406 20.089844 4.273438 32.378906 4.273438 32.9375 C 4.273438 33.050781 4.273438 33.21875 4.273438 33.386719 C 4.105469 38.214844 5.617188 44.890625 19.589844 48.144531 L 19.589844 67.449219 C 11.453125 66.101562 10.105469 59.703125 9.9375 58.917969 Z M 34.742188 53.980469 C 36.03125 55.496094 36.03125 57.011719 36.03125 58.46875 C 36.03125 58.808594 35.917969 65.988281 26.378906 67.449219 L 26.378906 49.660156 C 31.316406 51.007812 33.617188 52.691406 34.742188 53.980469 Z M 11.960938 37.257812 C 10.894531 35.96875 10.949219 34.789062 11.003906 33.613281 C 11.003906 33.386719 11.003906 33.164062 11.003906 32.9375 C 11.003906 32.097656 11.339844 30.1875 12.6875 28.617188 C 14.148438 26.878906 16.449219 25.8125 19.589844 25.363281 L 19.589844 41.1875 C 15.046875 39.953125 12.914062 38.382812 11.960938 37.257812 Z M 68.183594 62.679688 L 82.4375 62.679688 C 84.289062 62.679688 85.804688 64.195312 85.804688 66.046875 C 85.804688 67.898438 84.289062 69.410156 82.4375 69.410156 L 66.558594 69.410156 C 66.445312 70.367188 66.445312 71.375 66.445312 72.441406 C 66.445312 73.171875 66.445312 73.84375 66.5 74.460938 L 82.4375 74.460938 C 84.289062 74.460938 85.804688 75.976562 85.804688 77.828125 C 85.804688 79.679688 84.289062 81.195312 82.4375 81.195312 L 67.792969 81.195312 C 68.632812 83.328125 69.867188 84.957031 71.4375 86.078125 C 77.386719 90.285156 87.09375 86.976562 87.207031 86.976562 C 88.945312 86.359375 90.910156 87.257812 91.527344 89.050781 C 92.144531 90.792969 91.246094 92.753906 89.453125 93.371094 C 89.113281 93.484375 84.738281 95 79.351562 95 C 75.535156 95 71.214844 94.214844 67.566406 91.632812 C 64.199219 89.277344 61.898438 85.796875 60.722656 81.25 L 56.625 81.25 C 54.773438 81.25 53.257812 79.738281 53.257812 77.886719 C 53.257812 76.035156 54.773438 74.519531 56.625 74.519531 L 59.710938 74.519531 C 59.65625 73.84375 59.65625 73.171875 59.65625 72.5 C 59.65625 71.488281 59.710938 70.476562 59.769531 69.46875 L 56.625 69.46875 C 54.773438 69.46875 53.257812 67.953125 53.257812 66.101562 C 53.257812 64.25 54.773438 62.734375 56.625 62.734375 L 61.003906 62.734375 C 62.292969 58.582031 64.480469 55.328125 67.625 53.027344 C 76.378906 46.574219 88.835938 50.332031 89.339844 50.503906 C 91.136719 51.0625 92.089844 52.914062 91.585938 54.710938 C 91.023438 56.507812 89.171875 57.460938 87.375 56.957031 C 87.152344 56.898438 77.554688 54.09375 71.609375 58.527344 C 70.203125 59.480469 69.027344 60.882812 68.183594 62.679688 Z M 54.941406 18.347656 L 56.289062 18.347656 C 55.613281 16.722656 55.167969 14.757812 55.167969 12.234375 C 55.167969 4.488281 59.320312 0 66.613281 0 C 72.113281 0 75.589844 3.085938 76.769531 4.9375 L 71.160156 8.640625 L 71.214844 8.699219 C 71.160156 8.640625 69.753906 6.734375 66.613281 6.734375 C 62.628906 6.734375 61.898438 8.753906 61.898438 12.234375 C 61.898438 14.871094 62.628906 16.214844 63.808594 18.238281 C 63.808594 18.292969 63.863281 18.292969 63.863281 18.347656 L 69.027344 18.347656 C 70.878906 18.347656 72.394531 19.863281 72.394531 21.714844 C 72.394531 23.566406 70.878906 25.082031 69.027344 25.082031 L 66.390625 25.082031 C 66.445312 27.328125 65.601562 29.910156 63.917969 32.9375 L 76.824219 32.9375 C 78.675781 32.9375 80.191406 34.453125 80.191406 36.304688 C 80.191406 38.15625 78.675781 39.671875 76.824219 39.671875 L 57.523438 39.671875 C 56.234375 39.671875 55.054688 38.941406 54.492188 37.707031 C 53.933594 36.53125 54.101562 35.125 54.941406 34.117188 C 57.636719 30.863281 59.824219 26.542969 59.597656 25.027344 L 54.941406 25.027344 C 53.089844 25.027344 51.574219 23.511719 51.574219 21.660156 C 51.574219 19.808594 53.089844 18.347656 54.941406 18.347656 Z M 54.941406 18.347656 "/></svg>
