<svg xmlns="http://www.w3.org/2000/svg" width="76pt" height="76pt" viewBox="0 0 76 76" version="1.1">
	<path d="M 12.667969 72.0625 C 8.015625 72.0625 4.222656 68.902344 4.222656 65.023438 C 4.222656 59.671875 4.222656 16.890625 4.222656 11.539062 C 4.222656 7.664062 8.015625 4.503906 12.667969 4.503906 C 17.734375 4.503906 58.265625 4.503906 63.332031 4.503906 C 67.984375 4.503906 71.777344 7.664062 71.777344 11.539062 C 71.777344 16.890625 71.777344 59.671875 71.777344 65.023438 C 71.777344 68.902344 67.984375 72.0625 63.332031 72.0625 C 53.199219 72.0625 17.734375 72.0625 12.667969 72.0625 Z M 12.667969 7.316406 C 9.871094 7.316406 7.601562 9.210938 7.601562 11.539062 C 7.601562 16.890625 7.601562 59.671875 7.601562 65.023438 C 7.601562 67.347656 9.871094 69.246094 12.667969 69.246094 C 17.734375 69.246094 58.265625 69.246094 63.332031 69.246094 C 66.128906 69.246094 68.398438 67.347656 68.398438 65.023438 C 68.398438 59.671875 68.398438 16.890625 68.398438 11.539062 C 68.398438 9.210938 66.128906 7.316406 63.332031 7.316406 C 53.199219 7.316406 22.800781 7.316406 12.667969 7.316406 Z M 12.667969 7.316406" />
	<path d="M 34.621094 20.734375 C 34.621094 20.640625 34.621094 20.171875 34.621094 19.328125 L 17.734375 19.328125 C 17.734375 20.171875 17.734375 20.640625 17.734375 20.734375 C 17.734375 21.511719 16.976562 22.140625 16.042969 22.140625 C 15.113281 22.140625 14.355469 21.511719 14.355469 20.734375 C 14.355469 20.453125 14.355469 18.203125 14.355469 17.917969 C 14.355469 17.140625 15.113281 16.511719 16.042969 16.511719 C 18.070312 16.511719 34.285156 16.511719 36.3125 16.511719 C 37.246094 16.511719 38 17.140625 38 17.917969 C 38 18.203125 38 20.453125 38 20.734375 C 38 21.511719 37.246094 22.140625 36.3125 22.140625 C 35.378906 22.140625 34.621094 21.511719 34.621094 20.734375 Z M 34.621094 20.734375" />
	<path d="M 24.488281 34.808594 C 24.488281 33.117188 24.488281 19.609375 24.488281 17.917969 C 24.488281 17.140625 25.246094 16.511719 26.179688 16.511719 C 27.109375 16.511719 27.867188 17.140625 27.867188 17.917969 C 27.867188 19.609375 27.867188 33.117188 27.867188 34.808594 C 27.867188 35.585938 27.109375 36.21875 26.179688 36.21875 C 25.246094 36.21875 24.488281 35.585938 24.488281 34.808594 Z M 24.488281 34.808594" />
	<path d="M 22.800781 36.21875 C 21.867188 36.21875 21.109375 35.585938 21.109375 34.808594 C 21.109375 34.03125 21.867188 33.402344 22.800781 33.402344 C 23.476562 33.402344 28.878906 33.402344 29.554688 33.402344 C 30.488281 33.402344 31.246094 34.03125 31.246094 34.808594 C 31.246094 35.585938 30.488281 36.21875 29.554688 36.21875 C 28.203125 36.21875 23.476562 36.21875 22.800781 36.21875 Z M 22.800781 36.21875" />
	<path d="M 46.445312 19.328125 C 45.511719 19.328125 44.753906 18.695312 44.753906 17.917969 C 44.753906 17.140625 45.511719 16.511719 46.445312 16.511719 C 47.796875 16.511719 58.605469 16.511719 59.957031 16.511719 C 60.886719 16.511719 61.644531 17.140625 61.644531 17.917969 C 61.644531 18.695312 60.886719 19.328125 59.957031 19.328125 C 57.253906 19.328125 47.796875 19.328125 46.445312 19.328125 Z M 46.445312 19.328125" />
	<path d="M 46.445312 27.773438 C 45.511719 27.773438 44.753906 27.140625 44.753906 26.363281 C 44.753906 25.585938 45.511719 24.957031 46.445312 24.957031 C 47.796875 24.957031 58.605469 24.957031 59.957031 24.957031 C 60.886719 24.957031 61.644531 25.585938 61.644531 26.363281 C 61.644531 27.140625 60.886719 27.773438 59.957031 27.773438 C 57.253906 27.773438 47.796875 27.773438 46.445312 27.773438 Z M 46.445312 27.773438" />
	<path d="M 46.445312 36.21875 C 45.511719 36.21875 44.753906 35.585938 44.753906 34.808594 C 44.753906 34.03125 45.511719 33.402344 46.445312 33.402344 C 47.796875 33.402344 58.605469 33.402344 59.957031 33.402344 C 60.886719 33.402344 61.644531 34.03125 61.644531 34.808594 C 61.644531 35.585938 60.886719 36.21875 59.957031 36.21875 C 57.253906 36.21875 47.796875 36.21875 46.445312 36.21875 Z M 46.445312 36.21875" />
	<path d="M 16.042969 44.664062 C 15.113281 44.664062 14.355469 44.03125 14.355469 43.253906 C 14.355469 42.476562 15.113281 41.847656 16.042969 41.847656 C 20.4375 41.847656 55.5625 41.847656 59.957031 41.847656 C 60.886719 41.847656 61.644531 42.476562 61.644531 43.253906 C 61.644531 44.03125 60.886719 44.664062 59.957031 44.664062 C 51.171875 44.664062 20.4375 44.664062 16.042969 44.664062 Z M 16.042969 44.664062" />
	<path d="M 16.042969 53.105469 C 15.113281 53.105469 14.355469 52.472656 14.355469 51.695312 C 14.355469 50.921875 15.113281 50.289062 16.042969 50.289062 C 20.4375 50.289062 55.5625 50.289062 59.957031 50.289062 C 60.886719 50.289062 61.644531 50.921875 61.644531 51.695312 C 61.644531 52.472656 60.886719 53.105469 59.957031 53.105469 C 51.171875 53.105469 20.4375 53.105469 16.042969 53.105469 Z M 16.042969 53.105469" />
	<path d="M 16.042969 61.472656 C 15.113281 61.472656 14.355469 60.84375 14.355469 60.066406 C 14.355469 59.289062 15.113281 58.660156 16.042969 58.660156 C 20.4375 58.660156 55.5625 58.660156 59.957031 58.660156 C 60.886719 58.660156 61.644531 59.289062 61.644531 60.066406 C 61.644531 60.84375 60.886719 61.472656 59.957031 61.472656 C 51.171875 61.472656 20.4375 61.472656 16.042969 61.472656 Z M 16.042969 61.472656" />
</svg>
