<svg xmlns="http://www.w3.org/2000/svg" width="76pt" height="76pt" viewBox="0 0 76 76" version="1.1">
	<path d="M 3.238281 38.070312 C 3.238281 57.277344 18.863281 72.90625 38.070312 72.90625 C 57.277344 72.90625 72.90625 57.277344 72.90625 38.070312 C 72.90625 18.863281 57.277344 3.238281 38.070312 3.238281 C 18.863281 3.238281 3.238281 18.863281 3.238281 38.070312 Z M 9.570312 38.070312 C 9.570312 22.355469 22.355469 9.570312 38.070312 9.570312 C 53.785156 9.570312 66.570312 22.355469 66.570312 38.070312 C 66.570312 53.785156 53.785156 66.570312 38.070312 66.570312 C 22.355469 66.570312 9.570312 53.785156 9.570312 38.070312 Z M 9.570312 38.070312" />
	<path d="M 33.847656 22.238281 C 33.847656 24.566406 35.742188 26.460938 38.070312 26.460938 C 40.398438 26.460938 42.289062 24.566406 42.289062 22.238281 C 42.289062 19.90625 40.398438 18.015625 38.070312 18.015625 C 35.742188 18.015625 33.847656 19.90625 33.847656 22.238281 Z M 33.847656 22.238281" />
	<path d="M 34.90625 35.960938 C 34.90625 37.859375 34.90625 53.0625 34.90625 54.960938 C 34.90625 56.707031 36.320312 58.128906 38.070312 58.128906 C 39.820312 58.128906 41.238281 56.707031 41.238281 54.960938 C 41.238281 53.0625 41.238281 37.859375 41.238281 35.960938 C 41.238281 34.207031 39.820312 32.792969 38.070312 32.792969 C 36.320312 32.792969 34.90625 34.207031 34.90625 35.960938 Z M 34.90625 35.960938" />
</svg>
