<?xml version="1.0" encoding="UTF-8" standalone="no" ?>
<!DOCTYPE svg PUBLIC "-//W3C//DTD SVG 1.1//EN" "http://www.w3.org/Graphics/SVG/1.1/DTD/svg11.dtd">
<svg xmlns="http://www.w3.org/2000/svg" xmlns:xlink="http://www.w3.org/1999/xlink" version="1.1" width="95" height="95" viewBox="0 0 95 95" xml:space="preserve">
<desc>Created with Fabric.js 4.6.0</desc>
<defs>
</defs>
<g transform="matrix(1 0 0 1 47.5 47.5)" id="Sk45xkJdN-9Wa_1AlGAh4"  >
<rect style="stroke: none; stroke-width: 1; stroke-dasharray: none; stroke-linecap: butt; stroke-dashoffset: 0; stroke-linejoin: miter; stroke-miterlimit: 4; fill: rgb(255,255,255); fill-opacity: 0; fill-rule: nonzero; opacity: 1;" vector-effect="non-scaling-stroke"  x="-50" y="-50" rx="0" ry="0" width="100" height="100" />
</g>
<g transform="matrix(0.15 0 0 0.15 50.02 68.68)" id="aAfQaILor_i9uSa5OdyUA"  >
<path style="stroke: none; stroke-width: 1; stroke-dasharray: none; stroke-linecap: butt; stroke-dashoffset: 0; stroke-linejoin: miter; stroke-miterlimit: 4; fill: rgb(0,0,0); fill-rule: nonzero; opacity: 1;" vector-effect="non-scaling-stroke"  transform=" translate(-272.33, -393.14)" d="M 267.477 377.446 C 263.006 375.84200000000004 258.15 378.17100000000005 256.563 382.617 C 254.993 387.05400000000003 257.305 391.944 261.743 393.523 C 266.53 395.23 270.28499999999997 398.95000000000005 272.034 403.72900000000004 C 273.29699999999997 407.18500000000006 276.574 409.33500000000004 280.04699999999997 409.33500000000004 C 281.02799999999996 409.33500000000004 282.018 409.16400000000004 282.98199999999997 408.80600000000004 C 287.41099999999994 407.18500000000006 289.681 402.28700000000003 288.068 397.86600000000004 C 284.561 388.301 277.06 380.86 267.477 377.446 z" stroke-linecap="round" />
</g>
<g transform="matrix(0.15 0 0 0.15 47.5 19.83)" id="zaTBAmBJ7Or-qMLvMwRnn"  >
<path style="stroke: rgb(0,0,0); stroke-width: 1; stroke-dasharray: none; stroke-linecap: butt; stroke-dashoffset: 0; stroke-linejoin: miter; stroke-miterlimit: 4; fill: rgb(0,0,0); fill-rule: nonzero; opacity: 1;" vector-effect="non-scaling-stroke"  transform=" translate(-256, -76.8)" d="M 63.531 100.966 C 75.717 109.08999999999999 85.334 115.49799999999999 85.334 145.066 C 85.334 149.776 89.148 153.599 93.867 153.599 C 98.58600000000001 153.599 102.4 149.77599999999998 102.4 145.066 C 102.4 106.367 86.784 95.957 73.00300000000001 86.766 C 62.089 79.497 53.231 73.591 51.507 51.2 L 128 51.2 C 132.719 51.2 136.533 47.377 136.533 42.667 C 136.533 28.553 148.01899999999998 17.067 162.13299999999998 17.067 L 349.866 17.067 C 363.97999999999996 17.067 375.466 28.553 375.466 42.667 C 375.466 47.377 379.28000000000003 51.2 383.999 51.2 L 460.492 51.2 C 458.76800000000003 73.59100000000001 449.911 79.497 438.997 86.767 C 425.216 95.957 409.6 106.368 409.6 145.067 C 409.6 149.77700000000002 413.41400000000004 153.6 418.13300000000004 153.6 C 422.85200000000003 153.6 426.66600000000005 149.777 426.66600000000005 145.067 C 426.66600000000005 115.49900000000001 436.2830000000001 109.09 448.46900000000005 100.96700000000001 C 462.25000000000006 91.77700000000002 477.86600000000004 81.36600000000001 477.86600000000004 42.667000000000016 C 477.86600000000004 37.957000000000015 474.052 34.134000000000015 469.333 34.134000000000015 L 391.663 34.134000000000015 C 387.712 14.686 370.466 0 349.867 0 L 162.133 0 C 141.53400000000002 0 124.28800000000001 14.686 120.33700000000002 34.133 L 42.667000000000016 34.133 C 37.948000000000015 34.133 34.134000000000015 37.956 34.134000000000015 42.666000000000004 C 34.133 81.365 49.749 91.776 63.531 100.966 z" stroke-linecap="round" />
</g>
<g transform="matrix(0.15 0 0 0.15 47.5 71.22)" id="d_spPvM4taZv3TiUR6wqL"  >
<path style="stroke: rgb(0,0,0); stroke-width: 1; stroke-dasharray: none; stroke-linecap: butt; stroke-dashoffset: 0; stroke-linejoin: miter; stroke-miterlimit: 4; fill: rgb(0,0,0); fill-rule: nonzero; opacity: 1;" vector-effect="non-scaling-stroke"  transform=" translate(-256, -409.6)" d="M 256 341.333 C 218.359 341.333 187.733 371.959 187.733 409.6 C 187.733 447.24100000000004 218.359 477.867 256 477.867 C 293.641 477.867 324.267 447.24100000000004 324.267 409.6 C 324.267 371.959 293.641 341.333 256 341.333 z M 256 460.8 C 227.763 460.8 204.8 437.837 204.8 409.6 C 204.8 381.363 227.763 358.40000000000003 256 358.40000000000003 C 284.237 358.40000000000003 307.2 381.36300000000006 307.2 409.6 C 307.2 437.837 284.237 460.8 256 460.8 z" stroke-linecap="round" />
</g>
<g transform="matrix(0.15 0 0 0.15 50.02 44.96)" id="Z-__U4-W8TQwzKhE3QO9g"  >
<path style="stroke: none; stroke-width: 1; stroke-dasharray: none; stroke-linecap: butt; stroke-dashoffset: 0; stroke-linejoin: miter; stroke-miterlimit: 4; fill: rgb(0,0,0); fill-rule: nonzero; opacity: 1;" vector-effect="non-scaling-stroke"  transform=" translate(-272.33, -239.54)" d="M 267.477 223.846 C 263.006 222.242 258.15 224.571 256.563 229.017 C 254.993 233.454 257.305 238.344 261.743 239.923 C 266.53 241.63 270.28499999999997 245.35 272.034 250.129 C 273.29699999999997 253.58499999999998 276.574 255.73499999999999 280.04699999999997 255.73499999999999 C 281.02799999999996 255.73499999999999 282.018 255.564 282.98199999999997 255.206 C 287.41099999999994 253.58499999999998 289.681 248.68699999999998 288.068 244.266 C 284.561 234.701 277.06 227.26 267.477 223.846 z" stroke-linecap="round" />
</g>
<g transform="matrix(0.15 0 0 0.15 47.5 47.5)" id="XsT0KmM9jYP29jEA-qdl-"  >
<path style="stroke: rgb(0,0,0); stroke-width: 1; stroke-dasharray: none; stroke-linecap: butt; stroke-dashoffset: 0; stroke-linejoin: miter; stroke-miterlimit: 4; fill: rgb(0,0,0); fill-rule: nonzero; opacity: 1;" vector-effect="non-scaling-stroke"  transform=" translate(-256, -256)" d="M 256 187.733 C 218.359 187.733 187.733 218.359 187.733 256 C 187.733 293.641 218.359 324.267 256 324.267 C 293.641 324.267 324.267 293.641 324.267 256 C 324.267 218.359 293.641 187.733 256 187.733 z M 256 307.2 C 227.763 307.2 204.8 284.23699999999997 204.8 256 C 204.8 227.76300000000003 227.763 204.8 256 204.8 C 284.237 204.8 307.2 227.763 307.2 256 C 307.2 284.23699999999997 284.237 307.2 256 307.2 z" stroke-linecap="round" />
</g>
<g transform="matrix(0.15 0 0 0.15 73.85 36.96)" id="GYdgNY8g4jX3sxIPLSM2v"  >
<path style="stroke: rgb(0,0,0); stroke-width: 1; stroke-dasharray: none; stroke-linecap: butt; stroke-dashoffset: 0; stroke-linejoin: miter; stroke-miterlimit: 4; fill: rgb(0,0,0); fill-rule: nonzero; opacity: 1;" vector-effect="non-scaling-stroke"  transform=" translate(-426.67, -187.73)" d="M 469.333 187.733 L 392.533 187.733 L 392.533 76.8 C 392.533 72.09 388.719 68.267 384 68.267 C 379.281 68.267 375.467 72.08999999999999 375.467 76.8 L 375.467 196.267 C 375.467 200.977 379.281 204.79999999999998 384 204.79999999999998 L 460.493 204.79999999999998 C 458.769 227.19099999999997 449.912 233.09699999999998 438.998 240.367 C 425.217 249.557 409.601 259.96799999999996 409.601 298.667 C 409.601 303.37699999999995 413.415 307.2 418.134 307.2 C 422.853 307.2 426.66700000000003 303.377 426.66700000000003 298.667 C 426.66700000000003 269.099 436.28400000000005 262.69 448.47 254.56699999999998 C 462.25100000000003 245.37699999999998 477.867 234.96599999999998 477.867 196.267 C 477.867 191.556 474.052 187.733 469.333 187.733 z" stroke-linecap="round" />
</g>
<g transform="matrix(0.15 0 0 0.15 50.02 21.24)" id="pBWNjqhKf7qjh3G_0mp_m"  >
<path style="stroke: none; stroke-width: 1; stroke-dasharray: none; stroke-linecap: butt; stroke-dashoffset: 0; stroke-linejoin: miter; stroke-miterlimit: 4; fill: rgb(0,0,0); fill-rule: nonzero; opacity: 1;" vector-effect="non-scaling-stroke"  transform=" translate(-272.33, -85.94)" d="M 267.477 70.246 C 263.006 68.64999999999999 258.15 70.97999999999999 256.563 75.417 C 254.993 79.854 257.305 84.744 261.743 86.32300000000001 C 266.53 88.03 270.28499999999997 91.75 272.034 96.52900000000001 C 273.29699999999997 99.98500000000001 276.574 102.135 280.04699999999997 102.135 C 281.02799999999996 102.135 282.018 101.964 282.98199999999997 101.60600000000001 C 287.41099999999994 99.98500000000001 289.681 95.087 288.068 90.65800000000002 C 284.561 81.101 277.06 73.66 267.477 70.246 z" stroke-linecap="round" />
</g>
<g transform="matrix(0.15 0 0 0.15 73.85 60.68)" id="b2dWQ0ZtrgERpn1y-uE4W"  >
<path style="stroke: rgb(0,0,0); stroke-width: 1; stroke-dasharray: none; stroke-linecap: butt; stroke-dashoffset: 0; stroke-linejoin: miter; stroke-miterlimit: 4; fill: rgb(0,0,0); fill-rule: nonzero; opacity: 1;" vector-effect="non-scaling-stroke"  transform=" translate(-426.67, -341.33)" d="M 469.333 341.333 L 392.533 341.333 L 392.533 230.4 C 392.533 225.69 388.719 221.86700000000002 384 221.86700000000002 C 379.281 221.86700000000002 375.467 225.69000000000003 375.467 230.4 L 375.467 349.867 C 375.467 354.577 379.281 358.40000000000003 384 358.40000000000003 L 460.493 358.40000000000003 C 458.769 380.79100000000005 449.912 386.69700000000006 438.998 393.96700000000004 C 425.217 403.15700000000004 409.601 413.56800000000004 409.601 452.26700000000005 C 409.601 456.97700000000003 413.415 460.80000000000007 418.134 460.80000000000007 C 422.853 460.80000000000007 426.66700000000003 456.9770000000001 426.66700000000003 452.26700000000005 C 426.66700000000003 422.69900000000007 436.28400000000005 416.2900000000001 448.47 408.16700000000003 C 462.25100000000003 398.97700000000003 477.867 388.56600000000003 477.867 349.867 C 477.867 345.156 474.052 341.333 469.333 341.333 z" stroke-linecap="round" />
</g>
<g transform="matrix(0.15 0 0 0.15 21.15 60.68)" id="aN4ytFtz5X-CuBR2rqiGZ"  >
<path style="stroke: rgb(0,0,0); stroke-width: 1; stroke-dasharray: none; stroke-linecap: butt; stroke-dashoffset: 0; stroke-linejoin: miter; stroke-miterlimit: 4; fill: rgb(0,0,0); fill-rule: nonzero; opacity: 1;" vector-effect="non-scaling-stroke"  transform=" translate(-85.33, -341.33)" d="M 73.003 393.967 C 62.089 386.697 53.231 380.792 51.507999999999996 358.4 L 128 358.4 C 132.719 358.4 136.533 354.577 136.533 349.86699999999996 L 136.533 230.4 C 136.533 225.69 132.719 221.86700000000002 127.99999999999999 221.86700000000002 C 123.28099999999998 221.86700000000002 119.46699999999998 225.69000000000003 119.46699999999998 230.4 L 119.46699999999998 341.333 L 42.66699999999999 341.333 C 37.947999999999986 341.333 34.133999999999986 345.156 34.133999999999986 349.86600000000004 C 34.133999999999986 388.56500000000005 49.749999999999986 398.975 63.530999999999985 408.16600000000005 C 75.71699999999998 416.2900000000001 85.33399999999999 422.69800000000004 85.33399999999999 452.2660000000001 C 85.33399999999999 456.97600000000006 89.148 460.7990000000001 93.86699999999999 460.7990000000001 C 98.58599999999998 460.7990000000001 102.39999999999999 456.9760000000001 102.39999999999999 452.2660000000001 C 102.4 413.568 86.784 403.157 73.003 393.967 z" stroke-linecap="round" />
</g>
<g transform="matrix(0.15 0 0 0.15 47.5 76.49)" id="gO-LGzOvuYJSNZtxvVtdy"  >
<path style="stroke: rgb(0,0,0); stroke-width: 1; stroke-dasharray: none; stroke-linecap: butt; stroke-dashoffset: 0; stroke-linejoin: miter; stroke-miterlimit: 4; fill: rgb(0,0,0); fill-rule: nonzero; opacity: 1;" vector-effect="non-scaling-stroke"  transform=" translate(-256, -443.73)" d="M 384 375.467 C 379.281 375.467 375.467 379.28999999999996 375.467 384 L 375.467 469.33299999999997 C 375.467 483.44699999999995 363.981 494.933 349.86699999999996 494.933 L 162.133 494.933 C 148.019 494.933 136.53300000000002 483.447 136.53300000000002 469.33299999999997 L 136.53300000000002 384 C 136.53300000000002 379.29 132.71900000000002 375.467 128.00000000000003 375.467 C 123.28100000000003 375.467 119.46700000000003 379.28999999999996 119.46700000000003 384 L 119.46700000000003 469.33299999999997 C 119.46700000000003 492.859 138.60700000000003 512 162.13400000000001 512 L 349.867 512 C 373.39300000000003 512 392.534 492.86 392.534 469.33299999999997 L 392.534 384 C 392.533 379.29 388.719 375.467 384 375.467 z" stroke-linecap="round" />
</g>
<g transform="matrix(0.15 0 0 0.15 21.15 36.96)" id="7UzitTrJ_W3UHQZCrls0n"  >
<path style="stroke: rgb(0,0,0); stroke-width: 1; stroke-dasharray: none; stroke-linecap: butt; stroke-dashoffset: 0; stroke-linejoin: miter; stroke-miterlimit: 4; fill: rgb(0,0,0); fill-rule: nonzero; opacity: 1;" vector-effect="non-scaling-stroke"  transform=" translate(-85.33, -187.73)" d="M 63.531 254.566 C 75.717 262.69 85.334 269.098 85.334 298.666 C 85.334 303.376 89.148 307.199 93.867 307.199 C 98.58600000000001 307.199 102.4 303.37600000000003 102.4 298.666 C 102.4 259.967 86.784 249.557 73.00300000000001 240.36599999999999 C 62.08900000000001 233.09599999999998 53.231000000000016 227.19099999999997 51.50800000000001 204.79899999999998 L 128 204.79899999999998 C 132.719 204.79899999999998 136.533 200.97599999999997 136.533 196.266 L 136.533 76.8 C 136.533 72.09 132.719 68.267 127.99999999999999 68.267 C 123.28099999999998 68.267 119.46699999999998 72.08999999999999 119.46699999999998 76.8 L 119.46699999999998 187.733 L 42.66699999999999 187.733 C 37.947999999999986 187.733 34.133999999999986 191.556 34.133999999999986 196.266 C 34.133 234.965 49.749 245.376 63.531 254.566 z" stroke-linecap="round" />
</g>
<g transform="matrix(0.15 0 0 0.15 47.5 23.78)" id="dYuK9NI4el6xaEm35oMsV"  >
<path style="stroke: rgb(0,0,0); stroke-width: 1; stroke-dasharray: none; stroke-linecap: butt; stroke-dashoffset: 0; stroke-linejoin: miter; stroke-miterlimit: 4; fill: rgb(0,0,0); fill-rule: nonzero; opacity: 1;" vector-effect="non-scaling-stroke"  transform=" translate(-256, -102.4)" d="M 256 34.133 C 218.359 34.133 187.733 64.759 187.733 102.4 C 187.733 140.041 218.359 170.667 256 170.667 C 293.641 170.667 324.267 140.041 324.267 102.4 C 324.267 64.759 293.641 34.133 256 34.133 z M 256 153.6 C 227.763 153.6 204.8 130.637 204.8 102.39999999999999 C 204.8 74.163 227.763 51.19999999999999 256 51.19999999999999 C 284.237 51.19999999999999 307.2 74.16299999999998 307.2 102.39999999999999 C 307.2 130.637 284.237 153.6 256 153.6 z" stroke-linecap="round" />
</g>
</svg>