<svg height="76pt" viewBox="0 0 76 76" width="76pt" xmlns="http://www.w3.org/2000/svg"><g fill="none" stroke="#000" stroke-miterlimit="10" stroke-width="30" transform="matrix(.163281 0 0 .163281 -4.898438 -4.898438)"><path d="m456.076555 367.84689c0 21.435407-17.392344 39.162679-38.803828 39.162679h-208.157894c-34.808613 0-62.440192-28.540669-62.440192-63.349282 0-14.593301 4.976077-28.038277 13.373206-38.779904 11.483253-14.808613 29.425837-24.330144 49.617225-24.330144 3.014354 0 6.004784.095694 8.923445.526316 6.339713-25.741627 22.535885-47.631579 44.354067-61.363636 15.502392-9.784689 33.899521-15.430622 53.564593-15.430622 55.669856 0 100.76555 45.119617 100.76555 100.76555 0 8.181818-.956938 16.124402-2.822966 23.755981.933014-.047847 1.866028.07177 2.822966.07177 21.411484 0 38.803828 17.535885 38.803828 38.971292zm0 0"/><path d="m262.942584 219.736842c-21.818182 13.708134-38.014354 35.62201-44.354067 61.363636-2.918661-.454545-5.909091-.526315-8.923445-.526315-20.191388 0-38.133972 9.569378-49.617225 24.37799-23.038278-12.129186-38.732058-36.267942-38.732058-64.114832 0-39.976077 32.416268-72.392345 72.392345-72.392345 32.655502 0 60.239234 21.578947 69.23445 51.291866zm0 0"/><path d="m193.995215 105v37.990431"/><path d="m56.004785 242.009569h37.99043"/><path d="m261.626794 174.162679 27.918661-27.91866"/><path d="m93.779904 337.08134 27.918661-27.942584"/><path d="m93.779904 146.244019 27.918661 27.91866"/></g></svg>