<svg height="76pt" viewBox="0 0 76 76" width="76pt" xmlns="http://www.w3.org/2000/svg"><path d="m38.078125 3.652344c-18.929687 0-34.273437 15.34375-34.273437 34.277344 0 18.929687 15.34375 34.277343 34.273437 34.277343 18.933594 0 34.277344-15.347656 34.277344-34.277343 0-18.933594-15.34375-34.277344-34.277344-34.277344zm0 2.855468c17.328125 0 31.421875 14.09375 31.421875 31.421876 0 7.621093-2.730469 14.617187-7.261719 20.0625-3.132812-1.308594-10.527343-3.875-15.105469-5.226563-.390624-.121094-.453124-.140625-.453124-1.765625 0-1.34375.550781-2.691406 1.089843-3.835938.585938-1.242187 1.277344-3.332031 1.523438-5.207031.695312-.808593 1.640625-2.398437 2.25-5.425781.53125-2.671875.285156-3.644531-.070313-4.558594-.035156-.09375-.074218-.1875-.105468-.285156-.132813-.625.050781-3.878906.507812-6.402344.316406-1.734375-.078125-5.417968-2.464844-8.464844-1.503906-1.925781-4.386718-4.289062-9.652344-4.617187h-2.886718c-5.171875.328125-8.058594 2.691406-9.5625 4.617187-2.386719 3.046876-2.78125 6.730469-2.46875 8.460938.460937 2.527344.644531 5.78125.511718 6.394531-.027343.105469-.066406.203125-.105468.296875-.351563.914063-.601563 1.886719-.066406 4.558594.605468 3.027344 1.550781 4.621094 2.246093 5.425781.246094 1.875.9375 3.964844 1.523438 5.207031.425781.910157.628906 2.144532.628906 3.894532 0 1.625-.0625 1.644531-.425781 1.761718-4.734375 1.394532-12.269532 4.117188-15.078125 5.347657-4.621094-5.46875-7.414063-12.535157-7.414063-20.238281 0-17.328126 14.09375-31.421876 31.417969-31.421876zm-21.933594 53.886719c3.214844-1.3125 9.628907-3.597656 13.839844-4.84375 2.449219-.773437 2.449219-2.835937 2.449219-4.492187 0-1.375-.09375-3.398438-.898438-5.113282-.550781-1.171874-1.183594-3.183593-1.320312-4.757812-.03125-.367188-.203125-.707031-.484375-.949219-.402344-.355469-1.226563-1.652343-1.75-4.269531-.417969-2.070312-.242188-2.523438-.070313-2.960938.070313-.1875.140625-.371093.199219-.578124.339844-1.253907-.039063-5.375-.457031-7.660157-.179688-.992187.046875-3.8125 1.90625-6.191406 1.664062-2.128906 4.1875-3.316406 7.402344-3.519531l2.710937-.003906c3.300781.207031 5.824219 1.394531 7.492187 3.523437 1.855469 2.378906 2.082032 5.199219 1.902344 6.195313-.414062 2.28125-.800781 6.398437-.457031 7.652343.058594.210938.125.394531.199219.582031.167968.4375.34375.890626-.066406 2.960938-.523438 2.617188-1.351563 3.914062-1.753907 4.269531-.277343.242188-.449219.582031-.484375.949219-.136718 1.574219-.765625 3.585938-1.320312 4.757812-.632813 1.347657-1.359375 3.140626-1.359375 5.054688 0 1.65625 0 3.71875 2.472656 4.5 4.03125 1.191406 10.476563 3.402344 13.878906 4.742188-5.683593 5.625-13.488281 9.105468-22.097656 9.105468-8.527344 0-16.265625-3.417968-21.933594-8.953125zm0 0"/></svg>
