<svg xmlns="http://www.w3.org/2000/svg" width="76pt" height="76pt" viewBox="0 0 76 76" version="1.1">
	<path d="M 13.855469 4.480469 C 8.863281 4.480469 4.800781 8.59375 4.800781 13.640625 C 4.800781 18.527344 4.800781 57.632812 4.800781 62.519531 C 4.800781 67.566406 8.863281 71.679688 13.855469 71.679688 C 18.679688 71.679688 57.320312 71.679688 62.144531 71.679688 C 67.136719 71.679688 71.199219 67.566406 71.199219 62.519531 C 71.199219 57.632812 71.199219 18.527344 71.199219 13.640625 C 71.199219 8.59375 67.136719 4.480469 62.144531 4.480469 C 52.488281 4.480469 18.679688 4.480469 13.855469 4.480469 Z M 68.183594 62.519531 C 68.183594 65.871094 65.464844 68.625 62.144531 68.625 C 57.320312 68.625 18.679688 68.625 13.855469 68.625 C 10.535156 68.625 7.816406 65.871094 7.816406 62.519531 C 7.816406 57.632812 7.816406 18.527344 7.816406 13.640625 C 7.816406 10.289062 10.535156 7.535156 13.855469 7.535156 C 18.679688 7.535156 57.320312 7.535156 62.144531 7.535156 C 65.464844 7.535156 68.183594 10.289062 68.183594 13.640625 C 68.183594 23.414062 68.183594 52.742188 68.183594 62.519531 Z M 68.183594 62.519531" />
	<path d="M 23.40625 16.792969 C 22 16.792969 20.847656 15.632812 20.847656 14.199219 C 20.847656 12.769531 22 11.609375 23.40625 11.609375 C 24.824219 11.609375 25.976562 12.769531 25.976562 14.199219 C 25.976562 15.632812 24.824219 16.792969 23.40625 16.792969 Z M 23.40625 16.792969" />
	<path d="M 38 16.792969 C 36.585938 16.792969 35.441406 15.632812 35.441406 14.199219 C 35.441406 12.769531 36.585938 11.609375 38 11.609375 C 39.414062 11.609375 40.558594 12.769531 40.558594 14.199219 C 40.558594 15.632812 39.414062 16.792969 38 16.792969 Z M 38 16.792969" />
	<path d="M 52.59375 16.792969 C 51.175781 16.792969 50.023438 15.632812 50.023438 14.199219 C 50.023438 12.769531 51.175781 11.609375 52.59375 11.609375 C 54 11.609375 55.152344 12.769531 55.152344 14.199219 C 55.152344 15.632812 54 16.792969 52.59375 16.792969 Z M 52.59375 16.792969" />
	<path d="M 27.199219 30.753906 L 36.449219 30.753906 L 36.449219 39.078125 L 27.199219 39.078125 Z M 27.199219 30.753906" />
	<path d="M 39.550781 30.753906 L 48.800781 30.753906 L 48.800781 39.078125 L 39.550781 39.078125 Z M 39.550781 30.753906" />
	<path d="M 51.886719 30.753906 L 61.144531 30.753906 L 61.144531 39.078125 L 51.886719 39.078125 Z M 51.886719 30.753906" />
	<path d="M 14.855469 41.863281 L 24.105469 41.863281 L 24.105469 50.183594 L 14.855469 50.183594 Z M 14.855469 41.863281" />
	<path d="M 27.199219 41.863281 L 36.449219 41.863281 L 36.449219 50.183594 L 27.199219 50.183594 Z M 27.199219 41.863281" />
	<path d="M 39.550781 41.863281 L 48.800781 41.863281 L 48.800781 50.183594 L 39.550781 50.183594 Z M 39.550781 41.863281" />
	<path d="M 51.886719 41.863281 L 61.144531 41.863281 L 61.144531 50.183594 L 51.886719 50.183594 Z M 51.886719 41.863281" />
	<path d="M 14.855469 52.976562 L 24.105469 52.976562 L 24.105469 61.296875 L 14.855469 61.296875 Z M 14.855469 52.976562" />
	<path d="M 27.199219 52.976562 L 36.449219 52.976562 L 36.449219 61.296875 L 27.199219 61.296875 Z M 27.199219 52.976562" />
	<path d="M 39.550781 52.976562 L 48.800781 52.976562 L 48.800781 61.296875 L 39.550781 61.296875 Z M 39.550781 52.976562" />
	<path d="M 51.886719 52.976562 L 61.144531 52.976562 L 61.144531 61.296875 L 51.886719 61.296875 Z M 51.886719 52.976562" />
</svg>
