<svg xmlns="http://www.w3.org/2000/svg" viewBox="0 0 399 399" width="399pt" height="399pt">
    <g transform="translate(0, 399) scale(0.1, -0.1)" fill="#000000" stroke="none">
        <path d="M1710 3974 c-802 -117 -1459 -710 -1655 -1494 -47 -189 -58 -296 -52 -525 7 -283 41 -462 134 -695 265 -668 871 -1144 1583 -1245 123 -17 389 -20 510 -5 310 39 613 152 876 328 550 368 884 989 884 1642 0 527 -191 1011 -547 1391 -304 323 -726 540 -1176 604 -128 18 -428 18 -557 -1z m537 -119 c522 -68 1005 -369 1305 -814 374 -557 422 -1285 123 -1882 -261 -520 -744 -888 -1319 -1005 -172 -35 -432 -43 -611 -19 -802 108 -1431 701 -1596 1505 -21 103 -24 141 -24 360 0 219 3 257 24 360 109 529 433 984 892 1253 361 212 784 296 1206 242z" />
        <path d="M1845 3800 c-429 -36 -829 -222 -1128 -524 -433 -438 -615 -1034 -498 -1631 138 -705 681 -1262 1382 -1419 601 -134 1234 48 1664 479 319 318 496 698 536 1149 32 357 -64 762 -255 1076 -307 503 -823 821 -1413 870 -130 11 -156 11 -288 0z m971 -865 c53 -16 81 -40 108 -92 15 -30 16 -92 14 -615 l-3 -583 -23 -33 c-43 -60 -84 -72 -237 -72 l-135 0 0 104 0 104 81 4 c66 3 83 7 95 23 12 15 14 97 14 465 0 387 -2 448 -16 468 l-15 22 -453 0 c-338 0 -455 -3 -464 -12 -9 -9 -12 -128 -12 -474 l0 -463 22 -15 c18 -13 54 -16 185 -16 l163 0 0 -105 0 -105 -232 0 c-228 0 -232 0 -274 25 -28 16 -49 39 -63 68 -21 42 -21 55 -21 611 0 547 1 568 20 606 21 42 46 60 79 60 13 0 21 6 21 16 0 13 7 15 33 11 19 -3 40 -1 48 4 8 5 237 9 515 9 413 0 509 -3 550 -15z m-1356 -595 l0 -110 -79 0 c-59 0 -84 -4 -95 -16 -14 -14 -16 -70 -16 -469 0 -399 2 -455 16 -469 14 -14 70 -16 468 -16 338 0 455 3 464 12 17 17 17 929 0 946 -8 8 -64 12 -185 12 l-173 0 0 111 0 110 233 -3 234 -3 42 -28 c83 -55 81 -35 81 -672 0 -524 -2 -563 -19 -601 -22 -47 -59 -80 -110 -95 -24 -7 -223 -9 -592 -7 l-555 3 -37 25 c-20 13 -46 43 -59 65 l-23 40 0 570 c0 621 -2 598 57 651 51 47 76 53 216 54 l132 0 0 -110z" />
    </g>
</svg>
