<svg xmlns="http://www.w3.org/2000/svg" height="111.353" width="111.353">
    <g fill="#fff">
        <path d="M97 85.508a4.995 4.995 0 0 0-4.988 4.989v4.007h-.157l-44.231-.078c.118-.236.196-.433.314-.668.354-.903-.079-1.965-.982-2.318s-1.964.079-2.318.982a15.682 15.682 0 0 1-.982 2.004h-18.58l14.377-17.167c.707.511 1.571 1.257 2.475 2.2.354.393.825.55 1.296.55.432 0 .864-.157 1.218-.472a1.792 1.792 0 0 0 .079-2.515 21.605 21.605 0 0 0-2.789-2.514l49.731-56.645 2.004 2.003c.98.981 2.239 1.454 3.496 1.454s2.553-.472 3.496-1.454c1.925-1.926 1.925-5.106 0-7.031L89.066 1.444c-1.925-1.925-5.106-1.925-7.031 0-1.926 1.926-1.926 5.106 0 7.031l2.356 2.317-73.85 85.282a5.003 5.003 0 0 0-.707 5.343c.825 1.728 2.593 2.944 4.518 2.944l77.503-.116h.157v2.121c0 2.75 2.238 4.987 4.988 4.987s4.989-2.237 4.989-4.987V90.457c-.039-2.709-2.239-4.949-4.989-4.949z"/>
        <path d="M45.501 80.874c-.903.393-1.296 1.609-.903 2.514.628 1.414.864 2.985.864 4.95.118.942 1.021 1.688 2.003 1.571.903-.118 1.532-.864 1.493-1.729h.039c0-2.004-.235-4.597-1.1-6.521-.432-.864-1.492-1.178-2.396-.785zm19.759-.354h-6.874c-.981 0-1.768-.707-1.768-1.688 0-.746.313-1.375.863-2.003l7.269-8.406c.707-.825 1.218-1.257 2.277-1.257.981 0 1.769.746 1.769 1.728v8.644h.864a1.492 1.492 0 0 1 0 2.984h-.904v2.003c0 .982-.785 1.729-1.769 1.729-.98 0-1.729-.746-1.729-1.729l.002-2.005zm0-2.984V72.31l-4.438 5.226h4.438zm9.115 5.262c-.434-.314-.747-.786-.747-1.414 0-.943.786-1.768 1.729-1.768.434 0 .707.116 1.021.354 1.021.746 2.004 1.062 3.182 1.062 1.532 0 2.711-.825 2.711-2.317v-.04c0-1.414-1.218-2.278-2.945-2.278-1.414 0-2.043.434-2.515.434-.511 0-.942-.196-1.649-.746-.512-.354-.707-.864-.668-1.493l.354-5.656c.04-.863.747-1.57 1.611-1.57h7.267c.864 0 1.61.745 1.61 1.609s-.746 1.61-1.61 1.61H77.99l-.196 2.946c.668-.157 1.257-.275 2.2-.275 3.3 0 5.853 1.571 5.853 5.343v.039c0 3.535-2.553 5.774-6.206 5.774-2.361-.041-3.932-.63-5.266-1.614zm13.827-11.824v-.039c0-2.043 1.609-3.652 3.691-3.652s3.653 1.609 3.653 3.613v.039c0 2.043-1.61 3.653-3.692 3.653-2.082.039-3.652-1.571-3.652-3.614zm.116 5.735c0-.433.354-.785.786-.785h5.578c.433 0 .785.354.785.785a.788.788 0 0 1-.785.786h-5.578a.787.787 0 0 1-.786-.786zm5.305-5.735v-.039c0-1.021-.707-1.925-1.729-1.925-1.061 0-1.688.864-1.688 1.925v.039c0 1.021.707 1.925 1.729 1.925 1.021 0 1.688-.863 1.688-1.925z"/>
    </g>
</svg>
