<svg xmlns="http://www.w3.org/2000/svg" width="329.209" height="329.209">
    <path d="M64.99 131.391c1.247 1.103 2.971 1.501 4.627 1.165 1.638-.325 3.063-1.459 3.806-2.966.278-.565 3.315-5.874 13.438-4.945 13.008 1.182 21.486 7.042 21.57 7.095.937.661 2.024.99 3.107.99a5.397 5.397 0 0 0 3.636-1.413l32.252-29.564a5.389 5.389 0 0 0 1.176-6.371l-13.521-27.034c14.063-23.806 42.312-25.709 50.853-25.709 1.122 0 1.784.037 2.246.053l6.719-.053a5.375 5.375 0 0 0 4.976-3.452 5.36 5.36 0 0 0-1.39-5.892c-14.122-12.926-31.69-19.481-52.237-19.481-40.966 0-83.381 27.113-91.982 45.397-10.177 21.626-22.998 34.644-23.132 34.778a5.398 5.398 0 0 0-1.565 3.968 5.389 5.389 0 0 0 1.825 3.864l33.596 29.57zm-26.82 34.966a5.393 5.393 0 0 0 3.956 1.259 5.345 5.345 0 0 0 3.677-1.938l18.814-22.845a5.368 5.368 0 0 0-.586-7.443l-34.94-30.909c-1.065-.948-2.446-1.399-3.892-1.339a5.374 5.374 0 0 0-3.699 1.811L1.343 127.801a5.333 5.333 0 0 0-1.329 3.935 5.371 5.371 0 0 0 1.877 3.708l36.279 30.913zm289.803 98.096a5.403 5.403 0 0 0-1.213-1.753l-91.865-88.127-37.406-36.505 77.066-71.24 3.852 3.854a5.378 5.378 0 0 0 3.802 1.575c.072 0 .152 0 .226-.005a5.376 5.376 0 0 0 3.88-1.903l28.42-33.643a5.388 5.388 0 0 0-.73-7.657l-10.525-8.488a5.39 5.39 0 0 0-6.735-.016l-33.35 26.677a5.388 5.388 0 0 0-2.005 3.904 5.362 5.362 0 0 0 1.564 4.102l3.995 3.994-77.167 71.332-28.46-27.775a5.382 5.382 0 0 0-7.283-.205l-36.956 32.253a5.382 5.382 0 0 0-1.84 3.777 5.364 5.364 0 0 0 1.445 3.947l27.883 29.8-3.525 3.261-13.58-13.744c-1.971-2.005-5.187-2.128-7.32-.299L2.703 262.5a5.498 5.498 0 0 0-1.433 1.953c-3.926 9.098 1.703 23.469 14.003 35.765 9.352 9.359 20.553 15.177 29.231 15.177 2.981 0 5.633-.662 7.879-1.96.405-.229.78-.52 1.108-.85l108.375-108.289a5.378 5.378 0 0 0 .021-7.581l-13.294-13.449 3.312-3.061 123.715 132.26c.363.377.782.713 1.233.977 2.247 1.301 4.898 1.953 7.88 1.953 8.673 0 19.874-5.817 29.233-15.172 12.301-12.301 17.933-26.672 14.007-35.77zm-309.161 9.381c-.753 0-1.499-.32-2.031-.93a2.68 2.68 0 0 1 .275-3.789l98.642-85.451a2.687 2.687 0 0 1 3.79.274 2.681 2.681 0 0 1-.273 3.789l-98.644 85.449a2.672 2.672 0 0 1-1.759.658zm14.112 14.111a2.689 2.689 0 0 1-1.869-4.615l93.064-90.604a2.69 2.69 0 0 1 3.798.052 2.69 2.69 0 0 1-.052 3.8L34.8 287.182a2.67 2.67 0 0 1-1.876.763zm108.067-82.668l-92.054 92.625a2.651 2.651 0 0 1-1.903.792c-.688 0-1.37-.263-1.898-.782a2.695 2.695 0 0 1-.01-3.8l92.054-92.626a2.688 2.688 0 1 1 3.811 3.791z" fill="#fff"/>
</svg>
