<svg xmlns="http://www.w3.org/2000/svg" width="381.39" height="381.39">
    <path d="M380.15 9.821c-1.621-3.877-4.704-6.992-8.581-8.581L365.499 0H206.586c-8.74 0-15.891 7.119-15.891 15.891s7.151 15.891 15.891 15.891h120.551L31.782 327.137V206.586c0-8.772-7.119-15.891-15.891-15.891S0 197.814 0 206.586v158.976l1.208 6.007 3.305 4.958.127.191.127.127 5.022 3.305 6.102 1.24h158.912c8.772 0 15.891-7.151 15.891-15.891s-7.119-15.891-15.891-15.891H54.253L349.607 54.253v120.551c0 8.772 7.151 15.891 15.891 15.891s15.891-7.119 15.891-15.891V15.891l-1.239-6.07z" fill="#fff"/>
</svg>
