<svg xmlns="http://www.w3.org/2000/svg" width="92.33" height="92.33">
    <path d="M70.598 16.753a3.827 3.827 0 0 0-5.349.866 3.827 3.827 0 0 0 .865 5.35c13.613 9.818 18.021 27.857 10.482 42.89-4.082 8.138-11.088 14.202-19.726 17.066-8.636 2.871-17.877 2.2-26.013-1.879-8.134-4.083-14.197-11.088-17.066-19.722-2.866-8.642-2.197-17.877 1.886-26.014 4.958-9.89 14.458-16.779 25.413-18.429.074-.008.137-.036.211-.053l.157 7.571a2.083 2.083 0 0 0 1.321 1.889 2.07 2.07 0 0 0 2.25-.496l10.904-11.379a2.074 2.074 0 0 0-.062-2.933L44.492.577a2.062 2.062 0 0 0-2.267-.399 2.052 2.052 0 0 0-.662.462 2.107 2.107 0 0 0-.579 1.479l.151 7.212a3.834 3.834 0 0 0-1.188-.027c-13.418 2.021-25.052 10.46-31.125 22.571C-1.499 52.451 6.85 77.584 27.424 87.901A41.472 41.472 0 0 0 46.07 92.33c15.306 0 30.065-8.439 37.382-23.028 9.236-18.418 3.832-40.52-12.854-52.549z" fill="#fff"/>
</svg>
