<svg xmlns="http://www.w3.org/2000/svg" width="100" height="100" viewBox="0 0 100 100" version="1.1">
	<path style="fill: #fff;" d="M 81.25 31.25 L 75.574219 31.25 C 75.226562 33.210938 75 35.292969 75 37.5 C 75 39.707031 75.226562 41.789062 75.574219 43.75 L 81.25 43.75 C 84.707031 43.75 87.5 40.949219 87.5 37.5 C 87.5 34.050781 84.707031 31.25 81.25 31.25 Z M 81.25 0 C 63.476562 18.164062 37.5 18.75 37.5 18.75 L 18.75 18.75 C 8.394531 18.75 0 27.144531 0 37.5 C 0 47.855469 8.394531 56.25 18.75 56.25 C 18.75 57.117188 18.925781 57.9375 19.242188 58.679688 C 19.832031 60.085938 20.945312 61.167969 22.304688 61.832031 C 22.398438 61.875 22.46875 61.960938 22.570312 62.011719 C 23.3125 62.332031 24.136719 62.5 25 62.5 L 18.75 93.75 C 18.75 97.207031 21.550781 100 25 100 L 37.5 100 C 40.949219 100 43.75 97.207031 43.75 93.75 C 43.75 90.292969 40.949219 87.5 37.5 87.5 L 42.5 62.5 L 43.75 62.5 C 46.570312 62.5 48.863281 60.59375 49.636719 58.03125 C 58.738281 60.15625 71.28125 64.8125 81.25 75 C 91.601562 75 100 58.207031 100 37.5 C 100 16.792969 91.601562 0 81.25 0 Z M 18.75 43.75 L 12.5 43.75 L 12.5 31.25 L 18.75 31.25 Z M 81.25 62.5 C 74.351562 62.5 68.75 51.304688 68.75 37.5 C 68.75 23.695312 74.351562 12.5 81.25 12.5 C 88.148438 12.5 93.75 23.695312 93.75 37.5 C 93.75 51.304688 88.148438 62.5 81.25 62.5 Z M 81.25 62.5 "/>
</svg>
