<svg xmlns="http://www.w3.org/2000/svg" width="144pt" height="144pt" viewBox="0 0 144 144" version="1.1">
	<path d="M 124.363281 0 L 19.636719 0 C 8.808594 0 0 8.808594 0 19.636719 L 0 124.363281 C 0 135.183594 8.808594 144 19.636719 144 L 124.363281 144 C 135.183594 144 144 135.183594 144 124.363281 L 144 19.636719 C 144 8.808594 135.183594 0 124.363281 0 Z M 137.453125 124.363281 C 137.453125 131.554688 131.5625 137.453125 124.363281 137.453125 L 19.636719 137.453125 C 12.4375 137.453125 6.546875 131.554688 6.546875 124.363281 L 6.546875 19.636719 C 6.546875 12.441406 12.4375 6.546875 19.636719 6.546875 L 124.363281 6.546875 C 131.5625 6.546875 137.453125 12.441406 137.453125 19.636719 Z M 137.453125 124.363281" />
	<path d="M 45.917969 20.828125 C 45.917969 23.894531 43.429688 26.382812 40.363281 26.382812 C 37.296875 26.382812 34.808594 23.894531 34.808594 20.828125 C 34.808594 17.757812 37.296875 15.273438 40.363281 15.273438 C 43.429688 15.273438 45.917969 17.757812 45.917969 20.828125 Z M 45.917969 20.828125" />
	<path d="M 77.554688 20.828125 C 77.554688 23.894531 75.066406 26.382812 72 26.382812 C 68.933594 26.382812 66.445312 23.894531 66.445312 20.828125 C 66.445312 17.757812 68.933594 15.273438 72 15.273438 C 75.066406 15.273438 77.554688 17.757812 77.554688 20.828125 Z M 77.554688 20.828125" />
	<path d="M 109.191406 20.828125 C 109.191406 23.894531 106.703125 26.382812 103.636719 26.382812 C 100.570312 26.382812 98.082031 23.894531 98.082031 20.828125 C 98.082031 17.757812 100.570312 15.273438 103.636719 15.273438 C 106.703125 15.273438 109.191406 17.757812 109.191406 20.828125 Z M 109.191406 20.828125" />
	<path d="M 48.585938 56.300781 L 68.640625 56.300781 L 68.640625 74.136719 L 48.585938 74.136719 Z M 48.585938 56.300781" />
	<path d="M 75.363281 56.300781 L 95.414062 56.300781 L 95.414062 74.136719 L 75.363281 74.136719 Z M 75.363281 56.300781" />
	<path d="M 102.125 56.300781 L 122.183594 56.300781 L 122.183594 74.136719 L 102.125 74.136719 Z M 102.125 56.300781" />
	<path d="M 21.816406 80.113281 L 41.867188 80.113281 L 41.867188 97.941406 L 21.816406 97.941406 Z M 21.816406 80.113281" />
	<path d="M 48.585938 80.113281 L 68.640625 80.113281 L 68.640625 97.941406 L 48.585938 97.941406 Z M 48.585938 80.113281" />
	<path d="M 75.363281 80.113281 L 95.414062 80.113281 L 95.414062 97.941406 L 75.363281 97.941406 Z M 75.363281 80.113281" />
	<path d="M 102.125 80.113281 L 122.183594 80.113281 L 122.183594 97.941406 L 102.125 97.941406 Z M 102.125 80.113281" />
	<path d="M 21.816406 103.925781 L 41.867188 103.925781 L 41.867188 121.753906 L 21.816406 121.753906 Z M 21.816406 103.925781" />
	<path d="M 48.585938 103.925781 L 68.640625 103.925781 L 68.640625 121.753906 L 48.585938 121.753906 Z M 48.585938 103.925781" />
	<path d="M 75.363281 103.925781 L 95.414062 103.925781 L 95.414062 121.753906 L 75.363281 121.753906 Z M 75.363281 103.925781" />
	<path d="M 102.125 103.925781 L 122.183594 103.925781 L 122.183594 121.753906 L 102.125 121.753906 Z M 102.125 103.925781" />
</svg>
