<svg xmlns="http://www.w3.org/2000/svg" width="144pt" height="144pt" viewBox="0 0 144 144" version="1.1">
	<path d="M 129.074219 28.132812 C 117.355469 12.882812 100.40625 3.117188 81.335938 0.617188 C 62.460938 -1.851562 43.742188 3.113281 28.578125 14.585938 L 23.09375 9.09375 C 21.527344 7.523438 20.085938 8.050781 19.882812 10.253906 L 18.085938 29.914062 C 17.882812 32.117188 19.523438 33.757812 21.726562 33.558594 L 41.386719 31.78125 C 43.589844 31.585938 44.117188 30.136719 42.550781 28.570312 L 36.863281 22.875 C 49.351562 13.925781 64.523438 10.097656 79.835938 12.101562 C 95.835938 14.195312 110.0625 22.394531 119.898438 35.1875 C 129.726562 47.980469 133.992188 63.835938 131.898438 79.835938 C 130.410156 91.199219 125.84375 101.667969 118.738281 110.304688 C 115.839844 113.828125 112.519531 117.046875 108.808594 119.898438 C 96.015625 129.730469 80.160156 133.992188 64.15625 131.898438 C 48.160156 129.804688 33.933594 121.605469 24.101562 108.8125 C 14.519531 96.351562 10.210938 80.886719 11.960938 65.269531 C 12.320312 62.09375 10.03125 59.226562 6.851562 58.871094 C 3.679688 58.511719 0.8125 60.800781 0.460938 63.976562 C -1.632812 82.585938 3.503906 101.015625 14.917969 115.867188 C 26.636719 131.117188 43.589844 140.882812 62.65625 143.382812 C 81.722656 145.875 100.617188 140.792969 115.867188 129.074219 C 120.28125 125.683594 124.242188 121.847656 127.695312 117.648438 C 136.164062 107.355469 141.601562 94.882812 143.378906 81.339844 C 145.871094 62.273438 140.792969 43.378906 129.074219 28.132812 Z M 69.171875 25.140625 C 66.585938 25.140625 64.484375 27.238281 64.484375 29.824219 L 64.484375 76.527344 L 107.195312 98.605469 C 107.882812 98.960938 108.621094 99.132812 109.34375 99.132812 C 111.039062 99.132812 112.679688 98.210938 113.511719 96.597656 C 114.703125 94.296875 113.800781 91.46875 111.503906 90.277344 L 73.859375 70.820312 L 73.859375 29.828125 C 73.859375 27.238281 71.761719 25.140625 69.171875 25.140625 Z M 69.171875 25.140625 "/>
</svg>
