<svg xmlns="http://www.w3.org/2000/svg" width="180px" height="180px" viewBox="0 0 180 180" version="1.1"><path d="M 143.425781 16.886719 C 142.574219 16.890625 141.773438 17.277344 141.242188 17.941406 L 118.742188 46.066406 C 118.070312 46.910156 117.945312 48.0625 118.410156 49.035156 C 118.878906 50.003906 119.859375 50.621094 120.9375 50.625 L 129.375 50.625 L 129.375 95.953125 C 121.253906 97.054688 114.054688 101.054688 108.832031 106.875 L 92.8125 106.875 C 92.625 106.878906 92.4375 106.898438 92.253906 106.941406 C 90.945312 107.207031 90.003906 108.355469 90 109.6875 L 90 149.0625 C 90 150.617188 91.257812 151.875 92.8125 151.875 L 108.839844 151.875 C 115.023438 158.757812 123.964844 163.125 133.921875 163.125 C 152.53125 163.125 167.671875 147.980469 167.671875 129.375 C 167.671875 119.9375 163.765625 111.390625 157.5 105.261719 L 157.5 50.625 L 165.9375 50.625 C 167.015625 50.621094 167.996094 50.003906 168.464844 49.035156 C 168.929688 48.0625 168.804688 46.910156 168.132812 46.066406 L 145.632812 17.941406 C 145.097656 17.269531 144.285156 16.882812 143.425781 16.886719 Z M 143.4375 24.191406 L 160.082031 45 L 154.6875 45 C 153.132812 45 151.875 46.257812 151.875 47.8125 L 151.875 100.84375 C 146.953125 97.734375 141.191406 95.875 135 95.679688 L 135 47.8125 C 135 46.257812 133.742188 45 132.1875 45 L 126.792969 45 Z M 53.4375 61.875 C 51.882812 61.875 50.625 63.132812 50.625 64.6875 L 50.625 149.0625 C 50.625 150.617188 51.882812 151.875 53.4375 151.875 L 75.9375 151.875 C 77.492188 151.875 78.75 150.617188 78.75 149.0625 L 78.75 64.6875 C 78.75 63.132812 77.492188 61.875 75.9375 61.875 Z M 56.25 67.5 L 73.125 67.5 L 73.125 146.25 L 56.25 146.25 Z M 14.0625 84.375 C 12.507812 84.375 11.25 85.632812 11.25 87.1875 L 11.25 149.0625 C 11.25 150.617188 12.507812 151.875 14.0625 151.875 L 36.5625 151.875 C 38.117188 151.875 39.375 150.617188 39.375 149.0625 L 39.375 87.1875 C 39.375 85.632812 38.117188 84.375 36.5625 84.375 Z M 16.875 90 L 33.75 90 L 33.75 146.25 L 16.875 146.25 Z M 133.921875 101.25 C 149.488281 101.25 162.046875 113.808594 162.046875 129.375 C 162.046875 144.941406 149.488281 157.5 133.921875 157.5 C 118.355469 157.5 105.796875 144.941406 105.796875 129.375 C 105.796875 113.808594 118.355469 101.25 133.921875 101.25 Z M 132.332031 106.875 L 132.332031 112.082031 C 130.914062 112.257812 129.640625 112.597656 128.496094 113.105469 C 127.351562 113.609375 126.375 114.257812 125.5625 115.046875 C 124.773438 115.839844 124.152344 116.765625 123.71875 117.839844 C 123.300781 118.914062 123.101562 120.105469 123.101562 121.398438 C 123.101562 122.804688 123.335938 124.039062 123.816406 125.113281 C 124.316406 126.1875 125.019531 127.136719 125.9375 127.957031 C 126.871094 128.777344 128 129.496094 129.308594 130.109375 C 130.640625 130.710938 132.136719 131.234375 133.800781 131.691406 C 135.050781 132.105469 136.113281 132.535156 136.988281 132.976562 C 137.882812 133.421875 138.589844 133.898438 139.132812 134.417969 C 139.691406 134.9375 140.101562 135.5 140.351562 136.097656 C 140.601562 136.699219 140.722656 137.355469 140.722656 138.066406 C 140.722656 138.917969 140.574219 139.699219 140.261719 140.394531 C 139.949219 141.074219 139.492188 141.652344 138.890625 142.140625 C 138.308594 142.613281 137.578125 142.984375 136.703125 143.25 C 135.851562 143.503906 134.871094 143.636719 133.769531 143.636719 C 132.980469 143.636719 132.1875 143.535156 131.398438 143.328125 C 130.605469 143.121094 129.886719 142.761719 129.242188 142.238281 C 128.597656 141.71875 128.078125 141.015625 127.683594 140.128906 C 127.289062 139.246094 127.089844 138.132812 127.089844 136.789062 L 121.597656 136.789062 C 121.597656 138.574219 121.882812 140.105469 122.441406 141.382812 C 123.003906 142.644531 123.757812 143.699219 124.695312 144.535156 C 125.652344 145.375 126.742188 146.003906 127.96875 146.449219 C 129.195312 146.890625 130.460938 147.1875 131.769531 147.328125 L 131.769531 151.875 L 136.109375 151.875 L 136.109375 147.328125 C 137.667969 147.167969 139.070312 146.855469 140.316406 146.382812 C 141.566406 145.90625 142.628906 145.269531 143.503906 144.480469 C 144.378906 143.691406 145.058594 142.765625 145.535156 141.691406 C 146.015625 140.601562 146.25 139.378906 146.25 138.019531 C 146.25 136.632812 146.027344 135.410156 145.570312 134.351562 C 145.109375 133.292969 144.429688 132.355469 143.535156 131.550781 C 142.640625 130.746094 141.539062 130.042969 140.230469 129.441406 C 138.917969 128.824219 137.410156 128.28125 135.703125 127.792969 C 134.371094 127.367188 133.246094 126.925781 132.332031 126.484375 C 131.4375 126.027344 130.714844 125.539062 130.15625 125.035156 C 129.59375 124.53125 129.183594 123.988281 128.9375 123.386719 C 128.707031 122.773438 128.59375 122.078125 128.59375 121.320312 C 128.59375 120.5 128.707031 119.75 128.9375 119.070312 C 129.183594 118.390625 129.542969 117.820312 130.023438 117.34375 C 130.523438 116.855469 131.140625 116.46875 131.867188 116.203125 C 132.597656 115.933594 133.453125 115.808594 134.449219 115.808594 C 135.40625 115.808594 136.261719 115.980469 137.011719 116.34375 C 137.757812 116.707031 138.390625 117.214844 138.890625 117.859375 C 139.386719 118.507812 139.761719 119.273438 140.007812 120.15625 C 140.28125 121.042969 140.417969 122.023438 140.417969 123.078125 L 145.875 123.078125 C 145.875 119.875 145.070312 117.347656 143.46875 115.5 C 141.890625 113.636719 139.648438 112.5 136.734375 112.105469 L 136.734375 106.875 Z M 95.625 112.5 L 104.734375 112.5 C 101.847656 117.46875 100.171875 123.226562 100.171875 129.375 C 100.171875 135.527344 101.851562 141.277344 104.742188 146.25 L 95.625 146.25 Z M 95.625 112.5 "/></svg>
