<svg xmlns="http://www.w3.org/2000/svg" width="144pt" height="144pt" viewBox="0 0 144 144" version="1.1">
	<path d="M 18 144 C 8.078125 144 0 137.265625 0 129 C 0 117.601562 0 26.398438 0 15 C 0 6.726562 8.078125 0 18 0 C 28.800781 0 115.199219 0 126 0 C 135.921875 0 144 6.726562 144 15 C 144 26.398438 144 117.601562 144 129 C 144 137.265625 135.921875 144 126 144 C 104.398438 144 28.800781 144 18 144 Z M 18 6 C 12.046875 6 7.199219 10.039062 7.199219 15 C 7.199219 26.398438 7.199219 117.601562 7.199219 129 C 7.199219 133.960938 12.046875 138 18 138 C 28.800781 138 115.199219 138 126 138 C 131.953125 138 136.800781 133.960938 136.800781 129 C 136.800781 117.601562 136.800781 26.398438 136.800781 15 C 136.800781 10.039062 131.953125 6 126 6 C 104.398438 6 39.601562 6 18 6 Z M 18 6" />
	<path d="M 64.800781 34.601562 C 64.800781 34.398438 64.800781 33.398438 64.800781 31.601562 L 28.800781 31.601562 C 28.800781 33.398438 28.800781 34.398438 28.800781 34.601562 C 28.800781 36.257812 27.183594 37.601562 25.199219 37.601562 C 23.214844 37.601562 21.601562 36.257812 21.601562 34.601562 C 21.601562 34 21.601562 29.199219 21.601562 28.601562 C 21.601562 26.945312 23.214844 25.601562 25.199219 25.601562 C 29.519531 25.601562 64.078125 25.601562 68.398438 25.601562 C 70.382812 25.601562 72 26.945312 72 28.601562 C 72 29.199219 72 34 72 34.601562 C 72 36.257812 70.382812 37.601562 68.398438 37.601562 C 66.414062 37.601562 64.800781 36.257812 64.800781 34.601562 Z M 64.800781 34.601562" />
	<path d="M 43.199219 64.601562 C 43.199219 61 43.199219 32.199219 43.199219 28.601562 C 43.199219 26.945312 44.816406 25.601562 46.800781 25.601562 C 48.785156 25.601562 50.398438 26.945312 50.398438 28.601562 C 50.398438 32.199219 50.398438 61 50.398438 64.601562 C 50.398438 66.257812 48.785156 67.601562 46.800781 67.601562 C 44.816406 67.601562 43.199219 66.257812 43.199219 64.601562 Z M 43.199219 64.601562" />
	<path d="M 39.601562 67.601562 C 37.617188 67.601562 36 66.257812 36 64.601562 C 36 62.945312 37.617188 61.601562 39.601562 61.601562 C 41.039062 61.601562 52.558594 61.601562 54 61.601562 C 55.984375 61.601562 57.601562 62.945312 57.601562 64.601562 C 57.601562 66.257812 55.984375 67.601562 54 67.601562 C 51.121094 67.601562 41.039062 67.601562 39.601562 67.601562 Z M 39.601562 67.601562" />
	<path d="M 90 31.601562 C 88.015625 31.601562 86.398438 30.257812 86.398438 28.601562 C 86.398438 26.945312 88.015625 25.601562 90 25.601562 C 92.878906 25.601562 115.921875 25.601562 118.800781 25.601562 C 120.785156 25.601562 122.398438 26.945312 122.398438 28.601562 C 122.398438 30.257812 120.785156 31.601562 118.800781 31.601562 C 113.039062 31.601562 92.878906 31.601562 90 31.601562 Z M 90 31.601562" />
	<path d="M 90 49.601562 C 88.015625 49.601562 86.398438 48.257812 86.398438 46.601562 C 86.398438 44.945312 88.015625 43.601562 90 43.601562 C 92.878906 43.601562 115.921875 43.601562 118.800781 43.601562 C 120.785156 43.601562 122.398438 44.945312 122.398438 46.601562 C 122.398438 48.257812 120.785156 49.601562 118.800781 49.601562 C 113.039062 49.601562 92.878906 49.601562 90 49.601562 Z M 90 49.601562" />
	<path d="M 90 67.601562 C 88.015625 67.601562 86.398438 66.257812 86.398438 64.601562 C 86.398438 62.945312 88.015625 61.601562 90 61.601562 C 92.878906 61.601562 115.921875 61.601562 118.800781 61.601562 C 120.785156 61.601562 122.398438 62.945312 122.398438 64.601562 C 122.398438 66.257812 120.785156 67.601562 118.800781 67.601562 C 113.039062 67.601562 92.878906 67.601562 90 67.601562 Z M 90 67.601562" />
	<path d="M 25.199219 85.601562 C 23.214844 85.601562 21.601562 84.257812 21.601562 82.601562 C 21.601562 80.945312 23.214844 79.601562 25.199219 79.601562 C 34.558594 79.601562 109.441406 79.601562 118.800781 79.601562 C 120.785156 79.601562 122.398438 80.945312 122.398438 82.601562 C 122.398438 84.257812 120.785156 85.601562 118.800781 85.601562 C 100.078125 85.601562 34.558594 85.601562 25.199219 85.601562 Z M 25.199219 85.601562" />
	<path d="M 25.199219 103.601562 C 23.214844 103.601562 21.601562 102.257812 21.601562 100.601562 C 21.601562 98.945312 23.214844 97.601562 25.199219 97.601562 C 34.558594 97.601562 109.441406 97.601562 118.800781 97.601562 C 120.785156 97.601562 122.398438 98.945312 122.398438 100.601562 C 122.398438 102.257812 120.785156 103.601562 118.800781 103.601562 C 100.078125 103.601562 34.558594 103.601562 25.199219 103.601562 Z M 25.199219 103.601562" />
	<path d="M 25.199219 121.433594 C 23.214844 121.433594 21.601562 120.089844 21.601562 118.433594 C 21.601562 116.777344 23.214844 115.433594 25.199219 115.433594 C 34.558594 115.433594 109.441406 115.433594 118.800781 115.433594 C 120.785156 115.433594 122.398438 116.777344 122.398438 118.433594 C 122.398438 120.089844 120.785156 121.433594 118.800781 121.433594 C 100.078125 121.433594 34.558594 121.433594 25.199219 121.433594 Z M 25.199219 121.433594" />
</svg>
