<svg xmlns="http://www.w3.org/2000/svg" width="144pt" height="144pt" viewBox="0 0 144 144" version="1.1">
	<path d="M 102.730469 120.019531 C 101.074219 118.667969 98.785156 118.386719 96.859375 119.292969 C 96.570312 119.429688 95.628906 119.820312 93.175781 120.5 C 91.542969 120.945312 90.136719 121.175781 88.988281 121.175781 C 86.648438 121.175781 85.546875 120.863281 85.167969 120.730469 C 85.070312 120.425781 84.90625 119.722656 84.90625 118.398438 C 84.90625 117.957031 84.960938 116.609375 85.492188 113.699219 C 85.886719 111.4375 86.34375 109.390625 86.863281 107.585938 L 93.671875 83.480469 C 94.449219 80.914062 94.984375 78.082031 95.261719 75.066406 C 95.53125 72.253906 95.660156 70.257812 95.660156 68.96875 C 95.660156 62.246094 93.230469 56.667969 88.4375 52.390625 C 83.828125 48.277344 77.445312 46.191406 69.460938 46.191406 C 65.238281 46.191406 60.746094 46.9375 56.117188 48.40625 C 51.902344 49.742188 47.421875 51.375 42.789062 53.257812 C 41.140625 53.929688 39.917969 55.347656 39.492188 57.078125 L 37.65625 64.570312 C 37.164062 66.5625 37.816406 68.664062 39.351562 70.03125 C 40.878906 71.394531 43.042969 71.804688 44.96875 71.09375 C 46.304688 70.597656 47.800781 70.105469 49.417969 69.628906 C 50.785156 69.226562 52.09375 69.019531 53.308594 69.019531 C 55.292969 69.019531 56.320312 69.246094 56.761719 69.386719 C 56.871094 69.730469 57.027344 70.464844 57.027344 71.800781 C 57.027344 73.167969 56.855469 74.710938 56.507812 76.410156 C 56.132812 78.308594 55.648438 80.371094 55.066406 82.605469 L 48.199219 106.902344 C 48.179688 106.976562 48.160156 107.046875 48.144531 107.121094 C 47.496094 109.828125 47.011719 112.316406 46.707031 114.527344 C 46.398438 116.777344 46.242188 119.03125 46.242188 121.226562 C 46.242188 127.859375 48.742188 133.417969 53.667969 137.757812 C 58.390625 141.898438 64.839844 144 72.839844 144 C 77.777344 144 82.226562 143.324219 86.058594 141.988281 C 89.453125 140.808594 93.953125 139.117188 99.429688 136.953125 C 101.101562 136.292969 102.351562 134.859375 102.78125 133.113281 L 104.609375 125.625 C 105.117188 123.554688 104.386719 121.371094 102.730469 120.019531 Z M 84.21875 74.035156 C 84.007812 76.320312 83.617188 78.414062 83.027344 80.367188 L 76.199219 104.542969 C 75.578125 106.703125 75.027344 109.140625 74.570312 111.753906 C 74.0625 114.558594 73.8125 116.734375 73.8125 118.402344 C 73.8125 123.355469 75.226562 127.015625 78.03125 129.296875 C 79.242188 130.273438 80.710938 131.003906 82.46875 131.496094 C 82.449219 131.5 82.433594 131.507812 82.417969 131.515625 C 79.753906 132.441406 76.527344 132.910156 72.835938 132.910156 C 67.605469 132.910156 63.617188 131.738281 60.988281 129.429688 C 58.496094 127.234375 57.335938 124.628906 57.335938 121.230469 C 57.335938 119.535156 57.457031 117.789062 57.695312 116.042969 C 57.949219 114.226562 58.355469 112.132812 58.90625 109.8125 L 65.769531 85.523438 C 66.4375 82.96875 66.96875 80.699219 67.386719 78.605469 C 67.875 76.199219 68.121094 73.914062 68.121094 71.804688 C 68.121094 67.136719 66.898438 63.601562 64.476562 61.289062 C 63.316406 60.1875 61.851562 59.363281 60.0625 58.804688 C 63.390625 57.800781 66.550781 57.289062 69.464844 57.289062 C 74.636719 57.289062 78.539062 58.425781 81.050781 60.667969 C 83.449219 62.8125 84.566406 65.449219 84.566406 68.96875 C 84.566406 69.492188 84.523438 70.839844 84.21875 74.035156 Z M 84.21875 74.035156" />
	<path d="M 84.664062 41.636719 C 90.582031 41.636719 95.730469 39.636719 99.949219 35.699219 C 104.238281 31.71875 106.507812 26.585938 106.507812 20.851562 C 106.507812 15.066406 104.308594 10.066406 99.976562 5.992188 C 95.738281 2.015625 90.589844 0 84.664062 0 C 78.734375 0 73.570312 2.011719 69.304688 5.976562 C 64.992188 10 62.710938 15.144531 62.710938 20.851562 C 62.710938 26.585938 65 31.726562 69.328125 35.707031 C 73.589844 39.640625 78.75 41.636719 84.664062 41.636719 Z M 76.867188 14.097656 C 79.066406 12.050781 81.542969 11.09375 84.664062 11.09375 C 87.757812 11.09375 90.210938 12.042969 92.378906 14.078125 C 94.445312 16.023438 95.410156 18.175781 95.410156 20.851562 C 95.410156 23.527344 94.457031 25.660156 92.390625 27.574219 C 90.222656 29.597656 87.765625 30.539062 84.664062 30.539062 C 81.539062 30.539062 79.058594 29.589844 76.84375 27.550781 C 74.769531 25.640625 73.804688 23.511719 73.804688 20.851562 C 73.804688 18.191406 74.78125 16.042969 76.867188 14.097656 Z M 76.867188 14.097656" />
</svg>
