<svg xmlns="http://www.w3.org/2000/svg" width="180px" height="180px" viewBox="0 0 180 180" version="1.1"><path d="M 22.578125 84.238281 C 25.761719 84.289062 28.867188 83.261719 31.394531 81.328125 C 33.730469 79.371094 35.328125 76.675781 35.921875 73.6875 C 36.855469 68.21875 37.261719 62.671875 37.125 57.128906 C 37.171875 49.308594 37.3125 44.15625 37.546875 41.675781 C 37.796875 38.40625 38.59375 35.199219 39.898438 32.191406 C 40.894531 30.003906 42.339844 28.054688 44.144531 26.464844 C 46.046875 24.929688 48.257812 23.816406 50.625 23.203125 C 53.484375 22.636719 56.398438 22.402344 59.308594 22.5 L 63.246094 22.5 L 63.246094 33.523438 L 61.070312 33.523438 C 57.617188 33.085938 54.132812 34.03125 51.378906 36.15625 C 49.339844 39.722656 48.5 43.847656 48.988281 47.925781 C 49.175781 55.683594 48.917969 63.445312 48.21875 71.171875 C 47.707031 75.320312 46.226562 79.289062 43.898438 82.761719 C 41.320312 85.898438 38.035156 88.378906 34.3125 90 C 39.109375 91.839844 43.085938 95.339844 45.515625 99.867188 C 48.28125 106.761719 49.46875 114.191406 48.992188 121.605469 C 48.992188 130.738281 49.085938 136.175781 49.273438 137.917969 C 49.347656 140.414062 50.359375 142.785156 52.109375 144.5625 C 54.820312 146.121094 57.953125 146.785156 61.066406 146.457031 L 63.242188 146.457031 L 63.242188 157.5 L 59.304688 157.5 C 55.941406 157.65625 52.574219 157.273438 49.332031 156.375 C 46.414062 155.355469 43.835938 153.542969 41.882812 151.144531 C 39.808594 148.484375 38.488281 145.320312 38.054688 141.976562 C 37.335938 135.9375 37.027344 129.863281 37.125 123.785156 C 37.277344 117.933594 36.875 112.085938 35.921875 106.3125 C 35.316406 103.324219 33.722656 100.625 31.394531 98.65625 C 28.875 96.699219 25.765625 95.660156 22.578125 95.710938 Z M 22.578125 84.238281 M 157.421875 95.6875 C 154.234375 95.636719 151.125 96.675781 148.605469 98.632812 C 146.277344 100.605469 144.683594 103.300781 144.078125 106.289062 C 143.128906 112.070312 142.730469 117.925781 142.886719 123.777344 C 142.976562 129.855469 142.660156 135.933594 141.9375 141.96875 C 141.5 145.3125 140.179688 148.480469 138.105469 151.136719 C 136.15625 153.539062 133.578125 155.347656 130.65625 156.371094 C 127.414062 157.269531 124.046875 157.648438 120.683594 157.496094 L 116.746094 157.496094 L 116.746094 146.476562 L 118.921875 146.476562 C 122.035156 146.800781 125.167969 146.140625 127.878906 144.578125 C 129.640625 142.796875 130.65625 140.414062 130.726562 137.90625 C 130.914062 136.175781 131.007812 130.738281 131.007812 121.59375 C 130.53125 114.179688 131.71875 106.753906 134.484375 99.855469 C 136.914062 95.332031 140.890625 91.835938 145.6875 90 C 141.972656 88.375 138.699219 85.898438 136.125 82.765625 C 133.796875 79.296875 132.316406 75.328125 131.804688 71.179688 C 131.105469 63.449219 130.847656 55.6875 131.035156 47.929688 C 131.523438 43.851562 130.683594 39.726562 128.644531 36.164062 C 125.886719 34.039062 122.402344 33.089844 118.953125 33.53125 L 116.773438 33.53125 L 116.773438 22.5 L 120.710938 22.5 C 123.617188 22.402344 126.523438 22.636719 129.375 23.203125 C 131.738281 23.820312 133.941406 24.933594 135.839844 26.472656 C 137.640625 28.058594 139.089844 30.011719 140.085938 32.199219 C 141.390625 35.207031 142.1875 38.410156 142.4375 41.679688 C 142.667969 44.164062 142.808594 49.3125 142.859375 57.132812 C 142.71875 62.683594 143.117188 68.234375 144.050781 73.710938 C 144.648438 76.691406 146.246094 79.378906 148.578125 81.332031 C 151.105469 83.269531 154.210938 84.296875 157.394531 84.246094 Z M 157.421875 95.6875" /></svg>
