<svg xmlns="http://www.w3.org/2000/svg" version="1.1" width="180" height="180" viewBox="0 0 180 180" xml:space="preserve">
	<g transform="matrix(0.9 0 0 0.9 90 90)">
		<path transform="translate(-90, -90)" d="M 157.5 11.25 C 163.714844 11.25 168.75 16.285156 168.75 22.5 L 168.75 157.5 C 168.75 163.714844 163.714844 168.75 157.5 168.75 L 22.5 168.75 C 16.285156 168.75 11.25 163.714844 11.25 157.5 L 11.25 22.5 C 11.25 16.285156 16.285156 11.25 22.5 11.25 Z M 22.5 0 C 10.074219 0 0 10.074219 0 22.5 L 0 157.5 C 0 169.925781 10.074219 180 22.5 180 L 157.5 180 C 169.925781 180 180 169.925781 180 157.5 L 180 22.5 C 180 10.074219 169.925781 0 157.5 0 Z M 22.5 0 M 61.875 135 C 61.875 144.320312 54.320312 151.875 45 151.875 C 35.679688 151.875 28.125 144.320312 28.125 135 C 28.125 125.679688 35.679688 118.125 45 118.125 C 54.320312 118.125 61.875 125.679688 61.875 135 Z M 28.125 39.375 C 28.125 33.160156 33.160156 28.125 39.375 28.125 C 101.507812 28.125 151.875 78.492188 151.875 140.625 C 151.875 146.839844 146.839844 151.875 140.625 151.875 C 134.410156 151.875 129.375 146.839844 129.375 140.625 C 129.375 90.917969 89.082031 50.625 39.375 50.625 C 33.160156 50.625 28.125 45.589844 28.125 39.375 Z M 28.125 84.375 C 28.125 78.160156 33.160156 73.125 39.375 73.125 C 76.652344 73.125 106.875 103.347656 106.875 140.625 C 106.875 146.839844 101.839844 151.875 95.625 151.875 C 89.410156 151.875 84.375 146.839844 84.375 140.625 C 84.375 115.773438 64.226562 95.625 39.375 95.625 C 33.160156 95.625 28.125 90.589844 28.125 84.375 Z M 28.125 84.375" stroke-linecap="round" />
	</g>
</svg>
