<svg xmlns="http://www.w3.org/2000/svg" width="144pt" height="144pt" viewBox="0 0 144 144" version="1.1">
	<path d="M 77.574219 69.65625 C 77.574219 51.246094 77.574219 41.023438 77.574219 38.984375 C 77.574219 35.894531 75.078125 33.398438 72 33.398438 C 68.921875 33.398438 66.425781 35.894531 66.425781 38.984375 C 66.425781 42.328125 66.425781 69.097656 66.425781 72.449219 C 66.425781 74.199219 67.246094 75.863281 68.648438 76.910156 C 70.878906 78.585938 88.734375 91.96875 90.96875 93.640625 C 91.96875 94.390625 93.136719 94.753906 94.304688 94.753906 C 96.007812 94.753906 97.671875 93.992188 98.769531 92.519531 C 100.625 90.054688 100.121094 86.566406 97.65625 84.710938 C 94.984375 82.703125 88.289062 77.6875 77.574219 69.65625 Z M 0 72 C 0 111.703125 32.296875 144 72 144 C 111.703125 144 144 111.703125 144 72 C 144 32.296875 111.703125 0 72 0 C 32.296875 0 0 32.296875 0 72 Z M 11.152344 72 C 11.152344 38.457031 38.457031 11.152344 72 11.152344 C 105.550781 11.152344 132.847656 38.457031 132.847656 72 C 132.847656 105.542969 105.542969 132.847656 72 132.847656 C 38.457031 132.847656 11.152344 105.542969 11.152344 72 Z M 11.152344 72" />
</svg>
