<?xml version="1.0" encoding="UTF-8"?>
<svg xmlns="http://www.w3.org/2000/svg" xmlns:xlink="http://www.w3.org/1999/xlink" width="180px" height="180px" viewBox="0 0 180 180" version="1.1">
	<path d="M 0.789062 120.40625 C 0.789062 126.617188 2.25 132.34375 5.171875 137.589844 C 8.09375 142.832031 12.078125 146.972656 17.121094 150.007812 C 22.167969 153.046875 27.613281 154.5625 33.523438 154.5625 L 105.433594 154.5625 C 111.34375 154.5625 116.855469 153.046875 121.902344 150.007812 C 126.949219 146.972656 131 142.832031 133.921875 137.589844 C 136.84375 132.34375 138.371094 126.617188 138.371094 120.40625 C 138.371094 115.855469 137.441406 111.230469 135.582031 106.609375 C 140.625 100.261719 143.148438 92.601562 143.148438 83.839844 C 143.148438 78.9375 142.21875 74.246094 140.425781 69.761719 C 138.636719 65.277344 136.113281 61.480469 132.992188 58.238281 C 129.871094 54.996094 126.21875 52.375 121.902344 50.511719 C 117.585938 48.578125 113.070312 47.683594 108.355469 47.683594 C 98.527344 47.683594 89.964844 51.683594 82.59375 59.6875 C 77.480469 56.652344 71.503906 55.132812 64.664062 55.132812 C 55.304688 55.132812 47.070312 58.171875 39.898438 64.171875 C 32.835938 69.964844 27.953125 78.144531 26.085938 87.289062 C 18.648438 89.082031 12.609375 93.015625 7.894531 99.226562 C 3.179688 105.433594 0.789062 112.472656 0.789062 120.40625 Z M 12.144531 120.40625 C 12.144531 114.613281 14.003906 109.644531 17.71875 105.433594 C 21.4375 101.226562 26.085938 98.8125 31.664062 98.121094 L 34.984375 97.914062 C 35.78125 97.914062 36.246094 97.5 36.246094 96.671875 L 36.710938 92.945312 C 37.640625 85.492188 40.761719 79.214844 46.074219 74.246094 C 51.386719 69.210938 57.625 66.726562 64.730469 66.726562 C 72.035156 66.726562 78.410156 69.277344 83.789062 74.316406 C 89.074219 79.058594 92.34375 85.78125 92.886719 93.015625 L 93.351562 97.015625 C 93.484375 97.777344 93.949219 98.191406 94.746094 98.191406 L 105.433594 98.191406 C 111.277344 98.191406 116.324219 100.398438 120.574219 104.8125 C 124.824219 109.230469 126.949219 114.40625 126.949219 120.476562 C 126.949219 126.757812 124.824219 132.070312 120.640625 136.484375 C 116.457031 140.902344 111.34375 143.109375 105.5 143.109375 L 33.523438 143.109375 C 27.679688 143.109375 22.699219 140.902344 18.449219 136.414062 C 14.269531 131.929688 12.144531 126.617188 12.144531 120.40625 Z M 56.628906 35.746094 C 56.628906 37.402344 57.160156 38.851562 58.222656 40.09375 L 62.605469 44.507812 C 64.265625 45.820312 65.660156 46.371094 66.855469 46.234375 C 68.25 46.234375 69.445312 45.613281 70.507812 44.4375 C 71.570312 43.265625 72.101562 41.816406 72.101562 40.160156 C 72.101562 38.503906 71.503906 37.125 70.375 36.089844 L 66.457031 31.535156 C 65.359375 30.46875 63.910156 29.875 62.40625 29.878906 C 60.8125 29.878906 59.417969 30.433594 58.289062 31.605469 C 57.160156 32.710938 56.628906 34.089844 56.628906 35.746094 Z M 92.089844 66.3125 C 96.671875 61.6875 102.113281 59.410156 108.355469 59.410156 C 114.929688 59.410156 120.507812 61.757812 125.089844 66.519531 C 129.671875 71.28125 131.996094 77.007812 131.996094 83.839844 C 131.996094 88.117188 130.867188 92.394531 128.609375 96.535156 C 122.167969 89.910156 114.464844 86.597656 105.433594 86.597656 L 103.308594 86.597656 C 101.648438 79.078125 97.929688 72.316406 92.089844 66.3125 Z M 102.910156 29.878906 C 102.910156 31.675781 103.441406 33.054688 104.4375 34.15625 C 105.433594 35.261719 106.761719 35.746094 108.355469 35.746094 C 110.082031 35.746094 111.410156 35.191406 112.472656 34.15625 C 113.535156 33.054688 114 31.675781 114 29.878906 L 114 15.734375 C 114 14.078125 113.46875 12.769531 112.40625 11.664062 C 111.34375 10.558594 110.015625 10.078125 108.355469 10.078125 C 106.761719 10.078125 105.5 10.628906 104.4375 11.664062 C 103.375 12.699219 102.910156 14.078125 102.910156 15.734375 Z M 139.5625 45.679688 C 139.5625 47.476562 140.027344 48.855469 141.023438 49.960938 C 142.417969 51.0625 143.8125 51.613281 145.140625 51.613281 C 146.335938 51.613281 147.664062 51.0625 149.058594 49.960938 L 158.554688 40.09375 C 159.617188 38.851562 160.148438 37.402344 160.148438 35.675781 C 160.148438 34.019531 159.617188 32.640625 158.554688 31.535156 C 157.523438 30.449219 156.105469 29.851562 154.636719 29.878906 C 153.042969 29.878906 151.78125 30.433594 150.785156 31.535156 L 141.023438 41.402344 C 140.027344 42.714844 139.5625 44.09375 139.5625 45.679688 Z M 144.808594 127.378906 C 144.808594 129.03125 145.339844 130.480469 146.46875 131.722656 L 150.785156 136.070312 C 151.78125 137.175781 153.042969 137.726562 154.636719 137.726562 C 156.230469 137.726562 157.558594 137.175781 158.621094 136.003906 C 159.683594 134.855469 160.257812 133.3125 160.214844 131.722656 C 160.214844 130.207031 159.683594 128.824219 158.621094 127.722656 L 154.304688 123.238281 C 153.316406 122.164062 151.949219 121.566406 150.519531 121.582031 C 148.925781 121.582031 147.597656 122.132812 146.535156 123.238281 C 145.40625 124.339844 144.808594 125.722656 144.808594 127.378906 Z M 154.570312 83.839844 C 154.570312 85.425781 155.167969 86.734375 156.296875 87.839844 C 157.359375 88.945312 158.753906 89.496094 160.347656 89.496094 L 173.894531 89.496094 C 175.421875 89.496094 176.683594 88.945312 177.746094 87.910156 C 178.808594 86.875 179.273438 85.492188 179.273438 83.839844 C 179.273438 82.183594 178.742188 80.800781 177.746094 79.699219 C 176.753906 78.582031 175.355469 77.957031 173.894531 77.972656 L 160.347656 77.972656 C 158.753906 77.972656 157.425781 78.523438 156.296875 79.699219 C 155.171875 80.753906 154.542969 82.261719 154.570312 83.839844 Z M 154.570312 83.839844 "/>
</svg>
