<svg xmlns="http://www.w3.org/2000/svg" width="365" height="200" fill="#000">
    <g transform="translate(2 1)">
        <path id="cover_list" d="M 39.00,48.00L9.00,48.00 c-4.971,0.00-9.00-4.029-9.00-9.00L0.00,9.00 c0.00-4.971, 4.029-9.00, 9.00-9.00l30.00,0.00 c 4.971,0.00, 9.00,4.029, 9.00,9.00l0.00,30.00 C 48.00,43.971, 43.971,48.00, 39.00,48.00z M 42.00,9.00c0.00-1.656-1.341-3.00-3.00-3.00L9.00,6.00 C 7.341,6.00, 6.00,7.344, 6.00,9.00l0.00,30.00 c0.00,1.659, 1.341,3.00, 3.00,3.00l30.00,0.00 c 1.659,0.00, 3.00-1.341, 3.00-3.00L42.00,9.00 z M 12.00,30.00l24.00,0.00 l0.00,6.00 L12.00,36.00 L12.00,30.00 z M 12.00,21.00l24.00,0.00 l0.00,6.00 L12.00,27.00 L12.00,21.00 z M 12.00,12.00l24.00,0.00 l0.00,6.00 L12.00,18.00 L12.00,12.00 z" />
    </g>
    <g transform="translate(2 1)">
        <path id="stream" d="M 39.00,48.00L9.00,48.00 c-4.971,0.00-9.00-4.029-9.00-9.00L0.00,9.00 c0.00-4.971, 4.029-9.00, 9.00-9.00l30.00,0.00 c 4.971,0.00, 9.00,4.029, 9.00,9.00l0.00,30.00 C 48.00,43.971, 43.971,48.00, 39.00,48.00z M 42.00,9.00c0.00-1.656-1.341-3.00-3.00-3.00L9.00,6.00 C 7.341,6.00, 6.00,7.344, 6.00,9.00l0.00,30.00 c0.00,1.659, 1.341,3.00, 3.00,3.00l30.00,0.00 c 1.659,0.00, 3.00-1.341, 3.00-3.00L42.00,9.00 z M 12.00,30.00l24.00,0.00 l0.00,6.00 L12.00,36.00 L12.00,30.00 z M 12.00,21.00l24.00,0.00 l0.00,6.00 L12.00,27.00 L12.00,21.00 z M 12.00,12.00l24.00,0.00 l0.00,6.00 L12.00,18.00 L12.00,12.00 z" />
    </g>
    <g transform="translate(2, 1)">
        <path id="templates" d="M 39.00,48.00L9.00,48.00 c-4.971,0.00-9.00-4.029-9.00-9.00L0.00,9.00 c0.00-4.971, 4.029-9.00, 9.00-9.00l30.00,0.00 c 4.971,0.00, 9.00,4.029, 9.00,9.00l0.00,30.00 C 48.00,43.971, 43.971,48.00, 39.00,48.00z M 42.00,9.00c0.00-1.656-1.341-3.00-3.00-3.00L9.00,6.00 C 7.341,6.00, 6.00,7.344, 6.00,9.00l0.00,30.00 c0.00,1.659, 1.341,3.00, 3.00,3.00l30.00,0.00 c 1.659,0.00, 3.00-1.341, 3.00-3.00L42.00,9.00 z M 12.00,30.00l24.00,0.00 l0.00,6.00 L12.00,36.00 L12.00,30.00 z M 12.00,21.00l24.00,0.00 l0.00,6.00 L12.00,27.00 L12.00,21.00 z M 12.00,12.00l24.00,0.00 l0.00,6.00 L12.00,18.00 L12.00,12.00 z" />
    </g>

    <g transform="translate(54 1)">
        <path id="list" d="M 12.00,18.00l6.00,0.00 L18.00,12.00 L12.00,12.00 L12.00,18.00 z M 12.00,27.00l6.00,0.00 L18.00,21.00 L12.00,21.00 L12.00,27.00 z M 12.00,36.00l6.00,0.00 l0.00,-6.00 L12.00,30.00 L12.00,36.00 z M 21.00,18.00l15.00,0.00 L36.00,12.00 L21.00,12.00 L21.00,18.00 z M 39.00,0.00L9.00,0.00 C 4.029,0.00,0.00,4.029,0.00,9.00l0.00,30.00 c0.00,4.968, 4.029,9.00, 9.00,9.00l30.00,0.00 c 4.971,0.00, 9.00-4.032, 9.00-9.00L48.00,9.00 C 48.00,4.029, 43.971,0.00, 39.00,0.00z M 42.00,39.00 c0.00,1.659-1.341,3.00-3.00,3.00L9.00,42.00 c-1.659,0.00-3.00-1.341-3.00-3.00L6.00,9.00 c0.00-1.656, 1.341-3.00, 3.00-3.00l30.00,0.00 c 1.659,0.00, 3.00,1.344, 3.00,3.00L42.00,39.00 z M 21.00,27.00l15.00,0.00 L36.00,21.00 L21.00,21.00 L21.00,27.00 z M 21.00,36.00l15.00,0.00 l0.00,-6.00 L21.00,30.00 L21.00,36.00 z" />
    </g>
    <g transform="translate(106 1)">
        <path id="table" d="M 39.00,48.00L9.00,48.00 c-4.971,0.00-9.00-4.029-9.00-9.00L0.00,9.00 c0.00-4.971, 4.029-9.00, 9.00-9.00l30.00,0.00 c 4.968,0.00, 9.00,4.029, 9.00,9.00l0.00,30.00 C 48.00,43.971, 43.968,48.00, 39.00,48.00z M 33.00,42.00L33.00,18.00 L15.00,18.00 l0.00,24.00 L33.00,42.00 z M 6.00,39.00c0.00,1.659, 1.344,3.00, 3.00,3.00l3.00,0.00 L12.00,18.00 L6.00,18.00 L6.00,39.00 z M 42.00,9.00 c0.00-1.656-1.341-3.00-3.00-3.00L9.00,6.00 C 7.344,6.00, 6.00,7.344, 6.00,9.00l0.00,6.00 l6.00,0.00 l3.00,0.00 l18.00,0.00 l3.00,0.00 l6.00,0.00 L42.00,9.00 z M 42.00,18.00l-6.00,0.00 l0.00,24.00 l3.00,0.00 c 1.659,0.00, 3.00-1.341, 3.00-3.00L42.00,18.00 z" />
    </g>
    <g transform="translate(158 1)">
        <path id="tiles" d="M 39.00,48.00L9.00,48.00 c-4.971,0.00-9.00-4.032-9.00-9.00L0.00,9.00 c0.00-4.971, 4.029-9.00, 9.00-9.00l30.00,0.00 c 4.971,0.00, 9.00,4.029, 9.00,9.00l0.00,30.00 C 48.00,43.968, 43.971,48.00, 39.00,48.00z M 42.00,9.00c0.00-1.656-1.341-3.00-3.00-3.00L9.00,6.00 C 7.344,6.00, 6.00,7.344, 6.00,9.00l0.00,30.00 c0.00,1.659, 1.344,3.00, 3.00,3.00l30.00,0.00 c 1.659,0.00, 3.00-1.341, 3.00-3.00L42.00,9.00 z M 27.00,27.00l9.00,0.00 l0.00,9.00 L27.00,36.00 L27.00,27.00 z M 30.00,33.00l3.00,0.00 l0.00,-3.00 l-3.00,0.00 L30.00,33.00 z M 27.00,12.00l9.00,0.00 l0.00,9.00 L27.00,21.00 L27.00,12.00 z M 30.00,18.00l3.00,0.00 L33.00,15.00 l-3.00,0.00 L30.00,18.00 z M 12.00,27.00l9.00,0.00 l0.00,9.00 L12.00,36.00 L12.00,27.00 z M 15.00,33.00l3.00,0.00 l0.00,-3.00 L15.00,30.00 L15.00,33.00 z M 12.00,12.00l9.00,0.00 l0.00,9.00 L12.00,21.00 L12.00,12.00 z M 15.00,18.00l3.00,0.00 L18.00,15.00 L15.00,15.00 L15.00,18.00 z" />
    </g>
    <g transform="translate(210 1)">
        <path id="donation" d="M40 0.04L40.42 0.09L40.82 0.15L41.22 0.24L41.62 0.34L42 0.46L42.38 0.59L42.76 0.75L43.12 0.91L43.47 1.1L43.82 1.3L44.15 1.51L44.48 1.74L44.79 1.98L45.09 2.23L45.38 2.5L45.66 2.78L45.93 3.07L46.18 3.37L46.42 3.68L46.65 4.01L46.86 4.34L47.06 4.69L47.25 5.04L47.41 5.4L47.57 5.78L47.7 6.16L47.82 6.54L47.92 6.94L48.01 7.34L48.07 7.74L48.12 8.16L48.15 8.58L48.16 9L48.16 39L48.15 39.42L48.12 39.84L48.07 40.26L48.01 40.66L47.92 41.06L47.82 41.46L47.7 41.84L47.57 42.22L47.41 42.6L47.25 42.96L47.06 43.31L46.86 43.66L46.65 43.99L46.42 44.32L46.18 44.63L45.93 44.93L45.66 45.22L45.38 45.5L45.09 45.77L44.79 46.02L44.48 46.26L44.15 46.49L43.82 46.7L43.47 46.9L43.12 47.09L42.76 47.25L42.38 47.41L42 47.54L41.62 47.66L41.22 47.76L40.82 47.85L40.42 47.91L40 47.96L39.58 47.99L39.16 48L9.16 48L8.74 47.99L8.32 47.96L7.9 47.91L7.5 47.85L7.1 47.76L6.7 47.66L6.32 47.54L5.94 47.41L5.56 47.25L5.2 47.09L4.85 46.9L4.5 46.7L4.17 46.49L3.84 46.26L3.53 46.02L3.23 45.77L2.94 45.5L2.66 45.22L2.39 44.93L2.14 44.63L1.9 44.32L1.67 43.99L1.46 43.66L1.26 43.31L1.07 42.96L0.91 42.6L0.75 42.22L0.62 41.84L0.5 41.46L0.4 41.06L0.31 40.66L0.25 40.26L0.2 39.84L0.17 39.42L0.16 39L0.16 9L0.17 8.58L0.2 8.16L0.25 7.74L0.31 7.34L0.4 6.94L0.5 6.54L0.62 6.16L0.75 5.78L0.91 5.4L1.07 5.04L1.26 4.69L1.46 4.34L1.67 4.01L1.9 3.68L2.14 3.37L2.39 3.07L2.66 2.78L2.94 2.5L3.23 2.23L3.53 1.98L3.84 1.74L4.17 1.51L4.5 1.3L4.85 1.1L5.2 0.91L5.56 0.75L5.94 0.59L6.32 0.46L6.7 0.34L7.1 0.24L7.5 0.15L7.9 0.09L8.32 0.04L8.74 0.01L9.16 0L39.16 0L39.58 0.01L40 0.04ZM8.98 6.01L8.8 6.02L8.62 6.05L8.45 6.09L8.28 6.13L8.11 6.19L7.95 6.25L7.8 6.33L7.64 6.41L7.5 6.5L7.36 6.6L7.23 6.71L7.1 6.82L6.98 6.94L6.86 7.07L6.76 7.2L6.66 7.34L6.57 7.49L6.49 7.64L6.41 7.79L6.35 7.95L6.29 8.12L6.24 8.29L6.21 8.46L6.18 8.64L6.17 8.82L6.16 9L6.16 39L6.17 39.18L6.18 39.36L6.21 39.54L6.24 39.71L6.29 39.88L6.35 40.05L6.41 40.21L6.49 40.36L6.57 40.52L6.66 40.66L6.76 40.8L6.86 40.93L6.98 41.06L7.1 41.18L7.23 41.3L7.36 41.4L7.5 41.5L7.64 41.59L7.8 41.67L7.95 41.75L8.11 41.81L8.28 41.87L8.45 41.92L8.62 41.95L8.8 41.98L8.98 41.99L9.16 42L39.16 42L39.34 41.99L39.52 41.98L39.7 41.95L39.87 41.92L40.04 41.87L40.21 41.81L40.37 41.75L40.52 41.67L40.68 41.59L40.82 41.5L40.96 41.4L41.09 41.3L41.22 41.18L41.34 41.06L41.46 40.93L41.56 40.8L41.66 40.66L41.75 40.52L41.83 40.36L41.91 40.21L41.97 40.05L42.03 39.88L42.07 39.71L42.11 39.54L42.14 39.36L42.15 39.18L42.16 39L42.16 9L42.06 8.78L41.96 8.57L41.86 8.37L41.76 8.18L41.65 7.99L41.55 7.81L41.44 7.65L41.34 7.49L41.23 7.33L41.12 7.19L41.01 7.05L40.91 6.93L40.79 6.81L40.68 6.7L40.57 6.59L40.46 6.5L40.35 6.41L40.23 6.33L40.12 6.26L40 6.2L39.88 6.15L39.76 6.1L39.64 6.07L39.52 6.04L39.4 6.02L39.28 6L39.16 6L9.16 6L8.98 6.01M25.53 21.86C19.57 20.72 17.65 19.54 17.65 17.7C17.65 15.58 20.29 14.09 24.74 14.09C29.42 14.09 31.15 15.74 31.31 18.17C31.89 18.17 36.53 18.17 37.11 18.17C36.94 14.82 34.17 11.77 28.68 10.77C28.68 10.49 28.68 9.07 28.68 6.52L20.8 6.52C20.8 9.03 20.8 10.43 20.8 10.71C15.71 11.54 11.61 13.97 11.61 17.73C11.61 22.21 16.64 24.45 23.95 25.75C30.53 26.91 31.83 28.61 31.83 30.44C31.83 31.77 30.56 33.91 24.74 33.91C19.33 33.91 17.19 32.11 16.92 29.83C16.34 29.83 11.7 29.83 11.12 29.83C11.45 34.08 15.75 36.46 20.8 37.27C20.8 37.55 20.8 38.95 20.8 41.48L28.68 41.48C28.68 38.98 28.68 37.58 28.68 37.31C33.79 36.58 37.88 34.39 37.88 30.4C37.88 24.9 31.49 23.02 25.53 21.86C25.53 21.86 25.53 21.86 25.53 21.86Z" />
    </g>
    <g transform="translate(262 1)">
        <path id="text" d="M39.84 0.04L40.26 0.09L40.66 0.15L41.06 0.24L41.46 0.34L41.84 0.46L42.22 0.59L42.6 0.75L42.96 0.91L43.31 1.1L43.66 1.3L43.99 1.51L44.32 1.74L44.63 1.98L44.93 2.23L45.22 2.5L45.5 2.78L45.77 3.07L46.02 3.37L46.26 3.68L46.49 4.01L46.7 4.34L46.9 4.69L47.09 5.04L47.25 5.4L47.41 5.78L47.54 6.16L47.66 6.54L47.76 6.94L47.85 7.34L47.91 7.74L47.96 8.16L47.99 8.58L48 9L48 39L47.99 39.42L47.96 39.84L47.91 40.26L47.85 40.66L47.76 41.06L47.66 41.46L47.54 41.84L47.41 42.22L47.25 42.6L47.09 42.96L46.9 43.31L46.7 43.66L46.49 43.99L46.26 44.32L46.02 44.63L45.77 44.93L45.5 45.22L45.22 45.5L44.93 45.77L44.63 46.02L44.32 46.26L43.99 46.49L43.66 46.7L43.31 46.9L42.96 47.09L42.6 47.25L42.22 47.41L41.84 47.54L41.46 47.66L41.06 47.76L40.66 47.85L40.26 47.91L39.84 47.96L39.42 47.99L39 48L9 48L8.58 47.99L8.16 47.96L7.74 47.91L7.34 47.85L6.94 47.76L6.54 47.66L6.16 47.54L5.78 47.41L5.4 47.25L5.04 47.09L4.69 46.9L4.34 46.7L4.01 46.49L3.68 46.26L3.37 46.02L3.07 45.77L2.78 45.5L2.5 45.22L2.23 44.93L1.98 44.63L1.74 44.32L1.51 43.99L1.3 43.66L1.1 43.31L0.91 42.96L0.75 42.6L0.59 42.22L0.46 41.84L0.34 41.46L0.24 41.06L0.15 40.66L0.09 40.26L0.04 39.84L0.01 39.42L0 39L0 9L0.01 8.58L0.04 8.16L0.09 7.74L0.15 7.34L0.24 6.94L0.34 6.54L0.46 6.16L0.59 5.78L0.75 5.4L0.91 5.04L1.1 4.69L1.3 4.34L1.51 4.01L1.74 3.68L1.98 3.37L2.23 3.07L2.5 2.78L2.78 2.5L3.07 2.23L3.37 1.98L3.68 1.74L4.01 1.51L4.34 1.3L4.69 1.1L5.04 0.91L5.4 0.75L5.78 0.59L6.16 0.46L6.54 0.34L6.94 0.24L7.34 0.15L7.74 0.09L8.16 0.04L8.58 0.01L9 0L39 0L39.42 0.01L39.84 0.04ZM8.82 6.01L8.64 6.02L8.46 6.05L8.29 6.09L8.12 6.13L7.95 6.19L7.79 6.25L7.64 6.33L7.48 6.41L7.34 6.5L7.2 6.6L7.07 6.71L6.94 6.82L6.82 6.94L6.7 7.07L6.6 7.2L6.5 7.34L6.41 7.49L6.33 7.64L6.25 7.79L6.19 7.95L6.13 8.12L6.08 8.29L6.05 8.46L6.02 8.64L6.01 8.82L6 9L6 39L6.01 39.18L6.02 39.36L6.05 39.54L6.08 39.71L6.13 39.88L6.19 40.05L6.25 40.21L6.33 40.36L6.41 40.52L6.5 40.66L6.6 40.8L6.7 40.93L6.82 41.06L6.94 41.18L7.07 41.3L7.2 41.4L7.34 41.5L7.48 41.59L7.64 41.67L7.79 41.75L7.95 41.81L8.12 41.87L8.29 41.92L8.46 41.95L8.64 41.98L8.82 41.99L9 42L39 42L39.18 41.99L39.36 41.98L39.54 41.95L39.71 41.92L39.88 41.87L40.05 41.81L40.21 41.75L40.36 41.67L40.52 41.59L40.66 41.5L40.8 41.4L40.93 41.3L41.06 41.18L41.18 41.06L41.3 40.93L41.4 40.8L41.5 40.66L41.59 40.52L41.67 40.36L41.75 40.21L41.81 40.05L41.87 39.88L41.92 39.71L41.95 39.54L41.98 39.36L41.99 39.18L42 39L42 9L41.9 8.78L41.8 8.57L41.7 8.37L41.6 8.18L41.49 7.99L41.39 7.81L41.28 7.65L41.18 7.49L41.07 7.33L40.96 7.19L40.85 7.05L40.75 6.93L40.63 6.81L40.52 6.7L40.41 6.59L40.3 6.5L40.19 6.41L40.07 6.33L39.96 6.26L39.84 6.2L39.72 6.15L39.6 6.1L39.48 6.07L39.36 6.04L39.24 6.02L39.12 6L39 6L9 6L8.82 6.01M10.62 14.5L21.58 14.5L21.58 34.55L17.3 34.55L17.3 38.5L30 38.5L30 34.55L26.52 34.55L26.52 14.5L37.38 14.5L37.38 9.5L10.62 9.5L10.62 14.5Z" />
    </g>
    <g transform="translate(314 1)">
        <path id="match" d="M39.84 0.04L40.26 0.09L40.66 0.15L41.06 0.24L41.46 0.34L41.84 0.46L42.22 0.59L42.6 0.75L42.96 0.91L43.31 1.1L43.66 1.3L43.99 1.51L44.32 1.74L44.63 1.98L44.93 2.23L45.22 2.5L45.5 2.78L45.77 3.07L46.02 3.37L46.26 3.68L46.49 4.01L46.7 4.34L46.9 4.69L47.09 5.04L47.25 5.4L47.41 5.78L47.54 6.16L47.66 6.54L47.76 6.94L47.85 7.34L47.91 7.74L47.96 8.16L47.99 8.58L48 9L48 39L47.99 39.42L47.96 39.84L47.91 40.26L47.85 40.66L47.76 41.06L47.66 41.46L47.54 41.84L47.41 42.22L47.25 42.6L47.09 42.96L46.9 43.31L46.7 43.66L46.49 43.99L46.26 44.32L46.02 44.63L45.77 44.93L45.5 45.22L45.22 45.5L44.93 45.77L44.63 46.02L44.32 46.26L43.99 46.49L43.66 46.7L43.31 46.9L42.96 47.09L42.6 47.25L42.22 47.41L41.84 47.54L41.46 47.66L41.06 47.76L40.66 47.85L40.26 47.91L39.84 47.96L39.42 47.99L39 48L9 48L8.58 47.99L8.16 47.96L7.74 47.91L7.34 47.85L6.94 47.76L6.54 47.66L6.16 47.54L5.78 47.41L5.4 47.25L5.04 47.09L4.69 46.9L4.34 46.7L4.01 46.49L3.68 46.26L3.37 46.02L3.07 45.77L2.78 45.5L2.5 45.22L2.23 44.93L1.98 44.63L1.74 44.32L1.51 43.99L1.3 43.66L1.1 43.31L0.91 42.96L0.75 42.6L0.59 42.22L0.46 41.84L0.34 41.46L0.24 41.06L0.15 40.66L0.09 40.26L0.04 39.84L0.01 39.42L0 39L0 9L0.01 8.58L0.04 8.16L0.09 7.74L0.15 7.34L0.24 6.94L0.34 6.54L0.46 6.16L0.59 5.78L0.75 5.4L0.91 5.04L1.1 4.69L1.3 4.34L1.51 4.01L1.74 3.68L1.98 3.37L2.23 3.07L2.5 2.78L2.78 2.5L3.07 2.23L3.37 1.98L3.68 1.74L4.01 1.51L4.34 1.3L4.69 1.1L5.04 0.91L5.4 0.75L5.78 0.59L6.16 0.46L6.54 0.34L6.94 0.24L7.34 0.15L7.74 0.09L8.16 0.04L8.58 0.01L9 0L39 0L39.42 0.01L39.84 0.04ZM8.82 6.01L8.64 6.02L8.46 6.05L8.29 6.09L8.12 6.13L7.95 6.19L7.79 6.25L7.64 6.33L7.48 6.41L7.34 6.5L7.2 6.6L7.07 6.71L6.94 6.82L6.82 6.94L6.7 7.07L6.6 7.2L6.5 7.34L6.41 7.49L6.33 7.64L6.25 7.79L6.19 7.95L6.13 8.12L6.08 8.29L6.05 8.46L6.02 8.64L6.01 8.82L6 9L6 39L6.01 39.18L6.02 39.36L6.05 39.54L6.08 39.71L6.13 39.88L6.19 40.05L6.25 40.21L6.33 40.36L6.41 40.52L6.5 40.66L6.6 40.8L6.7 40.93L6.82 41.06L6.94 41.18L7.07 41.3L7.2 41.4L7.34 41.5L7.48 41.59L7.64 41.67L7.79 41.75L7.95 41.81L8.12 41.87L8.29 41.92L8.46 41.95L8.64 41.98L8.82 41.99L9 42L39 42L39.18 41.99L39.36 41.98L39.54 41.95L39.71 41.92L39.88 41.87L40.05 41.81L40.21 41.75L40.36 41.67L40.52 41.59L40.66 41.5L40.8 41.4L40.93 41.3L41.06 41.18L41.18 41.06L41.3 40.93L41.4 40.8L41.5 40.66L41.59 40.52L41.67 40.36L41.75 40.21L41.81 40.05L41.87 39.88L41.92 39.71L41.95 39.54L41.98 39.36L41.99 39.18L42 39L42 9L41.9 8.78L41.8 8.57L41.7 8.37L41.6 8.18L41.49 7.99L41.39 7.81L41.28 7.65L41.18 7.49L41.07 7.33L40.96 7.19L40.85 7.05L40.75 6.93L40.63 6.81L40.52 6.7L40.41 6.59L40.3 6.5L40.19 6.41L40.07 6.33L39.96 6.26L39.84 6.2L39.72 6.15L39.6 6.1L39.48 6.07L39.36 6.04L39.24 6.02L39.12 6L39 6L9 6L8.82 6.01M26.64 8.72L27.91 9L29.14 9.37L30.32 9.84L31.46 10.41L32.54 11.06L33.55 11.79L34.51 12.61L35.39 13.49L36.21 14.45L36.94 15.46L37.59 16.54L38.16 17.68L38.63 18.86L39 20.09L39.28 21.36L39.44 22.66L39.5 24L39.44 25.34L39.28 26.64L39 27.91L38.63 29.14L38.16 30.32L37.59 31.46L36.94 32.54L36.21 33.55L35.39 34.51L34.51 35.39L33.55 36.21L32.54 36.94L31.46 37.59L30.32 38.16L29.14 38.63L27.91 39L26.64 39.28L25.34 39.44L24 39.5L22.97 39.47L21.96 39.37L20.97 39.2L20 38.98L19.06 38.7L18.14 38.35L17.25 37.96L16.39 37.51L15.57 37.01L14.78 36.46L14.02 35.86L13.31 35.22L12.63 34.53L12 33.81L11.42 33.05L10.88 32.25L10.39 31.41L9.95 30.55L9.57 29.65L9.48 29.55L9.49 29.45L9.39 29.18L9.3 28.91L9.21 28.63L9.12 28.36L9.04 28.08L8.97 27.8L8.9 27.52L8.84 27.24L8.78 26.95L8.73 26.66L8.68 26.37L8.64 26.08L8.6 25.79L8.57 25.5L8.55 25.2L8.53 24.9L8.51 24.6L8.5 24.3L8.5 24L8.56 22.66L8.72 21.36L9 20.09L9.37 18.86L9.84 17.68L10.41 16.54L11.06 15.46L11.79 14.45L12.61 13.49L13.49 12.61L14.45 11.79L15.46 11.06L16.54 10.41L17.68 9.84L18.86 9.37L20.09 9L21.36 8.72L22.66 8.56L24 8.5L25.34 8.56L26.64 8.72ZM22.99 9.34L22.5 9.38L22 9.44L21.52 9.52L21.04 9.61L20.56 9.72L20.09 9.84L19.63 9.97L19.17 10.13L18.72 10.29L18.28 10.47L17.84 10.67L17.41 10.87L16.99 11.1L16.58 11.33L16.17 11.58L15.78 11.84L15.39 12.11L15.01 12.39L14.06 13.92L10.39 18.46L10.29 18.72L10.19 18.98L10.1 19.24L10.01 19.51L9.93 19.78L9.85 20.04L9.78 20.32L9.71 20.59L9.65 20.86L9.59 21.14L9.54 21.42L9.49 21.7L9.45 21.98L9.41 22.26L9.38 22.55L9.35 22.84L9.33 23.13L9.32 23.42L9.31 23.71L9.31 24L9.31 24.14L9.31 24.28L9.31 24.42L9.32 24.56L9.33 24.7L9.33 24.84L9.34 24.98L9.35 25.12L9.36 25.26L9.38 25.4L9.39 25.53L9.41 25.67L9.42 25.81L9.44 25.94L9.46 26.08L9.48 26.22L9.5 26.35L9.52 26.49L9.55 26.62L9.57 26.75L9.67 23.63L13.93 25.09L16.65 32.11L13.8 34.56L14.2 34.93L14.62 35.29L15.05 35.64L15.49 35.97L15.95 36.28L16.42 36.58L16.9 36.86L17.39 37.12L17.89 37.36L18.41 37.58L18.93 37.79L19.46 37.97L20 38.14L20.55 38.28L21.11 38.4L21.67 38.51L22.24 38.59L22.82 38.64L23.41 38.68L24 38.69L25.18 38.64L26.34 38.51L27.47 38.28L28.56 37.97L29.62 37.57L30.64 37.11L31.61 36.56L32.54 35.95L33.41 35.27L34.24 34.53L35 33.72L35.7 32.87L36.34 31.96L36.91 31L37.41 30L37.83 28.95L38.17 27.87L38.43 26.75L38.6 25.61L38.68 24.44L37.16 24.05L34.79 17.35L35.39 14.73L35.16 14.45L34.91 14.17L34.66 13.9L34.4 13.64L34.14 13.38L33.87 13.13L33.59 12.88L33.31 12.65L33.02 12.42L32.73 12.19L32.43 11.98L32.12 11.77L31.81 11.57L31.5 11.37L31.18 11.19L30.85 11.01L30.52 10.84L30.18 10.68L29.84 10.52L29.5 10.38L25.88 9.92L24.24 9.31L24.23 9.31L24.22 9.31L24.19 9.31L24.18 9.31L24.16 9.31L24.1 9.31L24.07 9.31L24.05 9.31L24.02 9.31L24.01 9.31L24 9.31L23.49 9.32L22.99 9.34ZM33.25 34.77L26.61 37.61L22.8 33.65L27.74 28.09L34.33 28.91L33.25 34.77ZM25.5 21.6L17.77 20.13L17.53 13.48L24.59 10.94L29.65 15.65L25.5 21.6Z" />
    </g>

    <g transform="translate(2 50)">
        <path id="connections" d="M39.84 0.04L40.26 0.09L40.66 0.15L41.06 0.24L41.46 0.34L41.84 0.46L42.22 0.59L42.6 0.75L42.96 0.91L43.31 1.1L43.66 1.3L43.99 1.51L44.32 1.74L44.63 1.98L44.93 2.23L45.22 2.5L45.5 2.78L45.77 3.07L46.02 3.37L46.26 3.68L46.49 4.01L46.7 4.34L46.9 4.69L47.09 5.04L47.25 5.4L47.41 5.78L47.54 6.16L47.66 6.54L47.76 6.94L47.85 7.34L47.91 7.74L47.96 8.16L47.99 8.58L48 9L48 39L47.99 39.42L47.96 39.84L47.91 40.26L47.85 40.66L47.76 41.06L47.66 41.46L47.54 41.84L47.41 42.22L47.25 42.6L47.09 42.96L46.9 43.31L46.7 43.66L46.49 43.99L46.26 44.32L46.02 44.63L45.77 44.93L45.5 45.22L45.22 45.5L44.93 45.77L44.63 46.02L44.32 46.26L43.99 46.49L43.66 46.7L43.31 46.9L42.96 47.09L42.6 47.25L42.22 47.41L41.84 47.54L41.46 47.66L41.06 47.76L40.66 47.85L40.26 47.91L39.84 47.96L39.42 47.99L39 48L9 48L8.58 47.99L8.16 47.96L7.74 47.91L7.34 47.85L6.94 47.76L6.54 47.66L6.16 47.54L5.78 47.41L5.4 47.25L5.04 47.09L4.69 46.9L4.34 46.7L4.01 46.49L3.68 46.26L3.37 46.02L3.07 45.77L2.78 45.5L2.5 45.22L2.23 44.93L1.98 44.63L1.74 44.32L1.51 43.99L1.3 43.66L1.1 43.31L0.91 42.96L0.75 42.6L0.59 42.22L0.46 41.84L0.34 41.46L0.24 41.06L0.15 40.66L0.09 40.26L0.04 39.84L0.01 39.42L0 39L0 9L0.01 8.58L0.04 8.16L0.09 7.74L0.15 7.34L0.24 6.94L0.34 6.54L0.46 6.16L0.59 5.78L0.75 5.4L0.91 5.04L1.1 4.69L1.3 4.34L1.51 4.01L1.74 3.68L1.98 3.37L2.23 3.07L2.5 2.78L2.78 2.5L3.07 2.23L3.37 1.98L3.68 1.74L4.01 1.51L4.34 1.3L4.69 1.1L5.04 0.91L5.4 0.75L5.78 0.59L6.16 0.46L6.54 0.34L6.94 0.24L7.34 0.15L7.74 0.09L8.16 0.04L8.58 0.01L9 0L39 0L39.42 0.01L39.84 0.04ZM8.82 6.01L8.64 6.02L8.46 6.05L8.29 6.09L8.12 6.13L7.95 6.19L7.79 6.25L7.64 6.33L7.48 6.41L7.34 6.5L7.2 6.6L7.07 6.71L6.94 6.82L6.82 6.94L6.7 7.07L6.6 7.2L6.5 7.34L6.41 7.49L6.33 7.64L6.25 7.79L6.19 7.95L6.13 8.12L6.08 8.29L6.05 8.46L6.02 8.64L6.01 8.82L6 9L6 39L6.01 39.18L6.02 39.36L6.05 39.54L6.08 39.71L6.13 39.88L6.19 40.05L6.25 40.21L6.33 40.36L6.41 40.52L6.5 40.66L6.6 40.8L6.7 40.93L6.82 41.06L6.94 41.18L7.07 41.3L7.2 41.4L7.34 41.5L7.48 41.59L7.64 41.67L7.79 41.75L7.95 41.81L8.12 41.87L8.29 41.92L8.46 41.95L8.64 41.98L8.82 41.99L9 42L39 42L39.18 41.99L39.36 41.98L39.54 41.95L39.71 41.92L39.88 41.87L40.05 41.81L40.21 41.75L40.36 41.67L40.52 41.59L40.66 41.5L40.8 41.4L40.93 41.3L41.06 41.18L41.18 41.06L41.3 40.93L41.4 40.8L41.5 40.66L41.59 40.52L41.67 40.36L41.75 40.21L41.81 40.05L41.87 39.88L41.92 39.71L41.95 39.54L41.98 39.36L41.99 39.18L42 39L42 9L41.9 8.78L41.8 8.57L41.7 8.37L41.6 8.18L41.49 7.99L41.39 7.81L41.28 7.65L41.18 7.49L41.07 7.33L40.96 7.19L40.85 7.05L40.75 6.93L40.63 6.81L40.52 6.7L40.41 6.59L40.3 6.5L40.19 6.41L40.07 6.33L39.96 6.26L39.84 6.2L39.72 6.15L39.6 6.1L39.48 6.07L39.36 6.04L39.24 6.02L39.12 6L39 6L9 6L8.82 6.01Z M33.42 17.48L33.42 12L28.96 12L28.96 17.48L20.04 17.48L20.04 12L15.58 12C15.58 15.29 15.58 17.12 15.58 17.48C13.35 17.48 11.12 18.86 11.12 20.23C11.12 20.73 11.12 23.24 11.12 27.77L18.93 32.57L18.93 36.68L30.07 36.68L30.07 32.57L37.88 27.77C37.88 23.24 37.88 20.73 37.88 20.23C37.88 18.86 35.65 17.48 33.42 17.48M26.93 30.64L25.99 31.2L23.01 31.2L22.09 30.64L15.58 26.63C15.58 22.86 15.58 20.77 15.58 20.35C15.58 20.31 15.72 20.23 15.78 20.23C17.53 20.23 31.49 20.23 33.24 20.23C33.31 20.23 33.42 20.31 33.42 20.35C33.42 20.77 33.42 22.86 33.42 26.63L26.93 30.64Z" />
    </g>

    <g transform="translate(54 50)">
        <path id="chart" d="M39.84 0.04L40.26 0.09L40.66 0.15L41.06 0.24L41.46 0.34L41.84 0.46L42.22 0.59L42.6 0.75L42.96 0.91L43.31 1.1L43.66 1.3L43.99 1.51L44.32 1.74L44.63 1.98L44.93 2.23L45.22 2.5L45.5 2.78L45.77 3.07L46.02 3.37L46.26 3.68L46.49 4.01L46.7 4.34L46.9 4.69L47.09 5.04L47.25 5.4L47.41 5.78L47.54 6.16L47.66 6.54L47.76 6.94L47.85 7.34L47.91 7.74L47.96 8.16L47.99 8.58L48 9L48 39L47.99 39.42L47.96 39.84L47.91 40.26L47.85 40.66L47.76 41.06L47.66 41.46L47.54 41.84L47.41 42.22L47.25 42.6L47.09 42.96L46.9 43.31L46.7 43.66L46.49 43.99L46.26 44.32L46.02 44.63L45.77 44.93L45.5 45.22L45.22 45.5L44.93 45.77L44.63 46.02L44.32 46.26L43.99 46.49L43.66 46.7L43.31 46.9L42.96 47.09L42.6 47.25L42.22 47.41L41.84 47.54L41.46 47.66L41.06 47.76L40.66 47.85L40.26 47.91L39.84 47.96L39.42 47.99L39 48L9 48L8.58 47.99L8.16 47.96L7.74 47.91L7.34 47.85L6.94 47.76L6.54 47.66L6.16 47.54L5.78 47.41L5.4 47.25L5.04 47.09L4.69 46.9L4.34 46.7L4.01 46.49L3.68 46.26L3.37 46.02L3.07 45.77L2.78 45.5L2.5 45.22L2.23 44.93L1.98 44.63L1.74 44.32L1.51 43.99L1.3 43.66L1.1 43.31L0.91 42.96L0.75 42.6L0.59 42.22L0.46 41.84L0.34 41.46L0.24 41.06L0.15 40.66L0.09 40.26L0.04 39.84L0.01 39.42L0 39L0 9L0.01 8.58L0.04 8.16L0.09 7.74L0.15 7.34L0.24 6.94L0.34 6.54L0.46 6.16L0.59 5.78L0.75 5.4L0.91 5.04L1.1 4.69L1.3 4.34L1.51 4.01L1.74 3.68L1.98 3.37L2.23 3.07L2.5 2.78L2.78 2.5L3.07 2.23L3.37 1.98L3.68 1.74L4.01 1.51L4.34 1.3L4.69 1.1L5.04 0.91L5.4 0.75L5.78 0.59L6.16 0.46L6.54 0.34L6.94 0.24L7.34 0.15L7.74 0.09L8.16 0.04L8.58 0.01L9 0L39 0L39.42 0.01L39.84 0.04ZM8.82 6.01L8.64 6.02L8.46 6.05L8.29 6.09L8.12 6.13L7.95 6.19L7.79 6.25L7.64 6.33L7.48 6.41L7.34 6.5L7.2 6.6L7.07 6.71L6.94 6.82L6.82 6.94L6.7 7.07L6.6 7.2L6.5 7.34L6.41 7.49L6.33 7.64L6.25 7.79L6.19 7.95L6.13 8.12L6.08 8.29L6.05 8.46L6.02 8.64L6.01 8.82L6 9L6 39L6.01 39.18L6.02 39.36L6.05 39.54L6.08 39.71L6.13 39.88L6.19 40.05L6.25 40.21L6.33 40.36L6.41 40.52L6.5 40.66L6.6 40.8L6.7 40.93L6.82 41.06L6.94 41.18L7.07 41.3L7.2 41.4L7.34 41.5L7.48 41.59L7.64 41.67L7.79 41.75L7.95 41.81L8.12 41.87L8.29 41.92L8.46 41.95L8.64 41.98L8.82 41.99L9 42L39 42L39.18 41.99L39.36 41.98L39.54 41.95L39.71 41.92L39.88 41.87L40.05 41.81L40.21 41.75L40.36 41.67L40.52 41.59L40.66 41.5L40.8 41.4L40.93 41.3L41.06 41.18L41.18 41.06L41.3 40.93L41.4 40.8L41.5 40.66L41.59 40.52L41.67 40.36L41.75 40.21L41.81 40.05L41.87 39.88L41.92 39.71L41.95 39.54L41.98 39.36L41.99 39.18L42 39L42 9L41.9 8.78L41.8 8.57L41.7 8.37L41.6 8.18L41.49 7.99L41.39 7.81L41.28 7.65L41.18 7.49L41.07 7.33L40.96 7.19L40.85 7.05L40.75 6.93L40.63 6.81L40.52 6.7L40.41 6.59L40.3 6.5L40.19 6.41L40.07 6.33L39.96 6.26L39.84 6.2L39.72 6.15L39.6 6.1L39.48 6.07L39.36 6.04L39.24 6.02L39.12 6L39 6L9 6L8.82 6.01Z M16.07 25.81C16.07 24.81 15.39 24 14.56 24C14.1 24 10.47 24 10.01 24C9.18 24 8.5 24.81 8.5 25.81C8.5 26.66 8.5 30.89 8.5 38.5L16.07 38.5C16.07 31.73 16.07 27.5 16.07 25.81ZM26.85 18.56C26.85 17.56 26.18 16.75 25.34 16.75C24.89 16.75 21.25 16.75 20.8 16.75C19.96 16.75 19.29 17.56 19.29 18.56C19.29 19.89 19.29 26.54 19.29 38.5L26.85 38.5C26.85 27.87 26.85 21.22 26.85 18.56ZM38.21 11.31C38.21 10.31 37.53 9.5 36.69 9.5C36.24 9.5 32.61 9.5 32.15 9.5C31.32 9.5 30.64 10.31 30.64 11.31C30.64 13.12 30.64 22.19 30.64 38.5L38.21 38.5C38.21 24 38.21 14.94 38.21 11.31Z"/>
    </g>
    <g transform="translate(106 50)">
        <path id="history" d="M39.84 0.04L40.26 0.09L40.66 0.15L41.06 0.24L41.46 0.34L41.84 0.46L42.22 0.59L42.6 0.75L42.96 0.91L43.31 1.1L43.66 1.3L43.99 1.51L44.32 1.74L44.63 1.98L44.93 2.23L45.22 2.5L45.5 2.78L45.77 3.07L46.02 3.37L46.26 3.68L46.49 4.01L46.7 4.34L46.9 4.69L47.09 5.04L47.25 5.4L47.41 5.78L47.54 6.16L47.66 6.54L47.76 6.94L47.85 7.34L47.91 7.74L47.96 8.16L47.99 8.58L48 9L48 39L47.99 39.42L47.96 39.84L47.91 40.26L47.85 40.66L47.76 41.06L47.66 41.46L47.54 41.84L47.41 42.22L47.25 42.6L47.09 42.96L46.9 43.31L46.7 43.66L46.49 43.99L46.26 44.32L46.02 44.63L45.77 44.93L45.5 45.22L45.22 45.5L44.93 45.77L44.63 46.02L44.32 46.26L43.99 46.49L43.66 46.7L43.31 46.9L42.96 47.09L42.6 47.25L42.22 47.41L41.84 47.54L41.46 47.66L41.06 47.76L40.66 47.85L40.26 47.91L39.84 47.96L39.42 47.99L39 48L9 48L8.58 47.99L8.16 47.96L7.74 47.91L7.34 47.85L6.94 47.76L6.54 47.66L6.16 47.54L5.78 47.41L5.4 47.25L5.04 47.09L4.69 46.9L4.34 46.7L4.01 46.49L3.68 46.26L3.37 46.02L3.07 45.77L2.78 45.5L2.5 45.22L2.23 44.93L1.98 44.63L1.74 44.32L1.51 43.99L1.3 43.66L1.1 43.31L0.91 42.96L0.75 42.6L0.59 42.22L0.46 41.84L0.34 41.46L0.24 41.06L0.15 40.66L0.09 40.26L0.04 39.84L0.01 39.42L0 39L0 9L0.01 8.58L0.04 8.16L0.09 7.74L0.15 7.34L0.24 6.94L0.34 6.54L0.46 6.16L0.59 5.78L0.75 5.4L0.91 5.04L1.1 4.69L1.3 4.34L1.51 4.01L1.74 3.68L1.98 3.37L2.23 3.07L2.5 2.78L2.78 2.5L3.07 2.23L3.37 1.98L3.68 1.74L4.01 1.51L4.34 1.3L4.69 1.1L5.04 0.91L5.4 0.75L5.78 0.59L6.16 0.46L6.54 0.34L6.94 0.24L7.34 0.15L7.74 0.09L8.16 0.04L8.58 0.01L9 0L39 0L39.42 0.01L39.84 0.04ZM8.82 6.01L8.64 6.02L8.46 6.05L8.29 6.09L8.12 6.13L7.95 6.19L7.79 6.25L7.64 6.33L7.48 6.41L7.34 6.5L7.2 6.6L7.07 6.71L6.94 6.82L6.82 6.94L6.7 7.07L6.6 7.2L6.5 7.34L6.41 7.49L6.33 7.64L6.25 7.79L6.19 7.95L6.13 8.12L6.08 8.29L6.05 8.46L6.02 8.64L6.01 8.82L6 9L6 39L6.01 39.18L6.02 39.36L6.05 39.54L6.08 39.71L6.13 39.88L6.19 40.05L6.25 40.21L6.33 40.36L6.41 40.52L6.5 40.66L6.6 40.8L6.7 40.93L6.82 41.06L6.94 41.18L7.07 41.3L7.2 41.4L7.34 41.5L7.48 41.59L7.64 41.67L7.79 41.75L7.95 41.81L8.12 41.87L8.29 41.92L8.46 41.95L8.64 41.98L8.82 41.99L9 42L39 42L39.18 41.99L39.36 41.98L39.54 41.95L39.71 41.92L39.88 41.87L40.05 41.81L40.21 41.75L40.36 41.67L40.52 41.59L40.66 41.5L40.8 41.4L40.93 41.3L41.06 41.18L41.18 41.06L41.3 40.93L41.4 40.8L41.5 40.66L41.59 40.52L41.67 40.36L41.75 40.21L41.81 40.05L41.87 39.88L41.92 39.71L41.95 39.54L41.98 39.36L41.99 39.18L42 39L42 9L41.9 8.78L41.8 8.57L41.7 8.37L41.6 8.18L41.49 7.99L41.39 7.81L41.28 7.65L41.18 7.49L41.07 7.33L40.96 7.19L40.85 7.05L40.75 6.93L40.63 6.81L40.52 6.7L40.41 6.59L40.3 6.5L40.19 6.41L40.07 6.33L39.96 6.26L39.84 6.2L39.72 6.15L39.6 6.1L39.48 6.07L39.36 6.04L39.24 6.02L39.12 6L39 6L9 6L8.82 6.01Z M32.22 33.43L24 30.19L15.78 33.43L15.78 14.11L32.22 14.11M15.78 11.13C13.97 11.13 12.49 12.46 12.49 14.11C12.49 15.69 12.49 23.62 12.49 37.88L24 33.43L35.51 37.88C35.51 23.62 35.51 15.69 35.51 14.11C35.51 12.46 34.03 11.13 32.22 11.13C28.93 11.13 17.42 11.13 15.78 11.13Z"/>
    </g>
    <g transform="translate(158 50)">
        <path id="dialogs" d="M39.84 0.04L40.26 0.09L40.66 0.15L41.06 0.24L41.46 0.34L41.84 0.46L42.22 0.59L42.6 0.75L42.96 0.91L43.31 1.1L43.66 1.3L43.99 1.51L44.32 1.74L44.63 1.98L44.93 2.23L45.22 2.5L45.5 2.78L45.77 3.07L46.02 3.37L46.26 3.68L46.49 4.01L46.7 4.34L46.9 4.69L47.09 5.04L47.25 5.4L47.41 5.78L47.54 6.16L47.66 6.54L47.76 6.94L47.85 7.34L47.91 7.74L47.96 8.16L47.99 8.58L48 9L48 39L47.99 39.42L47.96 39.84L47.91 40.26L47.85 40.66L47.76 41.06L47.66 41.46L47.54 41.84L47.41 42.22L47.25 42.6L47.09 42.96L46.9 43.31L46.7 43.66L46.49 43.99L46.26 44.32L46.02 44.63L45.77 44.93L45.5 45.22L45.22 45.5L44.93 45.77L44.63 46.02L44.32 46.26L43.99 46.49L43.66 46.7L43.31 46.9L42.96 47.09L42.6 47.25L42.22 47.41L41.84 47.54L41.46 47.66L41.06 47.76L40.66 47.85L40.26 47.91L39.84 47.96L39.42 47.99L39 48L9 48L8.58 47.99L8.16 47.96L7.74 47.91L7.34 47.85L6.94 47.76L6.54 47.66L6.16 47.54L5.78 47.41L5.4 47.25L5.04 47.09L4.69 46.9L4.34 46.7L4.01 46.49L3.68 46.26L3.37 46.02L3.07 45.77L2.78 45.5L2.5 45.22L2.23 44.93L1.98 44.63L1.74 44.32L1.51 43.99L1.3 43.66L1.1 43.31L0.91 42.96L0.75 42.6L0.59 42.22L0.46 41.84L0.34 41.46L0.24 41.06L0.15 40.66L0.09 40.26L0.04 39.84L0.01 39.42L0 39L0 9L0.01 8.58L0.04 8.16L0.09 7.74L0.15 7.34L0.24 6.94L0.34 6.54L0.46 6.16L0.59 5.78L0.75 5.4L0.91 5.04L1.1 4.69L1.3 4.34L1.51 4.01L1.74 3.68L1.98 3.37L2.23 3.07L2.5 2.78L2.78 2.5L3.07 2.23L3.37 1.98L3.68 1.74L4.01 1.51L4.34 1.3L4.69 1.1L5.04 0.91L5.4 0.75L5.78 0.59L6.16 0.46L6.54 0.34L6.94 0.24L7.34 0.15L7.74 0.09L8.16 0.04L8.58 0.01L9 0L39 0L39.42 0.01L39.84 0.04ZM8.82 6.01L8.64 6.02L8.46 6.05L8.29 6.09L8.12 6.13L7.95 6.19L7.79 6.25L7.64 6.33L7.48 6.41L7.34 6.5L7.2 6.6L7.07 6.71L6.94 6.82L6.82 6.94L6.7 7.07L6.6 7.2L6.5 7.34L6.41 7.49L6.33 7.64L6.25 7.79L6.19 7.95L6.13 8.12L6.08 8.29L6.05 8.46L6.02 8.64L6.01 8.82L6 9L6 39L6.01 39.18L6.02 39.36L6.05 39.54L6.08 39.71L6.13 39.88L6.19 40.05L6.25 40.21L6.33 40.36L6.41 40.52L6.5 40.66L6.6 40.8L6.7 40.93L6.82 41.06L6.94 41.18L7.07 41.3L7.2 41.4L7.34 41.5L7.48 41.59L7.64 41.67L7.79 41.75L7.95 41.81L8.12 41.87L8.29 41.92L8.46 41.95L8.64 41.98L8.82 41.99L9 42L39 42L39.18 41.99L39.36 41.98L39.54 41.95L39.71 41.92L39.88 41.87L40.05 41.81L40.21 41.75L40.36 41.67L40.52 41.59L40.66 41.5L40.8 41.4L40.93 41.3L41.06 41.18L41.18 41.06L41.3 40.93L41.4 40.8L41.5 40.66L41.59 40.52L41.67 40.36L41.75 40.21L41.81 40.05L41.87 39.88L41.92 39.71L41.95 39.54L41.98 39.36L41.99 39.18L42 39L42 9L41.9 8.78L41.8 8.57L41.7 8.37L41.6 8.18L41.49 7.99L41.39 7.81L41.28 7.65L41.18 7.49L41.07 7.33L40.96 7.19L40.85 7.05L40.75 6.93L40.63 6.81L40.52 6.7L40.41 6.59L40.3 6.5L40.19 6.41L40.07 6.33L39.96 6.26L39.84 6.2L39.72 6.15L39.6 6.1L39.48 6.07L39.36 6.04L39.24 6.02L39.12 6L39 6L9 6L8.82 6.01Z M11.47 24.13C11.47 26.47 12.08 28.76 13.24 30.78C13.07 31.32 11.69 35.6 11.52 36.13C11.4 36.51 11.5 36.92 11.77 37.19C12.05 37.47 12.46 37.57 12.83 37.45C13.37 37.28 17.65 35.9 18.18 35.73C20.21 36.89 22.5 37.5 24.84 37.5C32.23 37.5 38.22 31.52 38.22 24.13C38.22 16.73 32.24 10.75 24.84 10.75C17.45 10.75 11.47 16.73 11.47 24.13ZM18.87 33.7C18.61 33.54 18.29 33.5 18 33.59C17.74 33.67 16.45 34.09 14.13 34.84C14.88 32.52 15.29 31.23 15.38 30.97C15.47 30.68 15.43 30.36 15.27 30.1C14.15 28.31 13.56 26.24 13.56 24.13C13.56 17.9 18.62 12.84 24.84 12.84C31.07 12.84 36.13 17.9 36.13 24.13C36.13 30.35 31.07 35.41 24.84 35.41C22.72 35.41 20.66 34.82 18.87 33.7ZM24.84 25.43C24.12 25.43 23.54 24.85 23.54 24.13C23.54 23.4 24.12 22.82 24.84 22.82C25.56 22.82 26.15 23.4 26.15 24.13C26.15 24.85 25.56 25.43 24.84 25.43ZM30.07 25.43C29.35 25.43 28.76 24.85 28.76 24.13C28.76 23.4 29.35 22.82 30.07 22.82C30.79 22.82 31.37 23.4 31.37 24.13C31.37 24.85 30.79 25.43 30.07 25.43ZM19.62 25.43C18.9 25.43 18.31 24.85 18.31 24.13C18.31 23.4 18.9 22.82 19.62 22.82C20.34 22.82 20.92 23.4 20.92 24.13C20.92 24.85 20.34 25.43 19.62 25.43Z" />
    </g>
    <g transform="translate(210 50)">
        <path id="mailing" d="M39.84 0.04L40.26 0.09L40.66 0.15L41.06 0.24L41.46 0.34L41.84 0.46L42.22 0.59L42.6 0.75L42.96 0.91L43.31 1.1L43.66 1.3L43.99 1.51L44.32 1.74L44.63 1.98L44.93 2.23L45.22 2.5L45.5 2.78L45.77 3.07L46.02 3.37L46.26 3.68L46.49 4.01L46.7 4.34L46.9 4.69L47.09 5.04L47.25 5.4L47.41 5.78L47.54 6.16L47.66 6.54L47.76 6.94L47.85 7.34L47.91 7.74L47.96 8.16L47.99 8.58L48 9L48 39L47.99 39.42L47.96 39.84L47.91 40.26L47.85 40.66L47.76 41.06L47.66 41.46L47.54 41.84L47.41 42.22L47.25 42.6L47.09 42.96L46.9 43.31L46.7 43.66L46.49 43.99L46.26 44.32L46.02 44.63L45.77 44.93L45.5 45.22L45.22 45.5L44.93 45.77L44.63 46.02L44.32 46.26L43.99 46.49L43.66 46.7L43.31 46.9L42.96 47.09L42.6 47.25L42.22 47.41L41.84 47.54L41.46 47.66L41.06 47.76L40.66 47.85L40.26 47.91L39.84 47.96L39.42 47.99L39 48L9 48L8.58 47.99L8.16 47.96L7.74 47.91L7.34 47.85L6.94 47.76L6.54 47.66L6.16 47.54L5.78 47.41L5.4 47.25L5.04 47.09L4.69 46.9L4.34 46.7L4.01 46.49L3.68 46.26L3.37 46.02L3.07 45.77L2.78 45.5L2.5 45.22L2.23 44.93L1.98 44.63L1.74 44.32L1.51 43.99L1.3 43.66L1.1 43.31L0.91 42.96L0.75 42.6L0.59 42.22L0.46 41.84L0.34 41.46L0.24 41.06L0.15 40.66L0.09 40.26L0.04 39.84L0.01 39.42L0 39L0 9L0.01 8.58L0.04 8.16L0.09 7.74L0.15 7.34L0.24 6.94L0.34 6.54L0.46 6.16L0.59 5.78L0.75 5.4L0.91 5.04L1.1 4.69L1.3 4.34L1.51 4.01L1.74 3.68L1.98 3.37L2.23 3.07L2.5 2.78L2.78 2.5L3.07 2.23L3.37 1.98L3.68 1.74L4.01 1.51L4.34 1.3L4.69 1.1L5.04 0.91L5.4 0.75L5.78 0.59L6.16 0.46L6.54 0.34L6.94 0.24L7.34 0.15L7.74 0.09L8.16 0.04L8.58 0.01L9 0L39 0L39.42 0.01L39.84 0.04ZM8.82 6.01L8.64 6.02L8.46 6.05L8.29 6.09L8.12 6.13L7.95 6.19L7.79 6.25L7.64 6.33L7.48 6.41L7.34 6.5L7.2 6.6L7.07 6.71L6.94 6.82L6.82 6.94L6.7 7.07L6.6 7.2L6.5 7.34L6.41 7.49L6.33 7.64L6.25 7.79L6.19 7.95L6.13 8.12L6.08 8.29L6.05 8.46L6.02 8.64L6.01 8.82L6 9L6 39L6.01 39.18L6.02 39.36L6.05 39.54L6.08 39.71L6.13 39.88L6.19 40.05L6.25 40.21L6.33 40.36L6.41 40.52L6.5 40.66L6.6 40.8L6.7 40.93L6.82 41.06L6.94 41.18L7.07 41.3L7.2 41.4L7.34 41.5L7.48 41.59L7.64 41.67L7.79 41.75L7.95 41.81L8.12 41.87L8.29 41.92L8.46 41.95L8.64 41.98L8.82 41.99L9 42L39 42L39.18 41.99L39.36 41.98L39.54 41.95L39.71 41.92L39.88 41.87L40.05 41.81L40.21 41.75L40.36 41.67L40.52 41.59L40.66 41.5L40.8 41.4L40.93 41.3L41.06 41.18L41.18 41.06L41.3 40.93L41.4 40.8L41.5 40.66L41.59 40.52L41.67 40.36L41.75 40.21L41.81 40.05L41.87 39.88L41.92 39.71L41.95 39.54L41.98 39.36L41.99 39.18L42 39L42 9L41.9 8.78L41.8 8.57L41.7 8.37L41.6 8.18L41.49 7.99L41.39 7.81L41.28 7.65L41.18 7.49L41.07 7.33L40.96 7.19L40.85 7.05L40.75 6.93L40.63 6.81L40.52 6.7L40.41 6.59L40.3 6.5L40.19 6.41L40.07 6.33L39.96 6.26L39.84 6.2L39.72 6.15L39.6 6.1L39.48 6.07L39.36 6.04L39.24 6.02L39.12 6L39 6L9 6L8.82 6.01Z M27.43 19.27C27.78 14.24 27.98 11.45 28.02 10.9C27.31 10.89 27 11.25 26.62 11.69C26.4 11.94 25.27 13.2 23.25 15.46C19.15 11.78 16.88 9.73 16.42 9.32C15.17 8.46 14.27 8.9 13.91 10.69C13.59 12.38 11.98 20.85 9.09 36.09C9.09 36.09 9.09 36.1 9.09 36.1C8.66 38.33 9.73 39.22 10.97 38.69C13.64 37.5 35.04 27.96 37.72 26.77C39.54 25.95 39.53 24.73 38.06 24.16C37.61 23.99 35.35 23.12 31.28 21.55C21.72 28.56 16.41 32.45 15.34 33.23C14.59 33.81 13.92 33.48 14.48 32.89C16.21 31.07 20.52 26.53 27.43 19.27Z" />
    </g>
    <g transform="translate(262 50)">
        <path id="link" d="M39.84 0.04L40.26 0.09L40.66 0.15L41.06 0.24L41.46 0.34L41.84 0.46L42.22 0.59L42.6 0.75L42.96 0.91L43.31 1.1L43.66 1.3L43.99 1.51L44.32 1.74L44.63 1.98L44.93 2.23L45.22 2.5L45.5 2.78L45.77 3.07L46.02 3.37L46.26 3.68L46.49 4.01L46.7 4.34L46.9 4.69L47.09 5.04L47.25 5.4L47.41 5.78L47.54 6.16L47.66 6.54L47.76 6.94L47.85 7.34L47.91 7.74L47.96 8.16L47.99 8.58L48 9L48 39L47.99 39.42L47.96 39.84L47.91 40.26L47.85 40.66L47.76 41.06L47.66 41.46L47.54 41.84L47.41 42.22L47.25 42.6L47.09 42.96L46.9 43.31L46.7 43.66L46.49 43.99L46.26 44.32L46.02 44.63L45.77 44.93L45.5 45.22L45.22 45.5L44.93 45.77L44.63 46.02L44.32 46.26L43.99 46.49L43.66 46.7L43.31 46.9L42.96 47.09L42.6 47.25L42.22 47.41L41.84 47.54L41.46 47.66L41.06 47.76L40.66 47.85L40.26 47.91L39.84 47.96L39.42 47.99L39 48L9 48L8.58 47.99L8.16 47.96L7.74 47.91L7.34 47.85L6.94 47.76L6.54 47.66L6.16 47.54L5.78 47.41L5.4 47.25L5.04 47.09L4.69 46.9L4.34 46.7L4.01 46.49L3.68 46.26L3.37 46.02L3.07 45.77L2.78 45.5L2.5 45.22L2.23 44.93L1.98 44.63L1.74 44.32L1.51 43.99L1.3 43.66L1.1 43.31L0.91 42.96L0.75 42.6L0.59 42.22L0.46 41.84L0.34 41.46L0.24 41.06L0.15 40.66L0.09 40.26L0.04 39.84L0.01 39.42L0 39L0 9L0.01 8.58L0.04 8.16L0.09 7.74L0.15 7.34L0.24 6.94L0.34 6.54L0.46 6.16L0.59 5.78L0.75 5.4L0.91 5.04L1.1 4.69L1.3 4.34L1.51 4.01L1.74 3.68L1.98 3.37L2.23 3.07L2.5 2.78L2.78 2.5L3.07 2.23L3.37 1.98L3.68 1.74L4.01 1.51L4.34 1.3L4.69 1.1L5.04 0.91L5.4 0.75L5.78 0.59L6.16 0.46L6.54 0.34L6.94 0.24L7.34 0.15L7.74 0.09L8.16 0.04L8.58 0.01L9 0L39 0L39.42 0.01L39.84 0.04ZM8.82 6.01L8.64 6.02L8.46 6.05L8.29 6.09L8.12 6.13L7.95 6.19L7.79 6.25L7.64 6.33L7.48 6.41L7.34 6.5L7.2 6.6L7.07 6.71L6.94 6.82L6.82 6.94L6.7 7.07L6.6 7.2L6.5 7.34L6.41 7.49L6.33 7.64L6.25 7.79L6.19 7.95L6.13 8.12L6.08 8.29L6.05 8.46L6.02 8.64L6.01 8.82L6 9L6 39L6.01 39.18L6.02 39.36L6.05 39.54L6.08 39.71L6.13 39.88L6.19 40.05L6.25 40.21L6.33 40.36L6.41 40.52L6.5 40.66L6.6 40.8L6.7 40.93L6.82 41.06L6.94 41.18L7.07 41.3L7.2 41.4L7.34 41.5L7.48 41.59L7.64 41.67L7.79 41.75L7.95 41.81L8.12 41.87L8.29 41.92L8.46 41.95L8.64 41.98L8.82 41.99L9 42L39 42L39.18 41.99L39.36 41.98L39.54 41.95L39.71 41.92L39.88 41.87L40.05 41.81L40.21 41.75L40.36 41.67L40.52 41.59L40.66 41.5L40.8 41.4L40.93 41.3L41.06 41.18L41.18 41.06L41.3 40.93L41.4 40.8L41.5 40.66L41.59 40.52L41.67 40.36L41.75 40.21L41.81 40.05L41.87 39.88L41.92 39.71L41.95 39.54L41.98 39.36L41.99 39.18L42 39L42 9L41.9 8.78L41.8 8.57L41.7 8.37L41.6 8.18L41.49 7.99L41.39 7.81L41.28 7.65L41.18 7.49L41.07 7.33L40.96 7.19L40.85 7.05L40.75 6.93L40.63 6.81L40.52 6.7L40.41 6.59L40.3 6.5L40.19 6.41L40.07 6.33L39.96 6.26L39.84 6.2L39.72 6.15L39.6 6.1L39.48 6.07L39.36 6.04L39.24 6.02L39.12 6L39 6L9 6L8.82 6.01Z M34.58 24.1C32.86 25.83 30.3 26.18 28.21 25.18C28.85 24.55 33.95 19.45 34.58 18.81C35.32 18.08 35.32 16.89 34.58 16.16C34.32 15.9 32.2 13.78 31.94 13.51C31.21 12.78 30.02 12.78 29.29 13.51C28.66 14.15 23.56 19.25 22.92 19.89C21.93 17.8 22.27 15.24 24 13.51C24.27 13.24 26.49 11.02 26.76 10.75C28.96 8.56 32.51 8.56 34.7 10.75C34.97 11.01 37.09 13.13 37.35 13.39C39.54 15.59 39.54 19.15 37.35 21.34C36.8 21.89 34.86 23.83 34.58 24.1ZM18.7 26.75C19.5 25.96 25.85 19.6 26.65 18.81C27.38 18.08 28.56 18.08 29.29 18.81C30.02 19.54 30.02 20.72 29.29 21.46C28.5 22.25 22.15 28.6 21.35 29.4C20.62 30.13 19.43 30.13 18.7 29.4C17.97 28.66 17.97 27.48 18.7 26.75ZM16.06 34.69C16.79 35.42 17.97 35.42 18.7 34.69C19.34 34.05 24.44 28.95 25.08 28.32C26.07 30.4 25.72 32.96 24 34.69C23.75 34.97 21.72 37.18 21.47 37.46C19.27 39.65 15.72 39.65 13.52 37.46C13.24 37.17 10.93 34.86 10.64 34.58C8.45 32.38 8.45 28.83 10.64 26.63C10.92 26.38 13.13 24.36 13.41 24.1C15.14 22.38 17.7 22.03 19.78 23.02C19.15 23.66 14.05 28.76 13.41 29.4C12.68 30.13 12.68 31.32 13.41 32.05C13.94 32.57 15.79 34.43 16.06 34.69Z" />
    </g>
    <g transform="translate(314, 50)">
        <path id="print" d="M39.84 0.04L40.26 0.09L40.66 0.15L41.06 0.24L41.46 0.34L41.84 0.46L42.22 0.59L42.6 0.75L42.96 0.91L43.31 1.1L43.66 1.3L43.99 1.51L44.32 1.74L44.63 1.98L44.93 2.23L45.22 2.5L45.5 2.78L45.77 3.07L46.02 3.37L46.26 3.68L46.49 4.01L46.7 4.34L46.9 4.69L47.09 5.04L47.25 5.4L47.41 5.78L47.54 6.16L47.66 6.54L47.76 6.94L47.85 7.34L47.91 7.74L47.96 8.16L47.99 8.58L48 9L48 39L47.99 39.42L47.96 39.84L47.91 40.26L47.85 40.66L47.76 41.06L47.66 41.46L47.54 41.84L47.41 42.22L47.25 42.6L47.09 42.96L46.9 43.31L46.7 43.66L46.49 43.99L46.26 44.32L46.02 44.63L45.77 44.93L45.5 45.22L45.22 45.5L44.93 45.77L44.63 46.02L44.32 46.26L43.99 46.49L43.66 46.7L43.31 46.9L42.96 47.09L42.6 47.25L42.22 47.41L41.84 47.54L41.46 47.66L41.06 47.76L40.66 47.85L40.26 47.91L39.84 47.96L39.42 47.99L39 48L9 48L8.58 47.99L8.16 47.96L7.74 47.91L7.34 47.85L6.94 47.76L6.54 47.66L6.16 47.54L5.78 47.41L5.4 47.25L5.04 47.09L4.69 46.9L4.34 46.7L4.01 46.49L3.68 46.26L3.37 46.02L3.07 45.77L2.78 45.5L2.5 45.22L2.23 44.93L1.98 44.63L1.74 44.32L1.51 43.99L1.3 43.66L1.1 43.31L0.91 42.96L0.75 42.6L0.59 42.22L0.46 41.84L0.34 41.46L0.24 41.06L0.15 40.66L0.09 40.26L0.04 39.84L0.01 39.42L0 39L0 9L0.01 8.58L0.04 8.16L0.09 7.74L0.15 7.34L0.24 6.94L0.34 6.54L0.46 6.16L0.59 5.78L0.75 5.4L0.91 5.04L1.1 4.69L1.3 4.34L1.51 4.01L1.74 3.68L1.98 3.37L2.23 3.07L2.5 2.78L2.78 2.5L3.07 2.23L3.37 1.98L3.68 1.74L4.01 1.51L4.34 1.3L4.69 1.1L5.04 0.91L5.4 0.75L5.78 0.59L6.16 0.46L6.54 0.34L6.94 0.24L7.34 0.15L7.74 0.09L8.16 0.04L8.58 0.01L9 0L39 0L39.42 0.01L39.84 0.04ZM8.82 6.01L8.64 6.02L8.46 6.05L8.29 6.09L8.12 6.13L7.95 6.19L7.79 6.25L7.64 6.33L7.48 6.41L7.34 6.5L7.2 6.6L7.07 6.71L6.94 6.82L6.82 6.94L6.7 7.07L6.6 7.2L6.5 7.34L6.41 7.49L6.33 7.64L6.25 7.79L6.19 7.95L6.13 8.12L6.08 8.29L6.05 8.46L6.02 8.64L6.01 8.82L6 9L6 39L6.01 39.18L6.02 39.36L6.05 39.54L6.08 39.71L6.13 39.88L6.19 40.05L6.25 40.21L6.33 40.36L6.41 40.52L6.5 40.66L6.6 40.8L6.7 40.93L6.82 41.06L6.94 41.18L7.07 41.3L7.2 41.4L7.34 41.5L7.48 41.59L7.64 41.67L7.79 41.75L7.95 41.81L8.12 41.87L8.29 41.92L8.46 41.95L8.64 41.98L8.82 41.99L9 42L39 42L39.18 41.99L39.36 41.98L39.54 41.95L39.71 41.92L39.88 41.87L40.05 41.81L40.21 41.75L40.36 41.67L40.52 41.59L40.66 41.5L40.8 41.4L40.93 41.3L41.06 41.18L41.18 41.06L41.3 40.93L41.4 40.8L41.5 40.66L41.59 40.52L41.67 40.36L41.75 40.21L41.81 40.05L41.87 39.88L41.92 39.71L41.95 39.54L41.98 39.36L41.99 39.18L42 39L42 9L41.9 8.78L41.8 8.57L41.7 8.37L41.6 8.18L41.49 7.99L41.39 7.81L41.28 7.65L41.18 7.49L41.07 7.33L40.96 7.19L40.85 7.05L40.75 6.93L40.63 6.81L40.52 6.7L40.41 6.59L40.3 6.5L40.19 6.41L40.07 6.33L39.96 6.26L39.84 6.2L39.72 6.15L39.6 6.1L39.48 6.07L39.36 6.04L39.24 6.02L39.12 6L39 6L9 6L8.82 6.01Z M32.57 16.6C32.57 12.75 32.57 10.6 32.57 10.17C32.57 9.58 32.09 9.1 31.5 9.1C30 9.1 18 9.1 16.5 9.1C15.91 9.1 15.43 9.58 15.43 10.17C15.43 10.6 15.43 12.75 15.43 16.6C12.21 16.6 10.43 16.6 10.07 16.6C9.48 16.6 9 17.08 9 17.67C9 19.07 9 30.21 9 31.6C9 32.19 9.48 32.67 10.07 32.67C10.43 32.67 12.21 32.67 15.43 32.67C15.43 35.89 15.43 37.67 15.43 38.03C15.43 38.62 15.91 39.1 16.5 39.1C18 39.1 30 39.1 31.5 39.1C32.09 39.1 32.57 38.62 32.57 38.03C32.57 37.67 32.57 35.89 32.57 32.67C35.78 32.67 37.57 32.67 37.92 32.67C38.52 32.67 39 32.19 39 31.6C39 30.21 39 19.07 39 17.67C39 17.08 38.52 16.6 37.92 16.6C37.21 16.6 35.42 16.6 32.57 16.6ZM30.43 11.25L30.43 16.6L17.57 16.6L17.57 11.25L30.43 11.25ZM17.57 36.96L17.57 27.32L30.43 27.32L30.43 36.96L17.57 36.96ZM32.57 30.53L32.57 27.32C33.21 27.32 33.57 27.32 33.64 27.32C34.23 27.32 34.71 26.84 34.71 26.25C34.71 25.65 34.23 25.17 33.64 25.17C31.71 25.17 16.28 25.17 14.35 25.17C13.76 25.17 13.28 25.65 13.28 26.25C13.28 26.84 13.76 27.32 14.35 27.32C14.43 27.32 14.78 27.32 15.43 27.32L15.43 30.53L11.14 30.53L11.14 18.75L36.85 18.75L36.85 30.53L32.57 30.53ZM33.64 20.89C33.05 20.89 32.57 21.37 32.57 21.96C32.57 22.55 33.05 23.03 33.64 23.03C33.75 23.03 34.6 23.03 34.71 23.03C35.3 23.03 35.78 22.55 35.78 21.96C35.78 21.37 35.3 20.89 34.71 20.89C34.5 20.89 33.75 20.89 33.64 20.89ZM20.78 29.46C20.19 29.46 19.71 29.94 19.71 30.53C19.71 31.12 20.19 31.6 20.78 31.6C21.43 31.6 26.57 31.6 27.21 31.6C27.8 31.6 28.28 31.12 28.28 30.53C28.28 29.94 27.8 29.46 27.21 29.46C25.93 29.46 21.43 29.46 20.78 29.46ZM20.78 32.67C20.19 32.67 19.71 33.15 19.71 33.75C19.71 34.34 20.19 34.82 20.78 34.82C21.43 34.82 26.57 34.82 27.21 34.82C27.8 34.82 28.28 34.34 28.28 33.75C28.28 33.15 27.8 32.67 27.21 32.67C25.93 32.67 21.43 32.67 20.78 32.67Z" />
    </g>
    <g transform="translate(2, 100)">
        <path id="quick_save" d="M39.84 0.04L40.26 0.09L40.66 0.15L41.06 0.24L41.46 0.34L41.84 0.46L42.22 0.59L42.6 0.75L42.96 0.91L43.31 1.1L43.66 1.3L43.99 1.51L44.32 1.74L44.63 1.98L44.93 2.23L45.22 2.5L45.5 2.78L45.77 3.07L46.02 3.37L46.26 3.68L46.49 4.01L46.7 4.34L46.9 4.69L47.09 5.04L47.25 5.4L47.41 5.78L47.54 6.16L47.66 6.54L47.76 6.94L47.85 7.34L47.91 7.74L47.96 8.16L47.99 8.58L48 9L48 39L47.99 39.42L47.96 39.84L47.91 40.26L47.85 40.66L47.76 41.06L47.66 41.46L47.54 41.84L47.41 42.22L47.25 42.6L47.09 42.96L46.9 43.31L46.7 43.66L46.49 43.99L46.26 44.32L46.02 44.63L45.77 44.93L45.5 45.22L45.22 45.5L44.93 45.77L44.63 46.02L44.32 46.26L43.99 46.49L43.66 46.7L43.31 46.9L42.96 47.09L42.6 47.25L42.22 47.41L41.84 47.54L41.46 47.66L41.06 47.76L40.66 47.85L40.26 47.91L39.84 47.96L39.42 47.99L39 48L9 48L8.58 47.99L8.16 47.96L7.74 47.91L7.34 47.85L6.94 47.76L6.54 47.66L6.16 47.54L5.78 47.41L5.4 47.25L5.04 47.09L4.69 46.9L4.34 46.7L4.01 46.49L3.68 46.26L3.37 46.02L3.07 45.77L2.78 45.5L2.5 45.22L2.23 44.93L1.98 44.63L1.74 44.32L1.51 43.99L1.3 43.66L1.1 43.31L0.91 42.96L0.75 42.6L0.59 42.22L0.46 41.84L0.34 41.46L0.24 41.06L0.15 40.66L0.09 40.26L0.04 39.84L0.01 39.42L0 39L0 9L0.01 8.58L0.04 8.16L0.09 7.74L0.15 7.34L0.24 6.94L0.34 6.54L0.46 6.16L0.59 5.78L0.75 5.4L0.91 5.04L1.1 4.69L1.3 4.34L1.51 4.01L1.74 3.68L1.98 3.37L2.23 3.07L2.5 2.78L2.78 2.5L3.07 2.23L3.37 1.98L3.68 1.74L4.01 1.51L4.34 1.3L4.69 1.1L5.04 0.91L5.4 0.75L5.78 0.59L6.16 0.46L6.54 0.34L6.94 0.24L7.34 0.15L7.74 0.09L8.16 0.04L8.58 0.01L9 0L39 0L39.42 0.01L39.84 0.04ZM8.82 6.01L8.64 6.02L8.46 6.05L8.29 6.09L8.12 6.13L7.95 6.19L7.79 6.25L7.64 6.33L7.48 6.41L7.34 6.5L7.2 6.6L7.07 6.71L6.94 6.82L6.82 6.94L6.7 7.07L6.6 7.2L6.5 7.34L6.41 7.49L6.33 7.64L6.25 7.79L6.19 7.95L6.13 8.12L6.08 8.29L6.05 8.46L6.02 8.64L6.01 8.82L6 9L6 39L6.01 39.18L6.02 39.36L6.05 39.54L6.08 39.71L6.13 39.88L6.19 40.05L6.25 40.21L6.33 40.36L6.41 40.52L6.5 40.66L6.6 40.8L6.7 40.93L6.82 41.06L6.94 41.18L7.07 41.3L7.2 41.4L7.34 41.5L7.48 41.59L7.64 41.67L7.79 41.75L7.95 41.81L8.12 41.87L8.29 41.92L8.46 41.95L8.64 41.98L8.82 41.99L9 42L39 42L39.18 41.99L39.36 41.98L39.54 41.95L39.71 41.92L39.88 41.87L40.05 41.81L40.21 41.75L40.36 41.67L40.52 41.59L40.66 41.5L40.8 41.4L40.93 41.3L41.06 41.18L41.18 41.06L41.3 40.93L41.4 40.8L41.5 40.66L41.59 40.52L41.67 40.36L41.75 40.21L41.81 40.05L41.87 39.88L41.92 39.71L41.95 39.54L41.98 39.36L41.99 39.18L42 39L42 9L41.9 8.78L41.8 8.57L41.7 8.37L41.6 8.18L41.49 7.99L41.39 7.81L41.28 7.65L41.18 7.49L41.07 7.33L40.96 7.19L40.85 7.05L40.75 6.93L40.63 6.81L40.52 6.7L40.41 6.59L40.3 6.5L40.19 6.41L40.07 6.33L39.96 6.26L39.84 6.2L39.72 6.15L39.6 6.1L39.48 6.07L39.36 6.04L39.24 6.02L39.12 6L39 6L9 6L8.82 6.01Z M31.93 9.5C21.23 9.5 15.29 9.5 14.1 9.5C12.45 9.5 11.12 10.95 11.12 12.72C11.12 14.98 11.12 33.02 11.12 35.28C11.12 37.05 12.45 38.5 14.1 38.5C16.18 38.5 32.82 38.5 34.9 38.5C36.54 38.5 37.88 37.05 37.88 35.28C37.88 33.99 37.88 27.54 37.88 15.94L31.93 9.5M34.9 35.28L14.1 35.28L14.1 12.72L30.7 12.72L34.9 17.28L34.9 35.28M24.5 24C22.03 24 20.04 26.16 20.04 28.83C20.04 31.51 22.03 33.67 24.5 33.67C26.97 33.67 28.96 31.51 28.96 28.83C28.96 26.16 26.97 24 24.5 24M28.96 14.33L28.96 20.78L15.58 20.78L15.58 14.33L28.96 14.33Z" />
    </g>
    <g transform="translate(54, 100)">
        <path id="save" d="M39.84 0.04L40.26 0.09L40.66 0.15L41.06 0.24L41.46 0.34L41.84 0.46L42.22 0.59L42.6 0.75L42.96 0.91L43.31 1.1L43.66 1.3L43.99 1.51L44.32 1.74L44.63 1.98L44.93 2.23L45.22 2.5L45.5 2.78L45.77 3.07L46.02 3.37L46.26 3.68L46.49 4.01L46.7 4.34L46.9 4.69L47.09 5.04L47.25 5.4L47.41 5.78L47.54 6.16L47.66 6.54L47.76 6.94L47.85 7.34L47.91 7.74L47.96 8.16L47.99 8.58L48 9L48 39L47.99 39.42L47.96 39.84L47.91 40.26L47.85 40.66L47.76 41.06L47.66 41.46L47.54 41.84L47.41 42.22L47.25 42.6L47.09 42.96L46.9 43.31L46.7 43.66L46.49 43.99L46.26 44.32L46.02 44.63L45.77 44.93L45.5 45.22L45.22 45.5L44.93 45.77L44.63 46.02L44.32 46.26L43.99 46.49L43.66 46.7L43.31 46.9L42.96 47.09L42.6 47.25L42.22 47.41L41.84 47.54L41.46 47.66L41.06 47.76L40.66 47.85L40.26 47.91L39.84 47.96L39.42 47.99L39 48L9 48L8.58 47.99L8.16 47.96L7.74 47.91L7.34 47.85L6.94 47.76L6.54 47.66L6.16 47.54L5.78 47.41L5.4 47.25L5.04 47.09L4.69 46.9L4.34 46.7L4.01 46.49L3.68 46.26L3.37 46.02L3.07 45.77L2.78 45.5L2.5 45.22L2.23 44.93L1.98 44.63L1.74 44.32L1.51 43.99L1.3 43.66L1.1 43.31L0.91 42.96L0.75 42.6L0.59 42.22L0.46 41.84L0.34 41.46L0.24 41.06L0.15 40.66L0.09 40.26L0.04 39.84L0.01 39.42L0 39L0 9L0.01 8.58L0.04 8.16L0.09 7.74L0.15 7.34L0.24 6.94L0.34 6.54L0.46 6.16L0.59 5.78L0.75 5.4L0.91 5.04L1.1 4.69L1.3 4.34L1.51 4.01L1.74 3.68L1.98 3.37L2.23 3.07L2.5 2.78L2.78 2.5L3.07 2.23L3.37 1.98L3.68 1.74L4.01 1.51L4.34 1.3L4.69 1.1L5.04 0.91L5.4 0.75L5.78 0.59L6.16 0.46L6.54 0.34L6.94 0.24L7.34 0.15L7.74 0.09L8.16 0.04L8.58 0.01L9 0L39 0L39.42 0.01L39.84 0.04ZM8.82 6.01L8.64 6.02L8.46 6.05L8.29 6.09L8.12 6.13L7.95 6.19L7.79 6.25L7.64 6.33L7.48 6.41L7.34 6.5L7.2 6.6L7.07 6.71L6.94 6.82L6.82 6.94L6.7 7.07L6.6 7.2L6.5 7.34L6.41 7.49L6.33 7.64L6.25 7.79L6.19 7.95L6.13 8.12L6.08 8.29L6.05 8.46L6.02 8.64L6.01 8.82L6 9L6 39L6.01 39.18L6.02 39.36L6.05 39.54L6.08 39.71L6.13 39.88L6.19 40.05L6.25 40.21L6.33 40.36L6.41 40.52L6.5 40.66L6.6 40.8L6.7 40.93L6.82 41.06L6.94 41.18L7.07 41.3L7.2 41.4L7.34 41.5L7.48 41.59L7.64 41.67L7.79 41.75L7.95 41.81L8.12 41.87L8.29 41.92L8.46 41.95L8.64 41.98L8.82 41.99L9 42L39 42L39.18 41.99L39.36 41.98L39.54 41.95L39.71 41.92L39.88 41.87L40.05 41.81L40.21 41.75L40.36 41.67L40.52 41.59L40.66 41.5L40.8 41.4L40.93 41.3L41.06 41.18L41.18 41.06L41.3 40.93L41.4 40.8L41.5 40.66L41.59 40.52L41.67 40.36L41.75 40.21L41.81 40.05L41.87 39.88L41.92 39.71L41.95 39.54L41.98 39.36L41.99 39.18L42 39L42 9L41.9 8.78L41.8 8.57L41.7 8.37L41.6 8.18L41.49 7.99L41.39 7.81L41.28 7.65L41.18 7.49L41.07 7.33L40.96 7.19L40.85 7.05L40.75 6.93L40.63 6.81L40.52 6.7L40.41 6.59L40.3 6.5L40.19 6.41L40.07 6.33L39.96 6.26L39.84 6.2L39.72 6.15L39.6 6.1L39.48 6.07L39.36 6.04L39.24 6.02L39.12 6L39 6L9 6L8.82 6.01Z M39.3 37.41L39.37 10.66L35.95 10.65L35.89 37.4M20.58 18.26L10.35 18.23L10.32 29.7L20.55 29.72L20.54 37.36L32.51 24.02L20.6 10.61L20.58 18.26Z" />
    </g>
    <g transform="translate(106, 100)">
        <path id="fit_window" d="M39.84 0.04L40.26 0.09L40.66 0.15L41.06 0.24L41.46 0.34L41.84 0.46L42.22 0.59L42.6 0.75L42.96 0.91L43.31 1.1L43.66 1.3L43.99 1.51L44.32 1.74L44.63 1.98L44.93 2.23L45.22 2.5L45.5 2.78L45.77 3.07L46.02 3.37L46.26 3.68L46.49 4.01L46.7 4.34L46.9 4.69L47.09 5.04L47.25 5.4L47.41 5.78L47.54 6.16L47.66 6.54L47.76 6.94L47.85 7.34L47.91 7.74L47.96 8.16L47.99 8.58L48 9L48 39L47.99 39.42L47.96 39.84L47.91 40.26L47.85 40.66L47.76 41.06L47.66 41.46L47.54 41.84L47.41 42.22L47.25 42.6L47.09 42.96L46.9 43.31L46.7 43.66L46.49 43.99L46.26 44.32L46.02 44.63L45.77 44.93L45.5 45.22L45.22 45.5L44.93 45.77L44.63 46.02L44.32 46.26L43.99 46.49L43.66 46.7L43.31 46.9L42.96 47.09L42.6 47.25L42.22 47.41L41.84 47.54L41.46 47.66L41.06 47.76L40.66 47.85L40.26 47.91L39.84 47.96L39.42 47.99L39 48L9 48L8.58 47.99L8.16 47.96L7.74 47.91L7.34 47.85L6.94 47.76L6.54 47.66L6.16 47.54L5.78 47.41L5.4 47.25L5.04 47.09L4.69 46.9L4.34 46.7L4.01 46.49L3.68 46.26L3.37 46.02L3.07 45.77L2.78 45.5L2.5 45.22L2.23 44.93L1.98 44.63L1.74 44.32L1.51 43.99L1.3 43.66L1.1 43.31L0.91 42.96L0.75 42.6L0.59 42.22L0.46 41.84L0.34 41.46L0.24 41.06L0.15 40.66L0.09 40.26L0.04 39.84L0.01 39.42L0 39L0 9L0.01 8.58L0.04 8.16L0.09 7.74L0.15 7.34L0.24 6.94L0.34 6.54L0.46 6.16L0.59 5.78L0.75 5.4L0.91 5.04L1.1 4.69L1.3 4.34L1.51 4.01L1.74 3.68L1.98 3.37L2.23 3.07L2.5 2.78L2.78 2.5L3.07 2.23L3.37 1.98L3.68 1.74L4.01 1.51L4.34 1.3L4.69 1.1L5.04 0.91L5.4 0.75L5.78 0.59L6.16 0.46L6.54 0.34L6.94 0.24L7.34 0.15L7.74 0.09L8.16 0.04L8.58 0.01L9 0L39 0L39.42 0.01L39.84 0.04ZM8.82 6.01L8.64 6.02L8.46 6.05L8.29 6.09L8.12 6.13L7.95 6.19L7.79 6.25L7.64 6.33L7.48 6.41L7.34 6.5L7.2 6.6L7.07 6.71L6.94 6.82L6.82 6.94L6.7 7.07L6.6 7.2L6.5 7.34L6.41 7.49L6.33 7.64L6.25 7.79L6.19 7.95L6.13 8.12L6.08 8.29L6.05 8.46L6.02 8.64L6.01 8.82L6 9L6 39L6.01 39.18L6.02 39.36L6.05 39.54L6.08 39.71L6.13 39.88L6.19 40.05L6.25 40.21L6.33 40.36L6.41 40.52L6.5 40.66L6.6 40.8L6.7 40.93L6.82 41.06L6.94 41.18L7.07 41.3L7.2 41.4L7.34 41.5L7.48 41.59L7.64 41.67L7.79 41.75L7.95 41.81L8.12 41.87L8.29 41.92L8.46 41.95L8.64 41.98L8.82 41.99L9 42L39 42L39.18 41.99L39.36 41.98L39.54 41.95L39.71 41.92L39.88 41.87L40.05 41.81L40.21 41.75L40.36 41.67L40.52 41.59L40.66 41.5L40.8 41.4L40.93 41.3L41.06 41.18L41.18 41.06L41.3 40.93L41.4 40.8L41.5 40.66L41.59 40.52L41.67 40.36L41.75 40.21L41.81 40.05L41.87 39.88L41.92 39.71L41.95 39.54L41.98 39.36L41.99 39.18L42 39L42 9L41.9 8.78L41.8 8.57L41.7 8.37L41.6 8.18L41.49 7.99L41.39 7.81L41.28 7.65L41.18 7.49L41.07 7.33L40.96 7.19L40.85 7.05L40.75 6.93L40.63 6.81L40.52 6.7L40.41 6.59L40.3 6.5L40.19 6.41L40.07 6.33L39.96 6.26L39.84 6.2L39.72 6.15L39.6 6.1L39.48 6.07L39.36 6.04L39.24 6.02L39.12 6L39 6L9 6L8.82 6.01Z M31.76 9.5L28.54 9.5L28.54 12.72L31.76 12.72M25.32 9.5L22.1 9.5L22.1 12.72L25.32 12.72M12.43 19.17L28.54 19.17L28.54 35.28L12.43 35.28M12.43 38.5C22.1 38.5 27.47 38.5 28.54 38.5C30.33 38.5 31.76 37.07 31.76 35.28C31.76 33.67 31.76 20.78 31.76 19.17C31.76 17.39 30.32 15.94 28.54 15.94C28 15.94 25.32 15.94 20.49 15.94L14.04 15.94C13.07 15.94 12.54 15.94 12.43 15.94C10.65 15.94 9.21 17.39 9.21 19.17C9.21 20.78 9.21 33.67 9.21 35.28C9.21 37.07 10.66 38.5 12.43 38.5M18.87 9.5L15.65 9.5L15.65 12.72L18.87 12.72M38.21 28.83L34.99 28.83L34.99 32.06L38.21 32.06M34.99 9.5L34.99 12.72C36.92 12.72 37.99 12.72 38.21 12.72C38.21 10.94 36.77 9.5 34.99 9.5M38.21 15.94L34.99 15.94L34.99 19.17L38.21 19.17M34.99 22.39L34.99 25.61L38.21 25.61L38.21 22.39L34.99 22.39Z" />
    </g>
    <g transform="translate(158, 100)">
        <path id="layers" d="M39.84 0.04L40.26 0.09L40.66 0.15L41.06 0.24L41.46 0.34L41.84 0.46L42.22 0.59L42.6 0.75L42.96 0.91L43.31 1.1L43.66 1.3L43.99 1.51L44.32 1.74L44.63 1.98L44.93 2.23L45.22 2.5L45.5 2.78L45.77 3.07L46.02 3.37L46.26 3.68L46.49 4.01L46.7 4.34L46.9 4.69L47.09 5.04L47.25 5.4L47.41 5.78L47.54 6.16L47.66 6.54L47.76 6.94L47.85 7.34L47.91 7.74L47.96 8.16L47.99 8.58L48 9L48 39L47.99 39.42L47.96 39.84L47.91 40.26L47.85 40.66L47.76 41.06L47.66 41.46L47.54 41.84L47.41 42.22L47.25 42.6L47.09 42.96L46.9 43.31L46.7 43.66L46.49 43.99L46.26 44.32L46.02 44.63L45.77 44.93L45.5 45.22L45.22 45.5L44.93 45.77L44.63 46.02L44.32 46.26L43.99 46.49L43.66 46.7L43.31 46.9L42.96 47.09L42.6 47.25L42.22 47.41L41.84 47.54L41.46 47.66L41.06 47.76L40.66 47.85L40.26 47.91L39.84 47.96L39.42 47.99L39 48L9 48L8.58 47.99L8.16 47.96L7.74 47.91L7.34 47.85L6.94 47.76L6.54 47.66L6.16 47.54L5.78 47.41L5.4 47.25L5.04 47.09L4.69 46.9L4.34 46.7L4.01 46.49L3.68 46.26L3.37 46.02L3.07 45.77L2.78 45.5L2.5 45.22L2.23 44.93L1.98 44.63L1.74 44.32L1.51 43.99L1.3 43.66L1.1 43.31L0.91 42.96L0.75 42.6L0.59 42.22L0.46 41.84L0.34 41.46L0.24 41.06L0.15 40.66L0.09 40.26L0.04 39.84L0.01 39.42L0 39L0 9L0.01 8.58L0.04 8.16L0.09 7.74L0.15 7.34L0.24 6.94L0.34 6.54L0.46 6.16L0.59 5.78L0.75 5.4L0.91 5.04L1.1 4.69L1.3 4.34L1.51 4.01L1.74 3.68L1.98 3.37L2.23 3.07L2.5 2.78L2.78 2.5L3.07 2.23L3.37 1.98L3.68 1.74L4.01 1.51L4.34 1.3L4.69 1.1L5.04 0.91L5.4 0.75L5.78 0.59L6.16 0.46L6.54 0.34L6.94 0.24L7.34 0.15L7.74 0.09L8.16 0.04L8.58 0.01L9 0L39 0L39.42 0.01L39.84 0.04ZM8.82 6.01L8.64 6.02L8.46 6.05L8.29 6.09L8.12 6.13L7.95 6.19L7.79 6.25L7.64 6.33L7.48 6.41L7.34 6.5L7.2 6.6L7.07 6.71L6.94 6.82L6.82 6.94L6.7 7.07L6.6 7.2L6.5 7.34L6.41 7.49L6.33 7.64L6.25 7.79L6.19 7.95L6.13 8.12L6.08 8.29L6.05 8.46L6.02 8.64L6.01 8.82L6 9L6 39L6.01 39.18L6.02 39.36L6.05 39.54L6.08 39.71L6.13 39.88L6.19 40.05L6.25 40.21L6.33 40.36L6.41 40.52L6.5 40.66L6.6 40.8L6.7 40.93L6.82 41.06L6.94 41.18L7.07 41.3L7.2 41.4L7.34 41.5L7.48 41.59L7.64 41.67L7.79 41.75L7.95 41.81L8.12 41.87L8.29 41.92L8.46 41.95L8.64 41.98L8.82 41.99L9 42L39 42L39.18 41.99L39.36 41.98L39.54 41.95L39.71 41.92L39.88 41.87L40.05 41.81L40.21 41.75L40.36 41.67L40.52 41.59L40.66 41.5L40.8 41.4L40.93 41.3L41.06 41.18L41.18 41.06L41.3 40.93L41.4 40.8L41.5 40.66L41.59 40.52L41.67 40.36L41.75 40.21L41.81 40.05L41.87 39.88L41.92 39.71L41.95 39.54L41.98 39.36L41.99 39.18L42 39L42 9L41.9 8.78L41.8 8.57L41.7 8.37L41.6 8.18L41.49 7.99L41.39 7.81L41.28 7.65L41.18 7.49L41.07 7.33L40.96 7.19L40.85 7.05L40.75 6.93L40.63 6.81L40.52 6.7L40.41 6.59L40.3 6.5L40.19 6.41L40.07 6.33L39.96 6.26L39.84 6.2L39.72 6.15L39.6 6.1L39.48 6.07L39.36 6.04L39.24 6.02L39.12 6L39 6L9 6L8.82 6.01Z M23.99 17.82L36.27 25L38.99 23.41L23.99 14.66L8.99 23.41L11.69 24.99L23.99 17.82M23.99 21L8.99 29.75L23.99 38.5L38.99 29.75L23.99 21M23.99 35.34L14.42 29.75L23.99 24.16L33.56 29.75L23.99 35.34M23.99 11.66L36.27 18.84L38.99 17.25L23.99 8.5L8.99 17.25L11.69 18.82L23.99 11.66Z" />
    </g>
    <g transform="translate(210, 100)">
        <path id="info" d="M39.84 0.04L40.26 0.09L40.66 0.15L41.06 0.24L41.46 0.34L41.84 0.46L42.22 0.59L42.6 0.75L42.96 0.91L43.31 1.1L43.66 1.3L43.99 1.51L44.32 1.74L44.63 1.98L44.93 2.23L45.22 2.5L45.5 2.78L45.77 3.07L46.02 3.37L46.26 3.68L46.49 4.01L46.7 4.34L46.9 4.69L47.09 5.04L47.25 5.4L47.41 5.78L47.54 6.16L47.66 6.54L47.76 6.94L47.85 7.34L47.91 7.74L47.96 8.16L47.99 8.58L48 9L48 39L47.99 39.42L47.96 39.84L47.91 40.26L47.85 40.66L47.76 41.06L47.66 41.46L47.54 41.84L47.41 42.22L47.25 42.6L47.09 42.96L46.9 43.31L46.7 43.66L46.49 43.99L46.26 44.32L46.02 44.63L45.77 44.93L45.5 45.22L45.22 45.5L44.93 45.77L44.63 46.02L44.32 46.26L43.99 46.49L43.66 46.7L43.31 46.9L42.96 47.09L42.6 47.25L42.22 47.41L41.84 47.54L41.46 47.66L41.06 47.76L40.66 47.85L40.26 47.91L39.84 47.96L39.42 47.99L39 48L9 48L8.58 47.99L8.16 47.96L7.74 47.91L7.34 47.85L6.94 47.76L6.54 47.66L6.16 47.54L5.78 47.41L5.4 47.25L5.04 47.09L4.69 46.9L4.34 46.7L4.01 46.49L3.68 46.26L3.37 46.02L3.07 45.77L2.78 45.5L2.5 45.22L2.23 44.93L1.98 44.63L1.74 44.32L1.51 43.99L1.3 43.66L1.1 43.31L0.91 42.96L0.75 42.6L0.59 42.22L0.46 41.84L0.34 41.46L0.24 41.06L0.15 40.66L0.09 40.26L0.04 39.84L0.01 39.42L0 39L0 9L0.01 8.58L0.04 8.16L0.09 7.74L0.15 7.34L0.24 6.94L0.34 6.54L0.46 6.16L0.59 5.78L0.75 5.4L0.91 5.04L1.1 4.69L1.3 4.34L1.51 4.01L1.74 3.68L1.98 3.37L2.23 3.07L2.5 2.78L2.78 2.5L3.07 2.23L3.37 1.98L3.68 1.74L4.01 1.51L4.34 1.3L4.69 1.1L5.04 0.91L5.4 0.75L5.78 0.59L6.16 0.46L6.54 0.34L6.94 0.24L7.34 0.15L7.74 0.09L8.16 0.04L8.58 0.01L9 0L39 0L39.42 0.01L39.84 0.04ZM8.82 6.01L8.64 6.02L8.46 6.05L8.29 6.09L8.12 6.13L7.95 6.19L7.79 6.25L7.64 6.33L7.48 6.41L7.34 6.5L7.2 6.6L7.07 6.71L6.94 6.82L6.82 6.94L6.7 7.07L6.6 7.2L6.5 7.34L6.41 7.49L6.33 7.64L6.25 7.79L6.19 7.95L6.13 8.12L6.08 8.29L6.05 8.46L6.02 8.64L6.01 8.82L6 9L6 39L6.01 39.18L6.02 39.36L6.05 39.54L6.08 39.71L6.13 39.88L6.19 40.05L6.25 40.21L6.33 40.36L6.41 40.52L6.5 40.66L6.6 40.8L6.7 40.93L6.82 41.06L6.94 41.18L7.07 41.3L7.2 41.4L7.34 41.5L7.48 41.59L7.64 41.67L7.79 41.75L7.95 41.81L8.12 41.87L8.29 41.92L8.46 41.95L8.64 41.98L8.82 41.99L9 42L39 42L39.18 41.99L39.36 41.98L39.54 41.95L39.71 41.92L39.88 41.87L40.05 41.81L40.21 41.75L40.36 41.67L40.52 41.59L40.66 41.5L40.8 41.4L40.93 41.3L41.06 41.18L41.18 41.06L41.3 40.93L41.4 40.8L41.5 40.66L41.59 40.52L41.67 40.36L41.75 40.21L41.81 40.05L41.87 39.88L41.92 39.71L41.95 39.54L41.98 39.36L41.99 39.18L42 39L42 9L41.9 8.78L41.8 8.57L41.7 8.37L41.6 8.18L41.49 7.99L41.39 7.81L41.28 7.65L41.18 7.49L41.07 7.33L40.96 7.19L40.85 7.05L40.75 6.93L40.63 6.81L40.52 6.7L40.41 6.59L40.3 6.5L40.19 6.41L40.07 6.33L39.96 6.26L39.84 6.2L39.72 6.15L39.6 6.1L39.48 6.07L39.36 6.04L39.24 6.02L39.12 6L39 6L9 6L8.82 6.01Z M38.5 23.38L32.53 29.14L32.5 24.86L20.7 24.95L15.12 34.32L19.02 36.39L10.82 38.6L8.56 30.76L12.5 32.92L18.09 23.54L12.35 14.26L8.44 16.48L10.57 8.6L18.81 10.68L14.95 12.81L20.68 22.09L32.48 22L32.44 17.71L38.5 23.38M34.09 36.27L34.07 33.42L37.08 33.39L37.1 36.25L34.09 36.27M23.58 37.79L23.54 32.07L26.54 32.05L26.56 33.48L29.56 33.45L29.55 32.02L32.56 32L32.59 36.28L26.58 36.33L26.59 37.76L23.58 37.79Z" />
    </g>
    <g transform="translate(262, 100)">
        <path id="pixabay" d="M39.84 0.04L40.26 0.09L40.66 0.15L41.06 0.24L41.46 0.34L41.84 0.46L42.22 0.59L42.6 0.75L42.96 0.91L43.31 1.1L43.66 1.3L43.99 1.51L44.32 1.74L44.63 1.98L44.93 2.23L45.22 2.5L45.5 2.78L45.77 3.07L46.02 3.37L46.26 3.68L46.49 4.01L46.7 4.34L46.9 4.69L47.09 5.04L47.25 5.4L47.41 5.78L47.54 6.16L47.66 6.54L47.76 6.94L47.85 7.34L47.91 7.74L47.96 8.16L47.99 8.58L48 9L48 39L47.99 39.42L47.96 39.84L47.91 40.26L47.85 40.66L47.76 41.06L47.66 41.46L47.54 41.84L47.41 42.22L47.25 42.6L47.09 42.96L46.9 43.31L46.7 43.66L46.49 43.99L46.26 44.32L46.02 44.63L45.77 44.93L45.5 45.22L45.22 45.5L44.93 45.77L44.63 46.02L44.32 46.26L43.99 46.49L43.66 46.7L43.31 46.9L42.96 47.09L42.6 47.25L42.22 47.41L41.84 47.54L41.46 47.66L41.06 47.76L40.66 47.85L40.26 47.91L39.84 47.96L39.42 47.99L39 48L9 48L8.58 47.99L8.16 47.96L7.74 47.91L7.34 47.85L6.94 47.76L6.54 47.66L6.16 47.54L5.78 47.41L5.4 47.25L5.04 47.09L4.69 46.9L4.34 46.7L4.01 46.49L3.68 46.26L3.37 46.02L3.07 45.77L2.78 45.5L2.5 45.22L2.23 44.93L1.98 44.63L1.74 44.32L1.51 43.99L1.3 43.66L1.1 43.31L0.91 42.96L0.75 42.6L0.59 42.22L0.46 41.84L0.34 41.46L0.24 41.06L0.15 40.66L0.09 40.26L0.04 39.84L0.01 39.42L0 39L0 9L0.01 8.58L0.04 8.16L0.09 7.74L0.15 7.34L0.24 6.94L0.34 6.54L0.46 6.16L0.59 5.78L0.75 5.4L0.91 5.04L1.1 4.69L1.3 4.34L1.51 4.01L1.74 3.68L1.98 3.37L2.23 3.07L2.5 2.78L2.78 2.5L3.07 2.23L3.37 1.98L3.68 1.74L4.01 1.51L4.34 1.3L4.69 1.1L5.04 0.91L5.4 0.75L5.78 0.59L6.16 0.46L6.54 0.34L6.94 0.24L7.34 0.15L7.74 0.09L8.16 0.04L8.58 0.01L9 0L39 0L39.42 0.01L39.84 0.04ZM8.82 6.01L8.64 6.02L8.46 6.05L8.29 6.09L8.12 6.13L7.95 6.19L7.79 6.25L7.64 6.33L7.48 6.41L7.34 6.5L7.2 6.6L7.07 6.71L6.94 6.82L6.82 6.94L6.7 7.07L6.6 7.2L6.5 7.34L6.41 7.49L6.33 7.64L6.25 7.79L6.19 7.95L6.13 8.12L6.08 8.29L6.05 8.46L6.02 8.64L6.01 8.82L6 9L6 39L6.01 39.18L6.02 39.36L6.05 39.54L6.08 39.71L6.13 39.88L6.19 40.05L6.25 40.21L6.33 40.36L6.41 40.52L6.5 40.66L6.6 40.8L6.7 40.93L6.82 41.06L6.94 41.18L7.07 41.3L7.2 41.4L7.34 41.5L7.48 41.59L7.64 41.67L7.79 41.75L7.95 41.81L8.12 41.87L8.29 41.92L8.46 41.95L8.64 41.98L8.82 41.99L9 42L39 42L39.18 41.99L39.36 41.98L39.54 41.95L39.71 41.92L39.88 41.87L40.05 41.81L40.21 41.75L40.36 41.67L40.52 41.59L40.66 41.5L40.8 41.4L40.93 41.3L41.06 41.18L41.18 41.06L41.3 40.93L41.4 40.8L41.5 40.66L41.59 40.52L41.67 40.36L41.75 40.21L41.81 40.05L41.87 39.88L41.92 39.71L41.95 39.54L41.98 39.36L41.99 39.18L42 39L42 9L41.9 8.78L41.8 8.57L41.7 8.37L41.6 8.18L41.49 7.99L41.39 7.81L41.28 7.65L41.18 7.49L41.07 7.33L40.96 7.19L40.85 7.05L40.75 6.93L40.63 6.81L40.52 6.7L40.41 6.59L40.3 6.5L40.19 6.41L40.07 6.33L39.96 6.26L39.84 6.2L39.72 6.15L39.6 6.1L39.48 6.07L39.36 6.04L39.24 6.02L39.12 6L39 6L9 6L8.82 6.01Z M13.75 36.7C14.25 36.22 18.18 32.38 18.68 31.9C20.7 33.16 23.1 33.92 25.68 33.92C32.87 33.92 38.7 28.23 38.7 21.21C38.7 14.19 32.87 8.5 25.68 8.5C18.49 8.5 12.66 14.19 12.66 21.21C12.66 23.73 13.44 26.07 14.73 28.05C14.24 28.53 10.3 32.37 9.81 32.85C8.72 33.92 8.72 35.64 9.81 36.7C10.9 37.77 12.66 37.77 13.75 36.7ZM34.98 21.21C34.98 26.22 30.81 30.29 25.68 30.29C20.54 30.29 16.38 26.22 16.38 21.21C16.38 16.19 20.54 12.13 25.68 12.13C30.81 12.13 34.98 16.19 34.98 21.21Z" />
    </g>
    <g transform="translate(2, 150)">
        <path id="new" d="M39.84 0.04L40.26 0.09L40.66 0.15L41.06 0.24L41.46 0.34L41.84 0.46L42.22 0.59L42.6 0.75L42.96 0.91L43.31 1.1L43.66 1.3L43.99 1.51L44.32 1.74L44.63 1.98L44.93 2.23L45.22 2.5L45.5 2.78L45.77 3.07L46.02 3.37L46.26 3.68L46.49 4.01L46.7 4.34L46.9 4.69L47.09 5.04L47.25 5.4L47.41 5.78L47.54 6.16L47.66 6.54L47.76 6.94L47.85 7.34L47.91 7.74L47.96 8.16L47.99 8.58L48 9L48 39L47.99 39.42L47.96 39.84L47.91 40.26L47.85 40.66L47.76 41.06L47.66 41.46L47.54 41.84L47.41 42.22L47.25 42.6L47.09 42.96L46.9 43.31L46.7 43.66L46.49 43.99L46.26 44.32L46.02 44.63L45.77 44.93L45.5 45.22L45.22 45.5L44.93 45.77L44.63 46.02L44.32 46.26L43.99 46.49L43.66 46.7L43.31 46.9L42.96 47.09L42.6 47.25L42.22 47.41L41.84 47.54L41.46 47.66L41.06 47.76L40.66 47.85L40.26 47.91L39.84 47.96L39.42 47.99L39 48L9 48L8.58 47.99L8.16 47.96L7.74 47.91L7.34 47.85L6.94 47.76L6.54 47.66L6.16 47.54L5.78 47.41L5.4 47.25L5.04 47.09L4.69 46.9L4.34 46.7L4.01 46.49L3.68 46.26L3.37 46.02L3.07 45.77L2.78 45.5L2.5 45.22L2.23 44.93L1.98 44.63L1.74 44.32L1.51 43.99L1.3 43.66L1.1 43.31L0.91 42.96L0.75 42.6L0.59 42.22L0.46 41.84L0.34 41.46L0.24 41.06L0.15 40.66L0.09 40.26L0.04 39.84L0.01 39.42L0 39L0 9L0.01 8.58L0.04 8.16L0.09 7.74L0.15 7.34L0.24 6.94L0.34 6.54L0.46 6.16L0.59 5.78L0.75 5.4L0.91 5.04L1.1 4.69L1.3 4.34L1.51 4.01L1.74 3.68L1.98 3.37L2.23 3.07L2.5 2.78L2.78 2.5L3.07 2.23L3.37 1.98L3.68 1.74L4.01 1.51L4.34 1.3L4.69 1.1L5.04 0.91L5.4 0.75L5.78 0.59L6.16 0.46L6.54 0.34L6.94 0.24L7.34 0.15L7.74 0.09L8.16 0.04L8.58 0.01L9 0L39 0L39.42 0.01L39.84 0.04ZM8.82 6.01L8.64 6.02L8.46 6.05L8.29 6.09L8.12 6.13L7.95 6.19L7.79 6.25L7.64 6.33L7.48 6.41L7.34 6.5L7.2 6.6L7.07 6.71L6.94 6.82L6.82 6.94L6.7 7.07L6.6 7.2L6.5 7.34L6.41 7.49L6.33 7.64L6.25 7.79L6.19 7.95L6.13 8.12L6.08 8.29L6.05 8.46L6.02 8.64L6.01 8.82L6 9L6 39L6.01 39.18L6.02 39.36L6.05 39.54L6.08 39.71L6.13 39.88L6.19 40.05L6.25 40.21L6.33 40.36L6.41 40.52L6.5 40.66L6.6 40.8L6.7 40.93L6.82 41.06L6.94 41.18L7.07 41.3L7.2 41.4L7.34 41.5L7.48 41.59L7.64 41.67L7.79 41.75L7.95 41.81L8.12 41.87L8.29 41.92L8.46 41.95L8.64 41.98L8.82 41.99L9 42L39 42L39.18 41.99L39.36 41.98L39.54 41.95L39.71 41.92L39.88 41.87L40.05 41.81L40.21 41.75L40.36 41.67L40.52 41.59L40.66 41.5L40.8 41.4L40.93 41.3L41.06 41.18L41.18 41.06L41.3 40.93L41.4 40.8L41.5 40.66L41.59 40.52L41.67 40.36L41.75 40.21L41.81 40.05L41.87 39.88L41.92 39.71L41.95 39.54L41.98 39.36L41.99 39.18L42 39L42 9L41.9 8.78L41.8 8.57L41.7 8.37L41.6 8.18L41.49 7.99L41.39 7.81L41.28 7.65L41.18 7.49L41.07 7.33L40.96 7.19L40.85 7.05L40.75 6.93L40.63 6.81L40.52 6.7L40.41 6.59L40.3 6.5L40.19 6.41L40.07 6.33L39.96 6.26L39.84 6.2L39.72 6.15L39.6 6.1L39.48 6.07L39.36 6.04L39.24 6.02L39.12 6L39 6L9 6L8.82 6.01Z M24 25.98L24 21.97L21.12 21.97L21.12 25.98L16.81 25.98L16.81 28.66L21.12 28.66L21.12 32.67L24 32.67L24 28.66L28.31 28.66L28.31 25.98M26.88 9.93C19.97 9.93 16.14 9.93 15.37 9.93C13.78 9.93 12.49 11.13 12.49 12.61C12.49 14.75 12.49 31.87 12.49 34.01C12.49 35.49 13.78 36.68 15.37 36.68C17.1 36.68 30.9 36.68 32.63 36.68C34.22 36.68 35.51 35.49 35.51 34.01C35.51 32.94 35.51 27.59 35.51 17.96L26.88 9.93M32.63 34.01L15.37 34.01L15.37 12.61L25.44 12.61L25.44 19.3L32.63 19.3" />
    </g>
    <g transform="translate(54, 150)">
        <path id="open" d="M39.84 0.04L40.26 0.09L40.66 0.15L41.06 0.24L41.46 0.34L41.84 0.46L42.22 0.59L42.6 0.75L42.96 0.91L43.31 1.1L43.66 1.3L43.99 1.51L44.32 1.74L44.63 1.98L44.93 2.23L45.22 2.5L45.5 2.78L45.77 3.07L46.02 3.37L46.26 3.68L46.49 4.01L46.7 4.34L46.9 4.69L47.09 5.04L47.25 5.4L47.41 5.78L47.54 6.16L47.66 6.54L47.76 6.94L47.85 7.34L47.91 7.74L47.96 8.16L47.99 8.58L48 9L48 39L47.99 39.42L47.96 39.84L47.91 40.26L47.85 40.66L47.76 41.06L47.66 41.46L47.54 41.84L47.41 42.22L47.25 42.6L47.09 42.96L46.9 43.31L46.7 43.66L46.49 43.99L46.26 44.32L46.02 44.63L45.77 44.93L45.5 45.22L45.22 45.5L44.93 45.77L44.63 46.02L44.32 46.26L43.99 46.49L43.66 46.7L43.31 46.9L42.96 47.09L42.6 47.25L42.22 47.41L41.84 47.54L41.46 47.66L41.06 47.76L40.66 47.85L40.26 47.91L39.84 47.96L39.42 47.99L39 48L9 48L8.58 47.99L8.16 47.96L7.74 47.91L7.34 47.85L6.94 47.76L6.54 47.66L6.16 47.54L5.78 47.41L5.4 47.25L5.04 47.09L4.69 46.9L4.34 46.7L4.01 46.49L3.68 46.26L3.37 46.02L3.07 45.77L2.78 45.5L2.5 45.22L2.23 44.93L1.98 44.63L1.74 44.32L1.51 43.99L1.3 43.66L1.1 43.31L0.91 42.96L0.75 42.6L0.59 42.22L0.46 41.84L0.34 41.46L0.24 41.06L0.15 40.66L0.09 40.26L0.04 39.84L0.01 39.42L0 39L0 9L0.01 8.58L0.04 8.16L0.09 7.74L0.15 7.34L0.24 6.94L0.34 6.54L0.46 6.16L0.59 5.78L0.75 5.4L0.91 5.04L1.1 4.69L1.3 4.34L1.51 4.01L1.74 3.68L1.98 3.37L2.23 3.07L2.5 2.78L2.78 2.5L3.07 2.23L3.37 1.98L3.68 1.74L4.01 1.51L4.34 1.3L4.69 1.1L5.04 0.91L5.4 0.75L5.78 0.59L6.16 0.46L6.54 0.34L6.94 0.24L7.34 0.15L7.74 0.09L8.16 0.04L8.58 0.01L9 0L39 0L39.42 0.01L39.84 0.04ZM8.82 6.01L8.64 6.02L8.46 6.05L8.29 6.09L8.12 6.13L7.95 6.19L7.79 6.25L7.64 6.33L7.48 6.41L7.34 6.5L7.2 6.6L7.07 6.71L6.94 6.82L6.82 6.94L6.7 7.07L6.6 7.2L6.5 7.34L6.41 7.49L6.33 7.64L6.25 7.79L6.19 7.95L6.13 8.12L6.08 8.29L6.05 8.46L6.02 8.64L6.01 8.82L6 9L6 39L6.01 39.18L6.02 39.36L6.05 39.54L6.08 39.71L6.13 39.88L6.19 40.05L6.25 40.21L6.33 40.36L6.41 40.52L6.5 40.66L6.6 40.8L6.7 40.93L6.82 41.06L6.94 41.18L7.07 41.3L7.2 41.4L7.34 41.5L7.48 41.59L7.64 41.67L7.79 41.75L7.95 41.81L8.12 41.87L8.29 41.92L8.46 41.95L8.64 41.98L8.82 41.99L9 42L39 42L39.18 41.99L39.36 41.98L39.54 41.95L39.71 41.92L39.88 41.87L40.05 41.81L40.21 41.75L40.36 41.67L40.52 41.59L40.66 41.5L40.8 41.4L40.93 41.3L41.06 41.18L41.18 41.06L41.3 40.93L41.4 40.8L41.5 40.66L41.59 40.52L41.67 40.36L41.75 40.21L41.81 40.05L41.87 39.88L41.92 39.71L41.95 39.54L41.98 39.36L41.99 39.18L42 39L42 9L41.9 8.78L41.8 8.57L41.7 8.37L41.6 8.18L41.49 7.99L41.39 7.81L41.28 7.65L41.18 7.49L41.07 7.33L40.96 7.19L40.85 7.05L40.75 6.93L40.63 6.81L40.52 6.7L40.41 6.59L40.3 6.5L40.19 6.41L40.07 6.33L39.96 6.26L39.84 6.2L39.72 6.15L39.6 6.1L39.48 6.07L39.36 6.04L39.24 6.02L39.12 6L39 6L9 6L8.82 6.01Z M21.44 32.31L33.73 34.94L18.38 34.96C18.36 22.09 18.35 14.94 18.34 13.51C16.65 13.52 15.28 14.65 15.28 16.04C15.28 16.63 15.28 19.58 15.29 24.88L12.23 27.4C12.23 31.95 12.24 34.47 12.24 34.97C12.24 36.37 13.62 37.5 15.31 37.49C17.16 37.49 31.89 37.47 33.73 37.46C35.43 37.46 36.8 36.33 36.8 34.93C36.79 33.04 36.77 17.9 36.76 16.01C36.76 14.87 35.84 13.86 34.46 13.61C33.59 13.42 29.24 12.46 21.41 10.73L21.44 32.31M33.72 32.42L24.51 30.41L24.48 14.01L33.7 16.01L33.72 32.42Z" />
    </g>
    <g transform="translate(106, 150)">
        <path id="webcam" d="M39.84 0.04L40.26 0.09L40.66 0.15L41.06 0.24L41.46 0.34L41.84 0.46L42.22 0.59L42.6 0.75L42.96 0.91L43.31 1.1L43.66 1.3L43.99 1.51L44.32 1.74L44.63 1.98L44.93 2.23L45.22 2.5L45.5 2.78L45.77 3.07L46.02 3.37L46.26 3.68L46.49 4.01L46.7 4.34L46.9 4.69L47.09 5.04L47.25 5.4L47.41 5.78L47.54 6.16L47.66 6.54L47.76 6.94L47.85 7.34L47.91 7.74L47.96 8.16L47.99 8.58L48 9L48 39L47.99 39.42L47.96 39.84L47.91 40.26L47.85 40.66L47.76 41.06L47.66 41.46L47.54 41.84L47.41 42.22L47.25 42.6L47.09 42.96L46.9 43.31L46.7 43.66L46.49 43.99L46.26 44.32L46.02 44.63L45.77 44.93L45.5 45.22L45.22 45.5L44.93 45.77L44.63 46.02L44.32 46.26L43.99 46.49L43.66 46.7L43.31 46.9L42.96 47.09L42.6 47.25L42.22 47.41L41.84 47.54L41.46 47.66L41.06 47.76L40.66 47.85L40.26 47.91L39.84 47.96L39.42 47.99L39 48L9 48L8.58 47.99L8.16 47.96L7.74 47.91L7.34 47.85L6.94 47.76L6.54 47.66L6.16 47.54L5.78 47.41L5.4 47.25L5.04 47.09L4.69 46.9L4.34 46.7L4.01 46.49L3.68 46.26L3.37 46.02L3.07 45.77L2.78 45.5L2.5 45.22L2.23 44.93L1.98 44.63L1.74 44.32L1.51 43.99L1.3 43.66L1.1 43.31L0.91 42.96L0.75 42.6L0.59 42.22L0.46 41.84L0.34 41.46L0.24 41.06L0.15 40.66L0.09 40.26L0.04 39.84L0.01 39.42L0 39L0 9L0.01 8.58L0.04 8.16L0.09 7.74L0.15 7.34L0.24 6.94L0.34 6.54L0.46 6.16L0.59 5.78L0.75 5.4L0.91 5.04L1.1 4.69L1.3 4.34L1.51 4.01L1.74 3.68L1.98 3.37L2.23 3.07L2.5 2.78L2.78 2.5L3.07 2.23L3.37 1.98L3.68 1.74L4.01 1.51L4.34 1.3L4.69 1.1L5.04 0.91L5.4 0.75L5.78 0.59L6.16 0.46L6.54 0.34L6.94 0.24L7.34 0.15L7.74 0.09L8.16 0.04L8.58 0.01L9 0L39 0L39.42 0.01L39.84 0.04ZM8.82 6.01L8.64 6.02L8.46 6.05L8.29 6.09L8.12 6.13L7.95 6.19L7.79 6.25L7.64 6.33L7.48 6.41L7.34 6.5L7.2 6.6L7.07 6.71L6.94 6.82L6.82 6.94L6.7 7.07L6.6 7.2L6.5 7.34L6.41 7.49L6.33 7.64L6.25 7.79L6.19 7.95L6.13 8.12L6.08 8.29L6.05 8.46L6.02 8.64L6.01 8.82L6 9L6 39L6.01 39.18L6.02 39.36L6.05 39.54L6.08 39.71L6.13 39.88L6.19 40.05L6.25 40.21L6.33 40.36L6.41 40.52L6.5 40.66L6.6 40.8L6.7 40.93L6.82 41.06L6.94 41.18L7.07 41.3L7.2 41.4L7.34 41.5L7.48 41.59L7.64 41.67L7.79 41.75L7.95 41.81L8.12 41.87L8.29 41.92L8.46 41.95L8.64 41.98L8.82 41.99L9 42L39 42L39.18 41.99L39.36 41.98L39.54 41.95L39.71 41.92L39.88 41.87L40.05 41.81L40.21 41.75L40.36 41.67L40.52 41.59L40.66 41.5L40.8 41.4L40.93 41.3L41.06 41.18L41.18 41.06L41.3 40.93L41.4 40.8L41.5 40.66L41.59 40.52L41.67 40.36L41.75 40.21L41.81 40.05L41.87 39.88L41.92 39.71L41.95 39.54L41.98 39.36L41.99 39.18L42 39L42 9L41.9 8.78L41.8 8.57L41.7 8.37L41.6 8.18L41.49 7.99L41.39 7.81L41.28 7.65L41.18 7.49L41.07 7.33L40.96 7.19L40.85 7.05L40.75 6.93L40.63 6.81L40.52 6.7L40.41 6.59L40.3 6.5L40.19 6.41L40.07 6.33L39.96 6.26L39.84 6.2L39.72 6.15L39.6 6.1L39.48 6.07L39.36 6.04L39.24 6.02L39.12 6L39 6L9 6L8.82 6.01Z M24.52 37.41C18.58 37.41 13.77 33.22 13.77 28.05C13.77 22.88 18.58 18.69 24.52 18.69C30.45 18.69 35.26 22.88 35.26 28.05C35.26 33.22 30.45 37.41 24.52 37.41M24.52 34.74C28.76 34.74 32.19 31.74 32.19 28.05C32.19 24.36 28.76 21.36 24.52 21.36C20.28 21.36 16.84 24.36 16.84 28.05C16.84 31.74 20.28 34.74 24.52 34.74M24.52 32.06C21.97 32.06 19.91 30.26 19.91 28.05C19.91 25.83 21.97 24.04 24.52 24.04C27.06 24.04 29.12 25.83 29.12 28.05C29.12 30.26 27.06 32.06 24.52 32.06M36.8 13.34C36.8 13.84 36.64 14.31 36.35 14.71C36.07 15.14 33.84 18.52 33.56 18.94C31.13 17.12 27.97 16.01 24.52 16.01C21.06 16.01 17.9 17.12 15.48 18.94C15.2 18.52 12.96 15.14 12.68 14.71C12.39 14.31 12.24 13.84 12.24 13.34C12.24 11.86 13.61 10.66 15.31 10.66C16.54 10.66 22.68 10.66 33.73 10.66C35.77 11.46 36.8 12.35 36.8 13.34Z" />
    </g>
    <g transform="translate(158, 150)">
        <path id="settings" d="M39.84 0.04L40.26 0.09L40.66 0.15L41.06 0.24L41.46 0.34L41.84 0.46L42.22 0.59L42.6 0.75L42.96 0.91L43.31 1.1L43.66 1.3L43.99 1.51L44.32 1.74L44.63 1.98L44.93 2.23L45.22 2.5L45.5 2.78L45.77 3.07L46.02 3.37L46.26 3.68L46.49 4.01L46.7 4.34L46.9 4.69L47.09 5.04L47.25 5.4L47.41 5.78L47.54 6.16L47.66 6.54L47.76 6.94L47.85 7.34L47.91 7.74L47.96 8.16L47.99 8.58L48 9L48 39L47.99 39.42L47.96 39.84L47.91 40.26L47.85 40.66L47.76 41.06L47.66 41.46L47.54 41.84L47.41 42.22L47.25 42.6L47.09 42.96L46.9 43.31L46.7 43.66L46.49 43.99L46.26 44.32L46.02 44.63L45.77 44.93L45.5 45.22L45.22 45.5L44.93 45.77L44.63 46.02L44.32 46.26L43.99 46.49L43.66 46.7L43.31 46.9L42.96 47.09L42.6 47.25L42.22 47.41L41.84 47.54L41.46 47.66L41.06 47.76L40.66 47.85L40.26 47.91L39.84 47.96L39.42 47.99L39 48L9 48L8.58 47.99L8.16 47.96L7.74 47.91L7.34 47.85L6.94 47.76L6.54 47.66L6.16 47.54L5.78 47.41L5.4 47.25L5.04 47.09L4.69 46.9L4.34 46.7L4.01 46.49L3.68 46.26L3.37 46.02L3.07 45.77L2.78 45.5L2.5 45.22L2.23 44.93L1.98 44.63L1.74 44.32L1.51 43.99L1.3 43.66L1.1 43.31L0.91 42.96L0.75 42.6L0.59 42.22L0.46 41.84L0.34 41.46L0.24 41.06L0.15 40.66L0.09 40.26L0.04 39.84L0.01 39.42L0 39L0 9L0.01 8.58L0.04 8.16L0.09 7.74L0.15 7.34L0.24 6.94L0.34 6.54L0.46 6.16L0.59 5.78L0.75 5.4L0.91 5.04L1.1 4.69L1.3 4.34L1.51 4.01L1.74 3.68L1.98 3.37L2.23 3.07L2.5 2.78L2.78 2.5L3.07 2.23L3.37 1.98L3.68 1.74L4.01 1.51L4.34 1.3L4.69 1.1L5.04 0.91L5.4 0.75L5.78 0.59L6.16 0.46L6.54 0.34L6.94 0.24L7.34 0.15L7.74 0.09L8.16 0.04L8.58 0.01L9 0L39 0L39.42 0.01L39.84 0.04ZM8.82 6.01L8.64 6.02L8.46 6.05L8.29 6.09L8.12 6.13L7.95 6.19L7.79 6.25L7.64 6.33L7.48 6.41L7.34 6.5L7.2 6.6L7.07 6.71L6.94 6.82L6.82 6.94L6.7 7.07L6.6 7.2L6.5 7.34L6.41 7.49L6.33 7.64L6.25 7.79L6.19 7.95L6.13 8.12L6.08 8.29L6.05 8.46L6.02 8.64L6.01 8.82L6 9L6 39L6.01 39.18L6.02 39.36L6.05 39.54L6.08 39.71L6.13 39.88L6.19 40.05L6.25 40.21L6.33 40.36L6.41 40.52L6.5 40.66L6.6 40.8L6.7 40.93L6.82 41.06L6.94 41.18L7.07 41.3L7.2 41.4L7.34 41.5L7.48 41.59L7.64 41.67L7.79 41.75L7.95 41.81L8.12 41.87L8.29 41.92L8.46 41.95L8.64 41.98L8.82 41.99L9 42L39 42L39.18 41.99L39.36 41.98L39.54 41.95L39.71 41.92L39.88 41.87L40.05 41.81L40.21 41.75L40.36 41.67L40.52 41.59L40.66 41.5L40.8 41.4L40.93 41.3L41.06 41.18L41.18 41.06L41.3 40.93L41.4 40.8L41.5 40.66L41.59 40.52L41.67 40.36L41.75 40.21L41.81 40.05L41.87 39.88L41.92 39.71L41.95 39.54L41.98 39.36L41.99 39.18L42 39L42 9L41.9 8.78L41.8 8.57L41.7 8.37L41.6 8.18L41.49 7.99L41.39 7.81L41.28 7.65L41.18 7.49L41.07 7.33L40.96 7.19L40.85 7.05L40.75 6.93L40.63 6.81L40.52 6.7L40.41 6.59L40.3 6.5L40.19 6.41L40.07 6.33L39.96 6.26L39.84 6.2L39.72 6.15L39.6 6.1L39.48 6.07L39.36 6.04L39.24 6.02L39.12 6L39 6L9 6L8.82 6.01Z M39.37 31.6C39.37 32.64 38.54 33.48 37.51 33.48C37.48 33.48 37.2 33.48 37.17 33.48C37.1 33.66 37.03 33.84 36.95 34.01C36.98 34.04 37.17 34.23 37.19 34.25C37.92 34.99 37.92 36.17 37.19 36.91C36.46 37.64 35.29 37.64 34.57 36.91C34.54 36.88 34.35 36.69 34.33 36.67C34.15 36.75 33.98 36.82 33.8 36.88C33.8 36.92 33.8 37.19 33.8 37.23C33.8 38.26 32.97 39.1 31.94 39.1C30.91 39.1 30.08 38.26 30.08 37.23C30.08 37.19 30.08 36.92 30.08 36.88C29.9 36.82 29.72 36.75 29.55 36.67C29.53 36.69 29.34 36.88 29.31 36.91C28.59 37.64 27.41 37.64 26.69 36.91C25.96 36.17 25.96 34.99 26.69 34.25C26.71 34.23 26.9 34.04 26.93 34.01C26.84 33.84 26.78 33.66 26.71 33.48C26.68 33.48 26.4 33.48 26.37 33.48C25.34 33.48 24.51 32.64 24.51 31.6C24.51 30.57 25.34 29.73 26.37 29.73C26.4 29.73 26.68 29.73 26.71 29.73C26.78 29.54 26.84 29.37 26.93 29.19C26.9 29.17 26.71 28.98 26.69 28.95C25.96 28.22 25.96 27.03 26.69 26.3C27.41 25.57 28.59 25.57 29.31 26.3C29.34 26.32 29.53 26.52 29.55 26.54C29.72 26.46 29.9 26.39 30.08 26.32C30.08 26.29 30.08 26.01 30.08 25.98C30.08 24.94 30.91 24.1 31.94 24.1C32.97 24.1 33.8 24.94 33.8 25.98C33.8 26.01 33.8 26.29 33.8 26.32C33.98 26.39 34.15 26.46 34.33 26.54C34.35 26.52 34.54 26.32 34.57 26.3C35.29 25.57 36.46 25.57 37.19 26.3C37.92 27.03 37.92 28.22 37.19 28.95C37.17 28.98 36.98 29.17 36.95 29.19C37.03 29.37 37.1 29.54 37.17 29.73C37.19 29.73 37.3 29.73 37.51 29.73C38.75 30.29 39.37 30.91 39.37 31.6ZM28.23 31.6C28.23 33.67 29.89 35.35 31.94 35.35C33.99 35.35 35.65 33.67 35.65 31.6C35.65 29.53 33.99 27.85 31.94 27.85C29.89 27.85 28.23 29.53 28.23 31.6ZM26.11 20.35C25.93 21.04 25.66 21.67 25.32 22.27C25.34 22.28 25.49 22.44 25.51 22.45C26.23 23.19 26.23 24.37 25.51 25.11C24.78 25.84 23.61 25.84 22.88 25.11C22.86 25.09 22.71 24.94 22.69 24.92C22.11 25.27 21.47 25.54 20.8 25.71C20.8 25.74 20.8 25.95 20.8 25.98C20.8 27.01 19.97 27.85 18.94 27.85C17.92 27.85 17.09 27.01 17.09 25.98C17.09 25.95 17.09 25.74 17.09 25.71C16.41 25.54 15.78 25.27 15.19 24.92C15.17 24.94 15.02 25.09 15 25.11C14.28 25.84 13.1 25.84 12.38 25.11C11.65 24.37 11.65 23.19 12.38 22.45C12.4 22.44 12.55 22.28 12.57 22.27C12.22 21.67 11.95 21.04 11.78 20.35C11.75 20.35 11.54 20.35 11.52 20.35C10.49 20.35 9.66 19.51 9.66 18.48C9.66 17.44 10.49 16.6 11.52 16.6C11.54 16.6 11.75 16.6 11.78 16.6C11.95 15.92 12.22 15.28 12.57 14.69C12.55 14.67 12.4 14.52 12.38 14.5C11.65 13.77 11.65 12.58 12.38 11.85C13.1 11.11 14.28 11.11 15 11.85C15.02 11.87 15.17 12.02 15.19 12.04C15.78 11.69 16.41 11.42 17.09 11.24C17.09 11.22 17.09 11 17.09 10.98C17.09 9.94 17.92 9.1 18.94 9.1C19.97 9.1 20.8 9.94 20.8 10.98C20.8 11 20.8 11.22 20.8 11.24C21.47 11.42 22.11 11.69 22.69 12.04C22.71 12.02 22.86 11.87 22.88 11.85C23.61 11.11 24.78 11.11 25.51 11.85C26.23 12.58 26.23 13.77 25.51 14.5C25.49 14.52 25.34 14.67 25.32 14.69C25.66 15.28 25.93 15.92 26.11 16.6C26.13 16.6 26.34 16.6 26.37 16.6C27.4 16.6 28.23 17.44 28.23 18.48C28.23 19.51 27.4 20.35 26.37 20.35C26.32 20.35 26.13 20.35 26.11 20.35ZM15.23 18.48C15.23 20.55 16.89 22.23 18.94 22.23C20.99 22.23 22.66 20.55 22.66 18.48C22.66 16.41 20.99 14.73 18.94 14.73C16.89 14.73 15.23 16.41 15.23 18.48Z" />
    </g>
    <g transform="translate(210, 150)">
        <path id="about" d="M39.84 0.04L40.26 0.09L40.66 0.15L41.06 0.24L41.46 0.34L41.84 0.46L42.22 0.59L42.6 0.75L42.96 0.91L43.31 1.1L43.66 1.3L43.99 1.51L44.32 1.74L44.63 1.98L44.93 2.23L45.22 2.5L45.5 2.78L45.77 3.07L46.02 3.37L46.26 3.68L46.49 4.01L46.7 4.34L46.9 4.69L47.09 5.04L47.25 5.4L47.41 5.78L47.54 6.16L47.66 6.54L47.76 6.94L47.85 7.34L47.91 7.74L47.96 8.16L47.99 8.58L48 9L48 39L47.99 39.42L47.96 39.84L47.91 40.26L47.85 40.66L47.76 41.06L47.66 41.46L47.54 41.84L47.41 42.22L47.25 42.6L47.09 42.96L46.9 43.31L46.7 43.66L46.49 43.99L46.26 44.32L46.02 44.63L45.77 44.93L45.5 45.22L45.22 45.5L44.93 45.77L44.63 46.02L44.32 46.26L43.99 46.49L43.66 46.7L43.31 46.9L42.96 47.09L42.6 47.25L42.22 47.41L41.84 47.54L41.46 47.66L41.06 47.76L40.66 47.85L40.26 47.91L39.84 47.96L39.42 47.99L39 48L9 48L8.58 47.99L8.16 47.96L7.74 47.91L7.34 47.85L6.94 47.76L6.54 47.66L6.16 47.54L5.78 47.41L5.4 47.25L5.04 47.09L4.69 46.9L4.34 46.7L4.01 46.49L3.68 46.26L3.37 46.02L3.07 45.77L2.78 45.5L2.5 45.22L2.23 44.93L1.98 44.63L1.74 44.32L1.51 43.99L1.3 43.66L1.1 43.31L0.91 42.96L0.75 42.6L0.59 42.22L0.46 41.84L0.34 41.46L0.24 41.06L0.15 40.66L0.09 40.26L0.04 39.84L0.01 39.42L0 39L0 9L0.01 8.58L0.04 8.16L0.09 7.74L0.15 7.34L0.24 6.94L0.34 6.54L0.46 6.16L0.59 5.78L0.75 5.4L0.91 5.04L1.1 4.69L1.3 4.34L1.51 4.01L1.74 3.68L1.98 3.37L2.23 3.07L2.5 2.78L2.78 2.5L3.07 2.23L3.37 1.98L3.68 1.74L4.01 1.51L4.34 1.3L4.69 1.1L5.04 0.91L5.4 0.75L5.78 0.59L6.16 0.46L6.54 0.34L6.94 0.24L7.34 0.15L7.74 0.09L8.16 0.04L8.58 0.01L9 0L39 0L39.42 0.01L39.84 0.04ZM8.82 6.01L8.64 6.02L8.46 6.05L8.29 6.09L8.12 6.13L7.95 6.19L7.79 6.25L7.64 6.33L7.48 6.41L7.34 6.5L7.2 6.6L7.07 6.71L6.94 6.82L6.82 6.94L6.7 7.07L6.6 7.2L6.5 7.34L6.41 7.49L6.33 7.64L6.25 7.79L6.19 7.95L6.13 8.12L6.08 8.29L6.05 8.46L6.02 8.64L6.01 8.82L6 9L6 39L6.01 39.18L6.02 39.36L6.05 39.54L6.08 39.71L6.13 39.88L6.19 40.05L6.25 40.21L6.33 40.36L6.41 40.52L6.5 40.66L6.6 40.8L6.7 40.93L6.82 41.06L6.94 41.18L7.07 41.3L7.2 41.4L7.34 41.5L7.48 41.59L7.64 41.67L7.79 41.75L7.95 41.81L8.12 41.87L8.29 41.92L8.46 41.95L8.64 41.98L8.82 41.99L9 42L39 42L39.18 41.99L39.36 41.98L39.54 41.95L39.71 41.92L39.88 41.87L40.05 41.81L40.21 41.75L40.36 41.67L40.52 41.59L40.66 41.5L40.8 41.4L40.93 41.3L41.06 41.18L41.18 41.06L41.3 40.93L41.4 40.8L41.5 40.66L41.59 40.52L41.67 40.36L41.75 40.21L41.81 40.05L41.87 39.88L41.92 39.71L41.95 39.54L41.98 39.36L41.99 39.18L42 39L42 9L41.9 8.78L41.8 8.57L41.7 8.37L41.6 8.18L41.49 7.99L41.39 7.81L41.28 7.65L41.18 7.49L41.07 7.33L40.96 7.19L40.85 7.05L40.75 6.93L40.63 6.81L40.52 6.7L40.41 6.59L40.3 6.5L40.19 6.41L40.07 6.33L39.96 6.26L39.84 6.2L39.72 6.15L39.6 6.1L39.48 6.07L39.36 6.04L39.24 6.02L39.12 6L39 6L9 6L8.82 6.01Z M14.01 10.75C12.59 10.75 11.46 11.88 11.46 13.3C11.46 14.7 11.46 25.91 11.46 27.31C11.46 28.72 12.59 29.86 14.01 29.86C15.41 29.86 26.62 29.86 28.02 29.86C29.43 29.86 30.57 28.72 30.57 27.31C30.57 27.05 30.57 25.78 30.57 23.49L28.02 23.49L28.02 27.31L14.01 27.31L14.01 13.3L28.02 13.3L28.02 15.85L30.57 15.85C30.57 14.32 30.57 13.47 30.57 13.3C30.57 11.88 29.43 10.75 28.02 10.75M21.65 18.39C20.23 18.39 19.1 19.53 19.1 20.94C19.1 21.2 19.1 22.47 19.1 24.76L21.65 24.76L21.65 20.94L35.66 20.94L35.66 34.95L21.65 34.95L21.65 32.4L19.1 32.4C19.1 33.93 19.1 34.78 19.1 34.95C19.1 36.37 20.23 37.5 21.65 37.5C23.05 37.5 34.26 37.5 35.66 37.5C37.07 37.5 38.21 36.37 38.21 34.95C38.21 33.55 38.21 22.34 38.21 20.94C38.21 19.53 37.07 18.39 35.66 18.39C34.73 18.39 30.06 18.39 21.65 18.39" />
    </g>
    <g transform="translate(262, 150)">
        <path id="calc" d="M39.84 0.04L40.26 0.09L40.66 0.15L41.06 0.24L41.46 0.34L41.84 0.46L42.22 0.59L42.6 0.75L42.96 0.91L43.31 1.1L43.66 1.3L43.99 1.51L44.32 1.74L44.63 1.98L44.93 2.23L45.22 2.5L45.5 2.78L45.77 3.07L46.02 3.37L46.26 3.68L46.49 4.01L46.7 4.34L46.9 4.69L47.09 5.04L47.25 5.4L47.41 5.78L47.54 6.16L47.66 6.54L47.76 6.94L47.85 7.34L47.91 7.74L47.96 8.16L47.99 8.58L48 9L48 39L47.99 39.42L47.96 39.84L47.91 40.26L47.85 40.66L47.76 41.06L47.66 41.46L47.54 41.84L47.41 42.22L47.25 42.6L47.09 42.96L46.9 43.31L46.7 43.66L46.49 43.99L46.26 44.32L46.02 44.63L45.77 44.93L45.5 45.22L45.22 45.5L44.93 45.77L44.63 46.02L44.32 46.26L43.99 46.49L43.66 46.7L43.31 46.9L42.96 47.09L42.6 47.25L42.22 47.41L41.84 47.54L41.46 47.66L41.06 47.76L40.66 47.85L40.26 47.91L39.84 47.96L39.42 47.99L39 48L9 48L8.58 47.99L8.16 47.96L7.74 47.91L7.34 47.85L6.94 47.76L6.54 47.66L6.16 47.54L5.78 47.41L5.4 47.25L5.04 47.09L4.69 46.9L4.34 46.7L4.01 46.49L3.68 46.26L3.37 46.02L3.07 45.77L2.78 45.5L2.5 45.22L2.23 44.93L1.98 44.63L1.74 44.32L1.51 43.99L1.3 43.66L1.1 43.31L0.91 42.96L0.75 42.6L0.59 42.22L0.46 41.84L0.34 41.46L0.24 41.06L0.15 40.66L0.09 40.26L0.04 39.84L0.01 39.42L0 39L0 9L0.01 8.58L0.04 8.16L0.09 7.74L0.15 7.34L0.24 6.94L0.34 6.54L0.46 6.16L0.59 5.78L0.75 5.4L0.91 5.04L1.1 4.69L1.3 4.34L1.51 4.01L1.74 3.68L1.98 3.37L2.23 3.07L2.5 2.78L2.78 2.5L3.07 2.23L3.37 1.98L3.68 1.74L4.01 1.51L4.34 1.3L4.69 1.1L5.04 0.91L5.4 0.75L5.78 0.59L6.16 0.46L6.54 0.34L6.94 0.24L7.34 0.15L7.74 0.09L8.16 0.04L8.58 0.01L9 0L39 0L39.42 0.01L39.84 0.04ZM8.82 6.01L8.64 6.02L8.46 6.05L8.29 6.09L8.12 6.13L7.95 6.19L7.79 6.25L7.64 6.33L7.48 6.41L7.34 6.5L7.2 6.6L7.07 6.71L6.94 6.82L6.82 6.94L6.7 7.07L6.6 7.2L6.5 7.34L6.41 7.49L6.33 7.64L6.25 7.79L6.19 7.95L6.13 8.12L6.08 8.29L6.05 8.46L6.02 8.64L6.01 8.82L6 9L6 39L6.01 39.18L6.02 39.36L6.05 39.54L6.08 39.71L6.13 39.88L6.19 40.05L6.25 40.21L6.33 40.36L6.41 40.52L6.5 40.66L6.6 40.8L6.7 40.93L6.82 41.06L6.94 41.18L7.07 41.3L7.2 41.4L7.34 41.5L7.48 41.59L7.64 41.67L7.79 41.75L7.95 41.81L8.12 41.87L8.29 41.92L8.46 41.95L8.64 41.98L8.82 41.99L9 42L39 42L39.18 41.99L39.36 41.98L39.54 41.95L39.71 41.92L39.88 41.87L40.05 41.81L40.21 41.75L40.36 41.67L40.52 41.59L40.66 41.5L40.8 41.4L40.93 41.3L41.06 41.18L41.18 41.06L41.3 40.93L41.4 40.8L41.5 40.66L41.59 40.52L41.67 40.36L41.75 40.21L41.81 40.05L41.87 39.88L41.92 39.71L41.95 39.54L41.98 39.36L41.99 39.18L42 39L42 9L41.9 8.78L41.8 8.57L41.7 8.37L41.6 8.18L41.49 7.99L41.39 7.81L41.28 7.65L41.18 7.49L41.07 7.33L40.96 7.19L40.85 7.05L40.75 6.93L40.63 6.81L40.52 6.7L40.41 6.59L40.3 6.5L40.19 6.41L40.07 6.33L39.96 6.26L39.84 6.2L39.72 6.15L39.6 6.1L39.48 6.07L39.36 6.04L39.24 6.02L39.12 6L39 6L9 6L8.82 6.01Z M38.66 19.76C38.66 15.41 38.66 12.99 38.66 12.51C38.66 10.91 37.37 9.61 35.76 9.61C35.04 9.61 29.24 9.61 28.51 9.61C26.91 9.6 25.61 10.9 25.61 12.5C25.61 13.23 25.61 19.03 25.61 19.75C25.61 21.36 26.91 22.65 28.51 22.66C29.23 22.66 35.03 22.66 35.76 22.66C37.36 22.66 38.66 21.36 38.66 19.76M31.41 19.76L31.41 12.51L32.86 12.51L32.86 19.76L31.41 19.76M22.7 35.7C22.71 31.35 22.71 28.94 22.71 28.45C22.71 26.85 21.41 25.55 19.81 25.55C19.08 25.55 13.28 25.55 12.56 25.55C10.96 25.55 9.66 26.85 9.66 28.45C9.66 29.17 9.65 34.97 9.65 35.7C9.65 37.3 10.95 38.6 12.55 38.6C13.28 38.6 19.08 38.6 19.8 38.6C21.4 38.6 22.7 37.3 22.7 35.7M14 35.7L14.01 28.45L15.46 28.45L15.45 35.7L14 35.7M16.9 35.7L16.91 28.45L18.36 28.45L18.35 35.7L16.9 35.7M38.65 35.71C38.66 31.36 38.66 28.94 38.66 28.46C38.66 26.86 37.36 25.56 35.76 25.56C35.03 25.56 29.23 25.56 28.51 25.56C26.91 25.55 25.61 26.85 25.61 28.45C25.61 29.18 25.6 34.98 25.6 35.7C25.6 37.31 26.9 38.6 28.5 38.61C29.23 38.61 35.03 38.61 35.75 38.61C37.35 38.61 38.65 37.31 38.65 35.71M31.4 35.71L31.41 32.81L28.51 32.81L28.51 31.36L31.41 31.36L31.41 28.46L32.86 28.46L32.86 31.36L35.76 31.36L35.76 32.81L32.86 32.81L32.85 35.71L31.4 35.71M22.71 19.75C22.71 15.4 22.71 12.99 22.71 12.5C22.71 10.9 21.42 9.6 19.81 9.6C19.09 9.6 13.29 9.6 12.56 9.6C10.96 9.6 9.66 10.9 9.66 12.5C9.66 13.22 9.66 19.02 9.66 19.75C9.66 21.35 10.96 22.65 12.56 22.65C13.28 22.65 19.08 22.65 19.81 22.65C21.41 22.65 22.71 21.35 22.71 19.75M13.11 18.17L15.16 16.13L13.11 14.08L14.14 13.05L16.19 15.1L18.23 13.05L19.26 14.08L17.22 16.13L19.26 18.17L18.23 19.2L16.19 17.16L14.14 19.2L13.11 18.17Z" />
    </g>
</svg>
